<?xml version="1.0" encoding="UTF-8"?>
<svg version="1.1" xmlns="http://www.w3.org/2000/svg" width="1200" height="675">
<path d="M0 0 C396 0 792 0 1200 0 C1200 222.75 1200 445.5 1200 675 C804 675 408 675 0 675 C0 452.25 0 229.5 0 0 Z " fill="#FEFEFE" transform="translate(0,0)"/>
<path d="M0 0 C0.81339844 0.71800781 1.62679687 1.43601563 2.46484375 2.17578125 C5.39107792 4.28140738 6.82463689 4.43241352 10.375 4.4375 C16.13309481 4.76386975 18.75507784 6.11634781 23 10 C25.58863338 14.20435758 25.55127328 18.19358606 25 23 C23.0098036 27.71362305 19.55654346 30.72172827 15 33 C10.88440369 33.42045385 7.15578917 33.42028697 3.25 32 C-0.0074694 29.10447164 -2.37256761 26.06858096 -4 22 C-3.9609375 19.72265625 -3.9609375 19.72265625 -3.6875 17.4375 C-3.47711012 15.16365997 -3.47711012 15.16365997 -4 13 C-6.84366184 9.87858514 -10.33139521 8.03107713 -14 6 C-15.17067297 5.32178725 -16.34124191 4.64339492 -17.51171875 3.96484375 C-41.78635659 -9.79806632 -69.86173688 -14.19740388 -97 -7 C-98.07121094 -6.73316406 -99.14242187 -6.46632812 -100.24609375 -6.19140625 C-115.02172345 -2.12223038 -127.3232391 5.27211858 -139 15 C-140.01126953 15.78310547 -140.01126953 15.78310547 -141.04296875 16.58203125 C-159.7840739 31.46341223 -171.28354366 56.02760261 -174.1875 79.375 C-177.37978445 108.16883622 -170.32429038 135.66033101 -153 159 C-135.13281888 180.58951052 -110.39814677 195.02392599 -82.28344727 197.82128906 C-55.35236088 199.92901442 -28.18002448 193.9646026 -6.625 177 C-5.07581552 175.67540899 -3.53378415 174.34239341 -2 173 C-1.26652344 172.42121094 -0.53304687 171.84242188 0.22265625 171.24609375 C19.98840265 155.10581053 30.94091607 128.75275927 34 104 C34.89813943 92.5133742 34.45583161 81.37677167 31.65625 70.19140625 C30.93443707 66.68116124 30.75680817 63.57405137 31 60 C33 58 33 58 35.9375 57.75 C39 58 39 58 42 60 C52.65753315 83.77814063 47.03794834 113.78967536 38.84375 137.3203125 C33.88744976 149.87850567 27.1550683 160.42126573 18.22265625 170.453125 C16.00691239 172.77687569 16.00691239 172.77687569 15 175 C14.34 175 13.68 175 13 175 C12.77957031 175.56203125 12.55914063 176.1240625 12.33203125 176.703125 C3.44927709 192.02001487 -22.50848308 202.92082102 -38.81640625 207.421875 C-42.85596588 208.43219373 -46.89997702 209.2726464 -51 210 C-52.05445313 210.18820312 -53.10890625 210.37640625 -54.1953125 210.5703125 C-86.0866374 214.17200217 -116.26753083 206.86385592 -141.875 187.4375 C-164.10713854 168.94094102 -182.9914691 142.99231967 -186.78173828 113.53613281 C-188.20441662 97.00505605 -188.56899754 78.37958601 -183.9375 62.3125 C-183.72198486 61.55630371 -183.50646973 60.80010742 -183.28442383 60.02099609 C-176.83532285 38.53588194 -163.7374607 17.90852546 -146 4 C-145.17757812 3.31808594 -144.35515625 2.63617188 -143.5078125 1.93359375 C-101.14117318 -31.80715086 -43.52271994 -30.61899895 0 0 Z " fill="#17304D" transform="translate(670,160)"/>
<path d="M0 0 C9.9 0 19.8 0 30 0 C30.87140625 2.31128906 31.7428125 4.62257812 32.640625 7.00390625 C38.41753698 22.31410679 44.20988424 37.61758114 50.125 52.875 C50.36421173 53.49295441 50.60342346 54.11090881 50.84988403 54.74758911 C53.38869189 61.30606024 55.94083858 67.8589361 58.52313232 74.40042114 C59.64554177 77.24639073 60.76235608 80.09453998 61.87860107 82.94293213 C62.41081604 84.29637973 62.94577695 85.64875131 63.48370361 86.99993896 C64.22901821 88.87226296 64.96431316 90.74856594 65.69921875 92.625 C66.12033936 93.68976563 66.54145996 94.75453125 66.9753418 95.8515625 C68 99 68 99 69 106 C60.75 106 52.5 106 44 106 C38.8138427 93.20747866 34.34021651 80.26712493 30.0847168 67.14282227 C27.46140209 59.09950003 24.58795485 51.23468654 21.35327148 43.41577148 C16 29.90366228 16 29.90366228 16 24 C15.34 24 14.68 24 14 24 C13.86464844 24.57363281 13.72929688 25.14726562 13.58984375 25.73828125 C11.3394202 34.61869516 8.09060072 43.08613552 4.87548828 51.64941406 C2.85399758 57.07688548 0.9367559 62.54186975 -1 68 C7.25 68 15.5 68 24 68 C24.99 70.5575 25.98 73.115 27 75.75 C27.31324219 76.54889648 27.62648438 77.34779297 27.94921875 78.17089844 C28.19285156 78.8105957 28.43648437 79.45029297 28.6875 80.109375 C28.93886719 80.75874023 29.19023438 81.40810547 29.44921875 82.07714844 C30 84 30 84 30 88 C17.46 88 4.92 88 -8 88 C-8.99 91.3 -9.98 94.6 -11 98 C-11.99 100.64 -12.98 103.28 -14 106 C-22.58 106 -31.16 106 -40 106 C-38.09163585 99.63878616 -36.16846042 93.56850623 -33.71484375 87.44140625 C-33.09284938 85.86503704 -32.47161046 84.28836956 -31.85107422 82.71142578 C-31.54063171 81.92423157 -31.23018921 81.13703735 -30.91033936 80.32598877 C-29.51430834 76.75901955 -28.16288431 73.17575542 -26.81640625 69.58984375 C-26.55444458 68.89345291 -26.29248291 68.19706207 -26.02258301 67.47956848 C-25.48178356 66.04181212 -24.94115695 64.60399074 -24.4006958 63.16610718 C-16.45410853 42.03760545 -8.24299572 21.0142865 0 0 Z " fill="#142E4B" transform="translate(585,194)"/>
<path d="M0 0 C3.2357824 2.08528199 4.78275353 3.52217414 6.8125 6.8125 C7.39638719 10.13705182 7.37136537 13.38241033 7.3125 16.75 C7.32796875 17.63107422 7.3434375 18.51214844 7.359375 19.41992188 C7.32573947 25.03285064 6.60512853 28.40391538 2.8125 32.8125 C-1.95596442 36.06372574 -5.60226332 36.26292231 -11.1875 35.8125 C-13.6875 34.8125 -13.6875 34.8125 -15.1875 33.8125 C-15.1875 33.1525 -15.1875 32.4925 -15.1875 31.8125 C-15.8475 31.8125 -16.5075 31.8125 -17.1875 31.8125 C-17.1875 37.7525 -17.1875 43.6925 -17.1875 49.8125 C-19.1675 49.8125 -21.1475 49.8125 -23.1875 49.8125 C-23.1875 33.3125 -23.1875 16.8125 -23.1875 -0.1875 C-21.2075 -0.1875 -19.2275 -0.1875 -17.1875 -0.1875 C-17.1875 0.8025 -17.1875 1.7925 -17.1875 2.8125 C-16.176875 2.1525 -15.16625 1.4925 -14.125 0.8125 C-9.2119506 -1.97090097 -5.30340598 -1.9757787 0 0 Z " fill="#1E344F" transform="translate(575.1875,437.1875)"/>
<path d="M0 0 C3.16383649 1.81235515 5.49002861 3.7520254 7.12890625 7.1171875 C8.83796609 13.50197709 8.91228239 21.32342262 6.5625 27.5625 C4.30672703 31.14062265 2.02113264 33.72508155 -2.10546875 35.01953125 C-7.53921747 36.07856789 -12.53185868 36.20111836 -17.625 33.9375 C-23.1582904 28.66769962 -24.50665958 24.00777798 -24.75 16.375 C-24.54723406 10.45043261 -24.16332444 6.9378231 -20.25 2.4375 C-13.85795593 -2.27168291 -7.27693862 -3.11291263 0 0 Z " fill="#1D3550" transform="translate(613.25,437.5625)"/>
<path d="M0 0 C3.19010589 2.50651177 5.46145034 5.38385259 6.23925781 9.44384766 C6.39606294 11.63052049 6.40559272 13.76944739 6.359375 15.9609375 C6.37484375 16.69441406 6.3903125 17.42789062 6.40625 18.18359375 C6.36907706 23.37851147 5.22177819 26.32211346 1.859375 30.4609375 C-2.6707267 34.44193597 -6.80596001 34.75674776 -12.63671875 34.671875 C-16.12770008 34.37778297 -18.29202026 33.49565517 -21.140625 31.4609375 C-25.40877849 26.38465936 -25.81532006 22.37943582 -25.765625 16.0234375 C-25.81396484 14.79270508 -25.81396484 14.79270508 -25.86328125 13.53710938 C-25.87235731 7.85095535 -24.59480318 4.90109952 -20.66308594 0.79638672 C-14.47710802 -4.62973567 -6.82103475 -3.297773 0 0 Z " fill="#1C334F" transform="translate(686.140625,438.5390625)"/>
<path d="M0 0 C1.4540625 0.0309375 1.4540625 0.0309375 2.9375 0.0625 C5.62232779 5.96147784 8.10204861 11.90174651 10.390625 17.96484375 C10.69570984 18.76861954 11.00079468 19.57239532 11.31512451 20.40052795 C11.95161475 22.07975988 12.58679654 23.75948831 13.22070312 25.43969727 C14.19483502 28.01942485 15.17531679 30.59668016 16.15625 33.17382812 C16.7764231 34.81235568 17.39622833 36.45102253 18.015625 38.08984375 C18.30930969 38.86061752 18.60299438 39.6313913 18.90557861 40.42552185 C20.9375 45.83299656 20.9375 45.83299656 20.9375 48.0625 C18.6275 48.0625 16.3175 48.0625 13.9375 48.0625 C11.4625 41.6275 11.4625 41.6275 8.9375 35.0625 C2.9975 35.0625 -2.9425 35.0625 -9.0625 35.0625 C-10.3825 39.3525 -11.7025 43.6425 -13.0625 48.0625 C-15.3725 48.0625 -17.6825 48.0625 -20.0625 48.0625 C-18.82632819 41.78314052 -17.08304474 35.89490951 -14.83984375 29.90625 C-14.53430069 29.07790649 -14.22875763 28.24956299 -13.91395569 27.39611816 C-13.27375784 25.66410091 -12.63077646 23.93311013 -11.98510742 22.203125 C-10.99313597 19.54410067 -10.01056576 16.88174022 -9.02929688 14.21875 C-8.40418802 12.53104908 -7.7785561 10.84354179 -7.15234375 9.15625 C-6.71014748 7.95953674 -6.71014748 7.95953674 -6.25901794 6.73864746 C-3.76644333 0.07686619 -3.76644333 0.07686619 0 0 Z " fill="#293F58" transform="translate(525.0625,424.9375)"/>
<path d="M0 0 C3.0216321 0.73251687 4.80104733 2.27158096 6.93359375 4.46875 C9.15853539 8.91863327 8.43134518 14.63763317 7.93359375 19.46875 C6.7258717 22.77378449 5.94773183 23.31579423 2.93359375 25.46875 C-0.21904905 26.16996059 -2.91460874 26.17569524 -6.06640625 25.46875 C-8.56801443 23.59254387 -9.68586277 22.22983697 -11.06640625 19.46875 C-12.26169367 7.10606301 -12.26169367 7.10606301 -9.06640625 2.65625 C-5.71975767 0.21598541 -4.04249506 -0.3056707 0 0 Z " fill="#F7F9F9" transform="translate(678.06640625,441.53125)"/>
<path d="M0 0 C0.639375 -0.01289063 1.27875 -0.02578125 1.9375 -0.0390625 C5.3145866 1.04825705 6.83832848 2.85835557 9 5.625 C9.6640625 9.21875 9.6640625 9.21875 9.625 13.125 C9.63789062 14.4140625 9.65078125 15.703125 9.6640625 17.03125 C8.845818 21.45939672 7.56281152 22.93895433 4 25.625 C1.68359375 26.2890625 1.68359375 26.2890625 -0.5625 26.25 C-1.30628906 26.26289063 -2.05007813 26.27578125 -2.81640625 26.2890625 C-6.18251701 25.26537944 -7.21168856 23.60551907 -9 20.625 C-9.56640625 17.03125 -9.56640625 17.03125 -9.5625 13.125 C-9.58441406 11.8359375 -9.60632813 10.546875 -9.62890625 9.21875 C-8.71856907 4.01682325 -5.66637128 -0.11424136 0 0 Z " fill="#F9FAFB" transform="translate(605,441.375)"/>
<path d="M0 0 C3.53529554 2.6950224 4.85436317 4.16778954 5.62890625 8.59375 C5.60699219 9.8828125 5.58507812 11.171875 5.5625 12.5 C5.56443359 14.43359375 5.56443359 14.43359375 5.56640625 16.40625 C4.92125241 20.4996399 4.02820274 22.2039243 1 25 C-3.37673297 26.33102792 -7.10022025 25.47743415 -11.0625 23.375 C-14.16435946 17.97176094 -14.01953724 12.0750357 -13 6 C-9.28809608 0.4131671 -6.70558569 -0.68192397 0 0 Z " fill="#F6F7F8" transform="translate(571,442)"/>
<path d="M0 0 C-0.60977065 6.70747711 -2.78815 12.64984999 -5 19 C-0.71 19.33 3.58 19.66 8 20 C7.505 17.525 7.505 17.525 7 15 C8.4375 13.1875 8.4375 13.1875 10 12 C10.73080266 13.97746603 11.39421747 15.98072489 12 18 C11.67 18.66 11.34 19.32 11 20 C11.32380126 21.33568021 11.65657551 22.66923011 12 24 C11 25 11 25 9.14233398 25.11352539 C8.35157471 25.10828857 7.56081543 25.10305176 6.74609375 25.09765625 C5.89208984 25.09443359 5.03808594 25.09121094 4.15820312 25.08789062 C2.81145508 25.07532227 2.81145508 25.07532227 1.4375 25.0625 C0.53580078 25.05798828 -0.36589844 25.05347656 -1.29492188 25.04882812 C-3.53001314 25.03700225 -5.76497437 25.0205222 -8 25 C-8.48212214 26.56159059 -8.96055873 28.12431928 -9.4375 29.6875 C-9.70433594 30.55761719 -9.97117187 31.42773438 -10.24609375 32.32421875 C-10.96344529 34.87025921 -11.517541 37.4003423 -12 40 C-14.31 40 -16.62 40 -19 40 C-17.5542857 32.51999992 -15.19662411 25.61633071 -12.5 18.5 C-12.09652344 17.40429688 -11.69304688 16.30859375 -11.27734375 15.1796875 C-10.88675781 14.14070313 -10.49617187 13.10171875 -10.09375 12.03125 C-9.73990234 11.08830078 -9.38605469 10.14535156 -9.02148438 9.17382812 C-8 7 -8 7 -6 6 C-5.67 5.175 -5.34 4.35 -5 3.5 C-3.80372977 0.50932442 -3.19881326 0 0 0 Z " fill="#1A324E" transform="translate(524,433)"/>
<path d="M0 0 C2.31 0 4.62 0 7 0 C7 16.5 7 33 7 50 C4.69 50 2.38 50 0 50 C0 33.5 0 17 0 0 Z " fill="#2A415A" transform="translate(629,423)"/>
<path d="M0 0 C1.98 0 3.96 0 6 0 C6 16.5 6 33 6 50 C4.02 50 2.04 50 0 50 C0 33.5 0 17 0 0 Z " fill="#152D47" transform="translate(646,423)"/>
<path d="M0 0 C8.58 0 17.16 0 26 0 C25.01 0.495 25.01 0.495 24 1 C24.48484276 5.64586892 24.48484276 5.64586892 26 10 C23.55957216 11.22021392 21.96389134 11.12926518 19.23828125 11.1328125 C18.28373047 11.13410156 17.32917969 11.13539063 16.34570312 11.13671875 C15.34474609 11.13285156 14.34378906 11.12898438 13.3125 11.125 C11.84006836 11.13080078 11.84006836 11.13080078 10.33789062 11.13671875 C5.1169669 11.1297155 0.14361845 10.90642787 -5 10 C-5 9.67 -5 9.34 -5 9 C-3.35 9 -1.7 9 0 9 C-0.20625 8.401875 -0.4125 7.80375 -0.625 7.1875 C-1 5 -1 5 1 2 C0.67 1.34 0.34 0.68 0 0 Z " fill="#122C49" transform="translate(585,359)"/>
<path d="M0 0 C0.33 0 0.66 0 1 0 C0.98952637 0.55461914 0.97905273 1.10923828 0.96826172 1.68066406 C0.92657996 4.20372959 0.90063562 6.72672253 0.875 9.25 C0.85824219 10.12269531 0.84148438 10.99539063 0.82421875 11.89453125 C0.81777344 12.73886719 0.81132813 13.58320313 0.8046875 14.453125 C0.79421387 15.22817383 0.78374023 16.00322266 0.77294922 16.80175781 C1.03128585 19.30290084 1.67199994 20.8740426 3 23 C5.0335948 24.26804566 5.0335948 24.26804566 7 25 C7 25.99 7 26.98 7 28 C2.25 27.125 2.25 27.125 0 26 C0 31.94 0 37.88 0 44 C-1.98 44 -3.96 44 -6 44 C-5.67 29.81 -5.34 15.62 -5 1 C-4.01 1.99 -3.02 2.98 -2 4 C-1.34 2.68 -0.68 1.36 0 0 Z " fill="#122C49" transform="translate(558,443)"/>
<path d="M0 0 C0.99 0.99 1.98 1.98 3 3 C0.79768833 4.79447617 -1.00706686 6.00262953 -3.6875 7 C-4.450625 7.33 -5.21375 7.66 -6 8 C-6.33 8.99 -6.66 9.98 -7 11 C-8.4375 12.6875 -8.4375 12.6875 -10 14 C-10.66 14 -11.32 14 -12 14 C-12.33 14.99 -12.66 15.98 -13 17 C-13.66 17 -14.32 17 -15 17 C-14.938125 18.423125 -14.938125 18.423125 -14.875 19.875 C-15 23 -15 23 -17 25 C-17.99 25 -18.98 25 -20 25 C-20 23.35 -20 21.7 -20 20 C-19.34 20 -18.68 20 -18 20 C-17.67 18.68 -17.34 17.36 -17 16 C-17.99 16.33 -18.98 16.66 -20 17 C-20.33 16.01 -20.66 15.02 -21 14 C-19.671875 11.625 -19.671875 11.625 -17.75 9 C-17.12609375 8.13375 -16.5021875 7.2675 -15.859375 6.375 C-12.79046574 2.45504867 -12.79046574 2.45504867 -11 1 C-7.14353614 0.7195299 -3.69483919 0.81765146 0 2 C0 1.34 0 0.68 0 0 Z " fill="#102A48" transform="translate(533,165)"/>
<path d="M0 0 C0.66 0.33 1.32 0.66 2 1 C2.2734375 3.29296875 2.2734375 3.29296875 2.375 6.1875 C2.74670192 11.3845687 3.59616836 14.0804363 7 18 C9.39206808 19.19603404 10.84275295 19.0690194 13.5 19 C17.77777778 18.88888889 17.77777778 18.88888889 20 20 C20 21.32 20 22.64 20 24 C14.0238069 25.69371371 8.19968335 26.07984455 2.5625 23.3125 C-1.27417792 19.85013212 -2.88590904 17.46797031 -3.29296875 12.23046875 C-3.27324235 10.88249835 -3.23777741 9.53467687 -3.1875 8.1875 C-3.16719727 7.14819336 -3.16719727 7.14819336 -3.14648438 6.08789062 C-3.11138845 4.39158735 -3.05758943 2.69568864 -3 1 C-2.01 0.67 -1.02 0.34 0 0 Z " fill="#19314D" transform="translate(593,448)"/>
<path d="M0 0 C-0.33 0.66 -0.66 1.32 -1 2 C-1.99 2 -2.98 2 -4 2 C-4 2.66 -4 3.32 -4 4 C-3.01 4.33 -2.02 4.66 -1 5 C-1 5.66 -1 6.32 -1 7 C-1.66 7 -2.32 7 -3 7 C-3.33 8.32 -3.66 9.64 -4 11 C-2.35 11 -0.7 11 1 11 C-5.70842537 15.47228358 -14.79368264 14.14999351 -22.5625 14.125 C-24.37137695 14.13080078 -24.37137695 14.13080078 -26.21679688 14.13671875 C-27.96766602 14.13478516 -27.96766602 14.13478516 -29.75390625 14.1328125 C-30.80908447 14.13168457 -31.8642627 14.13055664 -32.95141602 14.12939453 C-36.04129105 13.99824744 -38.96343437 13.57214362 -42 13 C-42 12.67 -42 12.34 -42 12 C-32.1 12 -22.2 12 -12 12 C-12 8.37 -12 4.74 -12 1 C-7.95858806 0.36605303 -4.0934693 -0.12404452 0 0 Z " fill="#2F465E" transform="translate(621,357)"/>
<path d="M0 0 C0.66 0 1.32 0 2 0 C3.00380916 2.79035046 4.0031945 5.58214855 5 8.375 C5.28617188 9.1690625 5.57234375 9.963125 5.8671875 10.78125 C6.13789062 11.54179687 6.40859375 12.30234375 6.6875 13.0859375 C6.93886719 13.7876709 7.19023438 14.4894043 7.44921875 15.21240234 C8 17 8 17 8 19 C3.38 19 -1.24 19 -6 19 C-4.02 12.73 -2.04 6.46 0 0 Z " fill="#F4F6F7" transform="translate(524,434)"/>
<path d="M0 0 C0.33 0 0.66 0 1 0 C1.33 3.63 1.66 7.26 2 11 C1.34 11 0.68 11 0 11 C0.36867188 11.52078125 0.73734375 12.0415625 1.1171875 12.578125 C2.40511133 16.11136737 1.31774118 18.2419377 0.125 21.75 C-0.26429688 22.92046875 -0.65359375 24.0909375 -1.0546875 25.296875 C-1.36664062 26.18890625 -1.67859375 27.0809375 -2 28 C-4.31 28 -6.62 28 -9 28 C-7.67554915 21.37105659 -5.78331885 15.24709958 -3.375 8.9375 C-2.88773437 7.6390918 -2.88773437 7.6390918 -2.390625 6.31445312 C-1.59908318 4.20755504 -0.80216278 2.10287198 0 0 Z " fill="#273C57" transform="translate(514,445)"/>
<path d="M0 0 C2 1 2 1 3.875 3.375 C5.79864295 5.75126482 7.54142435 7.24093541 10 9 C9.34773437 9.51949219 8.69546875 10.03898438 8.0234375 10.57421875 C6.21537406 12.01693604 4.40947613 13.46237036 2.60546875 14.91015625 C1.13371142 16.09065126 -0.34078191 17.26780934 -1.82421875 18.43359375 C-5.40902972 21.30332432 -8.11834522 24.45968127 -11 28 C-11.33 28 -11.66 28 -12 28 C-12.36625971 23.48279689 -12.36625971 23.48279689 -10.625 21.1875 C-9 20 -9 20 -7 20 C-6.67 19.01 -6.34 18.02 -6 17 C-3.75127164 15.03957015 -1.67191034 13.33595517 1 12 C0.67 11.34 0.34 10.68 0 10 C1.65 9.34 3.3 8.68 5 8 C4.34 8 3.68 8 3 8 C1.2907434 7.84308464 -0.41751321 7.67512685 -2.125 7.5 C-3.03507813 7.4071875 -3.94515625 7.314375 -4.8828125 7.21875 C-5.58148437 7.1465625 -6.28015625 7.074375 -7 7 C-4.66666667 4.66666667 -2.33333333 2.33333333 0 0 Z " fill="#19324E" transform="translate(530,159)"/>
<path d="M0 0 C0.33 0 0.66 0 1 0 C1.61838617 16.51320115 1.61838617 16.51320115 -3.5625 22.9375 C-5 24 -5 24 -7 24 C-7 23.01 -7 22.02 -7 21 C-10.63 21 -14.26 21 -18 21 C-18 20.67 -18 20.34 -18 20 C-17.37351562 19.89042969 -16.74703125 19.78085937 -16.1015625 19.66796875 C-15.28429687 19.50941406 -14.46703125 19.35085938 -13.625 19.1875 C-12.81289063 19.03667969 -12.00078125 18.88585937 -11.1640625 18.73046875 C-8.64179359 18.12455058 -8.64179359 18.12455058 -7 15 C-6.5396236 11.80193335 -6.5396236 11.80193335 -6.375 8.3125 C-6.30023437 7.13300781 -6.22546875 5.95351563 -6.1484375 4.73828125 C-6.09945312 3.83464844 -6.05046875 2.93101562 -6 2 C-5.67 2 -5.34 2 -5 2 C-4.67 3.65 -4.34 5.3 -4 7 C-2.68 6.34 -1.36 5.68 0 5 C0 3.35 0 1.7 0 0 Z " fill="#2F465F" transform="translate(620,447)"/>
<path d="M0 0 C0 0.66 0 1.32 0 2 C1.32 2 2.64 2 4 2 C3.34 3.65 2.68 5.3 2 7 C3.65 6.67 5.3 6.34 7 6 C7.33 5.01 7.66 4.02 8 3 C8.66 4.32 9.32 5.64 10 7 C8.02 7.99 8.02 7.99 6 9 C6 9.66 6 10.32 6 11 C4.35 11 2.7 11 1 11 C1 10.01 1 9.02 1 8 C-1.76276177 8.52268466 -4.3260876 9.10869587 -7 10 C-7 9.01 -7 8.02 -7 7 C-5.68 6.67 -4.36 6.34 -3 6 C-4.32 5.67 -5.64 5.34 -7 5 C-6.67 4.34 -6.34 3.68 -6 3 C-6.33 2.67 -6.66 2.34 -7 2 C-7 1.34 -7 0.68 -7 0 C-3.86650268 -1.04449911 -3.01031744 -0.93423645 0 0 Z " fill="#0E2A47" transform="translate(632,142)"/>
<path d="M0 0 C1.86928417 3.21425692 2.35379516 5.87110079 2.625 9.5625 C2.69976563 10.51253906 2.77453125 11.46257812 2.8515625 12.44140625 C2.97881627 14.63485937 3 16.80320192 3 19 C1.35 19 -0.3 19 -2 19 C-3.53266582 15.93466836 -3.10276471 12.73245728 -3.0625 9.375 C-3.05798828 8.66859375 -3.05347656 7.9621875 -3.04882812 7.234375 C-3.03703875 5.48954725 -3.01910324 3.744763 -3 2 C-2.34 2 -1.68 2 -1 2 C-0.67 1.34 -0.34 0.68 0 0 Z " fill="#0E2A48" transform="translate(664,447)"/>
<path d="M0 0 C0.66 0.33 1.32 0.66 2 1 C2.31241371 3.54941373 2.51303421 6.00361513 2.625 8.5625 C2.66367187 9.27341797 2.70234375 9.98433594 2.7421875 10.71679688 C2.83671783 12.47742425 2.91945817 14.23867728 3 16 C1.35 16.66 -0.3 17.32 -2 18 C-3.53266582 14.93466836 -3.10276471 11.73245728 -3.0625 8.375 C-3.05798828 7.66859375 -3.05347656 6.9621875 -3.04882812 6.234375 C-3.03703875 4.48954725 -3.01910324 2.744763 -3 1 C-2.01 0.67 -1.02 0.34 0 0 Z " fill="#122C48" transform="translate(593,448)"/>
<path d="M0 0 C6.625 -0.125 6.625 -0.125 10 1 C10 1.66 10 2.32 10 3 C10.804375 3.2475 11.60875 3.495 12.4375 3.75 C15 5 15 5 15.8125 7.125 C15.874375 7.74375 15.93625 8.3625 16 9 C13.8125 9.8125 13.8125 9.8125 11 10 C9.28891311 8.37897032 7.62746694 6.70496537 6 5 C3.7099039 3.77128456 1.4444925 2.91069329 -1 2 C-0.67 1.34 -0.34 0.68 0 0 Z " fill="#132C4A" transform="translate(564,437)"/>
<path d="M0 0 C6.30399313 -0.45028522 10.71378634 0.38797371 16 4 C16.33 4.66 16.66 5.32 17 6 C16.34 6 15.68 6 15 6 C14.34 7.32 13.68 8.64 13 10 C12.29875 9.525625 11.5975 9.05125 10.875 8.5625 C7.83918663 6.91260143 5.40831214 6.39631536 2 6 C2.99 5.34 3.98 4.68 5 4 C3.74458443 1.48916886 2.49936512 1.12874554 0 0 Z " fill="#1B324E" transform="translate(672,436)"/>
<path d="M0 0 C5.2518167 -0.315109 8.54814877 0.1310292 13 3 C15.94675381 5.86920766 16.93789433 7.17709988 17.25 11.3125 C17.1675 12.199375 17.085 13.08625 17 14 C15.35 14.33 13.7 14.66 12 15 C12 17.97 12 20.94 12 24 C11.67 24 11.34 24 11 24 C10.91921359 21.87561661 10.86090859 19.7503677 10.8125 17.625 C10.76029297 15.84996094 10.76029297 15.84996094 10.70703125 14.0390625 C10.80371094 13.03617187 10.90039062 12.03328125 11 11 C11.99 10.34 12.98 9.68 14 9 C13.33131686 5.88667752 13.33131686 5.88667752 10.9375 4.8125 C10.298125 4.544375 9.65875 4.27625 9 4 C9 3.34 9 2.68 9 2 C6.03 1.67 3.06 1.34 0 1 C0 0.67 0 0.34 0 0 Z " fill="#273D56" transform="translate(565,436)"/>
<path d="M0 0 C0.66 0.33 1.32 0.66 2 1 C2 11.05882353 2 11.05882353 0 16 C-0.37593066 17.9924325 -0.71979545 19.9918674 -1 22 C-1.33 21.34 -1.66 20.68 -2 20 C-2.99 20 -3.98 20 -5 20 C-3.88767123 10.46575342 -3.88767123 10.46575342 -3 8 C-2.34 7.67 -1.68 7.34 -1 7 C-0.59270772 4.67843403 -0.25561323 2.3431213 0 0 Z " fill="#0F2A48" transform="translate(509,180)"/>
<path d="M0 0 C-0.80824219 0.65226563 -1.61648438 1.30453125 -2.44921875 1.9765625 C-3.52888999 2.85907638 -4.60830331 3.74190587 -5.6875 4.625 C-6.48317383 5.26501953 -6.48317383 5.26501953 -7.29492188 5.91796875 C-11.01779166 8.97848747 -13.96006969 12.264446 -17 16 C-17.33 16 -17.66 16 -18 16 C-18.36625971 11.48279689 -18.36625971 11.48279689 -16.625 9.1875 C-15 8 -15 8 -13 8 C-12.67 7.01 -12.34 6.02 -12 5 C-4.65441176 -1.55147059 -4.65441176 -1.55147059 0 0 Z " fill="#203753" transform="translate(536,171)"/>
<path d="M0 0 C1.15941038 3.47823115 0.70820884 5.45895578 0 9 C-0.66 9 -1.32 9 -2 9 C-2.99 10.98 -3.98 12.96 -5 15 C-5.66 15 -6.32 15 -7 15 C-7.33 15.66 -7.66 16.32 -8 17 C-8.99 17.33 -9.98 17.66 -11 18 C-9.48103632 13.56829827 -7.07360191 9.96975924 -4.375 6.1875 C-3.95476562 5.59001953 -3.53453125 4.99253906 -3.1015625 4.37695312 C-2.07220272 2.91479435 -1.0367177 1.45695101 0 0 Z " fill="#243C56" transform="translate(508,180)"/>
<path d="M0 0 C1.98 0.66 3.96 1.32 6 2 C5.67 6.95 5.34 11.9 5 17 C4.67 17 4.34 17 4 17 C3.67 13.37 3.34 9.74 3 6 C2.01 6.495 2.01 6.495 1 7 C0.34 6.67 -0.32 6.34 -1 6 C-1 9.96 -1 13.92 -1 18 C-1.33 18 -1.66 18 -2 18 C-2.054138 15.75026553 -2.09285491 13.50015617 -2.125 11.25 C-2.14820313 9.99703125 -2.17140625 8.7440625 -2.1953125 7.453125 C-2.01537302 4.27179508 -1.68998582 2.63478104 0 0 Z " fill="#3C4F66" transform="translate(591,443)"/>
<path d="M0 0 C1.65 0 3.3 0 5 0 C6.125 1.75 6.125 1.75 7 4 C6.20526315 6.7021053 5.39468605 7.73263203 3.0625 9.3125 C1 10 1 10 -2 9 C-1.34 9 -0.68 9 0 9 C0 8.34 0 7.68 0 7 C-0.66 7 -1.32 7 -2 7 C-2 4 -2 4 0 2 C0 1.34 0 0.68 0 0 Z " fill="#0F2A47" transform="translate(564,143)"/>
<path d="M0 0 C0.99 0.33 1.98 0.66 3 1 C1.02 1.99 1.02 1.99 -1 3 C-1 3.66 -1 4.32 -1 5 C-0.34 5 0.32 5 1 5 C2.18695553 8.56086658 2.35095418 11.97331024 2.5625 15.6875 C2.60568359 16.38939453 2.64886719 17.09128906 2.69335938 17.81445312 C2.7991736 19.54275206 2.90006581 21.2713511 3 23 C2.34 22.67 1.68 22.34 1 22 C0.62109375 19.56640625 0.62109375 19.56640625 0.4375 16.5625 C0.26890634 12.63464783 0.26890634 12.63464783 -1 9 C-1.66 9.66 -2.32 10.32 -3 11 C-3.75 8.3125 -3.75 8.3125 -4 5 C-2.0625 2.125 -2.0625 2.125 0 0 Z " fill="#213852" transform="translate(665,440)"/>
<path d="M0 0 C0.66 0 1.32 0 2 0 C3.4606285 2.64738916 4 3.89448334 4 7 C-2.75 9.125 -2.75 9.125 -5 8 C-4.67 6.02 -4.34 4.04 -4 2 C-3.34 2.33 -2.68 2.66 -2 3 C-1.34 2.01 -0.68 1.02 0 0 Z " fill="#0F2A48" transform="translate(706,284)"/>
<path d="M0 0 C0.66 0.33 1.32 0.66 2 1 C1.88652381 2.97986082 1.7589065 4.95891598 1.625 6.9375 C1.55539062 8.03964844 1.48578125 9.14179688 1.4140625 10.27734375 C1.27742187 11.17582031 1.14078125 12.07429688 1 13 C0.01 13.495 0.01 13.495 -1 14 C-1.33 13.67 -1.66 13.34 -2 13 C-2.66 13 -3.32 13 -4 13 C-3.67 9.37 -3.34 5.74 -3 2 C-2.01 2 -1.02 2 0 2 C0 1.34 0 0.68 0 0 Z " fill="#0F2A47" transform="translate(580,449)"/>
<path d="M0 0 C0.99 0.66 1.98 1.32 3 2 C3.375 5 3.375 5 3 8 C2.01 8.66 1.02 9.32 0 10 C-0.73343428 13.06556598 -0.73343428 13.06556598 -1 16 C-1.33 16 -1.66 16 -2 16 C-2.33 11.38 -2.66 6.76 -3 2 C-2.01 1.34 -1.02 0.68 0 0 Z " fill="#122B46" transform="translate(617,444)"/>
<path d="M0 0 C-0.33 0.99 -0.66 1.98 -1 3 C-1.66 3 -2.32 3 -3 3 C-3 3.66 -3 4.32 -3 5 C-2.01 5.33 -1.02 5.66 0 6 C-0.495 6.474375 -0.99 6.94875 -1.5 7.4375 C-3.11542197 8.75923698 -3.11542197 8.75923698 -3 10 C-4.65 10 -6.3 10 -8 10 C-7.67 8.68 -7.34 7.36 -7 6 C-6.34 6 -5.68 6 -5 6 C-5.7425 5.319375 -5.7425 5.319375 -6.5 4.625 C-8 3 -8 3 -8 1 C-5.07175348 0.02391783 -3.04386724 -0.08226668 0 0 Z " fill="#0E2A4A" transform="translate(625,358)"/>
<path d="M0 0 C0.94875 0.04125 1.8975 0.0825 2.875 0.125 C3.205 2.105 3.535 4.085 3.875 6.125 C-4.69642857 6.41071429 -4.69642857 6.41071429 -8.125 4.125 C-7.135 3.465 -6.145 2.805 -5.125 2.125 C-3.125 0.125 -3.125 0.125 0 0 Z " fill="#2C415B" transform="translate(568.125,466.875)"/>
<path d="M0 0 C1.5625 1.1875 1.5625 1.1875 3 3 C2.6875 5.6875 2.6875 5.6875 2 8 C1.34 8 0.68 8 0 8 C-1.125 5.6875 -1.125 5.6875 -2 3 C-1.34 2.01 -0.68 1.02 0 0 Z M-1 8 C-1 8.99 -1 9.98 -1 11 C-7.27 10.67 -13.54 10.34 -20 10 C-20 9.67 -20 9.34 -20 9 C-13.73 8.67 -7.46 8.34 -1 8 Z " fill="#364961" transform="translate(536,449)"/>
<path d="M0 0 C0.33 0 0.66 0 1 0 C2.17076699 3.98060777 3.25749403 7.91621717 4 12 C1.69 12 -0.62 12 -3 12 C-2.68950274 10.56206608 -2.3765224 9.1246682 -2.0625 7.6875 C-1.88847656 6.88699219 -1.71445312 6.08648437 -1.53515625 5.26171875 C-1 3 -1 3 0 0 Z " fill="#2F435E" transform="translate(508,461)"/>
<path d="M0 0 C0.94875 0.04125 1.8975 0.0825 2.875 0.125 C1.5 1.625 1.5 1.625 -0.125 3.125 C-0.785 3.125 -1.445 3.125 -2.125 3.125 C-2.10179687 3.75148437 -2.07859375 4.37796875 -2.0546875 5.0234375 C-2.03664063 5.84070313 -2.01859375 6.65796875 -2 7.5 C-1.97679687 8.31210938 -1.95359375 9.12421875 -1.9296875 9.9609375 C-2.125 12.125 -2.125 12.125 -4.125 14.125 C-5.10829211 10.06892005 -5.36100253 6.29437798 -5.125 2.125 C-3.125 0.125 -3.125 0.125 0 0 Z " fill="#1F3753" transform="translate(706.125,217.875)"/>
<path d="M0 0 C1.32 0.33 2.64 0.66 4 1 C3.67 2.32 3.34 3.64 3 5 C4.65 5.33 6.3 5.66 8 6 C8.33 6.99 8.66 7.98 9 9 C5.80097361 9.08886184 3.07322544 8.91058531 0 8 C0 7.34 0 6.68 0 6 C-0.66 5.67 -1.32 5.34 -2 5 C-1.34 3.35 -0.68 1.7 0 0 Z " fill="#0E2946" transform="translate(638,352)"/>
<path d="M0 0 C1.32 0.66 2.64 1.32 4 2 C4 3.65 4 5.3 4 7 C3.01 7 2.02 7 1 7 C0.67 9.97 0.34 12.94 0 16 C-0.33 16 -0.66 16 -1 16 C-1.22197585 13.89722877 -1.42713637 11.79267698 -1.625 9.6875 C-1.74101563 8.51574219 -1.85703125 7.34398437 -1.9765625 6.13671875 C-2 3 -2 3 0 0 Z " fill="#172E47" transform="translate(687,442)"/>
<path d="M0 0 C2.9933818 3.49227877 3 5.42228923 3 10 C-1.67692308 8.52307692 -1.67692308 8.52307692 -3.3125 5.875 C-3.539375 5.25625 -3.76625 4.6375 -4 4 C-2.68 3.34 -1.36 2.68 0 2 C0 1.34 0 0.68 0 0 Z " fill="#223853" transform="translate(596,462)"/>
<path d="M0 0 C0.66 0.33 1.32 0.66 2 1 C1.01 2.485 1.01 2.485 0 4 C0.99 4.33 1.98 4.66 3 5 C1.8125 6.5 1.8125 6.5 0 8 C-2.6875 8.1875 -2.6875 8.1875 -5 8 C-5.33 7.01 -5.66 6.02 -6 5 C-2.25 1.125 -2.25 1.125 0 0 Z " fill="#1B324C" transform="translate(598,437)"/>
<path d="M0 0 C0.33 0.66 0.66 1.32 1 2 C2.98 2 4.96 2 7 2 C5.71937515 3.7074998 4.38232443 5.37373596 3 7 C2.34 7 1.68 7 1 7 C1 6.01 1 5.02 1 4 C-2.63 4 -6.26 4 -10 4 C-10 3.67 -10 3.34 -10 3 C-9.04287109 2.80083984 -9.04287109 2.80083984 -8.06640625 2.59765625 C-7.24011719 2.42105469 -6.41382813 2.24445313 -5.5625 2.0625 C-4.73878906 1.88847656 -3.91507813 1.71445312 -3.06640625 1.53515625 C-1.02338796 1.19247006 -1.02338796 1.19247006 0 0 Z " fill="#283D58" transform="translate(612,464)"/>
<path d="M0 0 C0.66 0 1.32 0 2 0 C5 5.75 5 5.75 5 8 C3 10 3 10 1 11 C0.63743142 9.5437328 0.28520207 8.08488815 -0.0625 6.625 C-0.35833984 5.40683594 -0.35833984 5.40683594 -0.66015625 4.1640625 C-1 2 -1 2 0 0 Z " fill="#142C4C" transform="translate(536,457)"/>
<path d="M0 0 C2.18975773 3.28463659 2.99806563 6.20696275 4 10 C3.34 10 2.68 10 2 10 C1.34 9.01 0.68 8.02 0 7 C-0.99 7.99 -1.98 8.98 -3 10 C-3.6875 7.6875 -3.6875 7.6875 -4 5 C-2.625 3.3125 -2.625 3.3125 -1 2 C-0.67 1.34 -0.34 0.68 0 0 Z " fill="#2A4059" transform="translate(533,439)"/>
<path d="M0 0 C1.0625 1.875 1.0625 1.875 2 4 C1.67 4.66 1.34 5.32 1 6 C0.34 6 -0.32 6 -1 6 C-1.28875 6.639375 -1.5775 7.27875 -1.875 7.9375 C-3 10 -3 10 -5 11 C-5 10.34 -5 9.68 -5 9 C-5.66 8.67 -6.32 8.34 -7 8 C-6.01 7.01 -5.02 6.02 -4 5 C-3.67 5.33 -3.34 5.66 -3 6 C-3 4.68 -3 3.36 -3 2 C-2.01 1.34 -1.02 0.68 0 0 Z " fill="#203650" transform="translate(684,329)"/>
<path d="M0 0 C0.99 0 1.98 0 3 0 C2.67 2.64 2.34 5.28 2 8 C2.66 8.33 3.32 8.66 4 9 C3.67 10.65 3.34 12.3 3 14 C2.01 13.67 1.02 13.34 0 13 C0.20625 12.484375 0.4125 11.96875 0.625 11.4375 C1.15501407 7.99240852 -0.02058496 5.30552577 -1 2 C-0.67 1.34 -0.34 0.68 0 0 Z " fill="#112946" transform="translate(669,172)"/>
<path d="M0 0 C2 1 2 1 4 3 C5.31747324 3.69748583 6.64914193 4.36959957 8 5 C6.741875 5.28875 5.48375 5.5775 4.1875 5.875 C1.1460601 6.57303539 -0.30669878 7.20446585 -3 9 C-2.25 2.25 -2.25 2.25 0 0 Z " fill="#233851" transform="translate(562,437)"/>
<path d="M0 0 C2.31 0 4.62 0 7 0 C6.34 1.32 5.68 2.64 5 4 C5.66 4.33 6.32 4.66 7 5 C7 5.99 7 6.98 7 8 C6.01 7.67 5.02 7.34 4 7 C3.01 7.495 3.01 7.495 2 8 C0.23537317 4.91190305 0 3.76687864 0 0 Z " fill="#0F2946" transform="translate(537,346)"/>
<path d="M0 0 C0.99 0.99 1.98 1.98 3 3 C2.01 3.495 2.01 3.495 1 4 C1 4.66 1 5.32 1 6 C-0.75 6.6875 -0.75 6.6875 -3 7 C-5.25 5.5625 -5.25 5.5625 -7 4 C-6.34 3.34 -5.68 2.68 -5 2 C-4.34 2.33 -3.68 2.66 -3 3 C-2.01 2.01 -1.02 1.02 0 0 Z " fill="#0D2946" transform="translate(506,309)"/>
<path d="M0 0 C6.75 0.75 6.75 0.75 9 3 C8.34 3 7.68 3 7 3 C7 3.99 7 4.98 7 6 C4.6875 7.125 4.6875 7.125 2 8 C1.01 7.34 0.02 6.68 -1 6 C-0.360625 5.71125 0.27875 5.4225 0.9375 5.125 C3.15206079 4.17176549 3.15206079 4.17176549 4 2 C2.68 2 1.36 2 0 2 C0 1.34 0 0.68 0 0 Z " fill="#283F57" transform="translate(632,142)"/>
<path d="M0 0 C6.15234375 -0.09765625 6.15234375 -0.09765625 8 0 C9 1 9 1 9.0625 3.5625 C9.041875 4.366875 9.02125 5.17125 9 6 C9.66 6 10.32 6 11 6 C10.67 6.66 10.34 7.32 10 8 C7.36 7.34 4.72 6.68 2 6 C2.99 5.34 3.98 4.68 5 4 C3.74458443 1.48916886 2.49936512 1.12874554 0 0 Z " fill="#324860" transform="translate(672,436)"/>
<path d="M0 0 C2.125 0.9375 2.125 0.9375 4 2 C3.67 3.65 3.34 5.3 3 7 C1.68 7 0.36 7 -1 7 C-1.33 5.02 -1.66 3.04 -2 1 C-1.34 0.67 -0.68 0.34 0 0 Z " fill="#162D4A" transform="translate(529,436)"/>
<path d="M0 0 C1.98 0.99 3.96 1.98 6 3 C5.34 4.65 4.68 6.3 4 8 C3.34 8 2.68 8 2 8 C1.67 8.66 1.34 9.32 1 10 C1 9.34 1 8.68 1 8 C0.34 7.67 -0.32 7.34 -1 7 C-1 6.01 -1 5.02 -1 4 C-0.34 4 0.32 4 1 4 C0.67 2.68 0.34 1.36 0 0 Z " fill="#1A324E" transform="translate(655,151)"/>
<path d="M0 0 C5.2518167 -0.315109 8.54814877 0.1310292 13 3 C15.375 5.6875 15.375 5.6875 17 8 C16.67 8.66 16.34 9.32 16 10 C14 9 14 9 13 6 C10.99983534 4.79117904 10.99983534 4.79117904 9 4 C9 3.34 9 2.68 9 2 C6.03 1.67 3.06 1.34 0 1 C0 0.67 0 0.34 0 0 Z " fill="#394C62" transform="translate(565,436)"/>
<path d="M0 0 C1.65 0 3.3 0 5 0 C3.54744301 3.82946843 1.57104439 5.12050295 -2 7 C-2.33 5.68 -2.66 4.36 -3 3 C-2.01 2.67 -1.02 2.34 0 2 C0 1.34 0 0.68 0 0 Z " fill="#243A56" transform="translate(670,342)"/>
<path d="M0 0 C5.78461538 3.44615385 5.78461538 3.44615385 6.875 6.25 C6.936875 7.11625 6.936875 7.11625 7 8 C6.01 8 5.02 8 4 8 C4 7.34 4 6.68 4 6 C2.02 6 0.04 6 -2 6 C-2 4.68 -2 3.36 -2 2 C-1.34 2 -0.68 2 0 2 C0 1.34 0 0.68 0 0 Z " fill="#0D2947" transform="translate(686,315)"/>
<path d="M0 0 C0.33 1.32 0.66 2.64 1 4 C0.34 4 -0.32 4 -1 4 C-1.99 5.485 -1.99 5.485 -3 7 C-3.99 7.33 -4.98 7.66 -6 8 C-6 6.02 -6 4.04 -6 2 C-2.25 0 -2.25 0 0 0 Z " fill="#102947" transform="translate(710,219)"/>
<path d="M0 0 C0.99 0.33 1.98 0.66 3 1 C3 1.66 3 2.32 3 3 C4.32 3.66 5.64 4.32 7 5 C7 5.99 7 6.98 7 8 C5.35 7.67 3.7 7.34 2 7 C2 6.01 2 5.02 2 4 C1.01 4 0.02 4 -1 4 C-0.67 2.68 -0.34 1.36 0 0 Z " fill="#1C324F" transform="translate(558,463)"/>
<path d="M0 0 C0.99 0.66 1.98 1.32 3 2 C2.67 4.31 2.34 6.62 2 9 C1.01 8.67 0.02 8.34 -1 8 C-1 8.66 -1 9.32 -1 10 C-1.66 10 -2.32 10 -3 10 C-2.01 6.7 -1.02 3.4 0 0 Z " fill="#233A55" transform="translate(573,225)"/>
<path d="M0 0 C0.99 0.99 1.98 1.98 3 3 C2.0022242 5.99332739 1.2477975 6.94766315 -1 9 C-0.34 9 0.32 9 1 9 C0.67 9.99 0.34 10.98 0 12 C-2 10 -2 10 -2.125 6.375 C-2.08375 5.26125 -2.0425 4.1475 -2 3 C-1.34 3 -0.68 3 0 3 C0 2.01 0 1.02 0 0 Z " fill="#0F2A49" transform="translate(511,457)"/>
<path d="M0 0 C1.65 1.65 3.3 3.3 5 5 C4.34 5.66 3.68 6.32 3 7 C3.33 7.66 3.66 8.32 4 9 C2.35 8.67 0.7 8.34 -1 8 C-1.125 2.25 -1.125 2.25 0 0 Z " fill="#F3F4F4" transform="translate(668,186)"/>
<path d="M0 0 C-1.28627711 1.17260611 -2.57919783 2.3379283 -3.875 3.5 C-4.59429688 4.1496875 -5.31359375 4.799375 -6.0546875 5.46875 C-8 7 -8 7 -10 7 C-9.875 4.6875 -9.875 4.6875 -9 2 C-3.92647059 -1.30882353 -3.92647059 -1.30882353 0 0 Z " fill="#2A4059" transform="translate(536,171)"/>
<path d="M0 0 C0.66 1.32 1.32 2.64 2 4 C1 5 1 5 -2.16015625 5.09765625 C-4.09181641 5.08025391 -4.09181641 5.08025391 -6.0625 5.0625 C-7.35285156 5.05347656 -8.64320313 5.04445313 -9.97265625 5.03515625 C-10.97167969 5.02355469 -11.97070312 5.01195312 -13 5 C-13 4.67 -13 4.34 -13 4 C-8.71 3.34 -4.42 2.68 0 2 C0 1.34 0 0.68 0 0 Z " fill="#0E2A48" transform="translate(534,453)"/>
<path d="M0 0 C0.66 0.66 1.32 1.32 2 2 C1.60761402 5.66226912 -0.31566883 8.77780124 -2 12 C-2.66 12 -3.32 12 -4 12 C-3.52309796 10.37433394 -3.04340334 8.74948689 -2.5625 7.125 C-2.29566406 6.22007812 -2.02882813 5.31515625 -1.75390625 4.3828125 C-1 2 -1 2 0 0 Z " fill="#2F425D" transform="translate(558,264)"/>
<path d="M0 0 C2.31 0 4.62 0 7 0 C6.67 0.66 6.34 1.32 6 2 C6.66 2.66 7.32 3.32 8 4 C5.03 4.66 2.06 5.32 -1 6 C-1 5.34 -1 4.68 -1 4 C-0.01 3.67 0.98 3.34 2 3 C1.34 2.67 0.68 2.34 0 2 C0 1.34 0 0.68 0 0 Z " fill="#112A45" transform="translate(671,437)"/>
<path d="M0 0 C1.125 3.75 1.125 3.75 0 6 C-1.9375 6.6875 -1.9375 6.6875 -4 7 C-4.66 6.67 -5.32 6.34 -6 6 C-5.34 4.35 -4.68 2.7 -4 1 C-2.68 1.33 -1.36 1.66 0 2 C0 1.34 0 0.68 0 0 Z " fill="#102A47" transform="translate(619,460)"/>
<path d="M0 0 C1.03864166 3.11592499 1.09036928 4.0262656 0 7 C-0.99 7.495 -0.99 7.495 -2 8 C-2 7.01 -2 6.02 -2 5 C-3.32 4.67 -4.64 4.34 -6 4 C-2.25 0 -2.25 0 0 0 Z " fill="#203653" transform="translate(671,332)"/>
<path d="M0 0 C0.66 0.33 1.32 0.66 2 1 C1.01 2.485 1.01 2.485 0 4 C0 4.66 0 5.32 0 6 C-0.598125 6.268125 -1.19625 6.53625 -1.8125 6.8125 C-3.97224808 7.98493467 -5.35790256 9.19369282 -7 11 C-7.66 10.67 -8.32 10.34 -9 10 C-6.03 6.7 -3.06 3.4 0 0 Z " fill="#E3E8EB" transform="translate(526,178)"/>
<path d="M0 0 C0.8971875 0.5259375 0.8971875 0.5259375 1.8125 1.0625 C-1.15515398 2.71119666 -3.81278585 3.62984434 -7.1875 4.0625 C-8.1775 3.7325 -9.1675 3.4025 -10.1875 3.0625 C-9.8575 2.4025 -9.5275 1.7425 -9.1875 1.0625 C-7.3125 0.5 -7.3125 0.5 -5.1875 0.0625 C-2.1875 -0.9375 -2.1875 -0.9375 0 0 Z " fill="#213858" transform="translate(571.1875,150.9375)"/>
<path d="M0 0 C0.33 0 0.66 0 1 0 C1.12375 0.928125 1.2475 1.85625 1.375 2.8125 C1.81533082 6.13925235 1.81533082 6.13925235 4 9 C3.125 11.6875 3.125 11.6875 2 14 C0 12 0 12 -0.1953125 9.1796875 C-0.17210937 8.08914063 -0.14890625 6.99859375 -0.125 5.875 C-0.10695313 4.77929688 -0.08890625 3.68359375 -0.0703125 2.5546875 C-0.04710937 1.71164062 -0.02390625 0.86859375 0 0 Z " fill="#1F3751" transform="translate(661,452)"/>
<path d="M0 0 C1.98 0 3.96 0 6 0 C6.33 0.99 6.66 1.98 7 3 C7.66 3.33 8.32 3.66 9 4 C6.03 3.67 3.06 3.34 0 3 C0 2.01 0 1.02 0 0 Z " fill="#28425C" transform="translate(570,365)"/>
<path d="M0 0 C-1.485 1.98 -1.485 1.98 -3 4 C-4.65 3.67 -6.3 3.34 -8 3 C-8 2.34 -8 1.68 -8 1 C-5.07175348 0.02391783 -3.04386724 -0.08226668 0 0 Z " fill="#2A415E" transform="translate(679,467)"/>
<path d="M0 0 C2.31 0.33 4.62 0.66 7 1 C7 1.66 7 2.32 7 3 C7.66 3.66 8.32 4.32 9 5 C8.01 5.495 8.01 5.495 7 6 C4.5249829 4.88568235 2.32116581 3.41849022 0 2 C0 1.34 0 0.68 0 0 Z " fill="#2A3F57" transform="translate(649,160)"/>
<path d="M0 0 C2.35953094 2.35953094 2.49141413 3.77895617 3 7 C1.68 7.33 0.36 7.66 -1 8 C-1.33 7.01 -1.66 6.02 -2 5 C-1.34 5 -0.68 5 0 5 C-0.2784375 4.0409375 -0.2784375 4.0409375 -0.5625 3.0625 C-0.7790625 2.0415625 -0.7790625 2.0415625 -1 1 C-0.67 0.67 -0.34 0.34 0 0 Z " fill="#2D4560" transform="translate(620,210)"/>
<path d="M0 0 C1.65 1.65 3.3 3.3 5 5 C4.67 5.66 4.34 6.32 4 7 C2.68 6.34 1.36 5.68 0 5 C0 3.35 0 1.7 0 0 Z M-2 6 C-1.01 6.33 -0.02 6.66 1 7 C0.01 7.33 -0.98 7.66 -2 8 C-2 7.34 -2 6.68 -2 6 Z " fill="#31455E" transform="translate(615,439)"/>
<path d="M0 0 C3.96 1.98 3.96 1.98 8 4 C6.02 4.99 6.02 4.99 4 6 C2.62437146 4.71034824 1.29233607 3.37310707 0 2 C0 1.34 0 0.68 0 0 Z " fill="#253953" transform="translate(540,341)"/>
<path d="M0 0 C2.33333333 0 4.66666667 0 7 0 C7 0.99 7 1.98 7 3 C4.36 3.33 1.72 3.66 -1 4 C-0.67 2.68 -0.34 1.36 0 0 Z " fill="#203752" transform="translate(492,206)"/>
<path d="M0 0 C-0.33 1.32 -0.66 2.64 -1 4 C-2.875 3.6875 -2.875 3.6875 -5 3 C-5.66 2.01 -6.32 1.02 -7 0 C-3.98968256 -0.93423645 -3.13349732 -1.04449911 0 0 Z " fill="#0D2947" transform="translate(684,189)"/>
<path d="M0 0 C0.66 0 1.32 0 2 0 C2.33 1.65 2.66 3.3 3 5 C0.525 6.485 0.525 6.485 -2 8 C-1.34 5.36 -0.68 2.72 0 0 Z " fill="#D5DEE3" transform="translate(524,434)"/>
<path d="M0 0 C0 0.99 0 1.98 0 3 C-0.66 3 -1.32 3 -2 3 C-2.66 4.32 -3.32 5.64 -4 7 C-4.6875 5.1875 -4.6875 5.1875 -5 3 C-3.38441968 0.84589291 -2.74502455 0 0 0 Z " fill="#102A47" transform="translate(524,433)"/>
<path d="M0 0 C1.32 1.65 2.64 3.3 4 5 C0.25 7 0.25 7 -2 7 C-1.34 4.69 -0.68 2.38 0 0 Z " fill="#213850" transform="translate(509,308)"/>
<path d="M0 0 C2.86724686 0.57344937 3.8614515 0.8614515 6 3 C5.34 4.32 4.68 5.64 4 7 C2.02 3.535 2.02 3.535 0 0 Z " fill="#213951" transform="translate(499,314)"/>
<path d="M0 0 C1.76462683 3.08809695 2 4.23312136 2 8 C0.68 8 -0.64 8 -2 8 C-1.34 5.36 -0.68 2.72 0 0 Z " fill="#293E5C" transform="translate(547,292)"/>
<path d="M0 0 C1.32 1.32 2.64 2.64 4 4 C1.525 5.485 1.525 5.485 -1 7 C-1.33 6.34 -1.66 5.68 -2 5 C-1.0625 2.375 -1.0625 2.375 0 0 Z " fill="#30465F" transform="translate(564,248)"/>
<path d="M0 0 C1.32 0 2.64 0 4 0 C3.67 2.64 3.34 5.28 3 8 C0.4345406 5.4345406 0.45953913 3.52313332 0 0 Z " fill="#2D425E" transform="translate(604,228)"/>
<path d="M0 0 C0.99 0.33 1.98 0.66 3 1 C2.67 2.32 2.34 3.64 2 5 C0.35 4.67 -1.3 4.34 -3 4 C-2.34 3.67 -1.68 3.34 -1 3 C-0.67 2.01 -0.34 1.02 0 0 Z " fill="#0D2A49" transform="translate(682,166)"/>
<path d="M0 0 C0.33 1.32 0.66 2.64 1 4 C-2.63 4 -6.26 4 -10 4 C-10 3.67 -10 3.34 -10 3 C-9.04287109 2.80083984 -9.04287109 2.80083984 -8.06640625 2.59765625 C-7.24011719 2.42105469 -6.41382813 2.24445313 -5.5625 2.0625 C-4.73878906 1.88847656 -3.91507813 1.71445312 -3.06640625 1.53515625 C-1.02338796 1.19247006 -1.02338796 1.19247006 0 0 Z " fill="#495870" transform="translate(612,464)"/>
<path d="M0 0 C-1.75 3.875 -1.75 3.875 -4 5 C-4 4.34 -4 3.68 -4 3 C-4.99 3.33 -5.98 3.66 -7 4 C-7 3.34 -7 2.68 -7 2 C-2.25 0 -2.25 0 0 0 Z " fill="#283C56" transform="translate(638,352)"/>
<path d="M0 0 C0.99 0.99 1.98 1.98 3 3 C2.01 3.99 1.02 4.98 0 6 C-0.99 5.67 -1.98 5.34 -3 5 C-2.01 3.35 -1.02 1.7 0 0 Z " fill="#253D59" transform="translate(691,305)"/>
<path d="M0 0 C0.99 0 1.98 0 3 0 C3.66 1.98 4.32 3.96 5 6 C4.01 6 3.02 6 2 6 C1.34 4.02 0.68 2.04 0 0 Z " fill="#1F3453" transform="translate(627,294)"/>
<path d="M0 0 C0.66 0.33 1.32 0.66 2 1 C1.67 1.66 1.34 2.32 1 3 C2.32 3 3.64 3 5 3 C5 3.66 5 4.32 5 5 C2.36 4.67 -0.28 4.34 -3 4 C-2.01 2.68 -1.02 1.36 0 0 Z " fill="#273E59" transform="translate(526,162)"/>
<path d="M0 0 C-2.5654594 2.5654594 -4.47686668 2.54046087 -8 3 C-8.33 2.34 -8.66 1.68 -9 1 C-5.57367167 -0.61798838 -3.61944899 -1.34053666 0 0 Z " fill="#394C62" transform="translate(574,141)"/>
</svg>
