<?xml version="1.0" encoding="UTF-8"?>
<svg version="1.1" xmlns="http://www.w3.org/2000/svg" width="360" height="360">
<path d="M0 0 C118.8 0 237.6 0 360 0 C360 118.8 360 237.6 360 360 C241.2 360 122.4 360 0 360 C0 241.2 0 122.4 0 0 Z " fill="#FEFEFE" transform="translate(0,0)"/>
<path d="M0 0 C0.69319336 0.19335938 1.38638672 0.38671875 2.10058594 0.5859375 C13.55949876 3.82987612 24.06800506 8.38151425 34 15 C34.58845703 15.38913574 35.17691406 15.77827148 35.78320312 16.17919922 C38.47320792 18.14950975 39.87688622 19.39934742 40.55615234 22.71337891 C39.73857524 27.54490786 37.06113576 29.8191276 33.6484375 33.18359375 C32.99678619 33.84335709 32.34513489 34.50312042 31.67373657 35.18287659 C30.29403152 36.57103427 28.90663939 37.95158809 27.51220703 39.32495117 C25.38032341 41.43223801 23.2853802 43.57191236 21.19140625 45.71679688 C19.84584152 47.06199119 18.49825036 48.40516219 17.1484375 49.74609375 C16.52319183 50.38864609 15.89794617 51.03119843 15.25375366 51.69322205 C10.79707327 56.01002123 10.79707327 56.01002123 6.71826172 55.95874023 C3.96161953 54.98646308 1.37114614 53.91987759 -1.25 52.625 C-10.2028113 48.20285381 -18.42451459 46.48058558 -28.375 46.625 C-29.38796143 46.63515137 -30.40092285 46.64530273 -31.44458008 46.65576172 C-50.24616883 47.045855 -65.02806619 54.62278162 -78.125 68 C-83.38572981 74.14641049 -86.86633534 81.58689694 -90 89 C-90.43481689 90.02843018 -90.43481689 90.02843018 -90.87841797 91.07763672 C-93.27431363 97.3959029 -93.53885915 103.41310421 -93.5 110.125 C-93.49645508 111.22577881 -93.49291016 112.32655762 -93.48925781 113.46069336 C-93.26708502 124.42202261 -90.73510214 132.92295293 -85.625 142.625 C-84 146 -84 146 -84.0090332 148.28393555 C-85.48823704 152.33817125 -88.20839416 154.81898202 -91.23046875 157.83203125 C-91.85850906 158.46864182 -92.48654938 159.10525238 -93.13362122 159.76115417 C-94.46263249 161.10163354 -95.79689275 162.43692642 -97.13598633 163.76733398 C-99.18054377 165.8055653 -101.19701192 167.86899446 -103.21289062 169.93554688 C-104.50879305 171.23599496 -105.80626847 172.53487785 -107.10546875 173.83203125 C-107.70570358 174.45068558 -108.30593842 175.0693399 -108.92436218 175.70674133 C-111.77802191 178.49878136 -113.24524282 179.87446081 -117.26879883 180.54370117 C-120.59667838 179.88121903 -121.83897687 178.49842452 -123.81640625 175.80078125 C-130.36333104 165.83994849 -135.75407012 155.51589092 -139 144 C-139.19464844 143.31083496 -139.38929688 142.62166992 -139.58984375 141.91162109 C-147.85752586 111.30633706 -143.51634181 80.25858727 -128.2109375 52.7890625 C-114.69307557 30.75309579 -96.26536677 15.68672891 -73 5 C-72.0821875 4.5771875 -71.164375 4.154375 -70.21875 3.71875 C-49.39738233 -5.20469329 -21.64676118 -6.33563742 0 0 Z " fill="#5065FD" transform="translate(209,69)"/>
<path d="M0 0 C4.25703692 1.51210979 8.20373667 3.48439683 12.23828125 5.50415039 C19.609457 8.59528861 26.68764711 9.31789102 34.625 9.22680664 C35.50559082 9.21786377 36.38618164 9.2089209 37.29345703 9.19970703 C48.60753418 8.99808036 56.62519394 6.95203837 66.48828125 1.34008789 C70.40396682 -0.29652799 71.71315712 -0.24154044 75.75 0.97680664 C78.30996248 2.80716477 80.47094231 4.97296372 82.6796875 7.20727539 C83.31488312 7.8353157 83.95007874 8.46335602 84.60452271 9.11042786 C85.94017131 10.4383107 87.26948056 11.77259671 88.59277344 13.11279297 C90.62018015 15.15944105 92.6752268 17.17504594 94.734375 19.18969727 C96.03041962 20.48545155 97.32475105 21.78292215 98.6171875 23.08227539 C99.23270477 23.68251022 99.84822205 24.28274506 100.48239136 24.90116882 C103.25889483 27.75526932 104.62547428 29.23165721 105.29589844 33.2434082 C104.62644362 36.59547267 103.1949409 37.83874653 100.47949219 39.82885742 C74.53330807 57.05061882 42.89737721 63.60581981 12.078125 57.84326172 C8.57355139 57.06149015 5.16053836 56.0973385 1.75 54.97680664 C1.10998047 54.76781738 0.46996094 54.55882812 -0.18945312 54.34350586 C-7.78423897 51.76490995 -14.86296861 48.27855441 -21.875 44.41430664 C-22.53838379 44.05054932 -23.20176758 43.68679199 -23.88525391 43.31201172 C-27.90355413 41.01326367 -31.36464866 38.67758336 -34.25 34.97680664 C-34.30560584 30.34723805 -31.74465252 27.95486553 -28.71662903 24.81069946 C-27.76828438 23.86038345 -27.76828438 23.86038345 -26.80078125 22.89086914 C-26.15054489 22.22969086 -25.50030853 21.56851257 -24.83036804 20.88729858 C-23.45437631 19.49546222 -22.07303449 18.10889752 -20.68676758 16.72729492 C-18.56794381 14.60725358 -16.48014728 12.4596071 -14.39257812 10.30883789 C-13.05127428 8.95939498 -11.70823164 7.61167768 -10.36328125 6.26586914 C-9.74117264 5.62017975 -9.11906403 4.97449036 -8.47810364 4.30923462 C-4.04809071 -0.02888887 -4.04809071 -0.02888887 0 0 Z " fill="#200355" transform="translate(144.25,235.023193359375)"/>
<path d="M0 0 C7.67159667 5.43565392 12.82710843 13.21901825 14.51953125 22.52734375 C15.56669361 32.65625969 12.58329128 41.17179724 6.53515625 49.265625 C0.75553081 55.75090238 -7.09350177 59.71630032 -15.6953125 60.80859375 C-25.38558903 61.21732246 -34.13239792 57.74711196 -41.48046875 51.52734375 C-47.85078247 44.93002553 -51.59989747 36.8251167 -52.04296875 27.65234375 C-51.68281332 18.3123129 -47.87077811 9.95256445 -41.4375 3.2109375 C-29.06532497 -7.43259032 -13.87300881 -8.23641626 0 0 Z " fill="#210456" transform="translate(198.48046875,152.47265625)"/>
<path d="M0 0 C0.33 0.99 0.66 1.98 1 3 C-0.58984375 5.35546875 -0.58984375 5.35546875 -2.9375 8.1875 C-10.06030059 17.18014103 -15.53237951 27.65318964 -18.421875 38.78515625 C-19.01103597 41.04227969 -19.76560477 43.1835381 -20.5625 45.375 C-24.11370023 56.23419649 -28.30901767 77.38196466 -23 88 C-22.8684967 89.41439104 -22.76967538 90.83188775 -22.6875 92.25 C-21.26100451 107.45863658 -14.45677872 120.93505901 -7 134 C-6.47599609 134.98419922 -6.47599609 134.98419922 -5.94140625 135.98828125 C-4.94468989 137.83286938 -4.94468989 137.83286938 -3 140 C0.13265479 140.9688059 0.13265479 140.9688059 3 141 C3 140.34 3 139.68 3 139 C3.66 139 4.32 139 5 139 C5 138.34 5 137.68 5 137 C5.66 137 6.32 137 7 137 C7 136.34 7 135.68 7 135 C7.66 135 8.32 135 9 135 C9 134.34 9 133.68 9 133 C9.66 133 10.32 133 11 133 C11 132.34 11 131.68 11 131 C11.66 131 12.32 131 13 131 C13 130.34 13 129.68 13 129 C13.66 129 14.32 129 15 129 C15 128.34 15 127.68 15 127 C15.66 127 16.32 127 17 127 C17 126.34 17 125.68 17 125 C17.66 125 18.32 125 19 125 C19 124.34 19 123.68 19 123 C19.66 123 20.32 123 21 123 C21 122.34 21 121.68 21 121 C21.66 121 22.32 121 23 121 C23 120.34 23 119.68 23 119 C23.66 119 24.32 119 25 119 C25 118.34 25 117.68 25 117 C25.66 117 26.32 117 27 117 C27 116.34 27 115.68 27 115 C27.66 115 28.32 115 29 115 C29 114.34 29 113.68 29 113 C29.66 113 30.32 113 31 113 C30.79503906 112.39671875 30.59007812 111.7934375 30.37890625 111.171875 C30.10949219 110.37265625 29.84007812 109.5734375 29.5625 108.75 C29.29566406 107.96109375 29.02882812 107.1721875 28.75390625 106.359375 C28.08045292 104.25178012 27.50849405 102.15246027 27 100 C26.34 100 25.68 100 25 100 C21.85286961 91.23299391 20.60955212 83.05039394 20.625 73.75 C20.62741699 72.23200806 20.62741699 72.23200806 20.62988281 70.68334961 C20.75878333 62.79830303 21.8069212 56.27801754 25 49 C25.31195313 48.26136719 25.62390625 47.52273437 25.9453125 46.76171875 C28.37898973 41.49556843 31.69903877 36.75338418 35 32 C35.99 32.495 35.99 32.495 37 33 C36.48050781 33.84820312 35.96101563 34.69640625 35.42578125 35.5703125 C25.06353669 52.80674281 19.99403615 70.46507023 24.9921875 90.6640625 C26.56221566 95.91289456 28.82658156 100.78656918 31.375 105.625 C33 109 33 109 32.9909668 111.28393555 C31.51176296 115.33817125 28.79160584 117.81898202 25.76953125 120.83203125 C25.14149094 121.46864182 24.51345062 122.10525238 23.86637878 122.76115417 C22.53736751 124.10163354 21.20310725 125.43692642 19.86401367 126.76733398 C17.81945623 128.8055653 15.80298808 130.86899446 13.78710938 132.93554688 C12.49120695 134.23599496 11.19373153 135.53487785 9.89453125 136.83203125 C9.29429642 137.45068558 8.69406158 138.0693399 8.07563782 138.70674133 C5.22197809 141.49878136 3.75475718 142.87446081 -0.26879883 143.54370117 C-3.59667838 142.88121903 -4.83897687 141.49842452 -6.81640625 138.80078125 C-13.36333104 128.83994849 -18.75407012 118.51589092 -22 107 C-22.19464844 106.31083496 -22.38929687 105.62166992 -22.58984375 104.91162109 C-30.8348933 74.39011823 -26.63363987 43.05936447 -11.140625 15.71875 C-7.74621123 10.25164109 -3.96369567 5.06714208 0 0 Z " fill="#8B50E4" transform="translate(92,106)"/>
<path d="M0 0 C0.66 0.33 1.32 0.66 2 1 C1.48050781 1.84820312 0.96101563 2.69640625 0.42578125 3.5703125 C-9.93646331 20.80674281 -15.00596385 38.46507023 -10.0078125 58.6640625 C-8.43778434 63.91289456 -6.17341844 68.78656918 -3.625 73.625 C-2 77 -2 77 -2.08203125 79.37890625 C-3.3268201 82.93317568 -5.34498939 84.73258486 -8.0625 87.3125 C-9.44115234 88.63701172 -9.44115234 88.63701172 -10.84765625 89.98828125 C-11.55792969 90.65214844 -12.26820312 91.31601563 -13 92 C-13.33 91.01 -13.66 90.02 -14 89 C-13.34 89 -12.68 89 -12 89 C-12 88.34 -12 87.68 -12 87 C-11.34 87 -10.68 87 -10 87 C-10 86.34 -10 85.68 -10 85 C-9.34 85 -8.68 85 -8 85 C-8 84.34 -8 83.68 -8 83 C-7.34 83 -6.68 83 -6 83 C-6 82.34 -6 81.68 -6 81 C-5.34 81 -4.68 81 -4 81 C-4.20496094 80.39671875 -4.40992187 79.7934375 -4.62109375 79.171875 C-4.89050781 78.37265625 -5.15992187 77.5734375 -5.4375 76.75 C-5.70433594 75.96109375 -5.97117187 75.1721875 -6.24609375 74.359375 C-6.91954708 72.25178012 -7.49150595 70.15246027 -8 68 C-8.66 68 -9.32 68 -10 68 C-13.14713039 59.23299391 -14.39044788 51.05039394 -14.375 41.75 C-14.37338867 40.73800537 -14.37177734 39.72601074 -14.37011719 38.68334961 C-14.24121667 30.79830303 -13.1930788 24.27801754 -10 17 C-9.68804687 16.26136719 -9.37609375 15.52273437 -9.0546875 14.76171875 C-6.62101027 9.49556843 -3.30096123 4.75338418 0 0 Z " fill="#784EE2" transform="translate(127,138)"/>
<path d="M0 0 C1.09562256 0.32194336 1.09562256 0.32194336 2.21337891 0.65039062 C10.98157515 3.27488474 19.21111198 6.09588532 27 11 C25.25 11.6875 25.25 11.6875 23 12 C21.0234375 10.68359375 21.0234375 10.68359375 19 9 C9.10844218 4.12831516 -2.20412016 0.80400619 -13.20703125 0.17578125 C-15 0 -15 0 -16 -1 C-17.82985622 -1.09962237 -19.66352878 -1.13080452 -21.49609375 -1.1328125 C-23.16961914 -1.13474609 -23.16961914 -1.13474609 -24.87695312 -1.13671875 C-26.05193359 -1.13285156 -27.22691406 -1.12898438 -28.4375 -1.125 C-29.60861328 -1.12886719 -30.77972656 -1.13273437 -31.98632812 -1.13671875 C-33.66178711 -1.13478516 -33.66178711 -1.13478516 -35.37109375 -1.1328125 C-36.9168811 -1.13112061 -36.9168811 -1.13112061 -38.49389648 -1.12939453 C-40.99809675 -1.16782632 -40.99809675 -1.16782632 -43 0 C-44.87379605 0.07033769 -46.75001102 0.0843022 -48.625 0.0625 C-49.62789062 0.05347656 -50.63078125 0.04445313 -51.6640625 0.03515625 C-52.43492187 0.02355469 -53.20578125 0.01195313 -54 0 C-41.01901724 -8.11311423 -13.9336021 -4.1080367 0 0 Z " fill="#42ABE8" transform="translate(209,69)"/>
<path d="M0 0 C0.33 0.99 0.66 1.98 1 3 C-0.58984375 5.35546875 -0.58984375 5.35546875 -2.9375 8.1875 C-10.53002827 17.77317917 -16.24272483 29.0518076 -19 41 C-19.33 41 -19.66 41 -20 41 C-20 26.29656668 -8.94297251 10.9454207 0 0 Z " fill="#6255E5" transform="translate(92,106)"/>
<path d="M0 0 C1.48831242 0.00667405 2.97660807 0.01863442 4.46484375 0.03515625 C5.22345703 0.03966797 5.98207031 0.04417969 6.76367188 0.04882812 C8.64326246 0.06064945 10.52281274 0.07858547 12.40234375 0.09765625 C12.40234375 0.42765625 12.40234375 0.75765625 12.40234375 1.09765625 C11.83427002 1.16235107 11.26619629 1.2270459 10.6809082 1.29370117 C-5.24233773 3.16882313 -17.99600859 6.16293961 -31.59765625 15.09765625 C-31.59765625 14.10765625 -31.59765625 13.11765625 -31.59765625 12.09765625 C-30.60765625 12.09765625 -29.61765625 12.09765625 -28.59765625 12.09765625 C-28.59765625 11.43765625 -28.59765625 10.77765625 -28.59765625 10.09765625 C-26.70310801 9.13678489 -24.80696044 8.17906656 -22.91015625 7.22265625 C-21.85441406 6.68898438 -20.79867187 6.1553125 -19.7109375 5.60546875 C-14.55922125 3.11040918 -10.28447223 1.86318917 -4.59765625 1.09765625 C-3.59765625 0.09765625 -3.59765625 0.09765625 0 0 Z " fill="#4D76E4" transform="translate(171.59765625,112.90234375)"/>
<path d="M0 0 C0.66 0.33 1.32 0.66 2 1 C1.48050781 1.84820312 0.96101563 2.69640625 0.42578125 3.5703125 C-4.51429926 11.81405703 -8.06757649 19.81628605 -11 29 C-11.66529005 31.00045835 -12.33152692 33.00060304 -13 35 C-13.33 35 -13.66 35 -14 35 C-12.58939444 23.4800546 -8.52322576 8.52322576 0 0 Z " fill="#614CE5" transform="translate(127,138)"/>
<path d="M0 0 C0.33 0.99 0.66 1.98 1 3 C0.42894531 3.24492188 -0.14210938 3.48984375 -0.73046875 3.7421875 C-8.70593602 7.41927098 -15.21087339 12.51974889 -22 18 C-22.66 17.67 -23.32 17.34 -24 17 C-17.01351466 10.25218341 -8.70672228 4.35336114 0 0 Z " fill="#5877E5" transform="translate(127,78)"/>
<path d="M0 0 C-5.19182254 2.0190421 -10.38451952 3.74997958 -15.734375 5.30078125 C-18.14478014 6.00217032 -18.14478014 6.00217032 -20.9375 7.25 C-23 8 -23 8 -26 7 C-23.27309923 5.84850828 -20.54371696 4.70367078 -17.8125 3.5625 C-17.04357422 3.23701172 -16.27464844 2.91152344 -15.48242188 2.57617188 C-5.16152791 -1.7205093 -5.16152791 -1.7205093 0 0 Z " fill="#518DE8" transform="translate(155,70)"/>
<path d="M0 0 C0.66 0.33 1.32 0.66 2 1 C1.401875 2.11375 0.80375 3.2275 0.1875 4.375 C-2.18026812 9.07683136 -3.62904418 13.93161788 -5 19 C-5.33 19 -5.66 19 -6 19 C-5.64134677 11.58783319 -3.64079463 6.43520528 0 0 Z " fill="#6542E3" transform="translate(78,128)"/>
<path d="M0 0 C0.99 0.33 1.98 0.66 3 1 C2.52949219 1.43570313 2.05898437 1.87140625 1.57421875 2.3203125 C-2.2151214 5.94489873 -4.95670553 9.07205451 -7 14 C-7.66 13.67 -8.32 13.34 -9 13 C-8.06811119 11.3925672 -7.12925565 9.78917201 -6.1875 8.1875 C-5.66542969 7.29417969 -5.14335937 6.40085938 -4.60546875 5.48046875 C-3.21467801 3.33168013 -1.8877934 1.70638383 0 0 Z " fill="#2D1757" transform="translate(158,155)"/>
<path d="M0 0 C5.28 0 10.56 0 16 0 C16 0.33 16 0.66 16 1 C10.39 1.66 4.78 2.32 -1 3 C-0.67 2.01 -0.34 1.02 0 0 Z " fill="#4B84E7" transform="translate(168,113)"/>
<path d="M0 0 C0.99 0.33 1.98 0.66 3 1 C0.69 3.31 -1.62 5.62 -4 8 C-4.99 7.67 -5.98 7.34 -7 7 C-4.69 4.69 -2.38 2.38 0 0 Z " fill="#4F5BEA" transform="translate(102,96)"/>
<path d="M0 0 C0 0.66 0 1.32 0 2 C-2.97 3.65 -5.94 5.3 -9 7 C-9 6.01 -9 5.02 -9 4 C-8.01 4 -7.02 4 -6 4 C-6 3.34 -6 2.68 -6 2 C-3 0 -3 0 0 0 Z " fill="#5771E7" transform="translate(149,121)"/>
<path d="M0 0 C0.66 0.33 1.32 0.66 2 1 C-0.475 4.465 -0.475 4.465 -3 8 C-3.33 7.01 -3.66 6.02 -4 5 C-2.0625 2.3125 -2.0625 2.3125 0 0 Z " fill="#5B58E6" transform="translate(127,138)"/>
</svg>
