<?xml version="1.0" encoding="UTF-8"?>
<svg version="1.1" xmlns="http://www.w3.org/2000/svg" width="2048" height="2048">
<path d="M0 0 C4.6058654 3.85351929 8.98783485 7.84369581 13.22343391 12.09923542 C13.81222733 12.68675075 14.40102075 13.27426608 15.00765639 13.87958491 C16.9747563 15.84362871 18.93828259 17.81120573 20.90183926 19.77879143 C22.3338174 21.21002962 23.76601499 22.64104828 25.19841179 24.07186747 C29.14455875 28.01494418 33.08757545 31.96113826 37.03010131 35.90783512 C41.31570838 40.19687489 45.60421565 44.48301315 49.89235979 48.76951611 C57.41085363 56.28593509 64.92750079 63.80419634 72.44290733 71.32370186 C80.50641849 79.39159156 88.57102097 87.45838803 96.63695908 95.52385139 C97.14646052 96.03332415 97.65596197 96.5427969 98.18090285 97.06770823 C100.77886964 99.66551863 103.37685421 102.26331126 105.97484506 104.86109759 C124.77817235 123.66301746 143.57907982 142.46735545 162.37870598 161.27297592 C180.99669053 179.89688269 199.61570941 198.51975439 218.23611641 217.14123917 C218.81436928 217.71952645 219.39262215 218.29781373 219.98839784 218.89362487 C225.26983866 224.17537889 230.55129223 229.45712015 235.8327611 234.73884611 C248.96196904 247.86869345 262.09101701 260.99870074 275.2199564 274.1288166 C275.81782301 274.72673654 276.41568963 275.32465647 277.03167341 275.94069519 C306.11524956 305.02689293 335.19698247 334.11493343 364.27856445 363.203125 C374.37067017 373.29752237 384.46278403 383.3919116 394.55493164 393.48626709 C395.18084664 394.11231904 395.80676164 394.73837099 396.45164377 395.38339421 C425.54827341 424.48636781 454.64621224 453.58803232 483.74448891 482.68935916 C485.63354551 484.57861382 487.52260154 486.46786904 489.41165746 488.35712438 C501.93051897 500.87730568 514.44940305 513.39746441 526.96830225 525.91760803 C551.877855 550.8296373 576.78727516 575.74179914 601.69660423 600.65405206 C602.8828544 601.84044147 604.06910466 603.02683079 605.25535501 604.21322001 C658.65838564 657.6225038 712.05987369 711.03332982 765.46069336 764.44482422 C766.21073837 765.19501913 766.21073837 765.19501913 766.9759358 765.96036949 C791.98405136 790.97348552 816.99207889 815.98668956 842 841 C846.59142965 837.15778635 850.96234211 833.18188448 855.18496174 828.93923676 C856.06190202 828.06421361 856.06190202 828.06421361 856.95655826 827.17151322 C858.90945602 825.22167123 860.85878047 823.26829662 862.80813503 821.3149128 C864.22988062 819.89390718 865.65184564 818.47312109 867.07400987 817.05253446 C870.99174565 813.13786875 874.90635137 809.22008596 878.82046607 805.30180013 C883.07527495 801.04355841 887.33298418 796.78821836 891.59033018 792.5325135 C899.05474955 785.07016895 906.51732278 777.60598175 913.97865486 770.14055061 C921.98411393 762.13071295 929.99066437 754.12196857 937.99855042 746.11455727 C938.50439222 745.60874416 939.01023402 745.10293105 939.53140436 744.58179027 C942.11071229 742.00263872 944.690038 739.42350495 947.26937 736.84437747 C965.93746379 718.17769109 984.6031378 699.50858663 1003.26753044 680.83819962 C1021.7515428 662.348265 1040.23658953 643.85936548 1058.72302437 625.37185287 C1059.2971204 624.79772243 1059.87121643 624.22359199 1060.46270931 623.63206366 C1065.70618517 618.3882746 1070.94967379 613.14449829 1076.19317771 607.90073728 C1089.22799853 594.86527706 1102.26265937 581.82965689 1115.29721165 568.79392815 C1116.18756347 567.90349634 1116.18756347 567.90349634 1117.09590221 566.99507602 C1145.97024324 538.1181134 1174.84274104 509.23930802 1203.71508789 480.36035156 C1213.73456177 470.33858602 1223.7540438 460.31682863 1233.77355957 450.29510498 C1234.39497009 449.67355751 1235.01638061 449.05201004 1235.65662175 448.4116278 C1264.54394676 419.51795882 1293.43258096 390.62559896 1322.321553 361.73357675 C1324.19702554 359.85790615 1326.07249751 357.98223499 1327.94796936 356.10656371 C1340.37681048 343.67640281 1352.80567417 331.24626448 1365.23455296 318.81614126 C1389.96497926 294.08323845 1414.69527296 269.35020307 1439.42547557 244.6170766 C1440.60319479 243.43921814 1441.7809141 242.26135977 1442.95863351 241.0835015 C1495.97749839 188.05838346 1548.9948207 135.03172319 1602.01147461 82.00439453 C1602.50790656 81.50786265 1603.0043385 81.01133077 1603.51581384 80.49975246 C1628.34397006 55.66659578 1653.17203824 30.83335109 1678 6 C1678.66 6.33 1679.32 6.66 1680 7 C1680.04575312 42.34746415 1680.08100684 77.69492231 1680.10213066 113.04240982 C1680.10463215 117.2131691 1680.10722078 121.38392831 1680.10986328 125.5546875 C1680.1103879 126.38502916 1680.11091252 127.21537083 1680.11145304 128.07087436 C1680.1201615 141.52502271 1680.1359339 154.97915401 1680.15430559 168.43329224 C1680.17299238 182.23302192 1680.18411413 196.03274267 1680.18817699 209.83248448 C1680.19092459 218.35129956 1680.19961034 226.87006645 1680.21583293 235.38886669 C1680.22638475 241.22631533 1680.22960473 247.06373896 1680.22700275 252.90119645 C1680.22571864 256.27178739 1680.22880579 259.64222581 1680.23841095 263.01281357 C1680.24830776 266.66361952 1680.24598808 270.31421644 1680.24050903 273.96502686 C1680.24633472 275.03505912 1680.2521604 276.10509138 1680.25816262 277.20754886 C1680.25418052 278.18389702 1680.25019842 279.16024518 1680.24609566 280.16617966 C1680.24723482 281.43064836 1680.24723482 281.43064836 1680.24839699 282.72066188 C1679.8128904 286.71695329 1678.05738388 289.46975127 1675 292 C1673.80024473 292.70236243 1672.59097846 293.38861419 1671.375 294.0625 C1667.96685641 295.60541916 1667.96685641 295.60541916 1667 298 C1666.34 298 1665.68 298 1665 298 C1664.74666941 298.5782074 1664.49333882 299.1564148 1664.23233155 299.75214364 C1662.85416277 302.26601699 1661.30967605 303.93965805 1659.28269517 305.96570182 C1658.50272188 306.7501697 1657.72274859 307.53463758 1656.91913974 308.34287721 C1656.05644289 309.20032004 1655.19374603 310.05776287 1654.30490685 310.94118881 C1652.93133007 312.31822712 1652.93133007 312.31822712 1651.53000426 313.72308439 C1648.97561037 316.2836319 1646.41498991 318.83787367 1643.85335655 321.39117583 C1641.07238665 324.16529117 1638.29721069 326.94519224 1635.52130949 329.72437787 C1630.65132147 334.598519 1625.7776177 339.46892 1620.90149117 344.33691978 C1613.65084295 351.57551725 1606.4059165 358.81982104 1599.1621703 366.06532462 C1586.97794739 378.25217788 1574.78906721 390.43436305 1562.59754562 402.61391449 C1550.5226617 414.6769731 1538.44984027 426.74208971 1526.37977982 438.80997467 C1525.62990369 439.55971332 1524.88002756 440.30945197 1524.10742791 441.08190997 C1520.29935217 444.88930907 1516.49131336 448.6967451 1512.68328877 452.50419536 C1485.69585169 479.48742921 1458.70377845 506.466021 1431.70898438 533.44189453 C1405.48040233 559.65211425 1379.25391704 585.86442911 1353.03027344 612.07958984 C1352.22225224 612.88734799 1351.41423105 613.69510613 1350.58172436 614.52734179 C1342.46740537 622.63902379 1334.35312905 630.75074847 1326.238884 638.86250443 C1309.70854504 655.38777068 1293.17792124 671.91275197 1276.64712524 688.43756104 C1275.88703032 689.19738138 1275.12693539 689.95720173 1274.34380728 690.74004694 C1223.56730865 741.49813754 1172.78417008 792.24958493 1122 843 C1122.9435873 844.10956427 1123.88843398 845.21805762 1124.83379853 846.32610804 C1125.35982238 846.94351684 1125.88584623 847.56092565 1126.4278102 848.19704381 C1128.64651806 850.74141414 1131.00315877 853.12585493 1133.39108276 855.51133728 C1133.89848625 856.01959519 1134.40588974 856.52785311 1134.9286691 857.05151278 C1136.60747664 858.73195042 1138.28980138 860.40881947 1139.97216797 862.08569336 C1141.18507519 863.29831815 1142.39776154 864.51116389 1143.61024475 865.72421265 C1146.88647574 869.00072942 1150.16577105 872.2741634 1153.44564199 875.54703593 C1156.87873577 878.97385971 1160.30897989 882.40353361 1163.73953247 885.832901 C1170.22907454 892.31934048 1176.72116052 898.80322757 1183.21417344 905.28619248 C1190.6091394 912.66996395 1198.00125107 920.05659013 1205.39312911 927.44345272 C1220.59225455 942.63213806 1235.79494544 957.81725033 1251 973 C1253.87031924 971.69783075 1255.92781553 970.32005769 1258.14743012 968.08946019 C1258.74898141 967.48984124 1259.35053269 966.89022229 1259.9703128 966.27243307 C1260.94939682 965.28118031 1260.94939682 965.28118031 1261.94826031 964.26990223 C1262.6508544 963.56661987 1263.35344848 962.8633375 1264.0773333 962.13874355 C1266.44817251 959.76314435 1268.81173153 957.38042916 1271.17546082 954.99775696 C1272.88384839 953.28308494 1274.59269103 951.56886623 1276.30195123 949.85506409 C1280.02641823 946.11874651 1283.74777921 942.37937523 1287.46649361 938.63733482 C1292.99636818 933.07287288 1298.53207424 927.51424032 1304.06922718 921.95702204 C1312.81241607 913.1820289 1321.5523988 904.4038513 1330.29037966 895.62367236 C1344.1592023 881.68812991 1358.03950027 867.76406067 1371.92385765 853.84399747 C1374.87757577 850.88265716 1377.83119028 847.9212135 1380.7848174 844.95978242 C1384.37072088 841.36442277 1387.95663442 837.76907316 1391.54257977 834.17375526 C1405.06797799 820.61294363 1418.59199393 807.05075423 1432.11450195 793.48706055 C1432.73255329 792.86713584 1433.35060464 792.24721114 1433.9873848 791.60850084 C1454.03717198 771.49773917 1474.07320245 751.37333012 1494.10321691 731.24287704 C1514.68933002 710.55372408 1535.29199158 689.88118244 1555.91461479 669.22841933 C1558.82536582 666.31338603 1561.73591212 663.3981484 1564.64632607 660.48277855 C1565.21914071 659.90899668 1565.79195535 659.33521481 1566.38212801 658.7440456 C1575.61081821 649.49873496 1584.82159581 640.23577383 1594.02565415 630.96594792 C1603.27135758 621.65485264 1612.53485229 612.36177254 1621.81700375 603.08700887 C1627.33467979 597.57259573 1632.83784594 592.04455749 1638.32147201 586.49627897 C1642.41198242 582.36060501 1646.528142 578.25116551 1650.65492205 574.15166356 C1652.32457023 572.48486596 1653.98569621 570.80948091 1655.63751414 569.1250116 C1657.87691046 566.84380671 1660.14470229 564.59530374 1662.42253399 562.35257435 C1663.38405926 561.35078633 1663.38405926 561.35078633 1664.36500928 560.32876018 C1668.77019081 556.08111784 1668.77019081 556.08111784 1672.47103129 555.83701154 C1674.71383565 556.07535927 1676.81882855 556.4335739 1679 557 C1679.74898156 560.34634687 1680.12734055 563.44255432 1680.13701439 566.86925888 C1680.14208893 567.82811422 1680.14716347 568.78696956 1680.15239179 569.77488112 C1680.15313843 571.34300595 1680.15313843 571.34300595 1680.15390015 572.94281006 C1680.1582824 574.05962544 1680.16266465 575.17644082 1680.1671797 576.32709908 C1680.18055642 580.07711725 1680.18674401 583.82711192 1680.19287109 587.57714844 C1680.20077281 590.26275814 1680.20903693 592.94836485 1680.21765137 595.63397217 C1680.24213955 603.69724942 1680.2567954 611.76053276 1680.26971143 619.82383573 C1680.27342539 622.10194747 1680.27739844 624.38005861 1680.2814641 626.65816975 C1680.306698 640.81205323 1680.32874586 654.96593772 1680.34119225 669.11983871 C1680.34412181 672.39597324 1680.3470835 675.67210774 1680.35009766 678.94824219 C1680.35084371 679.76248233 1680.35158976 680.57672248 1680.35235842 681.41563657 C1680.36501367 694.60748501 1680.39824166 707.79919872 1680.43989949 720.99098417 C1680.48233776 734.54116551 1680.50588928 748.09127789 1680.51111281 761.64152551 C1680.51452431 769.24696673 1680.52624899 776.85219721 1680.55921555 784.45757294 C1680.58724302 790.93397344 1680.59820354 797.41011995 1680.58702008 803.88657638 C1680.58184057 807.18914272 1680.58741155 810.49106706 1680.60948563 813.7935791 C1680.63214675 817.37924757 1680.62389441 820.96358009 1680.60800171 824.54925537 C1680.6218838 825.58574903 1680.63576588 826.62224269 1680.65006864 827.69014525 C1680.57566623 834.51171581 1679.1632345 839.50537728 1675 845 C1672.58563232 846.6415863 1672.58563232 846.6415863 1670 848 C1667.74165732 850.11996386 1665.69991841 852.43225614 1663.62988281 854.73461914 C1656.25986282 862.77763542 1648.63263918 870.53103933 1640.921875 878.24609375 C1639.53413106 879.63706193 1638.14645752 881.02810035 1636.7588501 882.41920471 C1633.88671676 885.29725342 1631.01259903 888.17330284 1628.13720703 891.0480957 C1624.44674933 894.73845038 1620.76330373 898.43572395 1617.08143234 902.1346426 C1614.23507769 904.99206567 1611.38424069 907.84498312 1608.5320816 910.6966114 C1607.17005109 912.05982305 1605.80964432 913.42465904 1604.45088959 914.79113579 C1602.56796741 916.68378425 1600.67890291 918.57007738 1598.78808594 920.45483398 C1598.22817459 921.02036484 1597.66826324 921.58589569 1597.09138489 922.16856384 C1593.22833885 926 1593.22833885 926 1591 926 C1590.73627629 926.58864798 1590.47255259 927.17729597 1590.20083725 927.78378177 C1588.94873888 930.09460551 1587.64153686 931.60700272 1585.78660393 933.45949173 C1585.12077667 934.12930108 1584.45494941 934.79911044 1583.76894557 935.48921704 C1582.66876383 936.58066026 1582.66876383 936.58066026 1581.5463562 937.69415283 C1580.3799805 938.8630918 1580.3799805 938.8630918 1579.19004166 940.0556457 C1576.57527616 942.6737135 1573.95341141 945.2845547 1571.33154297 947.89550781 C1569.45891963 949.76756719 1567.58669619 951.64001859 1565.71496582 953.51296997 C1561.68034572 957.54863898 1557.64207874 961.58062879 1553.60131454 965.61014557 C1547.75904889 971.43615992 1541.92231104 977.26768645 1536.08690931 983.10057482 C1526.61930157 992.56380488 1517.14723573 1002.02255962 1507.67236328 1011.47851562 C1498.46819829 1020.66432371 1489.26613537 1029.8522292 1480.06689453 1039.04296875 C1479.49989082 1039.60944702 1478.93288711 1040.17592528 1478.34870146 1040.75956956 C1475.50423481 1043.60142614 1472.65980946 1046.44332407 1469.81540465 1049.28524256 C1446.21667067 1072.86324177 1422.61070073 1096.43398417 1399 1120 C1404.03736631 1126.08685491 1409.51778787 1131.65039497 1415.1139679 1137.22076416 C1416.14002474 1138.2458236 1417.16585725 1139.27110762 1418.19148606 1140.29659534 C1420.9973104 1143.10078119 1423.80623014 1145.90184811 1426.61566675 1148.70241427 C1429.6503331 1151.72862417 1432.68206099 1154.75777528 1435.71411133 1157.78660583 C1440.96559785 1163.03180286 1446.21880323 1168.27527321 1451.47307777 1173.51767731 C1459.08062442 1181.10821846 1466.68443375 1188.70249501 1474.2871516 1196.29787239 C1486.63739105 1208.63617218 1498.9891318 1220.97296761 1511.3425293 1233.30810547 C1512.08143857 1234.04592462 1512.82034785 1234.78374377 1513.58164831 1235.54392108 C1524.06323398 1246.00990281 1534.54631313 1256.47438735 1545.02999469 1266.93826959 C1546.13699424 1268.04317917 1546.13699424 1268.04317917 1547.26635742 1269.17041016 C1548.37200282 1270.27396526 1548.37200282 1270.27396526 1549.49998448 1271.3998144 C1561.80630449 1283.6830701 1574.10873957 1295.97020835 1586.40801972 1308.26051307 C1593.98699176 1315.83364397 1601.56919622 1323.40350945 1609.15563753 1330.96915808 C1614.35774569 1336.15751889 1619.55620232 1341.34951975 1624.7518448 1346.54435524 C1627.74582121 1349.53763031 1630.74138862 1352.52926519 1633.74142265 1355.51646996 C1636.49388782 1358.25722686 1639.24158736 1361.00267334 1641.98575141 1363.7517409 C1642.97320546 1364.73934483 1643.96232323 1365.72528907 1644.95337263 1366.70928505 C1660.91179916 1382.56008893 1660.91179916 1382.56008893 1664.06056672 1389.25496602 C1664.93647526 1391.35961927 1664.93647526 1391.35961927 1668 1392 C1668 1392.66 1668 1393.32 1668 1394 C1668.99 1394.33 1669.98 1394.66 1671 1395 C1671 1395.66 1671 1396.32 1671 1397 C1671.99 1397.33 1672.98 1397.66 1674 1398 C1674 1398.66 1674 1399.32 1674 1400 C1675.32 1400.33 1676.64 1400.66 1678 1401 C1679.84266438 1408.0446613 1680.28015992 1414.48693941 1680.24050903 1421.75013733 C1680.24221788 1422.90530537 1680.24392673 1424.0604734 1680.24568737 1425.25064653 C1680.24839896 1428.43421621 1680.24219845 1431.61762054 1680.23213124 1434.80117071 C1680.22345595 1438.24276221 1680.22641978 1441.68434667 1680.22793579 1445.12594604 C1680.22898207 1451.08119066 1680.22273239 1457.03639128 1680.21146011 1462.99162483 C1680.19517316 1471.60177758 1680.18999384 1480.21190917 1680.18748413 1488.82207566 C1680.18311203 1502.79309829 1680.16981612 1516.7640975 1680.15087891 1530.73510742 C1680.13250753 1544.30281457 1680.11835718 1557.87051534 1680.10986328 1571.43823242 C1680.10933783 1572.27521367 1680.10881239 1573.11219491 1680.10827102 1573.97453923 C1680.10566085 1578.1736275 1680.10313346 1582.37271582 1680.10064721 1586.57180417 C1680.07992983 1621.38121947 1680.04471754 1656.19060757 1680 1691 C1676.14424624 1689.42913736 1673.88693595 1686.95312328 1671 1684 C1670.07548536 1683.07548536 1669.15097071 1682.15097071 1668.19844047 1681.19844047 C1609.75255867 1622.75255867 1551.30667688 1564.30667688 843 856 C838.39663602 859.85143691 834.01694933 863.83910658 829.78412879 868.09282339 C828.90216665 868.97305474 828.90216665 868.97305474 828.00238709 869.87106855 C826.03807306 871.83274273 824.07733762 873.79795417 822.11657143 875.76317406 C820.68660181 877.19270725 819.25641226 878.62202047 817.82602304 880.05113381 C813.88544338 883.98947454 809.94799663 887.93093462 806.01103926 891.87289591 C801.73146 896.15680847 797.44897218 900.43781174 793.16684568 904.71917784 C785.65889994 912.22659014 778.15279577 919.73583923 770.64792633 927.24632645 C762.59571001 935.30454835 754.5423958 943.36167067 746.48773575 951.41744995 C745.97894472 951.92631276 745.4701537 952.43517558 744.94594476 952.95945848 C742.35159787 955.55416025 739.75723204 958.1488431 737.16285869 960.74351842 C718.96217957 978.94637707 700.76363175 997.15136513 682.5663557 1015.35762576 C663.39729042 1034.53615474 644.22703219 1053.71348995 625.05500412 1072.88905716 C624.4775168 1073.46665164 623.90002948 1074.04424611 623.30504254 1074.63934345 C616.85261135 1081.09296567 610.40014062 1087.54654836 603.9476537 1094.00011487 C592.0136962 1105.93607192 580.07990503 1117.87219527 568.1461544 1129.80835915 C567.54907121 1130.40556262 566.95198801 1131.0027661 566.33681138 1131.61806665 C537.919632 1160.04098711 509.50396894 1188.46542332 481.08865514 1216.89020886 C479.20314898 1218.77634336 477.31764206 1220.66247711 475.43213497 1222.54861069 C456.49636172 1241.49067889 437.56067269 1260.43283128 418.625 1279.375 C399.05038099 1298.95633387 379.475738 1318.53764376 359.90101116 1338.11886984 C358.01464728 1340.00586037 356.12828416 1341.89285166 354.24192111 1343.77984303 C325.83974765 1372.19146641 297.4371241 1400.60263965 269.03308678 1429.01239967 C268.43652148 1429.60908562 267.83995619 1430.20577157 267.22531316 1430.82053891 C255.30819261 1442.74006548 243.39100623 1454.65952623 231.47368003 1466.57884719 C225.02979167 1473.02381516 218.58593137 1479.46881119 212.14210129 1485.91383743 C211.27733653 1486.77876189 211.27733653 1486.77876189 210.39510177 1487.66115958 C191.22398052 1506.83585766 172.0548602 1526.01255482 152.88667895 1545.19019187 C134.74946472 1563.33633417 116.61073252 1581.48095779 98.47011117 1599.62369404 C95.8880101 1602.20609819 93.30592805 1604.78852137 90.72385788 1607.37095642 C89.9645772 1608.13034276 89.9645772 1608.13034276 89.18995753 1608.90507025 C81.15203959 1616.94420262 73.11581825 1624.9850288 65.08029498 1633.02655468 C57.19268547 1640.9199899 49.30328376 1648.81163016 41.41205761 1656.70145004 C37.18524976 1660.92761235 32.95926937 1665.15459369 28.73545571 1669.3837487 C24.90233211 1673.22169156 21.06696846 1677.05738014 17.22970995 1680.8911887 C15.84162217 1682.27885098 14.45439449 1683.66737422 13.06807759 1685.05680566 C11.20225174 1686.92658697 9.33344048 1688.79332969 7.46377623 1690.6592716 C6.91729482 1691.20838002 6.37081341 1691.75748845 5.80777195 1692.32323652 C2.11415436 1696 2.11415436 1696 1 1696 C0.58234644 1613.46417306 0.21205544 1530.9277257 -0.11352539 1279.77172852 C-0.1136084 1278.89506198 -0.1136914 1278.01839545 -0.11377692 1277.11516327 C-0.1180549 1231.89176668 -0.11329978 1186.66837246 -0.10463549 1141.44497668 C-0.09901468 1112.10066144 -0.09586953 1082.75634694 -0.09487724 1053.41203117 C-0.09484283 1052.42247147 -0.09480842 1051.43291177 -0.09477296 1050.4133654 C-0.09445954 1041.36837633 -0.09417187 1032.32338726 -0.09391499 1023.27839819 C-0.09327757 1000.84565044 -0.09231949 978.41290272 -0.09113979 955.98015499 C-0.09108648 954.96133944 -0.09103316 953.9425239 -0.09097823 952.89283515 C-0.08838962 903.96232922 -0.08209647 855.03182388 -0.07543945 806.10131836 C-0.07314669 789.23343913 -0.07087082 772.3655599 -0.06866455 755.49768066 C-0.0685276 754.45077645 -0.06839065 753.40387224 -0.06824955 752.32524365 C-0.06184298 703.17243088 -0.05816004 654.019618 -0.05512976 604.86680492 C-0.0549317 601.65508409 -0.05473251 598.44336327 -0.05453308 595.23164244 C-0.05321269 573.93804619 -0.05193815 552.64444994 -0.05069422 531.35085369 C-0.04822109 489.0227233 -0.04547956 446.69459293 -0.04255217 404.36646256 C-0.04241293 402.35307199 -0.04227387 400.33968142 -0.04213501 398.32629084 C-0.03592392 308.29508228 -0.02659964 218.26387414 -0.01586914 128.23266602 C-0.01576921 127.39401626 -0.01566927 126.5553665 -0.01556631 125.69130312 C-0.01057131 83.79420205 -0.00539562 41.89710101 0 0 Z M195 481 C194.98285002 547.27352842 194.96695198 613.54705711 194.95765686 679.82058716 C194.9575188 680.80240422 194.95738075 681.78422127 194.95723851 682.79579036 C194.95424518 704.13642967 194.95147505 725.477069 194.94893467 746.81770837 C194.9476874 757.28407121 194.94639084 767.75043404 194.94506836 778.21679688 C194.9449376 779.25829218 194.94480684 780.29978749 194.94467212 781.37284326 C194.94041538 815.09387467 194.93290752 848.8149044 194.92370278 882.5359348 C194.91425617 917.20620456 194.90811131 951.8764734 194.90608501 986.54674443 C194.90579688 991.45048592 194.90547124 996.35422741 194.90512276 1001.2579689 C194.90505533 1002.22303809 194.90498791 1003.18810728 194.90491844 1004.18242099 C194.90373951 1019.67946547 194.899109 1035.17650706 194.89316797 1050.67355036 C194.88726081 1066.27625025 194.88503699 1081.87894729 194.88649862 1097.48164825 C194.88725569 1106.73658509 194.88526303 1115.99151147 194.87920246 1125.24644642 C194.87542069 1131.44871256 194.87535846 1137.65097195 194.87816819 1143.85323858 C194.87966134 1147.37437121 194.87968301 1150.89548421 194.87511682 1154.41661464 C194.85673377 1171.63548424 195.19302304 1188.79917399 196 1206 C200.6604673 1202.10420799 205.08302051 1198.06003731 209.36588669 1193.75436783 C209.96906072 1193.15204804 210.57223475 1192.54972826 211.19368678 1191.92915636 C213.20578439 1189.91869761 215.21429765 1187.90469682 217.22283936 1185.89068604 C218.68258193 1184.43066331 220.14254631 1182.97086231 221.60271287 1181.51126361 C225.60810675 1177.50616494 229.61038075 1173.49796126 233.61215758 1169.48924899 C237.93068701 1165.16434125 242.25212331 1160.84233981 246.57322693 1156.52000427 C254.05791262 1149.03243287 261.54082968 1141.5430982 269.02257538 1134.05258942 C279.84266255 1123.21988986 290.66603751 1112.39047978 301.49028948 1101.56194195 C306.53448128 1096.5157441 311.57851233 1091.46938558 316.62250137 1086.42298508 C317.12738768 1085.91785776 317.63227398 1085.41273045 318.15245987 1084.89229624 C330.16316172 1072.87578616 342.17228842 1060.85770226 354.18115234 1048.83935547 C354.70645933 1048.31363483 355.23176632 1047.7879142 355.77299171 1047.24626264 C363.76538814 1039.24756871 371.75770251 1031.24879279 379.75 1023.25 C388.28006297 1014.71300571 396.81015795 1006.17604342 405.34033203 997.63916016 C405.86596389 997.1131137 406.39159576 996.58706725 406.93315586 996.04507999 C418.92955863 984.03923214 430.92640962 972.03383264 442.92467117 960.02984238 C443.42864006 959.5256325 443.93260894 959.02142262 444.45184961 958.50193365 C449.48238909 953.46900914 454.51300711 948.43616314 459.54374253 943.40343449 C470.35806958 932.58478782 481.17101151 921.76476191 491.98117466 910.94195451 C499.85705871 903.05689982 507.73467982 895.17358408 515.61402455 887.29198727 C519.88499383 883.01966872 524.1551154 878.74651129 528.42307091 874.47118187 C532.32521164 870.56232445 536.22961674 866.65574418 540.13588086 862.75100753 C541.55314954 861.33346599 542.96955889 859.91506469 544.38504872 858.49574688 C546.30023764 856.57561675 548.21844568 854.65855551 550.13747787 852.74226761 C550.69392984 852.18290278 551.25038181 851.62353795 551.82369596 851.04722267 C554.12692164 848.75297229 556.28427563 846.81048291 559 845 C557.55662966 841.69805109 555.76269557 839.50982507 553.22460938 836.96582031 C552.06330505 835.79505951 552.06330505 835.79505951 550.87854004 834.60064697 C550.04205933 833.76821472 549.20557861 832.93578247 548.34375 832.078125 C547.48567749 831.21813904 546.62760498 830.35815308 545.74353027 829.47210693 C543.93027533 827.65749174 542.11449519 825.84539684 540.29638672 824.03564453 C537.50385862 821.25384379 534.72217542 818.46151855 531.94140625 815.66796875 C530.18032867 813.90821228 528.41863106 812.14907605 526.65625 810.390625 C525.40152893 809.12983124 525.40152893 809.12983124 524.12145996 807.84356689 C523.34725708 807.07566833 522.5730542 806.30776978 521.77539062 805.51660156 C521.09303345 804.83583557 520.41067627 804.15506958 519.7076416 803.45367432 C518.11994508 801.78392923 518.11994508 801.78392923 516 802 C515.731875 801.401875 515.46375 800.80375 515.1875 800.1875 C514.00082594 798.00152146 512.90400887 796.58667406 511 795 C510.34 795 509.68 795 509 795 C509 794.34 509 793.68 509 793 C508.34 793 507.68 793 507 793 C507 792.34 507 791.68 507 791 C506.34 791 505.68 791 505 791 C505 790.34 505 789.68 505 789 C504.34 789 503.68 789 503 789 C503 788.34 503 787.68 503 787 C502.34 787 501.68 787 501 787 C501 786.34 501 785.68 501 785 C500.34 785 499.68 785 499 785 C499 784.34 499 783.68 499 783 C498.34 783 497.68 783 497 783 C496.731875 782.360625 496.46375 781.72125 496.1875 781.0625 C495.11332248 778.66868314 495.11332248 778.66868314 492 778 C492 777.34 492 776.68 492 776 C491.34 776 490.68 776 490 776 C490 775.34 490 774.68 490 774 C489.34 774 488.68 774 488 774 C488 773.34 488 772.68 488 772 C487.34 772 486.68 772 486 772 C486 771.34 486 770.68 486 770 C485.34 770 484.68 770 484 770 C484 769.34 484 768.68 484 768 C483.34 768 482.68 768 482 768 C482 767.34 482 766.68 482 766 C481.34 766 480.68 766 480 766 C479.731875 765.360625 479.46375 764.72125 479.1875 764.0625 C478.11332248 761.66868314 478.11332248 761.66868314 475 761 C475 760.34 475 759.68 475 759 C474.34 759 473.68 759 473 759 C473 758.34 473 757.68 473 757 C472.34 757 471.68 757 471 757 C471 756.34 471 755.68 471 755 C470.34 755 469.68 755 469 755 C469 754.34 469 753.68 469 753 C468.34 753 467.68 753 467 753 C467 752.34 467 751.68 467 751 C466.34 751 465.68 751 465 751 C465 750.34 465 749.68 465 749 C464.34 749 463.68 749 463 749 C462.67 748.01 462.34 747.02 462 746 C461.34 746 460.68 746 460 746 C460 745.34 460 744.68 460 744 C459.34 744 458.68 744 458 744 C458 743.34 458 742.68 458 742 C457.34 742 456.68 742 456 742 C456 741.34 456 740.68 456 740 C455.34 740 454.68 740 454 740 C454 739.34 454 738.68 454 738 C453.34 738 452.68 738 452 738 C452 737.34 452 736.68 452 736 C451.34 736 450.68 736 450 736 C450 735.34 450 734.68 450 734 C449.34 734 448.68 734 448 734 C447.5978125 733.0409375 447.5978125 733.0409375 447.1875 732.0625 C446.11332248 729.66868314 446.11332248 729.66868314 443 729 C443 728.34 443 727.68 443 727 C442.34 727 441.68 727 441 727 C441 726.34 441 725.68 441 725 C440.34 725 439.68 725 439 725 C439 724.34 439 723.68 439 723 C438.34 723 437.68 723 437 723 C437 722.34 437 721.68 437 721 C436.34 721 435.68 721 435 721 C435 720.34 435 719.68 435 719 C434.34 719 433.68 719 433 719 C433 718.34 433 717.68 433 717 C432.34 717 431.68 717 431 717 C430.5978125 716.0409375 430.5978125 716.0409375 430.1875 715.0625 C429.11332248 712.66868314 429.11332248 712.66868314 426 712 C426 711.34 426 710.68 426 710 C425.34 710 424.68 710 424 710 C424 709.34 424 708.68 424 708 C423.34 708 422.68 708 422 708 C422 707.34 422 706.68 422 706 C421.34 706 420.68 706 420 706 C420 705.34 420 704.68 420 704 C419.34 704 418.68 704 418 704 C418 703.34 418 702.68 418 702 C417.34 702 416.68 702 416 702 C416 701.34 416 700.68 416 700 C415.34 700 414.68 700 414 700 C413.5978125 699.0409375 413.5978125 699.0409375 413.1875 698.0625 C412.11332248 695.66868314 412.11332248 695.66868314 409 695 C409 694.34 409 693.68 409 693 C408.34 693 407.68 693 407 693 C407 692.34 407 691.68 407 691 C406.34 691 405.68 691 405 691 C405 690.34 405 689.68 405 689 C404.34 689 403.68 689 403 689 C403 688.34 403 687.68 403 687 C402.34 687 401.68 687 401 687 C401 686.34 401 685.68 401 685 C400.34 685 399.68 685 399 685 C399 684.34 399 683.68 399 683 C398.34 683 397.68 683 397 683 C396.5978125 682.0409375 396.5978125 682.0409375 396.1875 681.0625 C395.11332248 678.66868314 395.11332248 678.66868314 392 678 C392 677.34 392 676.68 392 676 C391.34 676 390.68 676 390 676 C390 675.34 390 674.68 390 674 C389.34 674 388.68 674 388 674 C388 673.34 388 672.68 388 672 C387.34 672 386.68 672 386 672 C386 671.34 386 670.68 386 670 C385.34 670 384.68 670 384 670 C384 669.34 384 668.68 384 668 C383.34 668 382.68 668 382 668 C381.5978125 667.0409375 381.5978125 667.0409375 381.1875 666.0625 C380.11332248 663.66868314 380.11332248 663.66868314 377 663 C377 662.34 377 661.68 377 661 C376.34 661 375.68 661 375 661 C375 660.34 375 659.68 375 659 C374.34 659 373.68 659 373 659 C373 658.34 373 657.68 373 657 C372.34 657 371.68 657 371 657 C371 656.34 371 655.68 371 655 C370.34 655 369.68 655 369 655 C369 654.34 369 653.68 369 653 C368.34 653 367.68 653 367 653 C367 652.34 367 651.68 367 651 C366.34 651 365.68 651 365 651 C364.5978125 650.0409375 364.5978125 650.0409375 364.1875 649.0625 C363.11332248 646.66868314 363.11332248 646.66868314 360 646 C360 645.34 360 644.68 360 644 C359.34 644 358.68 644 358 644 C358 643.34 358 642.68 358 642 C357.34 642 356.68 642 356 642 C356 641.34 356 640.68 356 640 C355.34 640 354.68 640 354 640 C354 639.34 354 638.68 354 638 C353.34 638 352.68 638 352 638 C351.731875 637.401875 351.46375 636.80375 351.1875 636.1875 C350.00082594 634.00152146 348.90400887 632.58667406 347 631 C346.34 631 345.68 631 345 631 C345 630.34 345 629.68 345 629 C344.34 629 343.68 629 343 629 C343 628.34 343 627.68 343 627 C342.34 627 341.68 627 341 627 C341 626.34 341 625.68 341 625 C340.34 625 339.68 625 339 625 C339 624.34 339 623.68 339 623 C338.34 623 337.68 623 337 623 C336.773125 622.443125 336.54625 621.88625 336.3125 621.3125 C334.62449964 618.33840412 332.53323483 616.27991135 330 614 C329.34 614 328.68 614 328 614 C328 613.34 328 612.68 328 612 C327.34 612 326.68 612 326 612 C326 611.34 326 610.68 326 610 C325.34 610 324.68 610 324 610 C324 609.34 324 608.68 324 608 C323.34 608 322.68 608 322 608 C322 607.34 322 606.68 322 606 C321.34 606 320.68 606 320 606 C319.5978125 605.0409375 319.5978125 605.0409375 319.1875 604.0625 C318.11332248 601.66868314 318.11332248 601.66868314 315 601 C315 600.34 315 599.68 315 599 C314.34 599 313.68 599 313 599 C313 598.34 313 597.68 313 597 C312.34 597 311.68 597 311 597 C311 596.34 311 595.68 311 595 C310.34 595 309.68 595 309 595 C309 594.34 309 593.68 309 593 C308.34 593 307.68 593 307 593 C307 592.34 307 591.68 307 591 C306.34 591 305.68 591 305 591 C304.5978125 590.0409375 304.5978125 590.0409375 304.1875 589.0625 C303.11332248 586.66868314 303.11332248 586.66868314 300 586 C300 585.34 300 584.68 300 584 C299.34 584 298.68 584 298 584 C298 583.34 298 582.68 298 582 C297.34 582 296.68 582 296 582 C296 581.34 296 580.68 296 580 C295.34 580 294.68 580 294 580 C294 579.34 294 578.68 294 578 C293.34 578 292.68 578 292 578 C292 577.34 292 576.68 292 576 C291.34 576 290.68 576 290 576 C289.5978125 575.1028125 289.5978125 575.1028125 289.1875 574.1875 C288.00082594 572.00152146 286.90400887 570.58667406 285 569 C284.34 569 283.68 569 283 569 C283 568.34 283 567.68 283 567 C282.34 567 281.68 567 281 567 C281 566.34 281 565.68 281 565 C280.34 565 279.68 565 279 565 C279 564.34 279 563.68 279 563 C278.34 563 277.68 563 277 563 C277 562.34 277 561.68 277 561 C276.34 561 275.68 561 275 561 C274.5978125 560.0409375 274.5978125 560.0409375 274.1875 559.0625 C273.11332248 556.66868314 273.11332248 556.66868314 270 556 C270 555.34 270 554.68 270 554 C269.34 554 268.68 554 268 554 C268 553.34 268 552.68 268 552 C267.34 552 266.68 552 266 552 C266 551.34 266 550.68 266 550 C265.34 550 264.68 550 264 550 C264 549.34 264 548.68 264 548 C263.34 548 262.68 548 262 548 C261.5978125 547.1028125 261.5978125 547.1028125 261.1875 546.1875 C260.00082594 544.00152146 258.90400887 542.58667406 257 541 C256.34 541 255.68 541 255 541 C255 540.34 255 539.68 255 539 C254.34 539 253.68 539 253 539 C253 538.34 253 537.68 253 537 C252.34 537 251.68 537 251 537 C251 536.34 251 535.68 251 535 C250.34 535 249.68 535 249 535 C248.773125 534.443125 248.54625 533.88625 248.3125 533.3125 C246.62449964 530.33840412 244.53323483 528.27991135 242 526 C241.34 526 240.68 526 240 526 C240 525.34 240 524.68 240 524 C239.34 524 238.68 524 238 524 C238 523.34 238 522.68 238 522 C237.34 522 236.68 522 236 522 C235.7628125 521.43796875 235.525625 520.8759375 235.28125 520.296875 C233.71052303 517.48105958 231.78528536 515.52044584 229.5 513.25 C228.7059375 512.45078125 227.911875 511.6515625 227.09375 510.828125 C225.21216538 508.78076391 225.21216538 508.78076391 223 509 C223 508.34 223 507.68 223 507 C222.34 507 221.68 507 221 507 C221 506.34 221 505.68 221 505 C220.34 505 219.68 505 219 505 C218.7628125 504.43796875 218.525625 503.8759375 218.28125 503.296875 C216.71052303 500.48105958 214.78528536 498.52044584 212.5 496.25 C211.7059375 495.45078125 210.911875 494.6515625 210.09375 493.828125 C208.21216538 491.78076391 208.21216538 491.78076391 206 492 C206 491.34 206 490.68 206 490 C205.34 490 204.68 490 204 490 C203.773125 489.443125 203.54625 488.88625 203.3125 488.3125 C201.62449964 485.33840412 199.53323483 483.27991135 197 481 C196.34 481 195.68 481 195 481 Z " fill="#FFFFFF" transform="translate(184,177)"/>
<path d="" fill="#000000" transform="translate(0,0)"/>
<path d="" fill="#000000" transform="translate(0,0)"/>
<path d="" fill="#000000" transform="translate(0,0)"/>
<path d="" fill="#000000" transform="translate(0,0)"/>
<path d="" fill="#000000" transform="translate(0,0)"/>
<path d="" fill="#000000" transform="translate(0,0)"/>
</svg>
