<?xml version="1.0" encoding="UTF-8"?>
<svg version="1.1" xmlns="http://www.w3.org/2000/svg" width="300" height="168">
<path d="M0 0 C99 0 198 0 300 0 C300 55.44 300 110.88 300 168 C201 168 102 168 0 168 C0 112.56 0 57.12 0 0 Z " fill="#FCFDFF" transform="translate(0,0)"/>
<path d="M0 0 C99 0 198 0 300 0 C300 55.44 300 110.88 300 168 C201 168 102 168 0 168 C0 112.56 0 57.12 0 0 Z M35.390625 36.32421875 C33.83020195 38.20461619 33.39551956 39.61127002 33 42 C32.01 42 31.02 42 30 42 C20.04536051 51.54488436 14.76378705 65.79192546 13.75390625 79.2890625 C13.36483468 98.46800218 19.80630381 115.37625348 32.578125 129.76171875 C34.57901089 131.50424849 36.38067144 131.92296092 39 132 C39 132.99 39 133.98 39 135 C53.0506591 147.10077171 71.42584993 149.05207242 89.12695312 148.26074219 C103.15176978 146.98792572 116.54918461 137.92556125 127 129 C128.45747701 126.08504599 128.13184681 123.49538627 128.125 120.25 C128.12757813 119.03828125 128.13015625 117.8265625 128.1328125 116.578125 C128.01077361 113.29025367 127.62341681 110.22593463 127 107 C124.36 107 121.72 107 119 107 C119 106.34 119 105.68 119 105 C122.63 105 126.26 105 130 105 C130 111.6 130 118.2 130 125 C130.66 125 131.32 125 132 125 C132 124.34 132 123.68 132 123 C132.8986377 122.59817505 132.8986377 122.59817505 133.81542969 122.18823242 C136.02970129 120.98384486 137.28945929 119.85862936 138.953125 117.98828125 C139.48655518 117.39805176 140.01998535 116.80782227 140.56958008 116.19970703 C141.12411865 115.57692871 141.67865723 114.95415039 142.25 114.3125 C146.8987214 109.18770866 151.59412017 104.34430222 157 100 C156.34 100.99 155.68 101.98 155 103 C153.99431758 104.66324401 152.99335201 106.32936253 152 108 C153.9761924 110.00301854 155.95574474 112.00249867 157.9375 114 C158.78344727 114.85851562 158.78344727 114.85851562 159.64648438 115.734375 C161.07878776 117.17525505 162.53741129 118.58987143 164 120 C164.33 120 164.66 120 165 120 C165.33 118.35 165.66 116.7 166 115 C166 116.155 166 117.31 166 118.5 C166.81779497 124.476194 170.44220378 127.37882761 175 131 C188.67843348 141.19781425 202.04503581 148.40047554 219.4375 148.25 C220.77264648 148.26160156 220.77264648 148.26160156 222.13476562 148.2734375 C235.64851262 148.23395248 250.68483799 144.0890704 261 135 C261 134.34 261 133.68 261 133 C261.99 133 262.98 133 264 133 C264 132.34 264 131.68 264 131 C264.58007812 130.76023437 265.16015625 130.52046875 265.7578125 130.2734375 C276.10068739 124.39926117 281.86649029 109.11169904 285.125 98.25 C288.7302743 80.94468338 285.03403774 63.99339343 276 49 C273.29233742 45.09734813 270.36443904 41.35758683 267 38 C266.34 38 265.68 38 265 38 C264.67 38.99 264.34 39.98 264 41 C263.896875 39.989375 263.79375 38.97875 263.6875 37.9375 C262.24942198 32.95953761 258.41706832 31.12757906 254.140625 28.63671875 C238.01525882 20.23307643 218.25777875 15.98460516 200.375 21.5625 C198.55802835 22.31671465 196.76521318 23.1315254 195 24 C193.93910156 24.49757813 192.87820312 24.99515625 191.78515625 25.5078125 C179.18076973 31.81549673 179.18076973 31.81549673 170 42 C170.33 42.66 170.66 43.32 171 44 C170.29617187 44.05027344 169.59234375 44.10054687 168.8671875 44.15234375 C164.98465741 45.30017621 162.82968518 47.69922546 160.125 50.5625 C159.5976123 51.10390625 159.07022461 51.6453125 158.52685547 52.203125 C155.61693114 55.21406974 152.83165328 58.30397414 150.125 61.5 C147.38473315 64.73176435 144.65165975 66.86244307 141 69 C141.44472656 68.55269531 141.88945312 68.10539062 142.34765625 67.64453125 C142.91355469 67.03996094 143.47945312 66.43539062 144.0625 65.8125 C144.91521484 64.92498047 144.91521484 64.92498047 145.78515625 64.01953125 C147.23272862 62.05477099 147.23272862 62.05477099 146.81933594 59.64819336 C145.82490449 56.43407002 144.48017176 54.97799513 142.10546875 52.609375 C141.31462891 51.81789063 140.52378906 51.02640625 139.70898438 50.2109375 C138.46084961 48.99277344 138.46084961 48.99277344 137.1875 47.75 C136.36701172 46.92242187 135.54652344 46.09484375 134.70117188 45.2421875 C130.05060546 40.40136293 130.05060546 40.40136293 124 38 C123.71125 37.401875 123.4225 36.80375 123.125 36.1875 C119.40861243 28.96119084 106.37919243 24.41196905 99 22 C97.989375 21.64421875 96.97875 21.2884375 95.9375 20.921875 C74.80332536 15.02383378 51.44449317 22.19276757 35.390625 36.32421875 Z " fill="#FEFEFF" transform="translate(0,0)"/>
<path d="M0 0 C1.00595215 0.00829834 2.0119043 0.01659668 3.04833984 0.02514648 C17.40603008 0.34816578 31.72693169 4.12572394 42.62890625 13.984375 C44.94385908 16.58507335 45.51943325 18.01838792 45.8125 21.4375 C46.3075 19.9525 46.3075 19.9525 46.8125 18.4375 C47.4725 18.4375 48.1325 18.4375 48.8125 18.4375 C62.06779472 33.21858404 68.72079116 49.48513377 68.1015625 69.41796875 C67.80674703 74.70358901 66.62868882 79.47429433 64.8125 84.4375 C64.5340625 85.27539062 64.255625 86.11328125 63.96875 86.9765625 C60.60374578 96.34635874 54.56545276 104.213411 47.8125 111.4375 C47.1525 111.4375 46.4925 111.4375 45.8125 111.4375 C45.8125 112.0975 45.8125 112.7575 45.8125 113.4375 C44.8225 113.4375 43.8325 113.4375 42.8125 113.4375 C42.3175 114.9225 42.3175 114.9225 41.8125 116.4375 C27.03753988 127.9922765 8.84534113 129.72205992 -9.1875 128.4375 C-23.05674373 125.99080882 -34.41757832 118.11937564 -45.1875 109.4375 C-46.20457031 108.63119141 -46.20457031 108.63119141 -47.2421875 107.80859375 C-50.29653425 105.12690653 -51.53084486 103.00503358 -52.0625 99.0625 C-52.10375 97.86625 -52.145 96.67 -52.1875 95.4375 C-52.5175 97.0875 -52.8475 98.7375 -53.1875 100.4375 C-58.08728413 96.47998205 -62.19270914 92.30919618 -66.1875 87.4375 C-64.2075 84.7975 -62.2275 82.1575 -60.1875 79.4375 C-61.8375 80.7575 -63.4875 82.0775 -65.1875 83.4375 C-63.7033627 79.95095524 -61.72535948 77.79558928 -59 75.1875 C-55.57215472 71.83570834 -52.33766761 68.44878156 -49.2890625 64.75 C-47.55668383 62.84373946 -45.83990956 61.23877942 -43.8984375 59.5625 C-37.26520375 53.57326952 -33.5563977 49.14001682 -32.93115234 39.9597168 C-32.84982581 35.76362125 -32.94404278 31.62815707 -33.1875 27.4375 C-39.1275 26.7775 -45.0675 26.1175 -51.1875 25.4375 C-49.8675 25.1075 -48.5475 24.7775 -47.1875 24.4375 C-47.5175 23.4475 -47.8475 22.4575 -48.1875 21.4375 C-34.63739116 8.6639017 -18.88663614 -0.20248209 0 0 Z " fill="#FCFDFF" transform="translate(218.1875,19.5625)"/>
<path d="M0 0 C0.66 0 1.32 0 2 0 C15.25529472 14.78108404 21.90829116 31.04763377 21.2890625 50.98046875 C20.99424703 56.26608901 19.81618882 61.03679433 18 66 C17.7215625 66.83789062 17.443125 67.67578125 17.15625 68.5390625 C14.78843821 75.13219361 11.24167896 80.46173796 7 86 C6.49210937 86.70898438 5.98421875 87.41796875 5.4609375 88.1484375 C4.97882813 88.78007813 4.49671875 89.41171875 4 90.0625 C3.5875 90.61035156 3.175 91.15820312 2.75 91.72265625 C-1.03830012 94.4877771 -5.29935904 94.10447514 -9.74609375 93.44140625 C-11.57333984 93.00634766 -11.57333984 93.00634766 -13.4375 92.5625 C-14.67371094 92.27503906 -15.90992188 91.98757812 -17.18359375 91.69140625 C-18.11300781 91.46324219 -19.04242188 91.23507813 -20 91 C-20.48956996 71.63478819 -20.48956996 71.63478819 -14 64 C-9.17420325 55.73688135 -7.24983154 46.8006546 -9.68359375 37.34375 C-11.63091039 32.10781149 -14.27221942 27.88900229 -17.828125 23.59375 C-19 22 -19 22 -19 20 C-13.06 19.67 -7.12 19.34 -1 19 C-1.020625 16.97875 -1.04125 14.9575 -1.0625 12.875 C-1.10770995 8.44442519 -0.84023188 4.35332736 0 0 Z " fill="#0F97FF" transform="translate(265,38)"/>
<path d="M0 0 C3.41325785 -0.28692886 5.57458047 -0.30571962 8.4609375 1.6640625 C9.79048413 2.86888121 11.09346552 4.10353982 12.37109375 5.36328125 C19.59064868 12.03468478 27.89704475 15.70693173 37.66796875 15.6875 C38.42102295 15.68733887 39.17407715 15.68717773 39.94995117 15.68701172 C46.11212433 15.56123957 51.03428141 14.2558044 56.48046875 11.3125 C57.80046875 10.6525 59.12046875 9.9925 60.48046875 9.3125 C60.15046875 15.5825 59.82046875 21.8525 59.48046875 28.3125 C62.12046875 28.6425 64.76046875 28.9725 67.48046875 29.3125 C69.15297547 29.63797361 70.82154203 29.98618905 72.48046875 30.375 C73.24359375 30.55160156 74.00671875 30.72820312 74.79296875 30.91015625 C75.34984375 31.04292969 75.90671875 31.17570312 76.48046875 31.3125 C74.60653739 36.53918807 70.32365575 37.68037389 65.5859375 39.921875 C50.68284049 46.59546309 31.88979423 48.3172959 16.3203125 42.56640625 C6.80507999 38.36504499 -1.48642089 32.9300336 -9.51953125 26.3125 C-10.45410156 25.60867187 -11.38867188 24.90484375 -12.3515625 24.1796875 C-15.56974076 19.92357427 -15.06992754 16.17881925 -14.83203125 11 C-14.80947266 10.06865234 -14.78691406 9.13730469 -14.76367188 8.17773438 C-14.70495203 5.8876604 -14.62289983 3.60092125 -14.51953125 1.3125 C-11.60020643 1.03588039 -8.68204951 0.78241912 -5.7578125 0.5625 C-3.83512582 0.41406581 -1.9137438 0.23736357 0 0 Z " fill="#0E97FF" transform="translate(182.51953125,102.6875)"/>
<path d="M0 0 C1.00595215 0.00829834 2.0119043 0.01659668 3.04833984 0.02514648 C17.73980307 0.355675 30.98184122 4.52654965 42.6875 13.6875 C45.5439398 17.38406915 45.18780817 19.41990608 44.6875 24 C44.49800781 25.95099609 44.49800781 25.95099609 44.3046875 27.94140625 C43.93922182 30.5373728 43.47647307 32.91668237 42.8125 35.4375 C31.78104391 36.71887294 24.11524033 37.29565849 14.12890625 31.82421875 C6.34979008 28.57146699 -3.69711401 29.16148142 -11.5625 31.9375 C-17.26412466 34.656285 -22.20148152 38.60465385 -27.1875 42.4375 C-28.1775 43.0975 -29.1675 43.7575 -30.1875 44.4375 C-30.1875 37.8375 -30.1875 31.2375 -30.1875 24.4375 C-32.415 24.31375 -34.6425 24.19 -36.9375 24.0625 C-44.65178571 23.63392857 -44.65178571 23.63392857 -48.1875 21.4375 C-34.63739116 8.6639017 -18.88663614 -0.20248209 0 0 Z " fill="#0F98FF" transform="translate(218.1875,19.5625)"/>
<path d="M0 0 C0.72445312 0.06832031 1.44890625 0.13664062 2.1953125 0.20703125 C3.28199219 0.28630859 3.28199219 0.28630859 4.390625 0.3671875 C7.50091358 0.61394471 10.22545565 0.96707897 13.1953125 1.95703125 C14.50208625 20.49311433 14.50208625 20.49311433 11.66015625 25.8515625 C9.6158593 27.78556983 7.50748071 29.35788461 5.1953125 30.95703125 C4.11458818 32.10909923 3.07296488 33.29891096 2.0703125 34.51953125 C-1.36764426 38.51478237 -4.95150503 42.36151681 -8.5546875 46.20703125 C-12.88859895 50.83361202 -17.21228789 55.46789718 -21.4921875 60.14453125 C-22.36101562 61.09199219 -23.22984375 62.03945312 -24.125 63.015625 C-26.04640638 65.1246906 -27.957082 67.24106003 -29.859375 69.3671875 C-30.61408081 70.20503784 -30.61408081 70.20503784 -31.3840332 71.05981445 C-32.35328528 72.13628256 -33.31817246 73.21670123 -34.27807617 74.30151367 C-35.41291523 75.55801052 -36.60430182 76.76299681 -37.8046875 77.95703125 C-38.4646875 77.95703125 -39.1246875 77.95703125 -39.8046875 77.95703125 C-39.8046875 78.61703125 -39.8046875 79.27703125 -39.8046875 79.95703125 C-40.4646875 79.95703125 -41.1246875 79.95703125 -41.8046875 79.95703125 C-41.8046875 73.35703125 -41.8046875 66.75703125 -41.8046875 59.95703125 C-44.0321875 59.83328125 -46.2596875 59.70953125 -48.5546875 59.58203125 C-52.90361663 59.34042408 -55.99548506 59.03676821 -59.8046875 56.95703125 C-59.04176392 56.20196289 -59.04176392 56.20196289 -58.26342773 55.43164062 C-55.92028022 53.10951147 -53.58122148 50.78330355 -51.2421875 48.45703125 C-50.44232422 47.66554687 -49.64246094 46.8740625 -48.81835938 46.05859375 C-43.92996662 41.19015362 -39.29922636 36.18839148 -34.8046875 30.95703125 C-28.55723144 24.0238788 -22.18465069 17.20557303 -15.8046875 10.39453125 C-15.15757812 9.70359375 -14.51046875 9.01265625 -13.84375 8.30078125 C-13.23273438 7.64980469 -12.62171875 6.99882813 -11.9921875 6.328125 C-11.17814453 5.46078735 -11.17814453 5.46078735 -10.34765625 4.57592773 C-9.58388672 3.77457397 -9.58388672 3.77457397 -8.8046875 2.95703125 C-8.32 2.3947583 -7.8353125 1.83248535 -7.3359375 1.25317383 C-5.04698805 -0.68433138 -2.8624686 -0.20597099 0 0 Z " fill="#159AFF" transform="translate(171.8046875,45.04296875)"/>
<path d="M0 0 C0.66 5.61 1.32 11.22 2 17 C7.94 17.66 13.88 18.32 20 19 C18 23 18 23 17 24.9296875 C12.39245005 33.892812 10.3580036 41.89090196 12.6875 51.9765625 C14.19312349 56.53107355 15.71443349 59.97279272 19.125 63.375 C24.63122627 69.11760467 24.11291045 78.49145539 24 86 C17.30353586 89.1250166 9.34882238 90.71412285 2 90 C-8.45727129 81.86848098 -15.43740233 65.06306648 -17.625 52.375 C-19.40170568 35.29888425 -16.41165671 19.32082652 -6.0234375 5.33984375 C-1.44642857 0 -1.44642857 0 0 0 Z " fill="#82C9FF" transform="translate(32,41)"/>
<path d="M0 0 C1.31871094 0.10538086 1.31871094 0.10538086 2.6640625 0.21289062 C4.81981147 0.38863103 6.97283362 0.59728336 9.125 0.8125 C12.2345966 17.50746533 12.2345966 17.50746533 8.25 23.75 C6.703125 24.7709375 6.703125 24.7709375 5.125 25.8125 C4.41988281 26.34875 3.71476562 26.885 2.98828125 27.4375 C-9.25142967 36.58279125 -21.92471823 42.37042777 -37.25 42.1875 C-38.21421875 42.19910156 -39.1784375 42.21070313 -40.171875 42.22265625 C-53.95647804 42.16722219 -67.29735496 37.67644836 -77.875 28.8125 C-75.00867056 25.94617056 -71.58183574 25.5809332 -67.75 24.6875 C-66.99589844 24.50574219 -66.24179688 24.32398438 -65.46484375 24.13671875 C-63.60308054 23.68895291 -61.73922747 23.24989278 -59.875 22.8125 C-59.875 17.5325 -59.875 12.2525 -59.875 6.8125 C-54.875 8.8125 -54.875 8.8125 -52.98046875 9.6640625 C-44.68558791 13.009045 -34.35187091 13.78088319 -25.94140625 10.41796875 C-21.13857893 8.19840972 -16.87957344 5.8057861 -13.09375 2.0625 C-8.59055101 -1.08536726 -5.3003235 -0.55477784 0 0 Z " fill="#7FC8FF" transform="translate(117.875,106.1875)"/>
<path d="M0 0 C1.04768555 0.00572021 2.09537109 0.01144043 3.17480469 0.01733398 C17.43982027 0.34373688 32.1194088 5.20188912 42.5 15.4375 C43.0775 16.118125 43.655 16.79875 44.25 17.5 C42.18827387 17.83808686 40.1255797 18.17027361 38.0625 18.5 C36.91394531 18.685625 35.76539062 18.87125 34.58203125 19.0625 C31.25 19.5 31.25 19.5 26.25 19.5 C26.25 25.77 26.25 32.04 26.25 38.5 C22.72781943 37.09112777 19.48129533 35.65670327 16.125 33.9375 C7.5546028 29.54810204 -2.56509636 28.97640179 -11.953125 31.2890625 C-15.20335364 32.56385278 -17.92912826 33.74632351 -20.515625 36.12109375 C-23.78708376 38.14001847 -26.96888312 37.85847378 -30.6875 37.75 C-31.39068359 37.74484375 -32.09386719 37.7396875 -32.81835938 37.734375 C-36.57198438 37.67808821 -40.10008304 37.38569414 -43.75 36.5 C-44.13923915 33.1706151 -44.45198739 29.8386725 -44.75 26.5 C-44.853125 25.68917969 -44.95625 24.87835938 -45.0625 24.04296875 C-45.43056645 19.54182273 -45.18380374 18.01844837 -42.1875 14.4375 C-38.49098566 11.75321575 -34.49155742 9.52666563 -30.5 7.3125 C-29.90501709 6.97919678 -29.31003418 6.64589355 -28.69702148 6.30249023 C-19.55893478 1.47667721 -10.25181277 -0.06567412 0 0 Z " fill="#80C9FF" transform="translate(79.75,19.5)"/>
<path d="M0 0 C2.4126033 2.3392711 4.81117105 4.69000755 7.19018555 7.06347656 C8.0390332 7.87558594 8.88788086 8.68769531 9.76245117 9.52441406 C10.95837891 10.71164063 10.95837891 10.71164063 12.1784668 11.92285156 C13.27928589 13.00518066 13.27928589 13.00518066 14.40234375 14.109375 C15.87768555 16.31347656 15.87768555 16.31347656 15.81787109 18.84301758 C14.76356489 21.61334334 13.59977251 23.11676868 11.53393555 25.23144531 C10.53040039 26.27655273 10.53040039 26.27655273 9.5065918 27.34277344 C8.80405273 28.05498047 8.10151367 28.7671875 7.37768555 29.50097656 C5.99045402 30.93020685 4.60494915 32.36111572 3.22143555 33.79394531 C2.60461914 34.42196045 1.98780273 35.04997559 1.35229492 35.69702148 C-0.21039564 37.26263308 -0.21039564 37.26263308 -1.12231445 39.31347656 C-4.82949422 38.76065151 -6.26439683 37.41441333 -8.62231445 34.56347656 C-9.22946289 33.8403125 -9.83661133 33.11714844 -10.4621582 32.37207031 C-11.72433401 30.80697232 -12.96070718 29.22102543 -14.18481445 27.62597656 C-16.09081777 25.11428283 -16.09081777 25.11428283 -19.2199707 23.34472656 C-21.36553985 21.58221333 -22.04432816 20.69294219 -22.60986328 17.94116211 C-22.71278872 15.10649858 -22.64569285 12.33348204 -22.49731445 9.50097656 C-22.45670898 8.03241211 -22.45670898 8.03241211 -22.4152832 6.53417969 C-22.34477093 4.12501035 -22.24630014 1.72038837 -22.12231445 -0.68652344 C-19.53997086 -1.04985318 -16.95691663 -1.40247211 -14.37231445 -1.74902344 C-13.64270508 -1.85279297 -12.9130957 -1.9565625 -12.16137695 -2.06347656 C-3.95752199 -3.14489381 -3.95752199 -3.14489381 0 0 Z " fill="#7FC8FF" transform="translate(131.122314453125,41.6865234375)"/>
<path d="M0 0 C5.24972347 4.10037573 9.20962911 8.52964787 13 14 C10.77149723 14.33774332 8.54216533 14.6700187 6.3125 15 C4.45044922 15.2784375 4.45044922 15.2784375 2.55078125 15.5625 C-1 16 -1 16 -6 16 C-6 21.94 -6 27.88 -6 34 C-10.87169618 30.00520914 -15.04248205 25.89978413 -19 21 C-18.29875 20.23816406 -17.5975 19.47632812 -16.875 18.69140625 C-11.19303528 12.51042466 -5.55142027 6.29903274 0 0 Z " fill="#7EC8FF" transform="translate(171,86)"/>
<path d="M0 0 C11.42307692 0 11.42307692 0 15 3 C16.72194097 6.44388193 16.37796284 10.22688824 16 14 C13.91891892 18.54054054 13.91891892 18.54054054 11 20 C7.32984725 20.1377685 3.67388652 20.04271961 0 20 C0 13.4 0 6.8 0 0 Z " fill="#85CBFF" transform="translate(60,72)"/>
<path d="M0 0 C2.02734375 0.62890625 2.02734375 0.62890625 4.08984375 2.12890625 C5.53255074 5.9761249 5.57658425 9.57464414 5.02734375 13.62890625 C2.94626267 18.16944679 2.94626267 18.16944679 0.02734375 19.62890625 C-7.28709993 20.09331537 -7.28709993 20.09331537 -9.91015625 18.31640625 C-12.55817458 14.11073007 -12.68567701 9.42711655 -11.97265625 4.62890625 C-8.74198158 -0.58185935 -5.67813285 -1.04870673 0 0 Z " fill="#1098FF" transform="translate(204.97265625,72.37109375)"/>
<path d="M0 0 C2.475 0.495 2.475 0.495 5 1 C5.33 0.67 5.66 0.34 6 0 C8.69969684 -0.28417861 10.41135091 -0.32477191 12.8125 1 C14.70601936 4.18908524 14.52282526 7.44049105 14 11 C12.8125 13.5 12.8125 13.5 11 15 C8.3125 15.25 8.3125 15.25 6 15 C5.67 16.65 5.34 18.3 5 20 C3.35 20 1.7 20 0 20 C0 13.4 0 6.8 0 0 Z " fill="#1297FF" transform="translate(213,77)"/>
<path d="M0 0 C1.875 1.125 1.875 1.125 3 3 C3.1875 6.1875 3.1875 6.1875 3 9 C0.69 9.33 -1.62 9.66 -4 10 C-0.52852158 10.74957157 -0.52852158 10.74957157 3 11 C3 12.32 3 13.64 3 15 C1.56344146 15.08131463 0.1255517 15.13933559 -1.3125 15.1875 C-2.51326172 15.23970703 -2.51326172 15.23970703 -3.73828125 15.29296875 C-6 15 -6 15 -7.76953125 13.76953125 C-9.31941307 11.54065358 -9.40198045 10.19804524 -9.375 7.5 C-9.38273437 6.7265625 -9.39046875 5.953125 -9.3984375 5.15625 C-8.41808061 -0.1492108 -4.82244972 -0.60280621 0 0 Z " fill="#87CBFF" transform="translate(88,77)"/>
<path d="M0 0 C0.66 0 1.32 0 2 0 C2 0.66 2 1.32 2 2 C2.99 1.67 3.98 1.34 5 1 C6.91015625 1.375 6.91015625 1.375 9 2 C13.65314825 3.06547938 18.31312878 4.09286363 23 5 C23 6.98 23 8.96 23 11 C14.81818182 11 14.81818182 11 12 10 C11.67 9.01 11.34 8.02 11 7 C10.67 7.66 10.34 8.32 10 9 C9.34 9 8.68 9 8 9 C8.33 7.35 8.66 5.7 9 4 C8.34 4 7.68 4 7 4 C6.67 5.32 6.34 6.64 6 8 C5.34 7.67 4.68 7.34 4 7 C1.90951951 6.41205236 0.17634453 6 -2 6 C-1.34 4.02 -0.68 2.04 0 0 Z " fill="#A8D6FF" transform="translate(200,127)"/>
<path d="M0 0 C1.65 0 3.3 0 5 0 C5.66 1.98 6.32 3.96 7 6 C7.99 4.02 8.98 2.04 10 0 C11.32 0 12.64 0 14 0 C13.52229477 1.93786085 13.04278429 3.87527674 12.5625 5.8125 C12.29566406 6.89144531 12.02882813 7.97039062 11.75390625 9.08203125 C11.23922588 11.0740843 10.65062825 13.04811524 10 15 C8.02 15 6.04 15 4 15 C3.32779649 13.06441401 2.66241923 11.12645628 2 9.1875 C1.62875 8.10855469 1.2575 7.02960938 0.875 5.91796875 C0 3 0 3 0 0 Z " fill="#83CAFF" transform="translate(93,77)"/>
<path d="M0 0 C0 1.32 0 2.64 0 4 C-1.32 4.33 -2.64 4.66 -4 5 C-3.34 5.391875 -2.68 5.78375 -2 6.1875 C0 8 0 8 0.375 10.5625 C0 13 0 13 -2 15 C-4.68839385 15.26991906 -7.29141936 15.08737357 -10 15 C-9.67 13.68 -9.34 12.36 -9 11 C-7.35 11.33 -5.7 11.66 -4 12 C-4 11.34 -4 10.68 -4 10 C-4.804375 9.773125 -5.60875 9.54625 -6.4375 9.3125 C-9 8 -9 8 -10 5.5625 C-10 3 -10 3 -9 1.1875 C-6.02507445 -0.57886204 -3.38199514 -0.19143369 0 0 Z " fill="#179AFF" transform="translate(239,77)"/>
<path d="M0 0 C-0.33 0.639375 -0.66 1.27875 -1 1.9375 C-2.33056928 6.01236841 -2.16659199 9.75190425 -2 14 C1.04913228 15.01111093 1.04913228 15.01111093 4 14 C3.67 15.65 3.34 17.3 3 19 C-3.47630923 19.36658354 -3.47630923 19.36658354 -5.875 17.6875 C-8.65713858 13.51429213 -8.47867034 8.82151574 -8 4 C-6.09882815 -0.10252873 -4.37645252 -0.47313 0 0 Z " fill="#0D97FF" transform="translate(201,73)"/>
<path d="M0 0 C0.33 0 0.66 0 1 0 C1.89898617 6.06815666 2.08522169 11.86403867 2 18 C8.27 18.33 14.54 18.66 21 19 C16.49622225 21.25188888 16.49622225 21.25188888 12.92578125 21.23046875 C12.17619141 21.22853516 11.42660156 21.22660156 10.65429688 21.22460938 C9.49510742 21.20624023 9.49510742 21.20624023 8.3125 21.1875 C7.1359082 21.1865332 7.1359082 21.1865332 5.93554688 21.18554688 C0.14046848 21.14046848 0.14046848 21.14046848 -1 20 C-1.29217298 17.38815065 -1.51558038 14.80755505 -1.6875 12.1875 C-1.74744141 11.46240234 -1.80738281 10.73730469 -1.86914062 9.99023438 C-2.12806771 6.11342198 -2.24365755 3.27522423 0 0 Z " fill="#F8FCFF" transform="translate(34,38)"/>
<path d="M0 0 C1.65 0 3.3 0 5 0 C6.17673198 2.35346396 6.16623866 3.8806033 6.1875 6.5 C6.20167969 7.2940625 6.21585938 8.088125 6.23046875 8.90625 C6 11 6 11 4 13 C0.46428571 12.46428571 0.46428571 12.46428571 -1 11 C-1.09823996 9.52351124 -1.12973519 8.04224583 -1.125 6.5625 C-1.12757813 5.75941406 -1.13015625 4.95632812 -1.1328125 4.12890625 C-1 2 -1 2 0 0 Z " fill="#EBF5FF" transform="translate(199,76)"/>
<path d="M0 0 C0.33 0 0.66 0 1 0 C1 1.98 1 3.96 1 6 C1.66 6 2.32 6 3 6 C3 7.65 3 9.3 3 11 C3.92619141 11.07347656 3.92619141 11.07347656 4.87109375 11.1484375 C10.73478159 11.66608422 16.27872775 12.61582123 22 14 C21.01 14.33 20.02 14.66 19 15 C18.67 15.99 18.34 16.98 18 18 C17.67 17.34 17.34 16.68 17 16 C14.09500531 15.34176886 14.09500531 15.34176886 10.6875 14.9375 C7.02879356 14.44175142 3.58778487 13.89694622 0 13 C0 8.71 0 4.42 0 0 Z " fill="#DFEFFF" transform="translate(242,118)"/>
<path d="M0 0 C0.99 0.99 1.98 1.98 3 3 C-0.96 3 -4.92 3 -9 3 C-9 9.27 -9 15.54 -9 22 C-9.33 22 -9.66 22 -10 22 C-10.33 19.36 -10.66 16.72 -11 14 C-11.33 14 -11.66 14 -12 14 C-12 9.71 -12 5.42 -12 1 C-7.71040861 0.14208172 -4.32770915 -0.32057105 0 0 Z " fill="#E8F4FF" transform="translate(177,101)"/>
<path d="M0 0 C1.32 0.66 2.64 1.32 4 2 C4.36190476 9.23809524 4.36190476 9.23809524 2.8125 12.5 C1 14 1 14 -1.6875 14.25 C-2.450625 14.1675 -3.21375 14.085 -4 14 C-4 13.01 -4 12.02 -4 11 C-3.34 10.67 -2.68 10.34 -2 10 C-2.04125 8.72125 -2.0825 7.4425 -2.125 6.125 C-2.1953125 3.9453125 -2.1953125 3.9453125 -2 2 C-1.34 1.34 -0.68 0.68 0 0 Z " fill="#0C96FF" transform="translate(223,78)"/>
<path d="M0 0 C1.93816735 0.1141866 3.87555099 0.24173423 5.8125 0.375 C6.89144531 0.44460937 7.97039062 0.51421875 9.08203125 0.5859375 C12 1 12 1 15 3 C15.34057617 5.24658203 15.34057617 5.24658203 15.29296875 8.0078125 C15.28330078 8.99394531 15.27363281 9.98007812 15.26367188 10.99609375 C15.23853516 12.02863281 15.21339844 13.06117187 15.1875 14.125 C15.16719727 15.68541016 15.16719727 15.68541016 15.14648438 17.27734375 C15.11105228 19.85207627 15.06165221 22.4257833 15 25 C14.67 25 14.34 25 14 25 C14 18.4 14 11.8 14 5 C8.06 4.34 2.12 3.68 -4 3 C-2.68 2.67 -1.36 2.34 0 2 C0 1.34 0 0.68 0 0 Z " fill="#C0E0FF" transform="translate(171,42)"/>
<path d="M0 0 C5 1 5 1 6 2 C6.27314815 7.73611111 6.27314815 7.73611111 6 10 C5.34 10.66 4.68 11.32 4 12 C2.68 12 1.36 12 0 12 C0 8.04 0 4.08 0 0 Z " fill="#F2F9FF" transform="translate(65,76)"/>
<path d="M0 0 C1.65 0 3.3 0 5 0 C5.625 2.375 5.625 2.375 6 5 C5.34 5.66 4.68 6.32 4 7 C3.38125 6.835 2.7625 6.67 2.125 6.5 C-0.59954614 5.85893032 -1.66457128 6.58206113 -4 8 C-4.66 7.34 -5.32 6.68 -6 6 C-5.625 3.375 -5.625 3.375 -5 1 C-3.02 1.495 -3.02 1.495 -1 2 C-0.67 1.34 -0.34 0.68 0 0 Z " fill="#CBE8FF" transform="translate(70,32)"/>
<path d="M0 0 C0.99 0.66 1.98 1.32 3 2 C3.11027233 4.79257231 3.05024404 7.2984254 2.8125 10.0625 C2.74579102 11.18108398 2.74579102 11.18108398 2.67773438 12.32226562 C2.53788789 14.22314198 2.27773435 16.11432994 2 18 C-1.21451269 19.60725635 -4.43612536 19.05748185 -8 19 C-8 18.67 -8 18.34 -8 18 C-9.98 17.67 -11.96 17.34 -14 17 C-14 16.67 -14 16.34 -14 16 C-9.71 16 -5.42 16 -1 16 C-0.67 10.72 -0.34 5.44 0 0 Z " fill="#E7F3FF" transform="translate(262,39)"/>
<path d="M0 0 C2.31 0 4.62 0 7 0 C7 2.64 7 5.28 7 8 C4.50935112 8.68707555 2.62113708 9 0 9 C0 6.03 0 3.06 0 0 Z " fill="#91CCFF" transform="translate(266,82)"/>
<path d="M0 0 C1.98 0.66 3.96 1.32 6 2 C5.34 4.64 4.68 7.28 4 10 C3.67 9.34 3.34 8.68 3 8 C1.02 8 -0.96 8 -3 8 C-2.67 6.35 -2.34 4.7 -2 3 C-1.01 3 -0.02 3 1 3 C0.67 2.01 0.34 1.02 0 0 Z " fill="#76C1FF" transform="translate(266,92)"/>
<path d="M0 0 C0.66 0 1.32 0 2 0 C1.67 1.98 1.34 3.96 1 6 C1.66 6 2.32 6 3 6 C3.66 4.35 4.32 2.7 5 1 C6.32 1.33 7.64 1.66 9 2 C9 3.65 9 5.3 9 7 C5.30458414 7.95024979 2.69541586 7.95024979 -1 7 C-0.67 4.69 -0.34 2.38 0 0 Z " fill="#D5EAFF" transform="translate(226,31)"/>
<path d="M0 0 C0.33 0 0.66 0 1 0 C1.33 5.28 1.66 10.56 2 16 C1.34 16 0.68 16 0 16 C-0.33 17.32 -0.66 18.64 -1 20 C-1.22224251 17.41718164 -1.42823488 14.83477813 -1.625 12.25 C-1.72167969 11.15558594 -1.72167969 11.15558594 -1.8203125 10.0390625 C-2.10381649 6.14088264 -2.27081383 3.29354678 0 0 Z " fill="#E4F3FF" transform="translate(34,38)"/>
<path d="M0 0 C0 3.88673756 -1.18417172 4.72042378 -3.75 7.5625 C-4.44609375 8.34753906 -5.1421875 9.13257812 -5.859375 9.94140625 C-7.88688809 11.89122267 -9.45860392 12.8790997 -12 14 C-12.99 14.66 -13.98 15.32 -15 16 C-13.69113024 13.07299167 -12.33773912 11.12815685 -9.9609375 8.984375 C-9.38085938 8.45585938 -8.80078125 7.92734375 -8.203125 7.3828125 C-7.59984375 6.84398438 -6.9965625 6.30515625 -6.375 5.75 C-5.76398438 5.19570312 -5.15296875 4.64140625 -4.5234375 4.0703125 C-3.02043435 2.7082159 -1.5108532 1.35338399 0 0 Z " fill="#F0F7FF" transform="translate(168,87)"/>
<path d="M0 0 C0.66 0 1.32 0 2 0 C2 0.66 2 1.32 2 2 C2.99 1.67 3.98 1.34 5 1 C5.66 1.33 6.32 1.66 7 2 C6.67 3.98 6.34 5.96 6 8 C5.34 7.67 4.68 7.34 4 7 C1.90951951 6.41205236 0.17634453 6 -2 6 C-1.34 4.02 -0.68 2.04 0 0 Z " fill="#CCE6FF" transform="translate(200,127)"/>
<path d="M0 0 C2.97 0 5.94 0 9 0 C8.01 0.495 8.01 0.495 7 1 C7 1.66 7 2.32 7 3 C7.66 3.33 8.32 3.66 9 4 C9 4.99 9 5.98 9 7 C7.68 7 6.36 7 5 7 C5 5.35 5 3.7 5 2 C4.34 2 3.68 2 3 2 C2.67 3.32 2.34 4.64 2 6 C2 4.35 2 2.7 2 1 C1.34 0.67 0.68 0.34 0 0 Z " fill="#DFF0FF" transform="translate(73,129)"/>
<path d="M0 0 C0 0.66 0 1.32 0 2 C-4.95 3.485 -4.95 3.485 -10 5 C-10 4.01 -10 3.02 -10 2 C-10.99 1.67 -11.98 1.34 -13 1 C-11.58622218 0.63447197 -10.16879424 0.28304505 -8.75 -0.0625 C-7.96109375 -0.25972656 -7.1721875 -0.45695313 -6.359375 -0.66015625 C-3.89605178 -1.01497267 -2.34395868 -0.76877544 0 0 Z " fill="#EAF5FF" transform="translate(49,130)"/>
<path d="M0 0 C-0.99 0.495 -0.99 0.495 -2 1 C-1.67 2.98 -1.34 4.96 -1 7 C-1.66 7 -2.32 7 -3 7 C-3 5.35 -3 3.7 -3 2 C-3.99 2.33 -4.98 2.66 -6 3 C-5.67 4.32 -5.34 5.64 -5 7 C-5.99 7.33 -6.98 7.66 -8 8 C-8.33 6.02 -8.66 4.04 -9 2 C-5.86501708 0.14223235 -3.62528568 -0.20140476 0 0 Z " fill="#E0F1FF" transform="translate(92,128)"/>
<path d="M0 0 C1.32 0.33 2.64 0.66 4 1 C3.67 2.65 3.34 4.3 3 6 C1.68 6.33 0.36 6.66 -1 7 C-1.625 5.1875 -1.625 5.1875 -2 3 C-1.34 2.01 -0.68 1.02 0 0 Z " fill="#A5D5FF" transform="translate(195,124)"/>
<path d="M0 0 C0.66 0 1.32 0 2 0 C2.33 0.99 2.66 1.98 3 3 C3.66 3 4.32 3 5 3 C4.6875 4.875 4.6875 4.875 4 7 C3.01 7.66 2.02 8.32 1 9 C0 7 0 7 -1 4 C-1.99 4.495 -1.99 4.495 -3 5 C-1.125 1.125 -1.125 1.125 0 0 Z " fill="#D5EBFF" transform="translate(189,119)"/>
<path d="M0 0 C0 3 0 3 -1 5 C0.98 4.67 2.96 4.34 5 4 C4.625 6.4375 4.625 6.4375 4 9 C3.01 9.495 3.01 9.495 2 10 C1.34 9.34 0.68 8.68 0 8 C-0.70125 7.505 -1.4025 7.01 -2.125 6.5 C-2.74375 6.005 -3.3625 5.51 -4 5 C-4 4.34 -4 3.68 -4 3 C-2 1.375 -2 1.375 0 0 Z " fill="#E4F3FF" transform="translate(125,53)"/>
<path d="M0 0 C1.2065625 0.0309375 1.2065625 0.0309375 2.4375 0.0625 C3 2 3 2 3.4375 4.0625 C2.4375 5.0625 2.4375 5.0625 -0.125 5.125 C-1.3315625 5.0940625 -1.3315625 5.0940625 -2.5625 5.0625 C-3.125 3.125 -3.125 3.125 -3.5625 1.0625 C-2.5625 0.0625 -2.5625 0.0625 0 0 Z " fill="#A7D6FF" transform="translate(268.5625,69.9375)"/>
<path d="M0 0 C0.5625 1.9375 0.5625 1.9375 1 4 C0 5 0 5 -1.84765625 5.09765625 C-3.8984375 5.06510417 -5.94921875 5.03255208 -8 5 C-8 4.67 -8 4.34 -8 4 C-10.97 3.505 -10.97 3.505 -14 3 C-14 2.67 -14 2.34 -14 2 C-13.07316406 1.93941406 -12.14632812 1.87882812 -11.19140625 1.81640625 C-9.39509766 1.69072266 -9.39509766 1.69072266 -7.5625 1.5625 C-5.77005859 1.44068359 -5.77005859 1.44068359 -3.94140625 1.31640625 C-1.11429756 1.32343886 -1.11429756 1.32343886 0 0 Z " fill="#CFE7FF" transform="translate(262,53)"/>
<path d="M0 0 C-0.33 1.65 -0.66 3.3 -1 5 C-2.65 5 -4.3 5 -6 5 C-6.33 3.68 -6.66 2.36 -7 1 C-4.53721199 -0.231394 -2.7204945 -0.07159196 0 0 Z " fill="#D1EBFF" transform="translate(33,97)"/>
<path d="M0 0 C1.32 0 2.64 0 4 0 C4 2.31 4 4.62 4 7 C2.68 7 1.36 7 0 7 C0 4.69 0 2.38 0 0 Z " fill="#EFF7FF" transform="translate(218,81)"/>
<path d="M0 0 C0.33 0.66 0.66 1.32 1 2 C-2.3 2.33 -5.6 2.66 -9 3 C-9 2.34 -9 1.68 -9 1 C-10.32 0.67 -11.64 0.34 -13 0 C-11.58456585 -0.19658808 -10.16755969 -0.38187546 -8.75 -0.5625 C-7.96109375 -0.66691406 -7.1721875 -0.77132812 -6.359375 -0.87890625 C-3.95874887 -1.00211719 -2.25079123 -0.83159765 0 0 Z " fill="#EDF7FF" transform="translate(124,38)"/>
<path d="M0 0 C2.64 0.33 5.28 0.66 8 1 C8 1.99 8 2.98 8 4 C4.04 3.67 0.08 3.34 -4 3 C-2.68 2.67 -1.36 2.34 0 2 C0 1.34 0 0.68 0 0 Z " fill="#D7EBFF" transform="translate(171,42)"/>
<path d="M0 0 C2.475 0.495 2.475 0.495 5 1 C4.67 2.65 4.34 4.3 4 6 C2.68 6 1.36 6 0 6 C0 4.02 0 2.04 0 0 Z " fill="#B5DDFF" transform="translate(209,31)"/>
<path d="M0 0 C1.32 0.33 2.64 0.66 4 1 C4 2.32 4 3.64 4 5 C3.34 5 2.68 5 2 5 C2 5.66 2 6.32 2 7 C1.34 7 0.68 7 0 7 C0 4.69 0 2.38 0 0 Z " fill="#BBDEFF" transform="translate(220,30)"/>
<path d="M0 0 C2.31 0 4.62 0 7 0 C7 1.32 7 2.64 7 4 C5.35 4 3.7 4 2 4 C2 3.34 2 2.68 2 2 C1.34 2 0.68 2 0 2 C0 1.34 0 0.68 0 0 Z " fill="#BFE0FF" transform="translate(266,76)"/>
<path d="M0 0 C0.66 0.99 1.32 1.98 2 3 C2.66 2.67 3.32 2.34 4 2 C3.1875 3.9375 3.1875 3.9375 2 6 C1.01 6.33 0.02 6.66 -1 7 C-1.33 6.34 -1.66 5.68 -2 5 C-2.66 4.67 -3.32 4.34 -4 4 C-2.68 2.68 -1.36 1.36 0 0 Z " fill="#E6F4FF" transform="translate(132,60)"/>
<path d="M0 0 C2.31 0 4.62 0 7 0 C6.67 1.32 6.34 2.64 6 4 C4.02 4 2.04 4 0 4 C0 2.68 0 1.36 0 0 Z " fill="#CAE6FF" transform="translate(266,87)"/>
<path d="M0 0 C1.32 0 2.64 0 4 0 C4 1.32 4 2.64 4 4 C3.34 4 2.68 4 2 4 C2 4.66 2 5.32 2 6 C2.66 6.33 3.32 6.66 4 7 C2.68 7 1.36 7 0 7 C0 4.69 0 2.38 0 0 Z " fill="#CFE7FF" transform="translate(215,30)"/>
<path d="M0 0 C2.97 0.495 2.97 0.495 6 1 C5 4 5 4 3 7 C2.34 7 1.68 7 1 7 C1.33 5.35 1.66 3.7 2 2 C1.34 2 0.68 2 0 2 C0 1.34 0 0.68 0 0 Z " fill="#B3DAFF" transform="translate(207,129)"/>
<path d="M0 0 C2.02045442 0.60183749 4.02111039 1.27306096 6 2 C6.33 2.66 6.66 3.32 7 4 C6.01 4 5.02 4 4 4 C3.67 4.99 3.34 5.98 3 7 C0 2.25 0 2.25 0 0 Z " fill="#D1E9FF" transform="translate(152,74)"/>
<path d="M0 0 C0.33 1.32 0.66 2.64 1 4 C-3.75 5.125 -3.75 5.125 -6 4 C-2.25 0 -2.25 0 0 0 Z " fill="#E2F2FF" transform="translate(123,49)"/>
<path d="M0 0 C1.32 0.33 2.64 0.66 4 1 C4 2.65 4 4.3 4 6 C2.68 6 1.36 6 0 6 C0 4.02 0 2.04 0 0 Z " fill="#7BC2FF" transform="translate(231,32)"/>
<path d="M0 0 C1.98 0.66 3.96 1.32 6 2 C5.67 3.32 5.34 4.64 5 6 C3.68 5.01 2.36 4.02 1 3 C0.01 3.495 0.01 3.495 -1 4 C-0.67 2.68 -0.34 1.36 0 0 Z " fill="#D1E8FF" transform="translate(263,101)"/>
<path d="M0 0 C1.2065625 0.0309375 1.2065625 0.0309375 2.4375 0.0625 C-0.02403846 3.87788462 -0.02403846 3.87788462 -2.75 4.8125 C-3.348125 4.895 -3.94625 4.9775 -4.5625 5.0625 C-3.43829114 0.08386076 -3.43829114 0.08386076 0 0 Z " fill="#219EFF" transform="translate(221.5625,76.9375)"/>
<path d="M0 0 C2 2 2 2 3 4 C3.66 4 4.32 4 5 4 C5 4.66 5 5.32 5 6 C4.01 6.33 3.02 6.66 2 7 C0.68 5.35 -0.64 3.7 -2 2 C-1.34 1.34 -0.68 0.68 0 0 Z " fill="#CAE6FF" transform="translate(160,66)"/>
<path d="M0 0 C2.31 0 4.62 0 7 0 C6.67 0.99 6.34 1.98 6 3 C3.69 2.67 1.38 2.34 -1 2 C-0.67 1.34 -0.34 0.68 0 0 Z " fill="#239FFF" transform="translate(232,77)"/>
<path d="M0 0 C2.97 0.495 2.97 0.495 6 1 C5.01 1.495 5.01 1.495 4 2 C4 2.66 4 3.32 4 4 C1.69 3.67 -0.62 3.34 -3 3 C-2.01 2.67 -1.02 2.34 0 2 C0 1.34 0 0.68 0 0 Z " fill="#C5E3FF" transform="translate(249,129)"/>
<path d="M0 0 C2.475 0.99 2.475 0.99 5 2 C5 3.32 5 4.64 5 6 C2.525 5.01 2.525 5.01 0 4 C0 2.68 0 1.36 0 0 Z " fill="#D4EAFF" transform="translate(156,70)"/>
<path d="M0 0 C1.98 0.66 3.96 1.32 6 2 C6 2.66 6 3.32 6 4 C3.69 4 1.38 4 -1 4 C-0.34 3.67 0.32 3.34 1 3 C0.67 2.01 0.34 1.02 0 0 Z " fill="#D9EDFF" transform="translate(266,92)"/>
</svg>
