<?xml version="1.0" encoding="UTF-8"?>
<svg version="1.1" xmlns="http://www.w3.org/2000/svg" width="300" height="100">
<path d="M0 0 C5.28 0 10.56 0 16 0 C16.495 11.385 16.495 11.385 17 23 C23.7226499 15.38675049 23.7226499 15.38675049 25 11 C26.31266518 9.64631404 27.64567325 8.31200404 29 7 C29.33 6.34 29.66 5.68 30 5 C33.76119476 5.62393651 36.18960042 7.34773715 39.25 9.5625 C40.58804688 10.52349609 40.58804688 10.52349609 41.953125 11.50390625 C42.62859375 11.99761719 43.3040625 12.49132813 44 13 C42.40013936 17.96342307 39.47460168 21.70198762 36.375 25.8125 C35.859375 26.50537109 35.34375 27.19824219 34.8125 27.91210938 C33.54657074 29.61173663 32.27394735 31.30637435 31 33 C32.15757813 32.65066406 33.31515625 32.30132812 34.5078125 31.94140625 C36.04681839 31.48158132 37.58588407 31.02195648 39.125 30.5625 C39.88554688 30.33240234 40.64609375 30.10230469 41.4296875 29.86523438 C42.17734375 29.64287109 42.925 29.42050781 43.6953125 29.19140625 C44.37609863 28.98717041 45.05688477 28.78293457 45.75830078 28.57250977 C48.4681151 27.88044762 51.24126169 27.45978972 54 27 C55.65 31.95 57.3 36.9 59 42 C54.25958245 43.82323752 49.4942374 45.54631749 44.6875 47.1875 C43.68074219 47.53167969 42.67398438 47.87585937 41.63671875 48.23046875 C39 49 39 49 36 49 C36 49.66 36 50.32 36 51 C37.216875 51.2475 38.43375 51.495 39.6875 51.75 C45.87247667 53.13101553 52.0745586 54.74268899 58 57 C59 59 59 59 58.00390625 62.2578125 C57.53110016 63.5497052 57.05028031 64.83868638 56.5625 66.125 C56.31951172 66.78371094 56.07652344 67.44242187 55.82617188 68.12109375 C55.22421679 69.74991338 54.61297588 71.37529575 54 73 C46.78069368 71.55613874 39.94889267 69.42211826 33 67 C32.67 67.33 32.34 67.66 32 68 C32.69867188 68.95261719 33.39734375 69.90523438 34.1171875 70.88671875 C35.03673628 72.15344411 35.95599169 73.42038248 36.875 74.6875 C37.33519531 75.31333984 37.79539062 75.93917969 38.26953125 76.58398438 C40.69919128 79.94677471 42.67633162 83.02138756 44 87 C42.23569031 88.34195372 40.4633209 89.67331668 38.6875 91 C37.70136719 91.7425 36.71523437 92.485 35.69921875 93.25 C33 95 33 95 30 95 C29.34 93.35 28.68 91.7 28 90 C27.34 90 26.68 90 26 90 C24.76337138 88.25588699 23.60897865 86.45293515 22.5 84.625 C20.05783493 80.57056853 20.05783493 80.57056853 17 77 C16.67 84.59 16.34 92.18 16 100 C10.72 100 5.44 100 0 100 C-0.33 92.41 -0.66 84.82 -1 77 C-5.29 82.94 -9.58 88.88 -14 95 C-18.01560965 93.99609759 -19.95119372 92.82479402 -23.25 90.4375 C-24.14203125 89.79683594 -25.0340625 89.15617187 -25.953125 88.49609375 C-26.62859375 88.00238281 -27.3040625 87.50867188 -28 87 C-26.40013936 82.03657693 -23.47460168 78.29801238 -20.375 74.1875 C-19.6015625 73.14819336 -19.6015625 73.14819336 -18.8125 72.08789062 C-17.54657074 70.38826337 -16.27394735 68.69362565 -15 67 C-16.15757813 67.34933594 -17.31515625 67.69867188 -18.5078125 68.05859375 C-20.04681839 68.51841868 -21.58588407 68.97804352 -23.125 69.4375 C-23.88554687 69.66759766 -24.64609375 69.89769531 -25.4296875 70.13476562 C-29.60433583 71.37636362 -33.67379163 72.39875379 -38 73 C-40.23827637 67.72406284 -42 62.76988735 -42 57 C-38.8980736 55.9929564 -35.79311902 54.99559195 -32.6875 54 C-31.80642578 53.71382812 -30.92535156 53.42765625 -30.01757812 53.1328125 C-29.17001953 52.86210938 -28.32246094 52.59140625 -27.44921875 52.3125 C-26.66893311 52.06113281 -25.88864746 51.80976562 -25.0847168 51.55078125 C-23 51 -23 51 -20 51 C-20 50.34 -20 49.68 -20 49 C-21.2375 48.7525 -22.475 48.505 -23.75 48.25 C-27.71409773 47.35365943 -31.61107618 46.30656298 -35.5 45.125 C-36.5209375 44.81820312 -37.541875 44.51140625 -38.59375 44.1953125 C-41 43 -41 43 -41.96484375 41.2578125 C-42.01366012 38.12271648 -41.11841699 35.69376858 -40.0625 32.75 C-39.68222656 31.67234375 -39.30195312 30.5946875 -38.91015625 29.484375 C-38.60980469 28.66453125 -38.30945312 27.8446875 -38 27 C-30.21406284 28.61088355 -22.62571782 30.76543688 -15 33 C-16.60357654 30.74957738 -18.20783936 28.49964941 -19.8125 26.25 C-20.26431641 25.61578125 -20.71613281 24.9815625 -21.18164062 24.328125 C-21.62314453 23.709375 -22.06464844 23.090625 -22.51953125 22.453125 C-23.16075928 21.55303711 -23.16075928 21.55303711 -23.81494141 20.63476562 C-24.78843971 19.29184337 -25.80120777 17.97747359 -26.82421875 16.671875 C-28 15 -28 15 -28 13 C-25.734375 11.01953125 -25.734375 11.01953125 -22.75 8.8125 C-21.77546875 8.07644531 -20.8009375 7.34039062 -19.796875 6.58203125 C-17 5 -17 5 -15.01367188 5.16259766 C-12.41404963 6.24367238 -11.56310995 7.49978431 -9.984375 9.81640625 C-9.50709961 10.50420166 -9.02982422 11.19199707 -8.53808594 11.90063477 C-7.94801758 12.77905029 -7.35794922 13.65746582 -6.75 14.5625 C-4.8525 17.346875 -2.955 20.13125 -1 23 C-0.67 15.41 -0.34 7.82 0 0 Z M1 29 C1 32.63 1 36.26 1 40 C-2.63 39.01 -6.26 38.02 -10 37 C-9.195625 38.093125 -8.39125 39.18625 -7.5625 40.3125 C-5.85238777 42.63649867 -4.92841607 44.21475178 -4 47 C-6.97 47.66 -9.94 48.32 -13 49 C-13 49.66 -13 50.32 -13 51 C-8.545 51.99 -8.545 51.99 -4 53 C-5.92880342 56.40755272 -7.8276509 59.74147635 -10 63 C-6.37 62.01 -2.74 61.02 1 60 C1 63.63 1 67.26 1 71 C4.08089673 68.22719294 5.68775452 65.93673644 7 62 C9.66666667 64.66666667 12.33333333 67.33333333 15 70 C15 66.7 15 63.4 15 60 C18.3 60.66 21.6 61.32 25 62 C23.35 59.03 21.7 56.06 20 53 C22.97 52.34 25.94 51.68 29 51 C29 50.34 29 49.68 29 49 C24.545 48.01 24.545 48.01 20 47 C21.98 43.7 23.96 40.4 26 37 C20.555 38.485 20.555 38.485 15 40 C15 36.37 15 32.74 15 29 C14.401875 29.763125 13.80375 30.52625 13.1875 31.3125 C11.53040668 33.3483575 9.89702326 35.1978279 8 37 C7.01 36.67 6.02 36.34 5 36 C4.64587656 34.67203709 4.31478446 33.33783393 4 32 C3.01 31.01 2.02 30.02 1 29 Z " fill="#00F3E8" transform="translate(42,0)"/>
<path d="M0 0 C2.97 0 5.94 0 9 0 C9.01458252 1.17095215 9.02916504 2.3419043 9.04418945 3.54833984 C9.10206349 7.88345224 9.17929611 12.21803923 9.26245117 16.55273438 C9.29575202 18.43057747 9.32376776 20.3085219 9.34643555 22.18652344 C9.37988742 24.88260175 9.43219641 27.577747 9.48828125 30.2734375 C9.49467117 31.11619232 9.5010611 31.95894714 9.50764465 32.82723999 C9.53930845 35.43938687 9.53930845 35.43938687 10 39 C12.837578 41.35014158 12.837578 41.35014158 16.125 40.6875 C18.88086422 40.29355679 18.88086422 40.29355679 20 39 C20.12170623 37.15632021 20.17972223 35.3083663 20.2109375 33.4609375 C20.25347656 31.75357422 20.25347656 31.75357422 20.296875 30.01171875 C20.34845171 27.61082291 20.39286785 25.20976124 20.4296875 22.80859375 C20.64580709 14.803164 21.10176047 9.33297545 26.5 3.125 C30.11395271 0.0531402 33.17565023 -0.36455487 37.875 -0.26953125 C41.61856251 0.20529561 44.14879411 1.57645386 47 4 C51.66682359 11.08011796 51.55807881 17.56315532 51.5625 25.875 C51.57139607 28.3099802 51.59286584 30.74495779 51.62890625 33.1796875 C51.62963135 34.24944824 51.63035645 35.31920898 51.63110352 36.42138672 C51.75283936 37.2723291 51.8745752 38.12327148 52 39 C54.837578 41.35014158 54.837578 41.35014158 58.125 40.6875 C60.88086422 40.29355679 60.88086422 40.29355679 62 39 C62.16023562 36.11747355 62.25954029 33.25621473 62.31640625 30.37109375 C62.33718735 29.50686295 62.35796844 28.64263214 62.37937927 27.75221252 C62.44497114 24.98072555 62.50380418 22.20914079 62.5625 19.4375 C62.60567608 17.56314077 62.64929006 15.68879157 62.69335938 13.81445312 C62.80066227 9.20973664 62.90190215 4.60492142 63 0 C65.97 0 68.94 0 72 0 C72.07448116 5.28357911 72.12875795 10.56684863 72.16479492 15.85083008 C72.17982716 17.64613167 72.20025857 19.44139688 72.22631836 21.23657227 C72.26294786 23.82577526 72.2797821 26.41449028 72.29296875 29.00390625 C72.30845261 29.79898087 72.32393646 30.59405548 72.33988953 31.41322327 C72.3414632 36.6931779 71.4857672 40.31635369 69 45 C64.66190892 49.12118653 61.14257648 50.36268054 55.12890625 50.28515625 C50.62735853 49.68219665 47.26238629 47.30446583 44.125 44.0625 C41.86857238 39.92571604 41.86645082 35.52256557 41.7890625 30.89453125 C41.76070312 29.74662109 41.73234375 28.59871094 41.703125 27.41601562 C41.6507911 25.00211446 41.60659671 22.58802387 41.5703125 20.17382812 C41.539375 19.02978516 41.5084375 17.88574219 41.4765625 16.70703125 C41.4468335 15.13659058 41.4468335 15.13659058 41.41650391 13.53442383 C41.27905762 12.69806396 41.14161133 11.8617041 41 11 C38.162422 8.64985842 38.162422 8.64985842 34.875 9.3125 C32.11913578 9.70644321 32.11913578 9.70644321 31 11 C30.89036552 12.9053001 30.84409887 14.81430802 30.82421875 16.72265625 C30.80037109 17.90150391 30.77652344 19.08035156 30.75195312 20.29492188 C30.70945501 22.77912992 30.67795267 25.26355384 30.65820312 27.74804688 C30.49075489 34.92495618 29.98027639 39.94681295 26 46 C22.05798701 49.35489223 18.1693227 50.67846672 12.98828125 50.38671875 C8.35391962 49.48533997 4.97889574 47.30519432 2.125 43.5 C-0.11426633 38.5238526 -0.13296855 33.91162066 -0.09765625 28.515625 C-0.0962413 27.70003113 -0.09482635 26.88443726 -0.09336853 26.04412842 C-0.08778303 23.44604788 -0.07523321 20.84805437 -0.0625 18.25 C-0.05748312 16.48567833 -0.05292054 14.72135531 -0.04882812 12.95703125 C-0.03781835 8.63798744 -0.02056369 4.31900846 0 0 Z " fill="#000000" transform="translate(176,25)"/>
<path d="M0 0 C1.00933594 0.31710938 2.01867187 0.63421875 3.05859375 0.9609375 C8.57034489 2.74131472 8.57034489 2.74131472 10.625 3.625 C11.625 5.625 11.625 5.625 10.62890625 8.8828125 C10.15610016 10.1747052 9.67528031 11.46368638 9.1875 12.75 C8.94451172 13.40871094 8.70152344 14.06742188 8.45117188 14.74609375 C7.84921679 16.37491338 7.23797588 18.00029575 6.625 19.625 C-0.59430632 18.18113874 -7.42610733 16.04711826 -14.375 13.625 C-14.87 14.12 -14.87 14.12 -15.375 14.625 C-14.67632812 15.57761719 -13.97765625 16.53023437 -13.2578125 17.51171875 C-12.33826372 18.77844411 -11.41900831 20.04538248 -10.5 21.3125 C-10.03980469 21.93833984 -9.57960937 22.56417969 -9.10546875 23.20898438 C-6.67580872 26.57177471 -4.69866838 29.64638756 -3.375 33.625 C-5.13930969 34.96695372 -6.9116791 36.29831668 -8.6875 37.625 C-9.67363281 38.3675 -10.65976563 39.11 -11.67578125 39.875 C-14.375 41.625 -14.375 41.625 -17.375 41.625 C-18.035 39.975 -18.695 38.325 -19.375 36.625 C-20.035 36.625 -20.695 36.625 -21.375 36.625 C-22.61162862 34.88088699 -23.76602135 33.07793515 -24.875 31.25 C-27.31716507 27.19556853 -27.31716507 27.19556853 -30.375 23.625 C-30.705 31.215 -31.035 38.805 -31.375 46.625 C-36.655 46.625 -41.935 46.625 -47.375 46.625 C-47.5655145 42.35203185 -47.70345013 38.08769982 -47.8125 33.8125 C-47.90047852 32.0190918 -47.90047852 32.0190918 -47.99023438 30.18945312 C-48.16341801 21.10968233 -46.01324979 15.71980521 -40.375 8.625 C-36.37503714 9.95832095 -35.53717663 12.1207827 -33.375 15.625 C-32.88 11.17 -32.88 11.17 -32.375 6.625 C-29.405 6.955 -26.435 7.285 -23.375 7.625 C-24.035 6.67625 -24.695 5.7275 -25.375 4.75 C-27.375 1.625 -27.375 1.625 -27.375 -0.375 C-26.02604264 -0.88888852 -24.67043517 -1.38532722 -23.3125 -1.875 C-22.55839844 -2.1534375 -21.80429688 -2.431875 -21.02734375 -2.71875 C-13.46983927 -4.58864802 -7.15407378 -2.35663607 0 0 Z " fill="#00F2E8" transform="translate(89.375,53.375)"/>
<path d="M0 0 C3.76119476 0.62393651 6.18960042 2.34773715 9.25 4.5625 C10.14203125 5.20316406 11.0340625 5.84382812 11.953125 6.50390625 C12.96632813 7.24447266 12.96632813 7.24447266 14 8 C12.40013936 12.96342307 9.47460168 16.70198762 6.375 20.8125 C5.859375 21.50537109 5.34375 22.19824219 4.8125 22.91210938 C3.54657074 24.61173663 2.27394735 26.30637435 1 28 C2.15757813 27.65066406 3.31515625 27.30132812 4.5078125 26.94140625 C6.04681839 26.48158132 7.58588407 26.02195648 9.125 25.5625 C9.88554688 25.33240234 10.64609375 25.10230469 11.4296875 24.86523438 C12.17734375 24.64287109 12.925 24.42050781 13.6953125 24.19140625 C14.37609863 23.98717041 15.05688477 23.78293457 15.75830078 23.57250977 C18.4681151 22.88044762 21.24126169 22.45978972 24 22 C26.475 29.425 26.475 29.425 29 37 C23.84931352 38.99720496 18.65459041 40.871151 13.4375 42.6875 C12.19871094 43.12449219 10.95992187 43.56148437 9.68359375 44.01171875 C4.11100197 45.50680435 -0.52564943 45.49822175 -5.9375 43.5 C-6.70964844 43.2215625 -7.48179688 42.943125 -8.27734375 42.65625 C-8.84582031 42.4396875 -9.41429687 42.223125 -10 42 C-8.79310745 38.89656201 -7.49403054 35.98806107 -6 33 C-8.97 33.66 -11.94 34.32 -15 35 C-16.03009938 24.71535695 -14.11961424 19.17695779 -8 11 C-7.47277344 10.11699219 -6.94554688 9.23398438 -6.40234375 8.32421875 C-4.88407106 5.8078615 -3.10489416 4.03473102 -1 2 C-0.67 1.34 -0.34 0.68 0 0 Z " fill="#FB015C" transform="translate(72,5)"/>
<path d="M0 0 C0.77214844 0.2784375 1.54429688 0.556875 2.33984375 0.84375 C2.90832031 1.0603125 3.47679687 1.276875 4.0625 1.5 C3.27866433 5.36142204 1.63439568 7.51328244 -0.9375 10.5 C2.3625 9.84 5.6625 9.18 9.0625 8.5 C9.17183138 10.51959364 9.24868576 12.54095615 9.3125 14.5625 C9.35890625 15.68785156 9.4053125 16.81320313 9.453125 17.97265625 C8.65777498 25.15466689 3.53160885 30.79541087 -0.6875 36.4375 C-1.19410156 37.12134766 -1.70070312 37.80519531 -2.22265625 38.50976562 C-3.45754343 40.17569833 -4.69704064 41.8382122 -5.9375 43.5 C-9.69089814 42.68722884 -12.06345342 41.19832318 -15.1875 38.9375 C-16.07953125 38.29683594 -16.9715625 37.65617187 -17.890625 36.99609375 C-18.56609375 36.50238281 -19.2415625 36.00867188 -19.9375 35.5 C-18.33763936 30.53657693 -15.41210168 26.79801238 -12.3125 22.6875 C-11.5390625 21.64819336 -11.5390625 21.64819336 -10.75 20.58789062 C-9.48407074 18.88826337 -8.21144735 17.19362565 -6.9375 15.5 C-8.09507813 15.84933594 -9.25265625 16.19867188 -10.4453125 16.55859375 C-11.98431839 17.01841868 -13.52338407 17.47804352 -15.0625 17.9375 C-15.82304687 18.16759766 -16.58359375 18.39769531 -17.3671875 18.63476562 C-21.54183583 19.87636362 -25.61129163 20.89875379 -29.9375 21.5 C-32.17577637 16.22406284 -33.9375 11.26988735 -33.9375 5.5 C-30.42214277 4.31637198 -26.89945805 3.15621866 -23.375 2 C-22.38435547 1.66613281 -21.39371094 1.33226562 -20.37304688 0.98828125 C-13.21083619 -1.3436013 -7.29138872 -2.69220507 0 0 Z " fill="#D73AFE" transform="translate(33.9375,51.5)"/>
<path d="M0 0 C12.87 0 25.74 0 39 0 C39 2.64 39 5.28 39 8 C34.05 8.33 29.1 8.66 24 9 C24 22.53 24 36.06 24 50 C21.03 50 18.06 50 15 50 C15 36.14 15 22.28 15 8 C10.05 8 5.1 8 0 8 C0 5.36 0 2.72 0 0 Z " fill="#000000" transform="translate(261,25)"/>
<path d="M0 0 C3.02778952 0.59474437 6.00276051 1.27000224 9 2 C10.90265625 2.44279297 10.90265625 2.44279297 12.84375 2.89453125 C22.19164983 5.28804593 28.72625114 8.35691159 34 17 C34 17.99 34 18.98 34 20 C32.65104264 20.51388852 31.29543517 21.01032722 29.9375 21.5 C28.80634766 21.91765625 28.80634766 21.91765625 27.65234375 22.34375 C20.25390884 24.1742906 14.11459484 22.1022675 7.125 19.75 C6.16335938 19.44964844 5.20171875 19.14929688 4.2109375 18.83984375 C2.84195312 18.38544922 2.84195312 18.38544922 1.4453125 17.921875 C0.61531738 17.64956055 -0.21467773 17.37724609 -1.06982422 17.09667969 C-3 16 -3 16 -3.82641602 14.06835938 C-4.08489397 10.98843646 -3.09904198 8.63975339 -2.0625 5.75 C-1.68222656 4.67234375 -1.30195312 3.5946875 -0.91015625 2.484375 C-0.45962891 1.25460938 -0.45962891 1.25460938 0 0 Z " fill="#00BBF2" transform="translate(4,27)"/>
<path d="M0 0 C0.10933138 2.01959364 0.18618576 4.04095615 0.25 6.0625 C0.29640625 7.18785156 0.3428125 8.31320313 0.390625 9.47265625 C-0.40472502 16.65466689 -5.53089115 22.29541087 -9.75 27.9375 C-10.25660156 28.62134766 -10.76320313 29.30519531 -11.28515625 30.00976562 C-12.52004343 31.67569833 -13.75954064 33.3382122 -15 35 C-18.75339814 34.18722884 -21.12595342 32.69832318 -24.25 30.4375 C-25.58804687 29.47650391 -25.58804687 29.47650391 -26.953125 28.49609375 C-27.62859375 28.00238281 -28.3040625 27.50867188 -29 27 C-27.36512217 21.70510536 -24.01635699 17.70510033 -20.6875 13.375 C-19.83381836 12.2303125 -19.83381836 12.2303125 -18.96289062 11.0625 C-14.02500398 4.59959441 -8.58309633 0 0 0 Z " fill="#FB015C" transform="translate(43,60)"/>
<path d="M0 0 C2.475 7.425 2.475 7.425 5 15 C-0.15068648 16.99720496 -5.34540959 18.871151 -10.5625 20.6875 C-12.42068359 21.34298828 -12.42068359 21.34298828 -14.31640625 22.01171875 C-19.88899803 23.50680435 -24.52564943 23.49822175 -29.9375 21.5 C-30.70964844 21.2215625 -31.48179688 20.943125 -32.27734375 20.65625 C-32.84582031 20.4396875 -33.41429687 20.223125 -34 20 C-32.49236421 14.63951721 -29.13507062 10.60547139 -25 7 C-21.37128781 5.16937242 -17.66236241 4.06841559 -13.75 3 C-12.75742188 2.70222656 -11.76484375 2.40445312 -10.7421875 2.09765625 C-3.60822293 0 -3.60822293 0 0 0 Z " fill="#D83AFE" transform="translate(96,27)"/>
<path d="M0 0 C1.51400391 0.47566406 1.51400391 0.47566406 3.05859375 0.9609375 C8.57034489 2.74131472 8.57034489 2.74131472 10.625 3.625 C11.625 5.625 11.625 5.625 10.62890625 8.8828125 C10.15610016 10.1747052 9.67528031 11.46368638 9.1875 12.75 C8.94451172 13.40871094 8.70152344 14.06742188 8.45117188 14.74609375 C7.84921679 16.37491338 7.23797588 18.00029575 6.625 19.625 C-4.51325329 17.59986304 -18.20854445 15.00503953 -25.34375 5.5546875 C-26.39810945 3.58175732 -26.94694462 1.81391955 -27.375 -0.375 C-26.02604264 -0.88888852 -24.67043517 -1.38532722 -23.3125 -1.875 C-22.55839844 -2.1534375 -21.80429688 -2.431875 -21.02734375 -2.71875 C-13.46983927 -4.58864802 -7.15407378 -2.35663607 0 0 Z " fill="#00BBF2" transform="translate(89.375,53.375)"/>
<path d="M0 0 C4.13617149 1.37872383 5.43281059 3.51114759 7.74316406 7.11669922 C10.18395583 12.71610691 9.61426196 18.56561374 9.375 24.5625 C9.34792969 25.85736328 9.32085937 27.15222656 9.29296875 28.48632812 C9.22274108 31.65827803 9.11514083 34.82936273 9 38 C3.72 38 -1.56 38 -7 38 C-7.1905145 33.72703185 -7.32845013 29.46269982 -7.4375 25.1875 C-7.49615234 23.99189453 -7.55480469 22.79628906 -7.61523438 21.56445312 C-7.78841801 12.48468233 -5.63824979 7.09480521 0 0 Z " fill="#FEFEFE" transform="translate(49,62)"/>
<path d="M0 0 C5.28 0 10.56 0 16 0 C16.1905145 4.27296815 16.32845013 8.53730018 16.4375 12.8125 C16.49615234 14.00810547 16.55480469 15.20371094 16.61523438 16.43554688 C16.78841801 25.51531767 14.63824979 30.90519479 9 38 C4.37675751 36.14774137 3.04997982 33.3878927 0.99462891 29.01269531 C-0.81657479 23.52662423 -0.51959048 18.09069728 -0.3125 12.375 C-0.28994141 11.18003906 -0.26738281 9.98507812 -0.24414062 8.75390625 C-0.18577023 5.83538655 -0.09611159 2.91752068 0 0 Z " fill="#FEFEFE" transform="translate(42,0)"/>
<path d="M0 0 C2.97 0 5.94 0 9 0 C9.09943082 5.26524445 9.17173199 10.52993343 9.21972656 15.79589844 C9.23974959 17.58440684 9.26697654 19.37285054 9.30175781 21.16113281 C9.35068955 23.74300162 9.37306165 26.3239995 9.390625 28.90625 C9.41127014 29.69616333 9.43191528 30.48607666 9.45318604 31.29992676 C9.4554135 36.90451887 8.29693765 41.38788499 5 46 C1.97503783 48.55722648 -0.94165394 49.909928 -4.9375 50.25 C-5.618125 50.1675 -6.29875 50.085 -7 50 C-7 47.36 -7 44.72 -7 42 C-5.02 41.01 -3.04 40.02 -1 39 C-0.67 26.13 -0.34 13.26 0 0 Z " fill="#000000" transform="translate(148,25)"/>
<path d="M0 0 C5.75 0.875 5.75 0.875 8 2 C7.67 2.99 7.34 3.98 7 5 C1.125 2.25 1.125 2.25 0 0 Z " fill="#DD35F2" transform="translate(30,51)"/>
</svg>
