<?xml version="1.0" encoding="UTF-8"?>
<svg version="1.1" xmlns="http://www.w3.org/2000/svg" width="512" height="512">
<path d="M0 0 C1.50196069 -0.00418216 3.00391822 -0.00966448 4.50586998 -0.01631981 C8.59777618 -0.03067747 12.6894793 -0.02656029 16.78139615 -0.019153 C21.20823596 -0.01439947 25.63503321 -0.02695039 30.06185913 -0.03717041 C38.72062656 -0.05432105 47.3793213 -0.0552062 56.0381013 -0.04995751 C63.07952745 -0.04590764 70.1209322 -0.04736904 77.16235733 -0.05270576 C78.66856625 -0.0538284 78.66856625 -0.0538284 80.20520363 -0.05497371 C82.24544572 -0.05650527 84.28568781 -0.05804362 86.3259299 -0.05958868 C105.43651228 -0.07330018 124.54705367 -0.0678855 143.65763511 -0.05640347 C161.11927041 -0.04647226 178.58079974 -0.05941223 196.0424187 -0.08333766 C213.99768074 -0.107753 231.95289347 -0.11733056 249.90817177 -0.11068493 C259.97843326 -0.10719816 270.04861327 -0.10938896 280.11886215 -0.12693596 C288.69120041 -0.1416884 297.2633998 -0.14225368 305.83573543 -0.12486505 C310.20424583 -0.11637774 314.5725085 -0.11414964 318.94100571 -0.1295166 C322.94944935 -0.14344178 326.95743484 -0.13850124 330.96585251 -0.11927737 C332.40650061 -0.11554087 333.84718611 -0.11837053 335.28780065 -0.12888902 C359.15763702 -0.29061137 379.58733371 9.00107876 396.71878052 25.38768005 C397.40713989 26.0012738 398.09549927 26.61486755 398.80471802 27.24705505 C412.42896656 39.84813868 421.40215879 59.21636453 422.99870765 77.61325562 C423.10413116 80.97112044 423.12380594 84.31753142 423.10646057 87.67700195 C423.11453888 89.58594023 423.11453888 89.58594023 423.12278038 91.53344291 C423.13710339 95.02686881 423.13303209 98.52005615 423.12561357 102.01349437 C423.1208514 105.79610206 423.13341832 109.57866037 423.14363098 113.36125183 C423.16076346 120.75568394 423.16167079 128.15003086 423.15641808 135.54447765 C423.1523657 141.55713587 423.15383256 147.56976904 423.15916634 153.58242607 C423.15991476 154.44033737 423.16066318 155.29824868 423.16143428 156.18215729 C423.16296585 157.92533558 423.1645042 159.66851386 423.16604925 161.41169214 C423.17975354 177.73093127 423.1743506 194.05012236 423.16286404 210.36936038 C423.15292805 225.28198463 423.16588233 240.19448487 423.18979823 255.10709 C423.21420832 270.4441007 423.22379276 285.78105369 423.2171455 301.11808342 C423.21365827 309.71887091 423.21585284 318.31956302 423.23339653 326.92033577 C423.24814218 334.23965915 423.24872287 341.55881989 423.23132562 348.87814016 C423.22283371 352.60833482 423.22062149 356.33823924 423.23597717 360.0684185 C423.2524528 364.12095975 423.23763127 368.17280548 423.21998596 372.2253418 C423.22959097 373.39160506 423.23919598 374.55786833 423.24909204 375.75947291 C423.12410964 389.75764233 418.00244125 401.87241946 408.46878052 412.13768005 C395.831409 423.9005906 381.3213331 427.92242477 364.56643677 427.6650238 C350.50480012 427.11801607 338.31660738 419.2607792 328.71878052 409.38768005 C327.02288512 407.25964 325.4322881 405.111395 323.91018677 402.85643005 C323.51702271 402.37174255 323.12385864 401.88705505 322.71878052 401.38768005 C322.05878052 401.38768005 321.39878052 401.38768005 320.71878052 401.38768005 C320.60397339 400.79890076 320.48916626 400.21012146 320.37088013 399.60350037 C319.67252408 397.23050167 318.80234245 395.87205421 317.28518677 393.93455505 C316.8011438 393.31580505 316.31710083 392.69705505 315.81838989 392.05955505 C315.3111438 391.4253363 314.80389771 390.79111755 314.28128052 390.13768005 C313.52621216 389.1631488 313.52621216 389.1631488 312.75588989 388.16893005 C311.46187341 386.53293577 310.09531585 384.95487705 308.71878052 383.38768005 C308.05878052 383.38768005 307.39878052 383.38768005 306.71878052 383.38768005 C306.60397339 382.79890076 306.48916626 382.21012146 306.37088013 381.60350037 C305.67252408 379.23050167 304.80234245 377.87205421 303.28518677 375.93455505 C302.8011438 375.31580505 302.31710083 374.69705505 301.81838989 374.05955505 C301.3111438 373.4253363 300.80389771 372.79111755 300.28128052 372.13768005 C299.52621216 371.1631488 299.52621216 371.1631488 298.75588989 370.16893005 C297.46187341 368.53293577 296.09531585 366.95487705 294.71878052 365.38768005 C294.05878052 365.38768005 293.39878052 365.38768005 292.71878052 365.38768005 C292.65046021 364.85400818 292.58213989 364.3203363 292.51174927 363.77049255 C291.38970716 360.39883893 289.25095592 357.97471419 287.03128052 355.26268005 C286.0228114 354.00539395 285.01503191 352.74755446 284.00784302 351.48924255 C283.47191528 350.82311951 282.93598755 350.15699646 282.38381958 349.47068787 C279.52063888 345.88877325 276.71599838 342.2615753 273.90628052 338.63768005 C272.71239784 337.10112246 271.51838616 335.56466509 270.32424927 334.02830505 C269.72789673 333.26066833 269.13154419 332.49303162 268.51712036 331.70213318 C266.16587247 328.67609054 263.81314712 325.65119874 261.4602356 322.62644958 C260.30238575 321.13794782 259.14467017 319.6493416 257.98709106 318.16062927 C254.9727255 314.28410856 251.95651887 310.40903947 248.93753052 306.53611755 C248.31491333 305.7368988 247.69229614 304.93768005 247.05081177 304.11424255 C245.87170834 302.60076651 244.69206405 301.08771159 243.51174927 299.57518005 C242.97163208 298.88166443 242.43151489 298.1881488 241.87503052 297.47361755 C241.40903442 296.87597595 240.94303833 296.27833435 240.46292114 295.6625824 C238.83085773 293.53386362 237.21833206 291.39200604 235.60977173 289.24549866 C235.06863487 288.5235261 234.52749802 287.80155354 233.96996307 287.05770302 C233.55707283 286.50659544 233.14418259 285.95548786 232.71878052 285.38768005 C232.71519799 286.58202636 232.71519799 286.58202636 232.71154308 287.80050087 C232.6522625 307.22478178 232.57662948 326.64893704 232.48306561 346.07308388 C232.43820714 355.46667479 232.39876983 364.86022864 232.37234497 374.25389099 C232.349284 382.44675381 232.31579639 390.63949833 232.27007896 398.83226717 C232.24625538 403.16542873 232.22745575 407.49847393 232.22116661 411.83169937 C232.21506614 415.92098421 232.19489026 420.00997171 232.164505 424.09914589 C232.15580347 425.5896974 232.15198557 427.08028789 232.15377235 428.57086372 C232.17323217 452.32254492 225.1166839 472.44245021 208.52346802 489.6025238 C202.24108461 495.84115803 195.81931496 500.58932083 187.96878052 504.63768005 C187.05866211 505.11382751 187.05866211 505.11382751 186.13015747 505.59959412 C173.50682741 511.78364402 161.51792109 512.97741843 147.75222778 512.90525818 C145.99126612 512.91069168 144.23030902 512.91782116 142.46936035 512.92649841 C137.72748252 512.94459024 132.98595641 512.9377229 128.24407315 512.92498207 C123.25564784 512.9147789 118.26725049 512.92426805 113.27882385 512.93052673 C104.90418146 512.93778266 96.52968065 512.92827029 88.15505981 512.90916443 C78.50740629 512.88740682 68.86009111 512.89444735 59.2124458 512.91647005 C50.89349736 512.93469136 42.5746501 512.93714941 34.25568813 512.92671537 C29.30282903 512.92051637 24.35012832 512.91954472 19.39727974 512.93286133 C14.73734404 512.94451748 10.07783939 512.93621813 5.41794968 512.9132843 C3.71977258 512.90804857 2.02155846 512.90942146 0.32339668 512.91833496 C-24.45317142 513.0362759 -45.28344679 504.59530663 -63.28121948 487.38768005 C-64.42397339 486.37447693 -64.42397339 486.37447693 -65.58981323 485.34080505 C-79.18949265 472.80175921 -88.13422161 453.15433263 -89.55788124 434.82588792 C-89.66794459 430.91768214 -89.68683025 427.01557296 -89.66889954 423.10646057 C-89.6730817 421.60449988 -89.67856402 420.10254235 -89.68521935 418.60059059 C-89.69957701 414.50868439 -89.69545983 410.41698127 -89.68805254 406.32506442 C-89.68329901 401.89822461 -89.69584993 397.47142736 -89.70606995 393.04460144 C-89.72322059 384.38583401 -89.72410574 375.72713927 -89.71885704 367.06835927 C-89.71480718 360.02693312 -89.71626858 352.98552837 -89.7216053 345.94410324 C-89.72235372 344.93996396 -89.72310214 343.93582468 -89.72387325 342.90125694 C-89.7254048 340.86101485 -89.72694315 338.82077276 -89.72848821 336.78053068 C-89.74219971 317.66994829 -89.73678504 298.5594069 -89.725303 279.44882546 C-89.7153718 261.98719016 -89.72831176 244.52566083 -89.75223719 227.06404187 C-89.77665254 209.10877983 -89.78623009 191.1535671 -89.77958447 173.1982888 C-89.77609769 163.12802731 -89.77828849 153.0578473 -89.79583549 142.98759842 C-89.81058794 134.41526016 -89.81115322 125.84306077 -89.79376458 117.27072515 C-89.78527728 112.90221474 -89.78304917 108.53395207 -89.79841614 104.16545486 C-89.81234132 100.15701122 -89.80740078 96.14902573 -89.7881769 92.14060806 C-89.78444041 90.69995996 -89.78727007 89.25927446 -89.79778855 87.81865992 C-89.95951091 63.94882355 -80.66782077 43.51912686 -64.28121948 26.38768005 C-63.66762573 25.69932068 -63.05403198 25.0109613 -62.42184448 24.30174255 C-46.29346736 6.86379635 -23.1015273 -0.10596441 0 0 Z M-14.15621948 77.26268005 C-17.3912002 82.02000464 -18.53064672 85.57381443 -18.53848839 91.32171345 C-18.54493728 92.51805639 -18.55138617 93.71439932 -18.55803049 94.94699508 C-18.55493328 96.25767823 -18.55183608 97.56836138 -18.54864502 98.91876221 C-18.55238187 100.32806014 -18.55698354 101.73735601 -18.56237566 103.14664859 C-18.57461679 107.01926894 -18.57434389 110.89180298 -18.57198691 114.76443827 C-18.57157903 118.94110677 -18.5826152 123.1177475 -18.59210205 127.29440308 C-18.60871915 135.47731743 -18.61421192 143.66020296 -18.61532681 151.84313277 C-18.61627695 158.49436083 -18.62038555 165.14557938 -18.62672806 171.79680443 C-18.64434244 190.65217792 -18.65356663 209.50752865 -18.65206711 228.36291043 C-18.6519872 229.37953411 -18.65190729 230.39615779 -18.65182495 231.44358826 C-18.65174319 232.46145252 -18.65166143 233.47931678 -18.65157719 234.52802541 C-18.65076424 251.02491776 -18.66990354 267.52171882 -18.69810168 284.01858477 C-18.72682353 300.95541406 -18.74064236 317.89219883 -18.73891413 334.8290531 C-18.73824999 344.33862804 -18.74375304 353.84810728 -18.76527023 363.35766029 C-18.78347283 371.45425057 -18.78783696 379.55070175 -18.77425139 387.64730362 C-18.76771705 391.77794536 -18.76762119 395.90832019 -18.78495789 400.03893661 C-18.80067332 403.82220052 -18.79784099 407.60498556 -18.78038962 411.38823768 C-18.77586317 413.40121765 -18.79098906 415.41421239 -18.80686891 417.42713481 C-18.75239666 424.55874535 -18.18645985 429.35166811 -14.28121948 435.38768005 C-9.22480332 440.31444452 -4.54405173 441.63532667 2.41204834 441.65510559 C3.40145938 441.66190226 3.40145938 441.66190226 4.41085851 441.66883624 C6.61334324 441.68146138 8.8155801 441.67986116 11.01809692 441.6782074 C12.60015683 441.68419358 14.18221382 441.69099934 15.76426697 441.69856262 C20.05537343 441.71621441 24.34640012 441.72091748 28.63753939 441.72219419 C32.21887408 441.72409427 35.80019022 441.73145251 39.38151777 441.73853838 C47.82695608 441.75481457 56.27235176 441.7597078 64.71780396 441.75828552 C73.43675517 441.75708226 82.15545957 441.77822262 90.87434828 441.80977285 C98.35809771 441.83589086 105.84176625 441.8466548 113.32556093 441.8453747 C117.79641997 441.84486402 122.26705935 441.85060639 126.73787308 441.8717308 C130.9388181 441.89103961 135.1393321 441.89128863 139.34029198 441.87669754 C140.88387237 441.87459958 142.42747924 441.87936877 143.97101402 441.89141846 C146.07434867 441.90677829 148.17617944 441.89762732 150.27947998 441.88215637 C151.45748987 441.88324591 152.63549976 441.88433544 153.84920692 441.88545799 C156.73442175 441.6221483 156.73442175 441.6221483 158.59757805 439.88676548 C160.22116687 436.26789443 160.13051773 432.79991215 160.09732056 428.90783691 C160.10411575 427.61177392 160.10411575 427.61177392 160.11104822 426.28952783 C160.12269323 423.38858053 160.11301643 420.48809248 160.10354614 417.58714294 C160.10765051 415.50914715 160.11311058 413.43115366 160.11982727 411.35316467 C160.13156676 406.87386517 160.13403124 402.39468893 160.12947083 397.91537666 C160.1226667 390.82497998 160.13852199 383.73474558 160.15786743 376.64437866 C160.19576395 361.57965458 160.20851666 346.51494447 160.21878052 331.45018005 C160.22985675 315.21746765 160.24530919 298.98482995 160.28949308 282.7521686 C160.30779993 275.71250019 160.31175873 268.67301693 160.3045578 261.63333046 C160.30302925 257.23831948 160.31386282 252.8433999 160.32793617 248.44841385 C160.33191837 246.42043974 160.33084902 244.39244797 160.32416344 242.36448097 C160.26731119 223.67271395 161.86355404 207.87255978 175.33987427 193.70799255 C186.22164135 183.09424929 198.84293796 177.49539745 214.16409302 177.35643005 C229.31575662 178.02243725 242.1807204 183.19803007 252.65628052 194.32518005 C257.63042003 200.06940752 262.13176252 206.15483551 266.64065552 212.2665863 C269.61447867 216.28049182 272.70647884 220.18833345 275.84378052 224.07518005 C279.89211685 229.09592365 283.87882148 234.15213468 287.79837036 239.2743988 C291.33270055 243.89225643 294.89664933 248.48650892 298.46878052 253.07518005 C299.35364136 254.21213318 299.35364136 254.21213318 300.25637817 255.37205505 C302.07689343 257.71081918 303.89777419 260.04929826 305.71878052 262.38768005 C312.86357918 271.56242418 320.00045895 280.74216369 327.08206177 289.96580505 C332.02307663 296.38893114 337.00729804 302.77903732 341.99368286 309.16697693 C343.2246798 310.75162852 344.44815333 312.34213632 345.66653442 313.93650818 C346.29865845 314.76086365 346.93078247 315.58521912 347.58206177 316.43455505 C348.44698242 317.56909119 348.44698242 317.56909119 349.32937622 318.72654724 C349.78787964 319.27472107 350.24638306 319.8228949 350.71878052 320.38768005 C351.04878052 320.38768005 351.37878052 320.38768005 351.71878052 320.38768005 C351.78721436 289.66045444 351.84030751 258.93324624 351.87197651 228.20596262 C351.87572864 224.57854669 351.8796116 220.95113091 351.88357544 217.32371521 C351.88436237 216.6015603 351.8851493 215.87940539 351.88596008 215.13536699 C351.89901495 203.44145053 351.92266924 191.74757831 351.95023891 180.05368809 C351.97829085 168.05519021 351.99495633 156.0567155 352.001046 144.05818617 C352.00479342 137.31857355 352.01380865 130.57905318 352.03597069 123.83947372 C352.05630761 117.49810353 352.06261991 111.15687517 352.05810356 104.81547546 C352.05893001 102.48623001 352.06491215 100.15697989 352.07639694 97.8277626 C352.09129701 94.65048769 352.08774288 91.47375006 352.07954407 88.29646301 C352.08828259 87.37233057 352.09702112 86.44819813 352.10602444 85.49606168 C352.07052441 80.41499077 351.67656579 76.72802314 348.71878052 72.38768005 C345.53143961 71.32523308 343.27103784 71.2602109 339.92152119 71.25625229 C338.70477658 71.25241114 337.48803197 71.24857 336.23441631 71.24461246 C334.87709759 71.24539274 333.51977892 71.24627154 332.16246033 71.24723816 C330.72601656 71.24465519 329.28957352 71.24164223 327.85313147 71.23823476 C323.89620157 71.2301533 319.93928979 71.22837455 315.98235261 71.22763729 C311.71840386 71.2257887 307.45446455 71.2182423 303.19052124 71.21150208 C293.86194814 71.19790964 284.53337934 71.19189249 275.20479798 71.18749142 C269.38124325 71.18473028 263.55769019 71.18049314 257.73413658 71.17598724 C241.61443721 71.16379291 225.49473917 71.15349423 209.37503529 71.15011215 C208.34295682 71.14989259 207.31087835 71.14967302 206.24752478 71.1494468 C205.21295591 71.14922852 204.17838703 71.14901024 203.11246759 71.14878535 C201.01598791 71.14834188 198.91950824 71.14789532 196.82302856 71.14744568 C195.783099 71.14722425 194.74316943 71.14700282 193.67172685 71.14677468 C176.8223009 71.14282694 159.97291821 71.12537439 143.12350897 71.10208616 C125.82966386 71.07837638 108.53584045 71.06591045 91.24197882 71.06474423 C81.53006269 71.06382721 71.81820289 71.05806814 62.10630226 71.03992462 C53.83584573 71.02452862 45.56546294 71.01940018 37.29499481 71.02766272 C33.07529706 71.03157113 28.85574784 71.0306304 24.63606834 71.01660538 C20.77138267 71.00387777 16.90695731 71.00505386 13.04227205 71.01719609 C11.64586007 71.01915508 10.24942971 71.01606526 8.85304353 71.00735173 C-3.8307265 70.73190364 -3.8307265 70.73190364 -14.15621948 77.26268005 Z " fill="#19E4C5" transform="translate(89.28121948242188,-0.3876800537109375)"/>
<path d="M0 0 C17.50618913 -1.2285045 36.33560633 7.20544058 49.62890625 18.16796875 C52.13910576 20.3945732 54.57539105 22.68080883 57 25 C57.68835938 25.61359375 58.37671875 26.2271875 59.0859375 26.859375 C72.71018604 39.46045863 81.68337827 58.82868447 83.27992713 77.22557557 C83.38535065 80.58344039 83.40502542 83.92985136 83.38768005 87.2893219 C83.39575836 89.19826018 83.39575836 89.19826018 83.40399987 91.14576286 C83.41832287 94.63918875 83.41425157 98.1323761 83.40683305 101.62581432 C83.40207088 105.40842201 83.4146378 109.19098032 83.42485046 112.97357178 C83.44198295 120.36800388 83.44289027 127.76235081 83.43763756 135.1567976 C83.43358518 141.16945581 83.43505205 147.18208898 83.44038582 153.19474602 C83.44113424 154.05265732 83.44188266 154.91056862 83.44265376 155.79447724 C83.44418534 157.53765552 83.44572368 159.28083381 83.44726873 161.02401208 C83.46097302 177.34325121 83.45557008 193.66244231 83.44408352 209.98168033 C83.43414753 224.89430458 83.44710181 239.80680482 83.47101771 254.71940995 C83.4954278 270.05642065 83.50501225 285.39337363 83.49836498 300.73040336 C83.49487775 309.33119086 83.49707232 317.93188296 83.51461601 326.53265572 C83.52936166 333.85197909 83.52994235 341.17113984 83.5125451 348.49046011 C83.50405319 352.22065477 83.50184097 355.95055919 83.51719666 359.68073845 C83.53367228 363.7332797 83.51885075 367.78512542 83.50120544 371.83766174 C83.51081045 373.00392501 83.52041546 374.17018828 83.53031152 375.37179285 C83.40532912 389.36996228 78.28366073 401.4847394 68.75 411.75 C56.11262848 423.51291055 41.60255258 427.53474472 24.84765625 427.27734375 C10.7860196 426.73033602 -1.40217314 418.87309914 -11 409 C-12.6958954 406.87195995 -14.28649241 404.72371494 -15.80859375 402.46875 C-16.20175781 401.9840625 -16.59492188 401.499375 -17 401 C-17.66 401 -18.32 401 -19 401 C-19.11480713 400.4112207 -19.22961426 399.82244141 -19.34790039 399.21582031 C-20.04625644 396.84282162 -20.91643807 395.48437416 -22.43359375 393.546875 C-22.91763672 392.928125 -23.40167969 392.309375 -23.90039062 391.671875 C-24.40763672 391.03765625 -24.91488281 390.4034375 -25.4375 389.75 C-25.94087891 389.1003125 -26.44425781 388.450625 -26.96289062 387.78125 C-28.25690711 386.14525572 -29.62346467 384.567197 -31 383 C-31.66 383 -32.32 383 -33 383 C-33.11480713 382.4112207 -33.22961426 381.82244141 -33.34790039 381.21582031 C-34.04625644 378.84282162 -34.91643807 377.48437416 -36.43359375 375.546875 C-36.91763672 374.928125 -37.40167969 374.309375 -37.90039062 373.671875 C-38.40763672 373.03765625 -38.91488281 372.4034375 -39.4375 371.75 C-39.94087891 371.1003125 -40.44425781 370.450625 -40.96289062 369.78125 C-42.25690711 368.14525572 -43.62346467 366.567197 -45 365 C-45.66 365 -46.32 365 -47 365 C-47.06832031 364.46632813 -47.13664063 363.93265625 -47.20703125 363.3828125 C-48.32907336 360.01115888 -50.4678246 357.58703414 -52.6875 354.875 C-53.69596912 353.61771389 -54.70374861 352.35987441 -55.7109375 351.1015625 C-56.24686523 350.43543945 -56.78279297 349.76931641 -57.33496094 349.08300781 C-60.19814163 345.50109319 -63.00278213 341.87389524 -65.8125 338.25 C-67.00638268 336.71344241 -68.20039436 335.17698504 -69.39453125 333.640625 C-69.99088379 332.87298828 -70.58723633 332.10535156 -71.20166016 331.31445312 C-73.55290805 328.28841049 -75.90563339 325.26351869 -78.25854492 322.23876953 C-79.41639477 320.75026776 -80.57411035 319.26166155 -81.73168945 317.77294922 C-84.74605501 313.8964285 -87.76226165 310.02135942 -90.78125 306.1484375 C-91.40386719 305.34921875 -92.02648437 304.55 -92.66796875 303.7265625 C-93.84707218 302.21308645 -95.02671646 300.70003153 -96.20703125 299.1875 C-96.74714844 298.49398438 -97.28726563 297.80046875 -97.84375 297.0859375 C-98.54274414 296.1894751 -98.54274414 296.1894751 -99.25585938 295.27490234 C-100.88792279 293.14618357 -102.50044846 291.00432598 -104.10900879 288.8578186 C-104.65014565 288.13584604 -105.1912825 287.41387348 -105.74881744 286.67002296 C-106.36815281 285.8433616 -106.36815281 285.8433616 -107 285 C-107.00238835 285.79623087 -107.00477671 286.59246174 -107.00723743 287.41282082 C-107.06651802 306.83710172 -107.14215104 326.26125698 -107.23571491 345.68540382 C-107.28057338 355.07899474 -107.32001069 364.47254858 -107.34643555 373.86621094 C-107.36949652 382.05907376 -107.40298413 390.25181827 -107.44870156 398.44458711 C-107.47252514 402.77774868 -107.49132477 407.11079388 -107.49761391 411.44401932 C-107.50371437 415.53330415 -107.52389025 419.62229165 -107.55427551 423.71146584 C-107.56297705 425.20201734 -107.56679495 426.69260784 -107.56500816 428.18318367 C-107.54554835 451.93486486 -114.60209661 472.05477016 -131.1953125 489.21484375 C-143.93990596 501.87068656 -161.96602826 512.15595672 -180.375 512.25 C-181.91766223 512.18776003 -183.46023277 512.11312576 -185 512 C-184.360625 511.401875 -183.72125 510.80375 -183.0625 510.1875 C-180.06220742 507.0053715 -179.87537584 504.47487062 -179.88533211 500.27868843 C-179.88519116 499.30189821 -179.8850502 498.325108 -179.88490498 497.31871808 C-179.89234378 495.70509249 -179.89234378 495.70509249 -179.89993286 494.05886841 C-179.90119513 492.91799928 -179.90245741 491.77713014 -179.90375793 490.60168922 C-179.90821488 487.42970155 -179.91715961 484.25776207 -179.92791152 481.08579063 C-179.9383829 477.66634634 -179.94302373 474.24689399 -179.94824219 470.82743835 C-179.95796192 464.89831823 -179.97100725 458.96921299 -179.98596573 453.04010391 C-180.00933535 443.66052225 -180.02233976 434.28093951 -180.03366089 424.90133667 C-180.03766266 421.69140046 -180.04173136 418.48146434 -180.04582024 415.27152824 C-180.04683946 414.46924084 -180.04785869 413.66695344 -180.04890881 412.8403543 C-180.06065591 403.70411369 -180.07453161 394.56787673 -180.08935547 385.43164062 C-180.0907079 384.59638441 -180.09206033 383.7611282 -180.09345375 382.9005612 C-180.11560306 369.38477919 -180.14546985 355.86902228 -180.17732288 342.35326017 C-180.20976424 328.46864688 -180.23059802 314.58404664 -180.24159515 300.69939983 C-180.24880337 292.14122173 -180.26545308 283.58316739 -180.29439591 275.02503471 C-180.31346151 269.151106 -180.32147959 263.27722634 -180.32099093 257.40326698 C-180.32105367 254.01931832 -180.32758416 250.63571781 -180.34415817 247.25178719 C-180.36142667 243.57137352 -180.35994654 239.89140733 -180.35403442 236.21096802 C-180.36345507 235.15752484 -180.37287571 234.10408167 -180.38258183 233.01871598 C-180.29108895 215.88884254 -175.02755129 203.04846877 -163 191 C-162.43410156 190.4225 -161.86820312 189.845 -161.28515625 189.25 C-150.5820758 179.20114207 -136.2731115 175.91587557 -122 176 C-105.58766899 177.78470977 -93.07000955 185.3133811 -82.58203125 197.90234375 C-80.48577749 200.61413695 -78.43635753 203.35108469 -76.40576172 206.11181641 C-73.74697829 209.68302707 -70.99093569 213.17922298 -68.25 216.6875 C-67.04663416 218.23288541 -65.8435115 219.7784602 -64.640625 221.32421875 C-64.03798828 222.09813965 -63.43535156 222.87206055 -62.81445312 223.66943359 C-59.87486662 227.44517266 -56.93752285 231.22265535 -54 235 C-52.83334461 236.50000877 -51.66667793 238.00000876 -50.5 239.5 C-48.16666667 242.5 -45.83333333 245.5 -43.5 248.5 C-42.92217773 249.24290283 -42.34435547 249.98580566 -41.74902344 250.7512207 C-40.58556688 252.24711662 -39.42215522 253.74304745 -38.25878906 255.23901367 C-35.29338002 259.05209776 -32.32712738 262.86452064 -29.359375 266.67578125 C-23.43040768 274.29143755 -17.51677309 281.91771453 -11.640625 289.57421875 C-7.78393923 294.58821202 -3.88926407 299.57290793 0.00390625 304.55859375 C0.56464844 305.27789062 1.12539063 305.9971875 1.703125 306.73828125 C2.44030762 307.68247925 2.44030762 307.68247925 3.19238281 308.64575195 C4.84792151 310.80193235 6.48287742 312.97170266 8.11297607 315.1471405 C8.65354015 315.86839709 9.19410423 316.58965368 9.75104904 317.33276653 C10.36927977 318.1580471 10.36927977 318.1580471 11 319 C11.1289747 289.37040292 11.2565122 259.7407999 11.38218227 230.11118862 C11.3971934 226.57225396 11.41221614 223.03331935 11.42724609 219.49438477 C11.43173202 218.43806586 11.43173202 218.43806586 11.43630856 217.36040718 C11.47818416 207.50543704 11.52068566 197.65046978 11.56369519 187.79550453 C11.58774332 182.28300099 11.61169668 176.77049703 11.63562059 171.25799295 C11.64155691 169.89033227 11.64749734 168.52267161 11.65344191 167.15501097 C11.72023549 151.78087796 11.78437728 136.40674129 11.83984375 121.03256226 C11.84446562 119.75230663 11.84908749 118.47205101 11.85384941 117.15299976 C11.87193158 112.12094334 11.8899218 107.08888667 11.907444 102.05682826 C11.95482 88.4817598 12.0135536 74.90695653 12.10489655 61.3321104 C12.14072726 55.95420636 12.16717325 50.57627644 12.18922186 45.19829923 C12.20321613 41.90569888 12.22391549 38.61337922 12.25502014 35.32089043 C12.28700028 31.91052927 12.30123594 28.50057362 12.31054688 25.09008789 C12.32443954 24.14381845 12.33833221 23.19754902 12.35264587 22.22260475 C12.34177191 15.33438412 11.26375212 10.55397675 6.5625 5.25 C4.43471023 3.38169678 2.31447002 1.62870113 0 0 Z " fill="#62F555" transform="translate(429,0)"/>
<path d="M0 0 C1.32 0.66 2.64 1.32 4 2 C4.00546844 3.06329529 4.00546844 3.06329529 4.01104736 4.14807129 C4.04904846 10.85640677 4.10603716 17.56428788 4.18390274 24.27228546 C4.22326903 27.72027886 4.2555099 31.16802104 4.27099609 34.61621094 C4.28915662 38.58821815 4.33915575 42.55952946 4.390625 46.53125 C4.39185364 47.75863892 4.39308228 48.98602783 4.39434814 50.25061035 C4.51374004 57.27778086 5.13633686 62.05994646 9 68 C14.17429031 72.1183127 17.94894405 73.12405486 24.45275879 73.14044189 C25.1106573 73.14341302 25.7685558 73.14638414 26.44639063 73.1494453 C28.65502846 73.15813002 30.86361207 73.15964032 33.07226562 73.16113281 C34.65402848 73.16576102 36.23579022 73.17078568 37.81755066 73.17617798 C42.11702368 73.18930067 46.41648108 73.19574626 50.71597099 73.20018864 C53.40035589 73.20311857 56.08473651 73.20722314 58.76911926 73.21169281 C67.16312245 73.22536517 75.55711588 73.23503405 83.95112944 73.2388947 C93.6504376 73.24337998 103.34960516 73.26095067 113.04887056 73.2898953 C120.54106325 73.31148017 128.03321628 73.32159721 135.52543974 73.32293582 C140.00300213 73.32398582 144.4804323 73.3299352 148.95796204 73.34775543 C153.16702021 73.36418181 157.37584598 73.36641827 161.5849247 73.35761642 C163.13172844 73.35684322 164.67854442 73.36122593 166.225317 73.37107468 C168.33290526 73.38371009 170.43965977 73.37796442 172.54724121 73.36749268 C174.3181525 73.36969252 174.3181525 73.36969252 176.12483978 73.3719368 C179.02563895 73.24976244 179.02563895 73.24976244 180.90329742 71.47703171 C181.26520927 70.98961124 181.62712112 70.50219078 182 70 C183.82888002 71.82888002 183.14683794 74.72893043 183.16113281 77.18457031 C183.16609772 77.8301741 183.17106262 78.47577789 183.17617798 79.14094543 C183.19083702 81.28668265 183.19760916 83.43234584 183.203125 85.578125 C183.20887516 87.06687422 183.21463291 88.5556234 183.22039795 90.04437256 C183.2309198 93.17167507 183.23675411 96.2989518 183.24023438 99.42626953 C183.24570937 103.42899916 183.26971073 107.43138693 183.29820633 111.43400955 C183.31685766 114.51213565 183.32203972 117.59018002 183.32357025 120.66835785 C183.32659374 122.14352021 183.33461206 123.61868124 183.34775543 125.09378815 C183.36486226 127.16207064 183.36292454 129.2295265 183.35644531 131.29785156 C183.36191376 133.06204437 183.36191376 133.06204437 183.36749268 134.86187744 C182.95740296 138.36374803 182.11214912 140.20178756 180 143 C176.3530527 145.4312982 174.63278462 145.255595 170.28631592 145.26742554 C169.60013223 145.27195665 168.91394854 145.27648776 168.20697141 145.28115618 C165.90191034 145.29384092 163.59708435 145.29217714 161.29199219 145.29052734 C159.6410288 145.29651063 157.99006822 145.30331571 156.33911133 145.31088257 C151.84667466 145.32858411 147.35431414 145.33324008 142.86184597 145.33451414 C140.05072424 145.33593555 137.23962187 145.34020527 134.42850494 145.34550858 C124.60759758 145.3640324 114.78674456 145.37217747 104.96582031 145.37060547 C95.83703049 145.36940793 86.70847859 145.39042767 77.57974887 145.4220928 C69.72812763 145.44834889 61.87658354 145.45896866 54.02491879 145.45769465 C49.3423816 145.45718715 44.66005512 145.46275047 39.97756195 145.48405075 C35.56157057 145.50358723 31.14598725 145.50345368 26.72998047 145.48901749 C25.12048997 145.48694625 23.51097292 145.49152809 21.9015274 145.5037384 C-2.55648866 145.67707008 -23.28840088 136.93401672 -41 120 C-41.76183594 119.32453125 -42.52367188 118.6490625 -43.30859375 117.953125 C-56.70803398 105.59870177 -66.24378117 85.68050907 -67.1796875 67.51171875 C-67.18637375 64.6667204 -67.13822505 61.84129276 -67 59 C-66.38511719 58.87753906 -65.77023438 58.75507813 -65.13671875 58.62890625 C-62.29489378 57.79246417 -60.99409249 56.13161611 -59 54 C-58.67 54 -58.34 54 -58 54 C-57.67 53.34 -57.34 52.68 -57 52 C-55.3545622 50.31237149 -53.68711423 48.6459651 -52 47 C-50.81231727 45.81231727 -49.63926438 44.60920308 -48.5 43.375 C-47 42 -47 42 -45 42 C-44.4225 41.278125 -43.845 40.55625 -43.25 39.8125 C-40.73023475 36.66279344 -38.17735717 34.4712778 -35 32 C-34.67 32 -34.34 32 -34 32 C-34 31.34 -34 30.68 -34 30 C-33.360625 29.87625 -32.72125 29.7525 -32.0625 29.625 C-31.381875 29.41875 -30.70125 29.2125 -30 29 C-29.67 28.34 -29.34 27.68 -29 27 C-26.9375 25.875 -26.9375 25.875 -25 25 C-25 24.34 -25 23.68 -25 23 C-24.01 23 -23.02 23 -22 23 C-21.34 21.68 -20.68 20.36 -20 19 C-19.34 19 -18.68 19 -18 19 C-17.505 17.515 -17.505 17.515 -17 16 C-16.01 16.66 -15.02 17.32 -14 18 C-13.01 17.67 -12.02 17.34 -11 17 C-11.66 16.01 -12.32 15.02 -13 14 C-11.33333333 12.33333333 -9.66666667 10.66666667 -8 9 C-7.113125 8.071875 -6.22625 7.14375 -5.3125 6.1875 C-3 4 -3 4 -1 4 C-0.67 2.68 -0.34 1.36 0 0 Z M-36 34 C-35.67 34.66 -35.34 35.32 -35 36 C-34.67 35.34 -34.34 34.68 -34 34 C-34.66 34 -35.32 34 -36 34 Z " fill="#3FED9B" transform="translate(67,367)"/>
<path d="M0 0 C7.55427913 -0.11626916 15.10846453 -0.20490421 22.66343689 -0.25906086 C26.17226959 -0.28506471 29.68048648 -0.32028972 33.18896484 -0.37719727 C37.23020054 -0.4423298 41.27079771 -0.46625618 45.3125 -0.48828125 C46.5617627 -0.51408768 47.81102539 -0.5398941 49.09814453 -0.56648254 C56.30864527 -0.56878903 61.53699027 0.01258058 67 5 C71.35200326 10.46790153 72.12721662 14.39168953 72.11352539 21.23730469 C72.11344986 22.49830994 72.11337433 23.75931519 72.11329651 25.05853271 C72.10819028 26.42964721 72.1029743 27.80076131 72.09765625 29.171875 C72.09579028 30.57863311 72.09436722 31.98539188 72.09336853 33.39215088 C72.08955744 37.08780727 72.0797392 40.78342413 72.06866455 44.47906494 C72.05842014 48.25296494 72.05386442 52.02687135 72.04882812 55.80078125 C72.03811564 63.20053882 72.02105616 70.60026386 72 78 C71.34 78 70.68 78 70 78 C69.731875 77.195625 69.46375 76.39125 69.1875 75.5625 C68.5996875 74.2940625 68.5996875 74.2940625 68 73 C64.75043502 71.91681167 62.36469821 71.86178186 58.94465637 71.84178162 C57.67840927 71.8319928 56.41216217 71.82220398 55.10754395 71.81211853 C53.70166053 71.80621434 52.29577673 71.80040389 50.88989258 71.79467773 C49.41163357 71.78509906 47.93337729 71.77508899 46.4551239 71.76467896 C42.43891823 71.73762264 38.42270079 71.716617 34.40645432 71.69667697 C30.2103754 71.67482191 26.01433275 71.64743087 21.81828308 71.62062073 C13.87105977 71.57068735 5.92381633 71.52575091 -2.02344638 71.48259836 C-11.07052615 71.43323151 -20.11756951 71.37831133 -29.16461408 71.32291877 C-47.7763756 71.20908882 -66.38817146 71.10225197 -85 71 C-85 70.67 -85 70.34 -85 70 C-84.3596431 69.99191315 -83.71928619 69.98382629 -83.05952454 69.97549438 C-76.39210211 69.88940878 -69.72497562 69.78990307 -63.05786133 69.68261719 C-60.56995617 69.64434422 -58.08199599 69.60948843 -55.59399414 69.578125 C-52.01688988 69.53243858 -48.44016383 69.47444892 -44.86328125 69.4140625 C-43.75165115 69.40251129 -42.64002106 69.39096008 -41.4947052 69.37905884 C-40.45400375 69.35918915 -39.41330231 69.33931946 -38.34106445 69.31884766 C-37.4283931 69.30552399 -36.51572174 69.29220032 -35.57539368 69.2784729 C-32.71078907 68.96872812 -30.56101067 68.31730751 -28 67 C-27.25475806 64.52391899 -27.25475806 64.52391899 -27 62 C-26.34 61.34 -25.68 60.68 -25 60 C-24.40865591 58.02885304 -24.01505455 56.0933382 -23.6875 54.0625 C-22.72965247 51.18895741 -20.95870653 49.27462694 -19 47 C-19.33 46.34 -19.66 45.68 -20 45 C-19.62746094 44.52949219 -19.25492187 44.05898438 -18.87109375 43.57421875 C-18.39800781 42.95160156 -17.92492187 42.32898437 -17.4375 41.6875 C-16.72400391 40.76517578 -16.72400391 40.76517578 -15.99609375 39.82421875 C-15.66738281 39.22222656 -15.33867187 38.62023438 -15 38 C-15.33 37.01 -15.66 36.02 -16 35 C-13.60759494 29.30379747 -13.60759494 29.30379747 -11 28 C-9.15574011 25.73183699 -9.15574011 25.73183699 -8 23 C-8.69140351 20.69712207 -8.69140351 20.69712207 -10 19 C-9.4225 18.7525 -8.845 18.505 -8.25 18.25 C-5.61711318 16.7872851 -3.87549331 15.36173231 -2 13 C-2.15984375 12.39414063 -2.3196875 11.78828125 -2.484375 11.1640625 C-3.14622565 8.38629539 -2.53902511 6.90614831 -1.5625 4.25 C-1.27503906 3.45078125 -0.98757813 2.6515625 -0.69140625 1.828125 C-0.46324219 1.22484375 -0.23507812 0.6215625 0 0 Z M-18 45 C-18 45.66 -18 46.32 -18 47 C-17.34 46.67 -16.68 46.34 -16 46 C-16.66 45.67 -17.32 45.34 -18 45 Z " fill="#2CDCA9" transform="translate(370,0)"/>
<path d="M0 0 C1.32 0.66 2.64 1.32 4 2 C4.00546844 3.06329529 4.00546844 3.06329529 4.01104736 4.14807129 C4.04904846 10.85640677 4.10603716 17.56428788 4.18390274 24.27228546 C4.22326903 27.72027886 4.2555099 31.16802104 4.27099609 34.61621094 C4.28915662 38.58821815 4.33915575 42.55952946 4.390625 46.53125 C4.39185364 47.75863892 4.39308228 48.98602783 4.39434814 50.25061035 C4.52425179 57.89648122 5.11347644 63.93567492 10.63433838 69.70910645 C11.08500671 70.13510132 11.53567505 70.56109619 12 71 C10.79618552 73.49361571 9.54571278 75.68143083 8 78 C7.505 79.485 7.505 79.485 7 81 C5.00363057 81.45818315 3.00655522 81.91384325 1.00390625 82.34375 C-2.84533339 83.60431971 -4.31232104 86.7694166 -6.1875 90.125 C-7.10185704 92.16049285 -7.10185704 92.16049285 -8 95 C-8.8353125 94.5978125 -8.8353125 94.5978125 -9.6875 94.1875 C-10.8321875 94.0946875 -10.8321875 94.0946875 -12 94 C-13.75266088 95.62204663 -15.37374295 97.25804086 -17 99 C-30.15344967 112.67080564 -30.15344967 112.67080564 -37.29296875 116.94921875 C-39.16520919 118.0108783 -39.16520919 118.0108783 -41 120 C-55.13464896 107.66977431 -64.21881551 89.47501128 -67 71 C-67.20692754 66.9829066 -67.19541068 63.01677518 -67 59 C-66.38511719 58.87753906 -65.77023438 58.75507813 -65.13671875 58.62890625 C-62.29489378 57.79246417 -60.99409249 56.13161611 -59 54 C-58.67 54 -58.34 54 -58 54 C-57.67 53.34 -57.34 52.68 -57 52 C-55.3545622 50.31237149 -53.68711423 48.6459651 -52 47 C-50.81231727 45.81231727 -49.63926438 44.60920308 -48.5 43.375 C-47 42 -47 42 -45 42 C-44.4225 41.278125 -43.845 40.55625 -43.25 39.8125 C-40.73023475 36.66279344 -38.17735717 34.4712778 -35 32 C-34.67 32 -34.34 32 -34 32 C-34 31.34 -34 30.68 -34 30 C-33.360625 29.87625 -32.72125 29.7525 -32.0625 29.625 C-31.381875 29.41875 -30.70125 29.2125 -30 29 C-29.67 28.34 -29.34 27.68 -29 27 C-26.9375 25.875 -26.9375 25.875 -25 25 C-25 24.34 -25 23.68 -25 23 C-24.01 23 -23.02 23 -22 23 C-21.34 21.68 -20.68 20.36 -20 19 C-19.34 19 -18.68 19 -18 19 C-17.505 17.515 -17.505 17.515 -17 16 C-16.01 16.66 -15.02 17.32 -14 18 C-13.01 17.67 -12.02 17.34 -11 17 C-11.66 16.01 -12.32 15.02 -13 14 C-11.33333333 12.33333333 -9.66666667 10.66666667 -8 9 C-7.113125 8.071875 -6.22625 7.14375 -5.3125 6.1875 C-3 4 -3 4 -1 4 C-0.67 2.68 -0.34 1.36 0 0 Z M-36 34 C-35.67 34.66 -35.34 35.32 -35 36 C-34.67 35.34 -34.34 34.68 -34 34 C-34.66 34 -35.32 34 -36 34 Z " fill="#36EBA8" transform="translate(67,367)"/>
<path d="M0 0 C0.99 0.495 0.99 0.495 2 1 C2.06956643 9.64932083 2.12284485 18.29854508 2.15543652 26.94808483 C2.17108035 30.96459536 2.19229492 34.98091422 2.22631836 38.99731445 C2.25895797 42.87470186 2.27686267 46.75190512 2.28463173 50.62941933 C2.29016701 52.10738333 2.30097619 53.58533746 2.31719017 55.06322289 C2.33902641 57.13636282 2.34196446 59.20874564 2.34057617 61.28198242 C2.35056892 63.05069954 2.35056892 63.05069954 2.36076355 64.85514832 C1.95813325 68.3649613 1.11759049 70.19750919 -1 73 C-4.6808384 75.45389226 -7.43051278 75.26853779 -11.68432617 75.22705078 C-12.4650499 75.22734283 -13.24577362 75.22763489 -14.05015564 75.22793579 C-16.63120633 75.22654224 -19.21196848 75.21097993 -21.79296875 75.1953125 C-23.58229922 75.19158246 -25.37163173 75.18873544 -27.16096497 75.18673706 C-31.87101885 75.1790999 -36.58094943 75.15945069 -41.29095459 75.1373291 C-46.09694755 75.11687247 -50.90296043 75.10773573 -55.70898438 75.09765625 C-65.1393771 75.07620489 -74.5696783 75.04206792 -84 75 C-83.67 73.35 -83.34 71.7 -83 70 C-82.01 70 -81.02 70 -80 70 C-80 68.68 -80 67.36 -80 66 C-78.5 62.25 -78.5 62.25 -76 61 C-76.33 60.34 -76.66 59.68 -77 59 C-77.99 59 -78.98 59 -80 59 C-80 57.35 -80 55.7 -80 54 C-79.13375 54.2784375 -79.13375 54.2784375 -78.25 54.5625 C-74.77942434 55.23733416 -72.30614128 54.10204709 -69 53 C-69.33 51.35 -69.66 49.7 -70 48 C-68.515 47.505 -68.515 47.505 -67 47 C-67 45.35 -67 43.7 -67 42 C-65.02 41.505 -65.02 41.505 -63 41 C-62.855625 40.360625 -62.71125 39.72125 -62.5625 39.0625 C-61.8396902 36.4121974 -61.00346523 36.00346523 -59 34 C-58.67 33.01 -58.34 32.02 -58 31 C-57.525625 30.54625 -57.05125 30.0925 -56.5625 29.625 C-54.80926216 28.01363515 -54.80926216 28.01363515 -54 25.375 C-53.67 24.59125 -53.34 23.8075 -53 23 C-52.01 22.67 -51.02 22.34 -50 22 C-49.814375 20.824375 -49.814375 20.824375 -49.625 19.625 C-49 17 -49 17 -47 15 C-46.59952556 12.67724823 -46.2602896 10.34260643 -46 8 C-45.01 7.67 -44.02 7.34 -43 7 C-42.67 6.34 -42.34 5.68 -42 5 C-28.8 5 -15.6 5 -2 5 C-1.34 3.35 -0.68 1.7 0 0 Z " fill="#49E684" transform="translate(248,437)"/>
<path d="M0 0 C22.11 0 44.22 0 67 0 C67 0.33 67 0.66 67 1 C53.8 1.33 40.6 1.66 27 2 C26.67 2.99 26.34 3.98 26 5 C25.34 5 24.68 5 24 5 C23.71125 6.093125 23.4225 7.18625 23.125 8.3125 C22 12 22 12 20 15 C19.855625 15.680625 19.71125 16.36125 19.5625 17.0625 C19 19 19 19 16 21 C15.505 22.2684375 15.505 22.2684375 15 23.5625 C14.67 24.366875 14.34 25.17125 14 26 C12.515 26.495 12.515 26.495 11 27 C11.495 28.485 11.495 28.485 12 30 C11.01 30.66 10.02 31.32 9 32 C8.67 32.99 8.34 33.98 8 35 C6.7118167 37.94441897 5.30474068 39.78744895 3 42 C0.37114915 45.04444816 0.37114915 45.04444816 0 49 C-0.66 49 -1.32 49 -2 49 C-2.66 50.32 -3.32 51.64 -4 53 C-4.33 52.01 -4.66 51.02 -5 50 C-5.66 50.99 -6.32 51.98 -7 53 C-8.485 52.01 -8.485 52.01 -10 51 C-9.67 51.66 -9.34 52.32 -9 53 C-7.515 53.495 -7.515 53.495 -6 54 C-6.57344937 56.86724686 -6.8614515 57.8614515 -9 60 C-10.3492671 62.92341206 -11 64.75207316 -11 68 C-11.99 68 -12.98 68 -14 68 C-14.495 69.485 -14.495 69.485 -15 71 C-39.09 71 -63.18 71 -88 71 C-86.12244138 67.24488276 -85.37972575 66.11232859 -82 64 C-81.34 64 -80.68 64 -80 64 C-79.835 63.154375 -79.67 62.30875 -79.5 61.4375 C-77.48107516 56.81079725 -74.29717465 53.66339735 -70 51 C-68.515 51.495 -68.515 51.495 -67 52 C-64.85468856 50.65918035 -63.16105953 49.16105953 -61.375 47.375 C-60 46 -60 46 -58 45 C-58.33 44.34 -58.66 43.68 -59 43 C-57.625 41.5 -57.625 41.5 -56 40 C-55.34 40 -54.68 40 -54 40 C-53.360625 39.360625 -52.72125 38.72125 -52.0625 38.0625 C-50 36 -50 36 -47 35 C-46.67 34.67 -46.34 34.34 -46 34 C-44.23275573 32.52065266 -42.46404539 31.04319429 -40.69140625 29.5703125 C-38.77298181 27.91119697 -38.77298181 27.91119697 -37 25 C-33.375 24.3125 -33.375 24.3125 -30 24 C-30.66 22.35 -31.32 20.7 -32 19 C-31.4225 18.7525 -30.845 18.505 -30.25 18.25 C-27.88006584 17.07542932 -27.88006584 17.07542932 -26 14.9375 C-24 13 -24 13 -22 12.625 C-18.78311292 11.61972279 -17.80766714 8.7388896 -16 6 C-13.01106771 3.81297638 -11.72055546 3 -8 3 C-5.32643843 2.71372955 -2.66634425 2.34968449 0 2 C0 1.34 0 0.68 0 0 Z " fill="#46EE92" transform="translate(179,441)"/>
<path d="M0 0 C10.23 0 20.46 0 31 0 C31 0.66 31 1.32 31 2 C29.7625 2.8971875 29.7625 2.8971875 28.5 3.8125 C27.2625 4.8953125 27.2625 4.8953125 26 6 C26.02835937 6.77601563 26.05671875 7.55203125 26.0859375 8.3515625 C25.96910642 11.95208403 24.6060259 13.02408382 22.125 15.5625 C19.51616999 18.26016113 17.49165383 20.53779295 16 24 C15.34 24 14.68 24 14 24 C14.99 25.98 14.99 25.98 16 28 C15.34 28.33 14.68 28.66 14 29 C12.9935725 30.66279327 11.99414593 32.32983484 11 34 C9.3125 35.8125 9.3125 35.8125 8 37 C8.66 37.99 9.32 38.98 10 40 C9.401875 40.7425 8.80375 41.485 8.1875 42.25 C6.97607292 43.7729369 5.7757901 45.30574078 4.625 46.875 C2.61337386 49.50558803 0.41823177 51.94999963 -1.79296875 54.4140625 C-3.20187659 55.93307913 -3.20187659 55.93307913 -3 58 C-3.33 58.33 -3.66 58.66 -4 59 C-3.34 59.66 -2.68 60.32 -2 61 C-2.60384018 61.24592896 -3.20768036 61.49185791 -3.82981873 61.74523926 C-6.37215036 63.21517081 -7.15596654 64.62329325 -8.72290039 67.07617188 C-11.23912843 70.02031966 -12.56690682 70.91003928 -16.40499878 71.70727539 C-20.74819937 72.03150567 -25.08430066 71.90031653 -29.43359375 71.78125 C-31.03781809 71.76631264 -32.64207914 71.75493267 -34.24635315 71.74694824 C-38.45098188 71.71652982 -42.65336859 71.63806253 -46.8571167 71.54931641 C-51.15378492 71.46719828 -55.45081865 71.43088183 -59.74804688 71.390625 C-68.16638886 71.30505224 -76.58291487 71.16867734 -85 71 C-85 70.67 -85 70.34 -85 70 C-84.3596431 69.99191315 -83.71928619 69.98382629 -83.05952454 69.97549438 C-76.39210211 69.88940878 -69.72497562 69.78990307 -63.05786133 69.68261719 C-60.56995617 69.64434422 -58.08199599 69.60948843 -55.59399414 69.578125 C-52.01688988 69.53243858 -48.44016383 69.47444892 -44.86328125 69.4140625 C-43.75165115 69.40251129 -42.64002106 69.39096008 -41.4947052 69.37905884 C-40.45400375 69.35918915 -39.41330231 69.33931946 -38.34106445 69.31884766 C-37.4283931 69.30552399 -36.51572174 69.29220032 -35.57539368 69.2784729 C-32.71078907 68.96872812 -30.56101067 68.31730751 -28 67 C-27.25475806 64.52391899 -27.25475806 64.52391899 -27 62 C-26.34 61.34 -25.68 60.68 -25 60 C-24.40865591 58.02885304 -24.01505455 56.0933382 -23.6875 54.0625 C-22.72965247 51.18895741 -20.95870653 49.27462694 -19 47 C-19.33 46.34 -19.66 45.68 -20 45 C-19.62746094 44.52949219 -19.25492187 44.05898438 -18.87109375 43.57421875 C-18.39800781 42.95160156 -17.92492187 42.32898437 -17.4375 41.6875 C-16.72400391 40.76517578 -16.72400391 40.76517578 -15.99609375 39.82421875 C-15.66738281 39.22222656 -15.33867187 38.62023438 -15 38 C-15.33 37.01 -15.66 36.02 -16 35 C-13.60759494 29.30379747 -13.60759494 29.30379747 -11 28 C-9.15574011 25.73183699 -9.15574011 25.73183699 -8 23 C-8.69140351 20.69712207 -8.69140351 20.69712207 -10 19 C-9.4225 18.7525 -8.845 18.505 -8.25 18.25 C-5.61711318 16.7872851 -3.87549331 15.36173231 -2 13 C-2.495 11.02 -2.495 11.02 -3 9 C-2.01 6.03 -1.02 3.06 0 0 Z M-18 45 C-18 45.66 -18 46.32 -18 47 C-17.34 46.67 -16.68 46.34 -16 46 C-16.66 45.67 -17.32 45.34 -18 45 Z " fill="#2AE3B3" transform="translate(370,0)"/>
<path d="M0 0 C0 20.79 0 41.58 0 63 C-0.66 63 -1.32 63 -2 63 C-2.3403125 61.80117187 -2.3403125 61.80117187 -2.6875 60.578125 C-3.73201867 57.83101796 -3.73201867 57.83101796 -6.1875 57.109375 C-7.115625 56.99078125 -8.04375 56.8721875 -9 56.75 C-10.05703125 56.61335938 -11.1140625 56.47671875 -12.203125 56.3359375 C-19.45940421 55.69392103 -26.72265324 55.30726575 -34 55 C-33.38382812 54.39027344 -32.76765625 53.78054687 -32.1328125 53.15234375 C-28.42582077 49.41140521 -25.72016807 46.01715686 -24 41 C-22.68 41 -21.36 41 -20 41 C-19.90754997 39.53774984 -19.90754997 39.53774984 -22 37 C-21.04663979 35.68388323 -20.08714226 34.37221039 -19.125 33.0625 C-18.59132813 32.33160156 -18.05765625 31.60070312 -17.5078125 30.84765625 C-16 29 -16 29 -14 28 C-13.6278958 26.67696283 -13.29369827 25.34262065 -13 24 C-12.67 23.67 -12.34 23.34 -12 23 C-12.66 22.34 -13.32 21.68 -14 21 C-12.11192137 18.30274481 -10.80175356 16.86783571 -8 15 C-7.65657551 13.66923011 -7.32380126 12.33568021 -7 11 C-6.484375 10.525625 -5.96875 10.05125 -5.4375 9.5625 C-3.71789311 8.04722224 -3.71789311 8.04722224 -4 5.5 C-4 3 -4 3 -2.5625 1.1875 C-1 0 -1 0 0 0 Z " fill="#31D79C" transform="translate(442,15)"/>
<path d="M0 0 C114.51 0 229.02 0 347 0 C347 0.33 347 0.66 347 1 C232.49 1 117.98 1 0 1 C0 0.67 0 0.34 0 0 Z " fill="#4CF07E" transform="translate(87,72)"/>
<path d="M0 0 C0.33 0 0.66 0 1 0 C1 112.2 1 224.4 1 340 C0.67 340 0.34 340 0 340 C0 227.8 0 115.6 0 0 Z " fill="#4CF07E" transform="translate(72,86)"/>
<path d="M0 0 C0.33 0 0.66 0 1 0 C1 78.21 1 156.42 1 237 C-1.6936764 234.3063236 -1.22977126 232.2500257 -1.2319895 228.59115541 C-1.22227287 227.68260824 -1.21255624 226.77406108 -1.20254517 225.83798218 C-1.19898311 224.3959667 -1.19898311 224.3959667 -1.1953491 222.92481959 C-1.18488028 219.68332526 -1.15999541 216.44209816 -1.13525391 213.20068359 C-1.1248344 210.88515081 -1.11529795 208.56961392 -1.10658264 206.2540741 C-1.08033766 199.95060495 -1.04167315 193.6472648 -1.00085878 187.34387541 C-0.96033245 180.76286409 -0.93111695 174.18180305 -0.90072632 167.60073853 C-0.84849183 156.54921295 -0.7885684 145.4977469 -0.72363281 134.44628906 C-0.65675998 123.06187038 -0.59409474 111.6774414 -0.53710938 100.29296875 C-0.53359693 99.59155024 -0.53008449 98.89013172 -0.52646561 98.1674581 C-0.50887122 94.64874297 -0.49135978 91.13002743 -0.47388959 87.61131167 C-0.32878704 58.40746814 -0.16898245 29.20371492 0 0 Z " fill="#4CF07E" transform="translate(439,80)"/>
<path d="M0 0 C0.33 0 0.66 0 1 0 C1 68.97 1 137.94 1 209 C0.67 209 0.34 209 0 209 C0 140.03 0 71.06 0 0 Z " fill="#4CF07E" transform="translate(247,228)"/>
<path d="M0 0 C52.14 0 104.28 0 158 0 C158 0.33 158 0.66 158 1 C105.86 1 53.72 1 0 1 C0 0.67 0 0.34 0 0 Z " fill="#4CF07E" transform="translate(86,439)"/>
<path d="M0 0 C2.35827607 3.53741411 2.23705845 4.94480972 2.20254517 9.13127136 C2.19688034 10.41434677 2.19121552 11.69742218 2.18537903 13.01937866 C2.16885732 14.44415501 2.15214245 15.86892913 2.13525391 17.29370117 C2.12482933 18.79165579 2.11529381 20.28961683 2.10658264 21.7875824 C2.08038644 25.85763161 2.0417206 29.92747901 2.00085878 33.99740386 C1.96027478 38.24946182 1.93109895 42.50159745 1.90072632 46.7537384 C1.84146008 54.80730922 1.77189587 62.86075704 1.69865549 70.91421157 C1.61577956 80.08212401 1.54434775 89.25011435 1.47388959 98.41812932 C1.32868372 117.27886816 1.16906594 136.13946072 1 155 C0.67 155 0.34 155 0 155 C0 103.85 0 52.7 0 0 Z " fill="#4CF07E" transform="translate(322,286)"/>
<path d="M0 0 C1.98 0.66 3.96 1.32 6 2 C3.64046906 4.35953094 2.22104383 4.49141413 -1 5 C-1 2 -1 2 0 0 Z " fill="#3FEC96" transform="translate(79,438)"/>
<path d="M0 0 C5.28 0 10.56 0 16 0 C16 0.33 16 0.66 16 1 C10.72 1 5.44 1 0 1 C0 0.67 0 0.34 0 0 Z " fill="#4CF07E" transform="translate(451,428)"/>
<path d="M0 0 C1.65 0 3.3 0 5 0 C5 0.33 5 0.66 5 1 C3.35 1 1.7 1 0 1 C0 0.67 0 0.34 0 0 Z " fill="#4CF07E" transform="translate(308,175)"/>
<path d="M0 0 C1 4 1 4 1 4 Z " fill="#4CF07E" transform="translate(321,444)"/>
<path d="M0 0 C4 1 4 1 4 1 Z " fill="#4CF07E" transform="translate(445,427)"/>
<path d="M0 0 C1 4 1 4 1 4 Z " fill="#4CF07E" transform="translate(248,219)"/>
<path d="M0 0 C4 1 4 1 4 1 Z " fill="#4CF07E" transform="translate(294,175)"/>
<path d="" fill="#4CF07E" transform="translate(0,0)"/>
<path d="" fill="#4CF07E" transform="translate(0,0)"/>
<path d="M0 0 C0.66 0.66 1.32 1.32 2 2 C1.34 2 0.68 2 0 2 C0 1.34 0 0.68 0 0 Z " fill="#4CF07E" transform="translate(407,396)"/>
<path d="M0 0 C0.66 0.66 1.32 1.32 2 2 C1.34 2 0.68 2 0 2 C0 1.34 0 0.68 0 0 Z " fill="#4CF07E" transform="translate(393,378)"/>
<path d="M0 0 C0.66 0.66 1.32 1.32 2 2 C1.34 2 0.68 2 0 2 C0 1.34 0 0.68 0 0 Z " fill="#4CF07E" transform="translate(379,360)"/>
<path d="M0 0 C0.66 0.66 1.32 1.32 2 2 C1.34 2 0.68 2 0 2 C0 1.34 0 0.68 0 0 Z " fill="#4CF07E" transform="translate(365,342)"/>
<path d="M0 0 C0.66 0.66 1.32 1.32 2 2 C1.34 2 0.68 2 0 2 C0 1.34 0 0.68 0 0 Z " fill="#4CF07E" transform="translate(351,324)"/>
<path d="M0 0 C3 1 3 1 3 1 Z " fill="#4CF07E" transform="translate(289,176)"/>
<path d="M0 0 C2 1 2 1 2 1 Z " fill="#4CF07E" transform="translate(260,511)"/>
<path d="M0 0 C2 1 2 1 2 1 Z " fill="#4CF07E" transform="translate(66,511)"/>
<path d="M0 0 C2 1 2 1 2 1 Z " fill="#4CF07E" transform="translate(264,510)"/>
<path d="M0 0 C2 1 2 1 2 1 Z " fill="#4CF07E" transform="translate(62,510)"/>
<path d="M0 0 C2 1 2 1 2 1 Z " fill="#4CF07E" transform="translate(267,509)"/>
<path d="M0 0 C2 1 2 1 2 1 Z " fill="#4CF07E" transform="translate(59,509)"/>
<path d="M0 0 C2 1 2 1 2 1 Z " fill="#4CF07E" transform="translate(269,508)"/>
<path d="M0 0 C2 1 2 1 2 1 Z " fill="#4CF07E" transform="translate(274,506)"/>
<path d="M0 0 C2 1 2 1 2 1 Z " fill="#4CF07E" transform="translate(276,505)"/>
<path d="M0 0 C2 1 2 1 2 1 Z " fill="#4CF07E" transform="translate(280,503)"/>
<path d="M0 0 C2 1 2 1 2 1 Z " fill="#4CF07E" transform="translate(283,501)"/>
<path d="" fill="#4CF07E" transform="translate(0,0)"/>
<path d="" fill="#4CF07E" transform="translate(0,0)"/>
<path d="" fill="#4CF07E" transform="translate(0,0)"/>
<path d="" fill="#4CF07E" transform="translate(0,0)"/>
<path d="" fill="#4CF07E" transform="translate(0,0)"/>
<path d="" fill="#4CF07E" transform="translate(0,0)"/>
<path d="" fill="#4CF07E" transform="translate(0,0)"/>
<path d="" fill="#4CF07E" transform="translate(0,0)"/>
<path d="M0 0 C2 1 2 1 2 1 Z " fill="#4CF07E" transform="translate(82,438)"/>
<path d="" fill="#4CF07E" transform="translate(0,0)"/>
<path d="M0 0 C2 1 2 1 2 1 Z " fill="#4CF07E" transform="translate(469,427)"/>
<path d="M0 0 C2 1 2 1 2 1 Z " fill="#4CF07E" transform="translate(473,426)"/>
<path d="M0 0 C2 1 2 1 2 1 Z " fill="#4CF07E" transform="translate(476,425)"/>
<path d="M0 0 C2 1 2 1 2 1 Z " fill="#4CF07E" transform="translate(437,424)"/>
<path d="M0 0 C2 1 2 1 2 1 Z " fill="#4CF07E" transform="translate(481,423)"/>
<path d="M0 0 C2 1 2 1 2 1 Z " fill="#4CF07E" transform="translate(435,423)"/>
<path d="M0 0 C2 1 2 1 2 1 Z " fill="#4CF07E" transform="translate(483,422)"/>
<path d="M0 0 C2 1 2 1 2 1 Z " fill="#4CF07E" transform="translate(433,422)"/>
<path d="M0 0 C2 1 2 1 2 1 Z " fill="#4CF07E" transform="translate(485,421)"/>
<path d="M0 0 C2 1 2 1 2 1 Z " fill="#4CF07E" transform="translate(491,417)"/>
<path d="" fill="#4CF07E" transform="translate(0,0)"/>
<path d="" fill="#4CF07E" transform="translate(0,0)"/>
<path d="" fill="#4CF07E" transform="translate(0,0)"/>
<path d="" fill="#4CF07E" transform="translate(0,0)"/>
<path d="" fill="#4CF07E" transform="translate(0,0)"/>
<path d="" fill="#4CF07E" transform="translate(0,0)"/>
<path d="" fill="#4CF07E" transform="translate(0,0)"/>
<path d="" fill="#4CF07E" transform="translate(0,0)"/>
<path d="" fill="#4CF07E" transform="translate(0,0)"/>
<path d="" fill="#4CF07E" transform="translate(0,0)"/>
<path d="" fill="#4CF07E" transform="translate(0,0)"/>
<path d="" fill="#4CF07E" transform="translate(0,0)"/>
<path d="" fill="#4CF07E" transform="translate(0,0)"/>
<path d="M0 0 C2 1 2 1 2 1 Z " fill="#4CF07E" transform="translate(273,183)"/>
<path d="M0 0 C2 1 2 1 2 1 Z " fill="#4CF07E" transform="translate(321,178)"/>
<path d="M0 0 C2 1 2 1 2 1 Z " fill="#4CF07E" transform="translate(283,178)"/>
<path d="M0 0 C2 1 2 1 2 1 Z " fill="#4CF07E" transform="translate(318,177)"/>
<path d="M0 0 C2 1 2 1 2 1 Z " fill="#4CF07E" transform="translate(286,177)"/>
<path d="M0 0 C2 1 2 1 2 1 Z " fill="#4CF07E" transform="translate(315,176)"/>
<path d="" fill="#4CF07E" transform="translate(0,0)"/>
<path d="" fill="#4CF07E" transform="translate(0,0)"/>
<path d="" fill="#4CF07E" transform="translate(0,0)"/>
<path d="M0 0 C2 1 2 1 2 1 Z " fill="#4CF07E" transform="translate(436,73)"/>
<path d="M0 0 C2 1 2 1 2 1 Z " fill="#4CF07E" transform="translate(82,73)"/>
<path d="" fill="#4CF07E" transform="translate(0,0)"/>
<path d="" fill="#4CF07E" transform="translate(0,0)"/>
<path d="" fill="#4CF07E" transform="translate(0,0)"/>
<path d="" fill="#4CF07E" transform="translate(0,0)"/>
<path d="" fill="#4CF07E" transform="translate(0,0)"/>
<path d="" fill="#4CF07E" transform="translate(0,0)"/>
<path d="" fill="#4CF07E" transform="translate(0,0)"/>
<path d="" fill="#4CF07E" transform="translate(0,0)"/>
<path d="M0 0 C2 1 2 1 2 1 Z " fill="#4CF07E" transform="translate(37,13)"/>
<path d="M0 0 C2 1 2 1 2 1 Z " fill="#4CF07E" transform="translate(40,11)"/>
<path d="M0 0 C2 1 2 1 2 1 Z " fill="#4CF07E" transform="translate(463,7)"/>
<path d="M0 0 C2 1 2 1 2 1 Z " fill="#4CF07E" transform="translate(461,6)"/>
<path d="M0 0 C2 1 2 1 2 1 Z " fill="#4CF07E" transform="translate(456,4)"/>
<path d="M0 0 C2 1 2 1 2 1 Z " fill="#4CF07E" transform="translate(54,4)"/>
<path d="M0 0 C2 1 2 1 2 1 Z " fill="#4CF07E" transform="translate(56,3)"/>
<path d="M0 0 C2 1 2 1 2 1 Z " fill="#4CF07E" transform="translate(451,2)"/>
<path d="M0 0 C2 1 2 1 2 1 Z " fill="#4CF07E" transform="translate(59,2)"/>
<path d="M0 0 C2 1 2 1 2 1 Z " fill="#4CF07E" transform="translate(448,1)"/>
<path d="M0 0 C2 1 2 1 2 1 Z " fill="#4CF07E" transform="translate(62,1)"/>
<path d="M0 0 C2 1 2 1 2 1 Z " fill="#4CF07E" transform="translate(444,0)"/>
<path d="M0 0 C2 1 2 1 2 1 Z " fill="#4CF07E" transform="translate(66,0)"/>
<path d="" fill="#4CF07E" transform="translate(0,0)"/>
<path d="" fill="#4CF07E" transform="translate(0,0)"/>
<path d="" fill="#4CF07E" transform="translate(0,0)"/>
<path d="" fill="#4CF07E" transform="translate(0,0)"/>
<path d="" fill="#4CF07E" transform="translate(0,0)"/>
<path d="" fill="#4CF07E" transform="translate(0,0)"/>
<path d="" fill="#4CF07E" transform="translate(0,0)"/>
<path d="" fill="#4CF07E" transform="translate(0,0)"/>
<path d="" fill="#4CF07E" transform="translate(0,0)"/>
<path d="" fill="#4CF07E" transform="translate(0,0)"/>
<path d="" fill="#4CF07E" transform="translate(0,0)"/>
<path d="" fill="#4CF07E" transform="translate(0,0)"/>
<path d="" fill="#4CF07E" transform="translate(0,0)"/>
<path d="" fill="#4CF07E" transform="translate(0,0)"/>
<path d="" fill="#4CF07E" transform="translate(0,0)"/>
<path d="" fill="#4CF07E" transform="translate(0,0)"/>
<path d="" fill="#4CF07E" transform="translate(0,0)"/>
<path d="" fill="#4CF07E" transform="translate(0,0)"/>
<path d="" fill="#4CF07E" transform="translate(0,0)"/>
<path d="" fill="#4CF07E" transform="translate(0,0)"/>
<path d="" fill="#4CF07E" transform="translate(0,0)"/>
<path d="" fill="#4CF07E" transform="translate(0,0)"/>
<path d="" fill="#4CF07E" transform="translate(0,0)"/>
<path d="" fill="#4CF07E" transform="translate(0,0)"/>
<path d="" fill="#4CF07E" transform="translate(0,0)"/>
<path d="" fill="#4CF07E" transform="translate(0,0)"/>
<path d="" fill="#4CF07E" transform="translate(0,0)"/>
<path d="" fill="#4CF07E" transform="translate(0,0)"/>
<path d="" fill="#4CF07E" transform="translate(0,0)"/>
<path d="" fill="#4CF07E" transform="translate(0,0)"/>
<path d="" fill="#4CF07E" transform="translate(0,0)"/>
<path d="" fill="#4CF07E" transform="translate(0,0)"/>
<path d="" fill="#4CF07E" transform="translate(0,0)"/>
<path d="" fill="#4CF07E" transform="translate(0,0)"/>
<path d="" fill="#4CF07E" transform="translate(0,0)"/>
<path d="" fill="#4CF07E" transform="translate(0,0)"/>
<path d="" fill="#4CF07E" transform="translate(0,0)"/>
<path d="" fill="#4CF07E" transform="translate(0,0)"/>
<path d="" fill="#4CF07E" transform="translate(0,0)"/>
<path d="" fill="#4CF07E" transform="translate(0,0)"/>
<path d="" fill="#4CF07E" transform="translate(0,0)"/>
<path d="" fill="#4CF07E" transform="translate(0,0)"/>
<path d="" fill="#4CF07E" transform="translate(0,0)"/>
<path d="" fill="#4CF07E" transform="translate(0,0)"/>
<path d="" fill="#4CF07E" transform="translate(0,0)"/>
<path d="" fill="#4CF07E" transform="translate(0,0)"/>
<path d="" fill="#4CF07E" transform="translate(0,0)"/>
<path d="" fill="#4CF07E" transform="translate(0,0)"/>
<path d="" fill="#4CF07E" transform="translate(0,0)"/>
<path d="" fill="#4CF07E" transform="translate(0,0)"/>
<path d="" fill="#4CF07E" transform="translate(0,0)"/>
<path d="" fill="#4CF07E" transform="translate(0,0)"/>
<path d="" fill="#4CF07E" transform="translate(0,0)"/>
<path d="" fill="#4CF07E" transform="translate(0,0)"/>
<path d="" fill="#4CF07E" transform="translate(0,0)"/>
<path d="" fill="#4CF07E" transform="translate(0,0)"/>
<path d="" fill="#4CF07E" transform="translate(0,0)"/>
<path d="" fill="#4CF07E" transform="translate(0,0)"/>
<path d="" fill="#4CF07E" transform="translate(0,0)"/>
<path d="" fill="#4CF07E" transform="translate(0,0)"/>
<path d="" fill="#4CF07E" transform="translate(0,0)"/>
<path d="" fill="#4CF07E" transform="translate(0,0)"/>
<path d="" fill="#4CF07E" transform="translate(0,0)"/>
<path d="" fill="#4CF07E" transform="translate(0,0)"/>
<path d="" fill="#4CF07E" transform="translate(0,0)"/>
<path d="" fill="#4CF07E" transform="translate(0,0)"/>
<path d="" fill="#4CF07E" transform="translate(0,0)"/>
<path d="" fill="#4CF07E" transform="translate(0,0)"/>
<path d="" fill="#4CF07E" transform="translate(0,0)"/>
<path d="" fill="#4CF07E" transform="translate(0,0)"/>
<path d="" fill="#4CF07E" transform="translate(0,0)"/>
<path d="" fill="#4CF07E" transform="translate(0,0)"/>
<path d="" fill="#4CF07E" transform="translate(0,0)"/>
<path d="" fill="#4CF07E" transform="translate(0,0)"/>
<path d="" fill="#4CF07E" transform="translate(0,0)"/>
<path d="" fill="#4CF07E" transform="translate(0,0)"/>
<path d="" fill="#4CF07E" transform="translate(0,0)"/>
<path d="" fill="#4CF07E" transform="translate(0,0)"/>
<path d="" fill="#4CF07E" transform="translate(0,0)"/>
<path d="" fill="#4CF07E" transform="translate(0,0)"/>
<path d="" fill="#4CF07E" transform="translate(0,0)"/>
<path d="" fill="#4CF07E" transform="translate(0,0)"/>
<path d="" fill="#4CF07E" transform="translate(0,0)"/>
<path d="" fill="#4CF07E" transform="translate(0,0)"/>
<path d="" fill="#4CF07E" transform="translate(0,0)"/>
<path d="" fill="#4CF07E" transform="translate(0,0)"/>
<path d="" fill="#4CF07E" transform="translate(0,0)"/>
<path d="" fill="#4CF07E" transform="translate(0,0)"/>
<path d="" fill="#4CF07E" transform="translate(0,0)"/>
<path d="" fill="#4CF07E" transform="translate(0,0)"/>
<path d="" fill="#4CF07E" transform="translate(0,0)"/>
<path d="" fill="#4CF07E" transform="translate(0,0)"/>
<path d="" fill="#4CF07E" transform="translate(0,0)"/>
<path d="" fill="#4CF07E" transform="translate(0,0)"/>
<path d="" fill="#4CF07E" transform="translate(0,0)"/>
<path d="" fill="#4CF07E" transform="translate(0,0)"/>
<path d="" fill="#4CF07E" transform="translate(0,0)"/>
<path d="" fill="#4CF07E" transform="translate(0,0)"/>
<path d="" fill="#4CF07E" transform="translate(0,0)"/>
<path d="" fill="#4CF07E" transform="translate(0,0)"/>
<path d="" fill="#4CF07E" transform="translate(0,0)"/>
<path d="" fill="#4CF07E" transform="translate(0,0)"/>
<path d="" fill="#4CF07E" transform="translate(0,0)"/>
<path d="" fill="#4CF07E" transform="translate(0,0)"/>
<path d="" fill="#4CF07E" transform="translate(0,0)"/>
<path d="" fill="#4CF07E" transform="translate(0,0)"/>
<path d="" fill="#4CF07E" transform="translate(0,0)"/>
<path d="" fill="#4CF07E" transform="translate(0,0)"/>
<path d="" fill="#4CF07E" transform="translate(0,0)"/>
<path d="" fill="#4CF07E" transform="translate(0,0)"/>
<path d="" fill="#4CF07E" transform="translate(0,0)"/>
<path d="" fill="#4CF07E" transform="translate(0,0)"/>
<path d="" fill="#4CF07E" transform="translate(0,0)"/>
<path d="" fill="#4CF07E" transform="translate(0,0)"/>
<path d="" fill="#4CF07E" transform="translate(0,0)"/>
<path d="" fill="#4CF07E" transform="translate(0,0)"/>
<path d="" fill="#4CF07E" transform="translate(0,0)"/>
<path d="" fill="#4CF07E" transform="translate(0,0)"/>
<path d="" fill="#4CF07E" transform="translate(0,0)"/>
<path d="" fill="#4CF07E" transform="translate(0,0)"/>
<path d="" fill="#4CF07E" transform="translate(0,0)"/>
<path d="" fill="#4CF07E" transform="translate(0,0)"/>
<path d="" fill="#4CF07E" transform="translate(0,0)"/>
<path d="" fill="#4CF07E" transform="translate(0,0)"/>
<path d="" fill="#4CF07E" transform="translate(0,0)"/>
<path d="" fill="#4CF07E" transform="translate(0,0)"/>
<path d="" fill="#4CF07E" transform="translate(0,0)"/>
<path d="" fill="#4CF07E" transform="translate(0,0)"/>
<path d="" fill="#4CF07E" transform="translate(0,0)"/>
<path d="" fill="#4CF07E" transform="translate(0,0)"/>
<path d="" fill="#4CF07E" transform="translate(0,0)"/>
<path d="" fill="#4CF07E" transform="translate(0,0)"/>
<path d="" fill="#4CF07E" transform="translate(0,0)"/>
<path d="" fill="#4CF07E" transform="translate(0,0)"/>
<path d="" fill="#4CF07E" transform="translate(0,0)"/>
<path d="" fill="#4CF07E" transform="translate(0,0)"/>
<path d="" fill="#4CF07E" transform="translate(0,0)"/>
<path d="" fill="#4CF07E" transform="translate(0,0)"/>
<path d="" fill="#4CF07E" transform="translate(0,0)"/>
<path d="" fill="#4CF07E" transform="translate(0,0)"/>
<path d="" fill="#4CF07E" transform="translate(0,0)"/>
<path d="" fill="#4CF07E" transform="translate(0,0)"/>
<path d="" fill="#4CF07E" transform="translate(0,0)"/>
<path d="" fill="#4CF07E" transform="translate(0,0)"/>
<path d="" fill="#4CF07E" transform="translate(0,0)"/>
<path d="" fill="#4CF07E" transform="translate(0,0)"/>
<path d="" fill="#4CF07E" transform="translate(0,0)"/>
<path d="" fill="#4CF07E" transform="translate(0,0)"/>
<path d="" fill="#4CF07E" transform="translate(0,0)"/>
<path d="" fill="#4CF07E" transform="translate(0,0)"/>
<path d="" fill="#4CF07E" transform="translate(0,0)"/>
<path d="" fill="#4CF07E" transform="translate(0,0)"/>
<path d="" fill="#4CF07E" transform="translate(0,0)"/>
<path d="" fill="#4CF07E" transform="translate(0,0)"/>
<path d="" fill="#4CF07E" transform="translate(0,0)"/>
<path d="" fill="#4CF07E" transform="translate(0,0)"/>
<path d="" fill="#4CF07E" transform="translate(0,0)"/>
<path d="" fill="#4CF07E" transform="translate(0,0)"/>
<path d="" fill="#4CF07E" transform="translate(0,0)"/>
<path d="" fill="#4CF07E" transform="translate(0,0)"/>
<path d="" fill="#4CF07E" transform="translate(0,0)"/>
<path d="" fill="#4CF07E" transform="translate(0,0)"/>
<path d="" fill="#4CF07E" transform="translate(0,0)"/>
<path d="" fill="#4CF07E" transform="translate(0,0)"/>
<path d="" fill="#4CF07E" transform="translate(0,0)"/>
<path d="" fill="#4CF07E" transform="translate(0,0)"/>
<path d="" fill="#4CF07E" transform="translate(0,0)"/>
<path d="" fill="#4CF07E" transform="translate(0,0)"/>
<path d="" fill="#4CF07E" transform="translate(0,0)"/>
<path d="" fill="#4CF07E" transform="translate(0,0)"/>
<path d="" fill="#4CF07E" transform="translate(0,0)"/>
<path d="" fill="#4CF07E" transform="translate(0,0)"/>
<path d="" fill="#4CF07E" transform="translate(0,0)"/>
<path d="" fill="#4CF07E" transform="translate(0,0)"/>
<path d="" fill="#4CF07E" transform="translate(0,0)"/>
<path d="" fill="#4CF07E" transform="translate(0,0)"/>
<path d="" fill="#4CF07E" transform="translate(0,0)"/>
<path d="" fill="#4CF07E" transform="translate(0,0)"/>
<path d="" fill="#4CF07E" transform="translate(0,0)"/>
<path d="" fill="#4CF07E" transform="translate(0,0)"/>
<path d="" fill="#4CF07E" transform="translate(0,0)"/>
<path d="" fill="#4CF07E" transform="translate(0,0)"/>
<path d="" fill="#4CF07E" transform="translate(0,0)"/>
<path d="" fill="#4CF07E" transform="translate(0,0)"/>
<path d="" fill="#4CF07E" transform="translate(0,0)"/>
<path d="" fill="#4CF07E" transform="translate(0,0)"/>
<path d="" fill="#4CF07E" transform="translate(0,0)"/>
<path d="" fill="#4CF07E" transform="translate(0,0)"/>
<path d="" fill="#4CF07E" transform="translate(0,0)"/>
<path d="" fill="#4CF07E" transform="translate(0,0)"/>
<path d="" fill="#4CF07E" transform="translate(0,0)"/>
<path d="" fill="#4CF07E" transform="translate(0,0)"/>
<path d="" fill="#4CF07E" transform="translate(0,0)"/>
<path d="" fill="#4CF07E" transform="translate(0,0)"/>
<path d="" fill="#4CF07E" transform="translate(0,0)"/>
<path d="" fill="#4CF07E" transform="translate(0,0)"/>
<path d="" fill="#4CF07E" transform="translate(0,0)"/>
<path d="" fill="#4CF07E" transform="translate(0,0)"/>
<path d="" fill="#4CF07E" transform="translate(0,0)"/>
<path d="" fill="#4CF07E" transform="translate(0,0)"/>
<path d="" fill="#4CF07E" transform="translate(0,0)"/>
<path d="" fill="#4CF07E" transform="translate(0,0)"/>
<path d="" fill="#4CF07E" transform="translate(0,0)"/>
<path d="" fill="#4CF07E" transform="translate(0,0)"/>
<path d="" fill="#4CF07E" transform="translate(0,0)"/>
<path d="" fill="#4CF07E" transform="translate(0,0)"/>
<path d="" fill="#4CF07E" transform="translate(0,0)"/>
<path d="" fill="#4CF07E" transform="translate(0,0)"/>
<path d="" fill="#4CF07E" transform="translate(0,0)"/>
<path d="" fill="#4CF07E" transform="translate(0,0)"/>
<path d="" fill="#4CF07E" transform="translate(0,0)"/>
<path d="" fill="#4CF07E" transform="translate(0,0)"/>
<path d="" fill="#4CF07E" transform="translate(0,0)"/>
<path d="" fill="#4CF07E" transform="translate(0,0)"/>
<path d="" fill="#4CF07E" transform="translate(0,0)"/>
<path d="" fill="#4CF07E" transform="translate(0,0)"/>
<path d="" fill="#4CF07E" transform="translate(0,0)"/>
<path d="" fill="#4CF07E" transform="translate(0,0)"/>
<path d="" fill="#4CF07E" transform="translate(0,0)"/>
<path d="" fill="#4CF07E" transform="translate(0,0)"/>
<path d="" fill="#4CF07E" transform="translate(0,0)"/>
<path d="" fill="#4CF07E" transform="translate(0,0)"/>
<path d="" fill="#4CF07E" transform="translate(0,0)"/>
<path d="" fill="#4CF07E" transform="translate(0,0)"/>
<path d="" fill="#4CF07E" transform="translate(0,0)"/>
<path d="" fill="#4CF07E" transform="translate(0,0)"/>
<path d="" fill="#4CF07E" transform="translate(0,0)"/>
<path d="" fill="#4CF07E" transform="translate(0,0)"/>
<path d="" fill="#4CF07E" transform="translate(0,0)"/>
<path d="" fill="#4CF07E" transform="translate(0,0)"/>
<path d="" fill="#4CF07E" transform="translate(0,0)"/>
<path d="" fill="#4CF07E" transform="translate(0,0)"/>
<path d="" fill="#4CF07E" transform="translate(0,0)"/>
<path d="" fill="#4CF07E" transform="translate(0,0)"/>
<path d="" fill="#4CF07E" transform="translate(0,0)"/>
<path d="" fill="#4CF07E" transform="translate(0,0)"/>
<path d="" fill="#4CF07E" transform="translate(0,0)"/>
<path d="" fill="#4CF07E" transform="translate(0,0)"/>
<path d="" fill="#4CF07E" transform="translate(0,0)"/>
<path d="" fill="#4CF07E" transform="translate(0,0)"/>
<path d="" fill="#4CF07E" transform="translate(0,0)"/>
<path d="" fill="#4CF07E" transform="translate(0,0)"/>
<path d="" fill="#4CF07E" transform="translate(0,0)"/>
<path d="" fill="#4CF07E" transform="translate(0,0)"/>
<path d="" fill="#4CF07E" transform="translate(0,0)"/>
<path d="" fill="#4CF07E" transform="translate(0,0)"/>
<path d="" fill="#4CF07E" transform="translate(0,0)"/>
<path d="" fill="#4CF07E" transform="translate(0,0)"/>
<path d="" fill="#4CF07E" transform="translate(0,0)"/>
<path d="" fill="#4CF07E" transform="translate(0,0)"/>
<path d="" fill="#4CF07E" transform="translate(0,0)"/>
<path d="" fill="#4CF07E" transform="translate(0,0)"/>
<path d="" fill="#4CF07E" transform="translate(0,0)"/>
<path d="" fill="#4CF07E" transform="translate(0,0)"/>
<path d="" fill="#4CF07E" transform="translate(0,0)"/>
<path d="" fill="#4CF07E" transform="translate(0,0)"/>
<path d="" fill="#4CF07E" transform="translate(0,0)"/>
<path d="" fill="#4CF07E" transform="translate(0,0)"/>
<path d="" fill="#4CF07E" transform="translate(0,0)"/>
<path d="" fill="#4CF07E" transform="translate(0,0)"/>
<path d="" fill="#4CF07E" transform="translate(0,0)"/>
<path d="" fill="#4CF07E" transform="translate(0,0)"/>
<path d="" fill="#4CF07E" transform="translate(0,0)"/>
<path d="" fill="#4CF07E" transform="translate(0,0)"/>
<path d="" fill="#4CF07E" transform="translate(0,0)"/>
<path d="" fill="#4CF07E" transform="translate(0,0)"/>
<path d="" fill="#4CF07E" transform="translate(0,0)"/>
<path d="" fill="#4CF07E" transform="translate(0,0)"/>
<path d="" fill="#4CF07E" transform="translate(0,0)"/>
<path d="" fill="#4CF07E" transform="translate(0,0)"/>
<path d="" fill="#4CF07E" transform="translate(0,0)"/>
<path d="" fill="#4CF07E" transform="translate(0,0)"/>
<path d="" fill="#4CF07E" transform="translate(0,0)"/>
<path d="" fill="#4CF07E" transform="translate(0,0)"/>
<path d="" fill="#4CF07E" transform="translate(0,0)"/>
<path d="" fill="#4CF07E" transform="translate(0,0)"/>
<path d="" fill="#4CF07E" transform="translate(0,0)"/>
<path d="" fill="#4CF07E" transform="translate(0,0)"/>
<path d="" fill="#4CF07E" transform="translate(0,0)"/>
<path d="" fill="#4CF07E" transform="translate(0,0)"/>
<path d="" fill="#4CF07E" transform="translate(0,0)"/>
<path d="" fill="#4CF07E" transform="translate(0,0)"/>
<path d="" fill="#4CF07E" transform="translate(0,0)"/>
<path d="" fill="#4CF07E" transform="translate(0,0)"/>
<path d="" fill="#4CF07E" transform="translate(0,0)"/>
<path d="" fill="#4CF07E" transform="translate(0,0)"/>
<path d="" fill="#4CF07E" transform="translate(0,0)"/>
<path d="" fill="#4CF07E" transform="translate(0,0)"/>
<path d="" fill="#4CF07E" transform="translate(0,0)"/>
<path d="" fill="#4CF07E" transform="translate(0,0)"/>
<path d="" fill="#4CF07E" transform="translate(0,0)"/>
<path d="" fill="#4CF07E" transform="translate(0,0)"/>
<path d="" fill="#4CF07E" transform="translate(0,0)"/>
<path d="" fill="#4CF07E" transform="translate(0,0)"/>
<path d="" fill="#4CF07E" transform="translate(0,0)"/>
<path d="" fill="#4CF07E" transform="translate(0,0)"/>
<path d="" fill="#4CF07E" transform="translate(0,0)"/>
<path d="" fill="#4CF07E" transform="translate(0,0)"/>
<path d="" fill="#4CF07E" transform="translate(0,0)"/>
<path d="" fill="#4CF07E" transform="translate(0,0)"/>
<path d="" fill="#4CF07E" transform="translate(0,0)"/>
<path d="" fill="#4CF07E" transform="translate(0,0)"/>
<path d="" fill="#4CF07E" transform="translate(0,0)"/>
<path d="" fill="#4CF07E" transform="translate(0,0)"/>
<path d="" fill="#4CF07E" transform="translate(0,0)"/>
<path d="" fill="#4CF07E" transform="translate(0,0)"/>
<path d="" fill="#4CF07E" transform="translate(0,0)"/>
<path d="" fill="#4CF07E" transform="translate(0,0)"/>
<path d="" fill="#4CF07E" transform="translate(0,0)"/>
<path d="" fill="#4CF07E" transform="translate(0,0)"/>
<path d="" fill="#4CF07E" transform="translate(0,0)"/>
<path d="" fill="#4CF07E" transform="translate(0,0)"/>
<path d="" fill="#4CF07E" transform="translate(0,0)"/>
<path d="" fill="#4CF07E" transform="translate(0,0)"/>
<path d="" fill="#4CF07E" transform="translate(0,0)"/>
<path d="" fill="#4CF07E" transform="translate(0,0)"/>
<path d="" fill="#4CF07E" transform="translate(0,0)"/>
<path d="" fill="#4CF07E" transform="translate(0,0)"/>
<path d="" fill="#4CF07E" transform="translate(0,0)"/>
<path d="" fill="#4CF07E" transform="translate(0,0)"/>
<path d="" fill="#4CF07E" transform="translate(0,0)"/>
<path d="" fill="#4CF07E" transform="translate(0,0)"/>
<path d="" fill="#4CF07E" transform="translate(0,0)"/>
<path d="" fill="#4CF07E" transform="translate(0,0)"/>
<path d="" fill="#4CF07E" transform="translate(0,0)"/>
<path d="" fill="#4CF07E" transform="translate(0,0)"/>
<path d="" fill="#4CF07E" transform="translate(0,0)"/>
<path d="" fill="#4CF07E" transform="translate(0,0)"/>
<path d="" fill="#4CF07E" transform="translate(0,0)"/>
<path d="" fill="#4CF07E" transform="translate(0,0)"/>
<path d="" fill="#4CF07E" transform="translate(0,0)"/>
<path d="" fill="#4CF07E" transform="translate(0,0)"/>
<path d="" fill="#4CF07E" transform="translate(0,0)"/>
<path d="" fill="#4CF07E" transform="translate(0,0)"/>
<path d="" fill="#4CF07E" transform="translate(0,0)"/>
<path d="" fill="#4CF07E" transform="translate(0,0)"/>
<path d="" fill="#4CF07E" transform="translate(0,0)"/>
<path d="" fill="#4CF07E" transform="translate(0,0)"/>
<path d="" fill="#4CF07E" transform="translate(0,0)"/>
<path d="" fill="#4CF07E" transform="translate(0,0)"/>
<path d="" fill="#4CF07E" transform="translate(0,0)"/>
<path d="" fill="#4CF07E" transform="translate(0,0)"/>
<path d="" fill="#4CF07E" transform="translate(0,0)"/>
<path d="" fill="#4CF07E" transform="translate(0,0)"/>
<path d="" fill="#4CF07E" transform="translate(0,0)"/>
<path d="" fill="#4CF07E" transform="translate(0,0)"/>
<path d="" fill="#4CF07E" transform="translate(0,0)"/>
<path d="" fill="#4CF07E" transform="translate(0,0)"/>
<path d="" fill="#4CF07E" transform="translate(0,0)"/>
<path d="" fill="#4CF07E" transform="translate(0,0)"/>
<path d="" fill="#4CF07E" transform="translate(0,0)"/>
<path d="" fill="#4CF07E" transform="translate(0,0)"/>
<path d="" fill="#4CF07E" transform="translate(0,0)"/>
<path d="" fill="#4CF07E" transform="translate(0,0)"/>
<path d="" fill="#4CF07E" transform="translate(0,0)"/>
<path d="" fill="#4CF07E" transform="translate(0,0)"/>
<path d="" fill="#4CF07E" transform="translate(0,0)"/>
<path d="" fill="#4CF07E" transform="translate(0,0)"/>
<path d="" fill="#4CF07E" transform="translate(0,0)"/>
<path d="" fill="#4CF07E" transform="translate(0,0)"/>
<path d="" fill="#4CF07E" transform="translate(0,0)"/>
<path d="" fill="#4CF07E" transform="translate(0,0)"/>
<path d="" fill="#4CF07E" transform="translate(0,0)"/>
<path d="" fill="#4CF07E" transform="translate(0,0)"/>
<path d="" fill="#4CF07E" transform="translate(0,0)"/>
<path d="" fill="#4CF07E" transform="translate(0,0)"/>
<path d="" fill="#4CF07E" transform="translate(0,0)"/>
<path d="" fill="#4CF07E" transform="translate(0,0)"/>
<path d="" fill="#4CF07E" transform="translate(0,0)"/>
<path d="" fill="#4CF07E" transform="translate(0,0)"/>
<path d="" fill="#4CF07E" transform="translate(0,0)"/>
<path d="" fill="#4CF07E" transform="translate(0,0)"/>
<path d="" fill="#4CF07E" transform="translate(0,0)"/>
<path d="" fill="#4CF07E" transform="translate(0,0)"/>
<path d="" fill="#4CF07E" transform="translate(0,0)"/>
<path d="" fill="#4CF07E" transform="translate(0,0)"/>
<path d="" fill="#4CF07E" transform="translate(0,0)"/>
<path d="" fill="#4CF07E" transform="translate(0,0)"/>
<path d="" fill="#4CF07E" transform="translate(0,0)"/>
<path d="" fill="#4CF07E" transform="translate(0,0)"/>
<path d="" fill="#4CF07E" transform="translate(0,0)"/>
<path d="" fill="#4CF07E" transform="translate(0,0)"/>
<path d="" fill="#4CF07E" transform="translate(0,0)"/>
<path d="" fill="#4CF07E" transform="translate(0,0)"/>
<path d="" fill="#4CF07E" transform="translate(0,0)"/>
<path d="" fill="#4CF07E" transform="translate(0,0)"/>
<path d="" fill="#4CF07E" transform="translate(0,0)"/>
<path d="" fill="#4CF07E" transform="translate(0,0)"/>
<path d="" fill="#4CF07E" transform="translate(0,0)"/>
<path d="" fill="#4CF07E" transform="translate(0,0)"/>
<path d="" fill="#4CF07E" transform="translate(0,0)"/>
<path d="" fill="#4CF07E" transform="translate(0,0)"/>
<path d="" fill="#4CF07E" transform="translate(0,0)"/>
<path d="" fill="#4CF07E" transform="translate(0,0)"/>
<path d="" fill="#4CF07E" transform="translate(0,0)"/>
<path d="" fill="#4CF07E" transform="translate(0,0)"/>
<path d="" fill="#4CF07E" transform="translate(0,0)"/>
<path d="" fill="#4CF07E" transform="translate(0,0)"/>
</svg>
