<?xml version="1.0" encoding="UTF-8"?>
<svg version="1.1" xmlns="http://www.w3.org/2000/svg" width="149" height="40">
<path d="M0 0 C49.17 0 98.34 0 149 0 C149 13.2 149 26.4 149 40 C99.83 40 50.66 40 0 40 C0 26.8 0 13.6 0 0 Z " fill="#141414" transform="translate(0,0)"/>
<path d="M0 0 C0.969375 0.66 1.93875 1.32 2.9375 2 C7.24207147 4.43983808 11.14285276 4.91844239 16 4 C19.3832553 2.1353694 19.3832553 2.1353694 22 0 C22.66 0 23.32 0 24 0 C22 4 22 4 20.953125 5.87109375 C19.32037675 9.51801095 19.43544321 13.08749013 20 17 C21.09685873 19.61338514 22.39232905 21.63873329 24 24 C21 24 21 24 18.875 22.5 C14.8822384 20.41682003 11.42199765 20.26040532 7 21 C3.6167447 22.8646306 3.6167447 22.8646306 1 25 C0.34 25 -0.32 25 -1 25 C0.12451727 22.0280615 1.22293791 19.66559313 3 17 C3.72070489 12.13105183 3.81279759 7.55429855 1 3.375 C0.34 2.59125 -0.32 1.8075 -1 1 C-0.67 0.67 -0.34 0.34 0 0 Z " fill="#E7E8EA" transform="translate(9,7)"/>
<path d="M0 0 C1.65 0 3.3 0 5 0 C5 5.94 5 11.88 5 18 C3.68 18 2.36 18 1 18 C1 17.34 1 16.68 1 16 C0.34 16 -0.32 16 -1 16 C-1 16.66 -1 17.32 -1 18 C-4.25 18.3125 -4.25 18.3125 -8 18 C-11.24832492 15.25141738 -11.92908052 13.67373507 -12.375 9.4375 C-12.03733366 6.34222519 -11.7512377 4.52956557 -10 2 C-7.06156148 0.53078074 -4.24602179 1 -1 1 C-0.67 0.67 -0.34 0.34 0 0 Z " fill="#C8C8C8" transform="translate(132,11)"/>
<path d="M0 0 C2.1640625 0.453125 2.1640625 0.453125 4.7265625 2.640625 C6.1640625 5.453125 6.1640625 5.453125 6.1640625 10.453125 C2.2040625 10.453125 -1.7559375 10.453125 -5.8359375 10.453125 C-5.5059375 11.443125 -5.1759375 12.433125 -4.8359375 13.453125 C-1.8659375 13.948125 -1.8659375 13.948125 1.1640625 14.453125 C1.1640625 13.793125 1.1640625 13.133125 1.1640625 12.453125 C2.4840625 12.453125 3.8040625 12.453125 5.1640625 12.453125 C4.2890625 16.328125 4.2890625 16.328125 3.1640625 17.453125 C0.984375 17.69140625 0.984375 17.69140625 -1.7109375 17.765625 C-2.59523438 17.80300781 -3.47953125 17.84039063 -4.390625 17.87890625 C-6.8359375 17.453125 -6.8359375 17.453125 -8.6328125 15.71484375 C-10.61312788 11.99210802 -10.3558294 8.55951751 -9.8359375 4.453125 C-8.08237462 -0.33994688 -4.60397822 -0.2099534 0 0 Z " fill="#BBBBBD" transform="translate(72.8359375,11.546875)"/>
<path d="M0 0 C2.475 0.495 2.475 0.495 5 1 C5.33 0.67 5.66 0.34 6 0 C9.4375 -0.1875 9.4375 -0.1875 13 0 C15 2 15 2 15.1953125 5.4765625 C15.18201493 6.85950968 15.15816232 8.24238654 15.125 9.625 C15.11597656 10.33140625 15.10695313 11.0378125 15.09765625 11.765625 C15.07407603 13.51056098 15.03820461 15.25532295 15 17 C13.68 17 12.36 17 11 17 C11 12.71 11 8.42 11 4 C8.03 3.505 8.03 3.505 5 3 C4.67 7.62 4.34 12.24 4 17 C2.68 17 1.36 17 0 17 C0 11.39 0 5.78 0 0 Z " fill="#F0F1F1" transform="translate(45,12)"/>
<path d="M0 0 C1.32 0 2.64 0 4 0 C4.28875 0.639375 4.5775 1.27875 4.875 1.9375 C5.82823451 4.15206079 5.82823451 4.15206079 8 5 C8.66 3.35 9.32 1.7 10 0 C11.32 0 12.64 0 14 0 C13.690625 0.721875 13.38125 1.44375 13.0625 2.1875 C12.0363217 4.90385433 11.21722962 7.10360503 11 10 C12.37249963 12.67676547 12.37249963 12.67676547 14 15 C14 15.66 14 16.32 14 17 C12.68 17 11.36 17 10 17 C9.34 15.68 8.68 14.36 8 13 C7.34 13 6.68 13 6 13 C5.34 14.32 4.68 15.64 4 17 C2.35 17 0.7 17 -1 17 C-0.319375 15.9275 0.36125 14.855 1.0625 13.75 C2.67384828 11.01793667 2.67384828 11.01793667 2.875 7.9375 C2.441875 6.9784375 2.441875 6.9784375 2 6 C1.649375 4.9275 1.29875 3.855 0.9375 2.75 C0.628125 1.8425 0.31875 0.935 0 0 Z " fill="#E8E8E8" transform="translate(80,12)"/>
<path d="M0 0 C1.32 0 2.64 0 4 0 C4 1.32 4 2.64 4 4 C4.99 4 5.98 4 7 4 C7 4.99 7 5.98 7 7 C6.01 7 5.02 7 4 7 C4 10.63 4 14.26 4 18 C4.99 18 5.98 18 7 18 C7 18.99 7 19.98 7 21 C4.625 21.125 4.625 21.125 2 21 C0 19 0 19 -0.1953125 16.1796875 C-0.16050781 14.54386719 -0.16050781 14.54386719 -0.125 12.875 C-0.10695313 11.77929688 -0.08890625 10.68359375 -0.0703125 9.5546875 C-0.04710938 8.71164063 -0.02390625 7.86859375 0 7 C-0.99 7 -1.98 7 -3 7 C-3 6.01 -3 5.02 -3 4 C-2.01 4 -1.02 4 0 4 C0 2.68 0 1.36 0 0 Z " fill="#E7E8E9" transform="translate(99,8)"/>
<path d="M0 0 C0.33 0 0.66 0 1 0 C1 4.62 1 9.24 1 14 C0.01 14 -0.98 14 -2 14 C-2 13.34 -2 12.68 -2 12 C-2.66 12 -3.32 12 -4 12 C-4 12.66 -4 13.32 -4 14 C-10.30818278 14.35706695 -10.30818278 14.35706695 -12.9375 13 C-14.67278693 9.73357754 -14.17982715 6.65648548 -14 3 C-13.01 3 -12.02 3 -11 3 C-10.34 5.31 -9.68 7.62 -9 10 C-7.35 9.67 -5.7 9.34 -4 9 C-3.71125 7.88625 -3.4225 6.7725 -3.125 5.625 C-2 2 -2 2 0 0 Z " fill="#EFEFF0" transform="translate(135,15)"/>
<path d="M0 0 C2.09765625 0.40625 2.09765625 0.40625 4.16015625 2.40625 C4.46953125 3.06625 4.77890625 3.72625 5.09765625 4.40625 C4.10765625 4.40625 3.11765625 4.40625 2.09765625 4.40625 C2.09765625 5.39625 2.09765625 6.38625 2.09765625 7.40625 C0.86015625 7.48875 -0.37734375 7.57125 -1.65234375 7.65625 C-4.89117339 8.04100459 -5.78142258 8.30649003 -8.40234375 10.46875 C-8.89734375 11.108125 -9.39234375 11.7475 -9.90234375 12.40625 C-10.25528493 5.34742647 -10.25528493 5.34742647 -8.96484375 1.90625 C-6.03071761 -0.22765992 -3.56159014 -0.13898888 0 0 Z " fill="#EAEAEC" transform="translate(72.90234375,11.59375)"/>
<path d="M0 0 C2.125 0.375 2.125 0.375 4 1 C3.67 1.99 3.34 2.98 3 4 C1.35 4.66 -0.3 5.32 -2 6 C-2.33 9.96 -2.66 13.92 -3 18 C-4.32 18 -5.64 18 -7 18 C-7 12.39 -7 6.78 -7 1 C-4.525 1.495 -4.525 1.495 -2 2 C-1.34 1.34 -0.68 0.68 0 0 Z " fill="#F3F3F4" transform="translate(116,11)"/>
<path d="M0 0 C2.0625 1.75 2.0625 1.75 4 4 C3.88813722 7.46774618 1.83142118 10.13342772 0 13 C-0.66 12.67 -1.32 12.34 -2 12 C-2 11.01 -2 10.02 -2 9 C-3.32 9 -4.64 9 -6 9 C-6 9.66 -6 10.32 -6 11 C-7.98 11 -9.96 11 -12 11 C-12.33 9.68 -12.66 8.36 -13 7 C-9.04 7 -5.08 7 -1 7 C-1.33 5.02 -1.66 3.04 -2 1 C-1.34 0.67 -0.68 0.34 0 0 Z " fill="#1B1B1C" transform="translate(80,15)"/>
<path d="M0 0 C2.5625 -0.25 2.5625 -0.25 5 0 C6.89488952 1.89488952 6.18019112 4.57139146 6.23046875 7.08984375 C6 9 6 9 4 11 C1.375 10.625 1.375 10.625 -1 10 C-2.25 3.375 -2.25 3.375 0 0 Z " fill="#1F1F20" transform="translate(126,15)"/>
<path d="M0 0 C4.875 0.875 4.875 0.875 6 2 C6.07313567 4.53049402 6.09247527 7.03304837 6.0625 9.5625 C6.05798828 10.27341797 6.05347656 10.98433594 6.04882812 11.71679688 C6.03700864 13.47790013 6.01907263 15.23896036 6 17 C4.68 17 3.36 17 2 17 C2 12.71 2 8.42 2 4 C1.34 3.67 0.68 3.34 0 3 C0 2.01 0 1.02 0 0 Z " fill="#E5E5E6" transform="translate(54,12)"/>
<path d="M0 0 C1.98 0 3.96 0 6 0 C5.525625 0.845625 5.05125 1.69125 4.5625 2.5625 C2.94278487 6.12587329 2.38743857 9.12561425 2 13 C1.67 13 1.34 13 1 13 C0.67 14.98 0.34 16.96 0 19 C-0.33 19 -0.66 19 -1 19 C-1.02690104 16.20826945 -1.04679053 13.41679652 -1.0625 10.625 C-1.07087891 9.8309375 -1.07925781 9.036875 -1.08789062 8.21875 C-1.11328125 2.2265625 -1.11328125 2.2265625 0 0 Z " fill="#2C2D2E" transform="translate(61,10)"/>
<path d="M0 0 C1.32 0 2.64 0 4 0 C3.125 3.875 3.125 3.875 2 5 C-0.67058851 5.14115161 -3.32432238 5.04247107 -6 5 C-6 4.01 -6 3.02 -6 2 C-4.02 2 -2.04 2 0 2 C0 1.34 0 0.68 0 0 Z " fill="#E1E1E3" transform="translate(74,24)"/>
<path d="M0 0 C0.99 0 1.98 0 3 0 C3 1.65 3 3.3 3 5 C-0.96 5 -4.92 5 -9 5 C-8.67 4.34 -8.34 3.68 -8 3 C-5.36 3 -2.72 3 0 3 C0 2.01 0 1.02 0 0 Z " fill="#F4F4F6" transform="translate(75,16)"/>
<path d="M0 0 C1.65 0 3.3 0 5 0 C5.66 1.32 6.32 2.64 7 4 C4.36 4 1.72 4 -1 4 C-0.67 2.68 -0.34 1.36 0 0 Z " fill="#2B2C2E" transform="translate(68,15)"/>
<path d="M0 0 C1.32 0.66 2.64 1.32 4 2 C3.34 3.32 2.68 4.64 2 6 C0.35 6 -1.3 6 -3 6 C-2.01 4.02 -1.02 2.04 0 0 Z " fill="#E2E2E3" transform="translate(82,23)"/>
<path d="M0 0 C2.375 0.3125 2.375 0.3125 5 1 C5.66 1.99 6.32 2.98 7 4 C5.25 4.6875 5.25 4.6875 3 5 C0.75 3.5625 0.75 3.5625 -1 2 C-0.67 1.34 -0.34 0.68 0 0 Z " fill="#DDDEE0" transform="translate(71,12)"/>
<path d="M0 0 C2.125 0.375 2.125 0.375 4 1 C3.67 1.99 3.34 2.98 3 4 C1.35 4.33 -0.3 4.66 -2 5 C-2 2 -2 2 0 0 Z " fill="#DFDFE1" transform="translate(116,11)"/>
<path d="M0 0 C0.66 0 1.32 0 2 0 C2 0.66 2 1.32 2 2 C3.32 2.33 4.64 2.66 6 3 C1.6835078 3.76173392 -1.74433453 4.16063604 -6 3 C-6 2.67 -6 2.34 -6 2 C-4.02 2 -2.04 2 0 2 C0 1.34 0 0.68 0 0 Z " fill="#474748" transform="translate(131,27)"/>
<path d="M0 0 C-1.15173355 2.46800047 -2.04783565 4.04783565 -4 6 C-5.32 5.34 -6.64 4.68 -8 4 C-2.25 0 -2.25 0 0 0 Z " fill="#D4D5D6" transform="translate(33,7)"/>
<path d="M0 0 C0.99 0 1.98 0 3 0 C3 1.98 3 3.96 3 6 C2.01 6 1.02 6 0 6 C0 4.02 0 2.04 0 0 Z " fill="#F4F4F5" transform="translate(57,23)"/>
</svg>
