<?xml version="1.0" encoding="UTF-8"?>
<svg version="1.1" xmlns="http://www.w3.org/2000/svg" width="318" height="159">
<path d="M0 0 C104.94 0 209.88 0 318 0 C318 52.47 318 104.94 318 159 C213.06 159 108.12 159 0 159 C0 106.53 0 54.06 0 0 Z " fill="#767878" transform="translate(0,0)"/>
<path d="M0 0 C104.94 0 209.88 0 318 0 C318 26.07 318 52.14 318 79 C213.06 79 108.12 79 0 79 C0 52.93 0 26.86 0 0 Z " fill="#808181" transform="translate(0,80)"/>
<path d="M0 0 C104.94 0 209.88 0 318 0 C318 7.92 318 15.84 318 24 C213.06 24 108.12 24 0 24 C0 16.08 0 8.16 0 0 Z " fill="#494E51" transform="translate(0,0)"/>
<path d="M0 0 C104.94 0 209.88 0 318 0 C318 5.61 318 11.22 318 17 C213.06 17 108.12 17 0 17 C0 11.39 0 5.78 0 0 Z " fill="#6E7172" transform="translate(0,24)"/>
<path d="M0 0 C104.94 0 209.88 0 318 0 C318 3.63 318 7.26 318 11 C290.51844377 11.13174687 263.03688159 11.26218656 235.55531216 11.39115143 C222.7895574 11.45108738 210.02380477 11.51142026 197.25805664 11.57275391 C186.10614514 11.62633272 174.95423012 11.67909932 163.80231053 11.73096704 C157.92048013 11.75834986 152.03865198 11.78608714 146.15682793 11.81480408 C122.52837932 11.92988741 98.90024103 12.02060617 75.27148438 12.02734375 C73.82064699 12.0282015 73.82064699 12.0282015 72.34049976 12.02907658 C56.24258719 12.03659992 40.15687286 11.85263018 24.0625 11.5 C21.67513902 11.45138821 19.28776911 11.40321307 16.90039062 11.35546875 C11.26681315 11.24191562 5.6333832 11.12279854 0 11 C0 7.37 0 3.74 0 0 Z " fill="#717273" transform="translate(0,41)"/>
<path d="M0 0 C104.94 0 209.88 0 318 0 C318 3.63 318 7.26 318 11 C213.06 11 108.12 11 0 11 C0 7.37 0 3.74 0 0 Z " fill="#4A5053" transform="translate(0,0)"/>
<path d="M0 0 C104.94 0 209.88 0 318 0 C318 2.31 318 4.62 318 7 C213.06 7 108.12 7 0 7 C0 4.69 0 2.38 0 0 Z " fill="#737576" transform="translate(0,34)"/>
<path d="M0 0 C104.94 0 209.88 0 318 0 C318 2.31 318 4.62 318 7 C213.06 7 108.12 7 0 7 C0 4.69 0 2.38 0 0 Z " fill="#727476" transform="translate(0,52)"/>
<path d="M0 0 C104.94 0 209.88 0 318 0 C318 1.65 318 3.3 318 5 C213.06 5 108.12 5 0 5 C0 3.35 0 1.7 0 0 Z " fill="#464B4E" transform="translate(0,19)"/>
<path d="M0 0 C104.94 0 209.88 0 318 0 C318 0.99 318 1.98 318 3 C286.18758705 3.20294704 254.37509005 3.38952482 222.5625 3.5625 C220.80693873 3.57207426 220.80693873 3.57207426 219.01591158 3.58184195 C160.57081219 3.89968137 102.13126873 4.20038026 43.6875 3.5625 C41.92387556 3.54327925 41.92387556 3.54327925 40.12462234 3.5236702 C26.74935849 3.37566114 13.37450724 3.20537977 0 3 C0 2.01 0 1.02 0 0 Z " fill="#4D4F4F" transform="translate(0,41)"/>
<path d="M0 0 C104.94 0 209.88 0 318 0 C318 0.99 318 1.98 318 3 C285.81258499 3.20275244 253.62508799 3.38936858 221.4375 3.5625 C220.25436014 3.56888284 219.07122027 3.57526568 217.85222769 3.58184195 C100.75399882 4.21180036 100.75399882 4.21180036 42.5625 3.5625 C40.83731707 3.54327925 40.83731707 3.54327925 39.07728195 3.5236702 C26.05111084 3.37626175 13.02537239 3.20635607 0 3 C0 2.01 0 1.02 0 0 Z " fill="#4C4E4F" transform="translate(0,31)"/>
<path d="M0 0 C104.94 0 209.88 0 318 0 C318 0.99 318 1.98 318 3 C213.06 3 108.12 3 0 3 C0 2.01 0 1.02 0 0 Z " fill="#4D4E4F" transform="translate(0,69)"/>
<path d="M0 0 C104.94 0 209.88 0 318 0 C318 0.99 318 1.98 318 3 C213.06 3 108.12 3 0 3 C0 2.01 0 1.02 0 0 Z " fill="#9A9D9E" transform="translate(0,66)"/>
<path d="M0 0 C104.94 0 209.88 0 318 0 C318 0.99 318 1.98 318 3 C213.06 3 108.12 3 0 3 C0 2.01 0 1.02 0 0 Z " fill="#4C4E4E" transform="translate(0,59)"/>
<path d="M0 0 C104.94 0 209.88 0 318 0 C318 0.99 318 1.98 318 3 C213.06 3 108.12 3 0 3 C0 2.01 0 1.02 0 0 Z " fill="#999C9D" transform="translate(0,28)"/>
<path d="M0 0 C104.94 0 209.88 0 318 0 C318 0.99 318 1.98 318 3 C213.06 3 108.12 3 0 3 C0 2.01 0 1.02 0 0 Z " fill="#737C81" transform="translate(0,0)"/>
<path d="M0 0 C104.94 0 209.88 0 318 0 C318 0.99 318 1.98 318 3 C213.06 3 108.12 3 0 3 C0 2.01 0 1.02 0 0 Z " fill="#747D82" transform="translate(0,16)"/>
<path d="M0 0 C104.94 0 209.88 0 318 0 C318 0.99 318 1.98 318 3 C213.06 3 108.12 3 0 3 C0 2.01 0 1.02 0 0 Z " fill="#9C9FA0" transform="translate(0,44)"/>
<path d="M0 0 C104.94 0 209.88 0 318 0 C318 0.99 318 1.98 318 3 C213.06 3 108.12 3 0 3 C0 2.01 0 1.02 0 0 Z " fill="#9C9E9F" transform="translate(0,38)"/>
<path d="M0 0 C104.94 0 209.88 0 318 0 C318 0.99 318 1.98 318 3 C213.06 3 108.12 3 0 3 C0 2.01 0 1.02 0 0 Z " fill="#9D9F9F" transform="translate(0,52)"/>
<path d="M0 0 C104.94 0 209.88 0 318 0 C318 0.99 318 1.98 318 3 C213.06 3 108.12 3 0 3 C0 2.01 0 1.02 0 0 Z " fill="#7E8487" transform="translate(0,8)"/>
<path d="M0 0 C1.68836653 0.000431 1.68836653 0.000431 3.41084146 0.0008707 C27.76452571 0.00805848 52.11754239 0.10721631 76.47088146 0.22927284 C82.30156714 0.2582171 88.13225977 0.28569399 93.96295166 0.31335449 C104.90830034 0.36548739 115.85364258 0.41885967 126.79898286 0.47272635 C139.30055075 0.53418784 151.80212551 0.59419288 164.30370092 0.65410137 C189.93164167 0.77694369 215.55957367 0.90153122 241.1875 1.02734375 C241.1875 1.35734375 241.1875 1.68734375 241.1875 2.02734375 C213.70594377 2.15909062 186.22438159 2.28953031 158.74281216 2.41849518 C145.9770574 2.47843113 133.21130477 2.53876401 120.44555664 2.60009766 C109.29364514 2.65367647 98.14173012 2.70644307 86.98981053 2.75831079 C81.10798013 2.78569361 75.22615198 2.81343089 69.34432793 2.84214783 C45.71587932 2.95723116 22.08774103 3.04794992 -1.54101562 3.0546875 C-2.99185301 3.05554525 -2.99185301 3.05554525 -4.47200024 3.05642033 C-20.56991281 3.06394367 -36.65562714 2.87997393 -52.75 2.52734375 C-55.13736098 2.47873196 -57.52473089 2.43055682 -59.91210938 2.3828125 C-65.54568403 2.26925942 -71.17913173 2.1506953 -76.8125 2.02734375 C-76.8125 1.69734375 -76.8125 1.36734375 -76.8125 1.02734375 C-70.21679862 0.87669835 -63.62092607 0.73587913 -57.02490234 0.60009766 C-54.80969112 0.55355042 -52.59451621 0.50521925 -50.37939453 0.45458984 C-33.58512651 0.07272482 -16.79789086 -0.00884303 0 0 Z " fill="#171C1F" transform="translate(76.8125,49.97265625)"/>
</svg>
