<?xml version="1.0" encoding="UTF-8"?>
<svg version="1.1" xmlns="http://www.w3.org/2000/svg" width="122" height="100">
<path d="M0 0 C40.26 0 80.52 0 122 0 C122 33 122 66 122 100 C81.74 100 41.48 100 0 100 C0 67 0 34 0 0 Z " fill="#F9F9F9" transform="translate(0,0)"/>
<path d="M0 0 C0 1.65 0 3.3 0 5 C-2.97 5 -5.94 5 -9 5 C-9 5.66 -9 6.32 -9 7 C-7.54052295 6.93993922 -6.08220728 6.8511311 -4.625 6.75 C-3.81289063 6.70359375 -3.00078125 6.6571875 -2.1640625 6.609375 C0.17560707 6.2177366 0.17560707 6.2177366 1.1796875 4.03125 C1.45039062 3.3609375 1.72109375 2.690625 2 2 C5.20926654 -0.29233325 8.13673286 -0.56339312 12 0 C14.375 2.5 14.375 2.5 16 5 C15.01 5.66 14.02 6.32 13 7 C13.99 7.66 14.98 8.32 16 9 C16.3125 12 16.3125 12 16 15 C15.34 15.66 14.68 16.32 14 17 C14.66 18.32 15.32 19.64 16 21 C16.66 21 17.32 21 18 21 C21.17112781 25.85578945 22.88631199 29.01739407 22 35 C19.86320715 38.38939556 18.8225233 39.72582557 15 41 C13.60560336 41.06665376 12.20830125 41.08538199 10.8125 41.0625 C9.554375 41.041875 8.29625 41.02125 7 41 C7 43.97 7 46.94 7 50 C-5.87 50 -18.74 50 -32 50 C-31.24954452 45.4972671 -30.57882901 42.70877476 -28.875 38.6875 C-26.81051292 33.26636487 -26.88848055 29.65022385 -28 24 C-27.34 24 -26.68 24 -26 24 C-26.66 23.34 -27.32 22.68 -28 22 C-28.66 22 -29.32 22 -30 22 C-31.17426264 19.65147472 -31.11508173 18.26225935 -31.09765625 15.6484375 C-31.09443359 14.79765625 -31.09121094 13.946875 -31.08789062 13.0703125 C-31.07532227 11.73613281 -31.07532227 11.73613281 -31.0625 10.375 C-31.05798828 9.4778125 -31.05347656 8.580625 -31.04882812 7.65625 C-31.03702591 5.43743352 -31.02056155 3.21874982 -31 1 C-20.63946908 0.16639406 -10.3905794 -0.12288464 0 0 Z M15 17 C17 18 17 18 17 18 Z " fill="#F0F0F0" transform="translate(61,50)"/>
<path d="M0 0 C22.44 0 44.88 0 68 0 C67.67 1.98 67.34 3.96 67 6 C66.01 5.505 66.01 5.505 65 5 C53.08999881 4.21210761 42.78258366 6.2067299 33.3125 13.75 C28.72453725 17.89902326 25.67473343 22.69796829 23.9375 28.625 C21.24885301 33.3084496 17.76686607 34.34443272 12.95703125 36.53125 C8.07214151 38.95756247 5.00956714 41.88908689 2.625 46.875 C2.41875 47.57625 2.2125 48.2775 2 49 C1.34 49 0.68 49 0 49 C0 32.83 0 16.66 0 0 Z " fill="#FBFBFB" transform="translate(0,0)"/>
<path d="M0 0 C0.25 2.3125 0.25 2.3125 0 5 C-2.86000031 8.04976337 -5.57745726 8.43713918 -9.625 8.875 C-17.56303115 10.0753852 -24.2972455 12.38402447 -29.4375 18.8125 C-32.34822101 23.16213676 -34.59314925 27.9034137 -35.28125 33.140625 C-35.5184375 33.75421875 -35.755625 34.3678125 -36 35 C-38.07421875 35.90625 -38.07421875 35.90625 -40.6875 36.5 C-46.79553629 38.11426673 -51.60252115 40.45674503 -55 46 C-56.73973368 51.21920105 -56.46891181 55.54390543 -54.8125 60.6875 C-51.91902903 65.97556764 -48.80040994 69.17701402 -43 71 C-43 73.64 -43 76.28 -43 79 C-49.45483923 78.73104837 -53.38412282 76.49999742 -58 72 C-60.76573421 68.45932577 -63 65.57293396 -63 61 C-63.66 61 -64.32 61 -65 61 C-65 55.72 -65 50.44 -65 45 C-64.34 45 -63.68 45 -63 45 C-62.814375 44.154375 -62.62875 43.30875 -62.4375 42.4375 C-59.42018052 35.22217081 -53.98266806 31.53503901 -46.91796875 28.62890625 C-45 28 -45 28 -43 28 C-42.86464844 27.45472656 -42.72929688 26.90945312 -42.58984375 26.34765625 C-39.48817374 15.48252477 -32.65229209 8.60205377 -23 3 C-15.42040168 -0.30277918 -8.14658705 -0.11863962 0 0 Z " fill="#080808" transform="translate(65,4)"/>
<path d="M0 0 C0.99 0.33 1.98 0.66 3 1 C3.33 2.65 3.66 4.3 4 6 C7.28976808 7.09658936 8.71303767 6.79953138 12 6 C13.6875 7.4375 13.6875 7.4375 15 10 C14.35087445 13.14284955 13.23221253 16.04268993 12 19 C13.65 19.33 15.3 19.66 17 20 C17.125 25.75 17.125 25.75 16 28 C14.02 28 12.04 28 10 28 C10.495 31.96 10.495 31.96 11 36 C9.3125 37.5625 9.3125 37.5625 7 39 C4.25 38.6875 4.25 38.6875 2 38 C2 37.34 2 36.68 2 36 C-0.475 36.495 -0.475 36.495 -3 37 C-3.33 38.65 -3.66 40.3 -4 42 C-6.875 42.125 -6.875 42.125 -10 42 C-12.35953094 39.64046906 -12.49141413 38.22104383 -13 35 C-14.093125 35.061875 -15.18625 35.12375 -16.3125 35.1875 C-20 35 -20 35 -21.9375 33.75 C-23 32 -23 32 -23 28 C-22.34 27.67 -21.68 27.34 -21 27 C-20.34444881 24.47266765 -20.34444881 24.47266765 -20 22 C-21.65 22 -23.3 22 -25 22 C-25 19.36 -25 16.72 -25 14 C-23.68 13.67 -22.36 13.34 -21 13 C-20.67 13.66 -20.34 14.32 -20 15 C-19.278125 14.525625 -18.55625 14.05125 -17.8125 13.5625 C-15.08375611 12.04653117 -13.03693921 11.52572225 -10 11 C-10.08378906 11.90363281 -10.16757813 12.80726562 -10.25390625 13.73828125 C-10.35574219 14.91777344 -10.45757812 16.09726562 -10.5625 17.3125 C-10.66691406 18.48425781 -10.77132812 19.65601563 -10.87890625 20.86328125 C-11.18577434 24.03032575 -11.18577434 24.03032575 -10 27 C-7.13702791 27.63082436 -4.88858009 28.11191915 -2 28 C1.2301177 26.1866503 1.2301177 26.1866503 3 23 C3.06658151 19.13827239 2.92491778 16.99098333 0.25 14.125 C-2.17727054 12.91136473 -4.31939441 12.37230633 -7 12 C-6.67 11.34 -6.34 10.68 -6 10 C-4.35 10 -2.7 10 -1 10 C-0.67 9.34 -0.34 8.68 0 8 C0.66 8 1.32 8 2 8 C1.34 5.36 0.68 2.72 0 0 Z " fill="#080808" transform="translate(91,1)"/>
<path d="M0 0 C9.24 0 18.48 0 28 0 C28 13.53 28 27.06 28 41 C27.34 41 26.68 41 26 41 C24.5625 39.06640625 24.5625 39.06640625 23 36.5625 C21.0470084 33.18993349 21.0470084 33.18993349 18 31 C17.67 31.99 17.34 32.98 17 34 C14.78298853 35.58965571 12.42137527 36.72327486 10 38 C10 35 10 35 11 33 C10.505 31.515 10.505 31.515 10 30 C10.99 30 11.98 30 13 30 C13 27.03 13 24.06 13 21 C11.68 20.67 10.36 20.34 9 20 C8.79859524 16.37471432 9.14223235 14.13498292 11 11 C10.34 10.01 9.68 9.02 9 8 C8.071875 8.20625 7.14375 8.4125 6.1875 8.625 C3 9 3 9 0 7 C0 4.69 0 2.38 0 0 Z " fill="#FAFAFA" transform="translate(94,0)"/>
<path d="M0 0 C3.3 0 6.6 0 10 0 C19 21.1352459 19 21.1352459 19 27 C9.76 27 0.52 27 -9 27 C-8.28865192 22.73191153 -7.66588373 19.71227246 -6.15234375 15.8203125 C-5.79462891 14.8921875 -5.43691406 13.9640625 -5.06835938 13.0078125 C-4.50858398 11.58082031 -4.50858398 11.58082031 -3.9375 10.125 C-3.37192383 8.66320312 -3.37192383 8.66320312 -2.79492188 7.171875 C-1.86837441 4.77927141 -0.93487514 2.38936197 0 0 Z " fill="#080808" transform="translate(38,73)"/>
<path d="M0 0 C2.701875 -0.061875 5.40375 -0.12375 8.1875 -0.1875 C9.02949951 -0.21481201 9.87149902 -0.24212402 10.73901367 -0.27026367 C15.31952096 -0.32089807 18.28298447 0.01917007 22 3 C23.55024464 6.10048928 23.28992015 8.57894218 23 12 C20.86320715 15.38939556 19.8225233 16.72582557 16 18 C14.60560336 18.06665376 13.20830125 18.08538199 11.8125 18.0625 C9.9253125 18.0315625 9.9253125 18.0315625 8 18 C8 20.97 8 23.94 8 27 C5.36 27 2.72 27 0 27 C0 18.09 0 9.18 0 0 Z " fill="#040404" transform="translate(60,73)"/>
<path d="M0 0 C4.20763224 1.5027258 5.8027758 4.23332995 8 8 C8 8.66 8 9.32 8 10 C8.66 10 9.32 10 10 10 C10 18.25 10 26.5 10 35 C9.34 35 8.68 35 8 35 C7.835 35.845625 7.67 36.69125 7.5 37.5625 C4.94691063 43.4133298 0.13816496 46.72532474 -5.25 49.9375 C-8 51 -8 51 -12 51 C-12 48.36 -12 45.72 -12 43 C-11.20335938 42.65388672 -11.20335938 42.65388672 -10.390625 42.30078125 C-4.66348426 39.6566816 -1.42716342 37.13975953 1.25 31.25 C2.99461663 23.6899946 2.17514966 17.07645462 -1 10 C-1.98866506 8.65824027 -2.9838154 7.32103998 -4 6 C-3.0022242 3.00667261 -2.2477975 2.05233685 0 0 Z " fill="#090909" transform="translate(112,31)"/>
<path d="M0 0 C2.64 0 5.28 0 8 0 C8 0.66 8 1.32 8 2 C7.01 2.495 7.01 2.495 6 3 C6.20625 3.94875 6.4125 4.8975 6.625 5.875 C6.74875 6.90625 6.8725 7.9375 7 9 C6.34 9.66 5.68 10.32 5 11 C5 11.33 5 11.66 5 12 C4.030625 11.979375 3.06125 11.95875 2.0625 11.9375 C-0.87465895 11.64381501 -0.87465895 11.64381501 -2 13 C-0.9275 13.061875 0.145 13.12375 1.25 13.1875 C5 14 5 14 7.5 16.125 C9.50686067 19.97148295 9.27176524 21.88546541 8 26 C5.8125 28.5 5.8125 28.5 3 30 C-0.5948199 30 -2.41546447 29.39994536 -5.375 27.375 C-7.63937291 24.0655319 -7.40816207 21.9455667 -7 18 C-6 14.5625 -6 14.5625 -5 12 C-5.66 12 -6.32 12 -7 12 C-7.33 12.99 -7.66 13.98 -8 15 C-8 14.34 -8 13.68 -8 13 C-11.96 14.98 -11.96 14.98 -16 17 C-16 16.01 -16 15.02 -16 14 C-15.01 13.34 -14.02 12.68 -13 12 C-13.226875 11.071875 -13.45375 10.14375 -13.6875 9.1875 C-14 6 -14 6 -12.875 4.0625 C-11 3 -11 3 -8.5625 3.25 C-7.2940625 3.62125 -7.2940625 3.62125 -6 4 C-5.236875 4.185625 -4.47375 4.37125 -3.6875 4.5625 C-2.8521875 4.7790625 -2.8521875 4.7790625 -2 5 C-1.34 3.35 -0.68 1.7 0 0 Z " fill="#0C0C0C" transform="translate(86,0)"/>
<path d="M0 0 C2.97 0 5.94 0 9 0 C9 8.91 9 17.82 9 27 C6.03 27 3.06 27 0 27 C0 18.09 0 9.18 0 0 Z " fill="#020202" transform="translate(86,73)"/>
<path d="M0 0 C9.9609375 -0.1953125 9.9609375 -0.1953125 13 0 C15 2 15 2 15.25 4.4375 C15 7 15 7 13 10 C13.7425 11.175625 13.7425 11.175625 14.5 12.375 C16 15 16 15 16 17 C13.1875 17.3125 13.1875 17.3125 10 17 C8.11400657 14.61107499 7 13.08148442 7 10 C6.34 10 5.68 10 5 10 C5 12.31 5 14.62 5 17 C3.35 17 1.7 17 0 17 C0 11.39 0 5.78 0 0 Z " fill="#090909" transform="translate(30,51)"/>
<path d="M0 0 C2.375 2.5 2.375 2.5 4 5 C3.01 5.66 2.02 6.32 1 7 C1.99 7.66 2.98 8.32 4 9 C4.4375 11.9375 4.4375 11.9375 4 15 C1.67097984 17.79482419 0.12036325 17.98495459 -3.5 18.4375 C-7 18 -7 18 -9.4375 16.125 C-11 14 -11 14 -11 12 C-9.68 11.67 -8.36 11.34 -7 11 C-7.680625 10.443125 -8.36125 9.88625 -9.0625 9.3125 C-11 7 -11 7 -11 4.375 C-10 2 -10 2 -8.3125 0.6875 C-5.28174459 -0.21353539 -3.14663378 -0.45888409 0 0 Z " fill="#060606" transform="translate(73,50)"/>
<path d="M0 0 C1.91015625 0.4453125 1.91015625 0.4453125 4.47265625 2.5078125 C6.37466577 6.3945276 6.18079195 8.33443229 4.91015625 12.4453125 C2.72265625 14.9453125 2.72265625 14.9453125 -0.08984375 16.4453125 C-3.68466365 16.4453125 -5.50530822 15.84525786 -8.46484375 13.8203125 C-10.74228063 10.4917509 -10.65400968 8.394474 -10.08984375 4.4453125 C-7.53315462 0.29069266 -4.61630624 -0.25885829 0 0 Z " fill="#F6F6F6" transform="translate(89.08984375,13.5546875)"/>
<path d="M0 0 C4.62 0 9.24 0 14 0 C14 1.32 14 2.64 14 4 C11.03 4 8.06 4 5 4 C5 4.66 5 5.32 5 6 C7.64 6 10.28 6 13 6 C13 7.32 13 8.64 13 10 C10.36 10 7.72 10 5 10 C5 10.66 5 11.32 5 12 C7.97 12 10.94 12 14 12 C14 13.65 14 15.3 14 17 C9.38 17 4.76 17 0 17 C0 11.39 0 5.78 0 0 Z " fill="#0F0F0F" transform="translate(47,51)"/>
<path d="M0 0 C0.804375 0.144375 1.60875 0.28875 2.4375 0.4375 C4.93781654 4.18797482 4.97353554 5.99606266 4.4375 10.4375 C1.9375 13.375 1.9375 13.375 -0.5625 15.4375 C-1.2225 14.4475 -1.8825 13.4575 -2.5625 12.4375 C-3.5525 12.4375 -4.5425 12.4375 -5.5625 12.4375 C-7.24486471 11.81150383 -8.9148962 11.14997732 -10.5625 10.4375 C-10.5625 8.4575 -10.5625 6.4775 -10.5625 4.4375 C-9.799375 4.52 -9.03625 4.6025 -8.25 4.6875 C-6.9196875 4.56375 -6.9196875 4.56375 -5.5625 4.4375 C-5.0675 3.7775 -4.5725 3.1175 -4.0625 2.4375 C-2.5625 0.4375 -2.5625 0.4375 0 0 Z " fill="#0A0A0A" transform="translate(78.5625,74.5625)"/>
<path d="M0 0 C5.28 0 10.56 0 16 0 C16 1.32 16 2.64 16 4 C14.35 4 12.7 4 11 4 C11 8.29 11 12.58 11 17 C9.35 17 7.7 17 6 17 C6 12.71 6 8.42 6 4 C4.02 4 2.04 4 0 4 C0 2.68 0 1.36 0 0 Z " fill="#060606" transform="translate(77,51)"/>
<path d="M0 0 C0.66 0.99 1.32 1.98 2 3 C2.66 2.67 3.32 2.34 4 2 C4 2.66 4 3.32 4 4 C4.66 4 5.32 4 6 4 C6.33 3.01 6.66 2.02 7 1 C7.66 2.98 8.32 4.96 9 7 C6.64046906 9.35953094 5.22104383 9.49141413 2 10 C1.67 12.31 1.34 14.62 1 17 C0.67 17 0.34 17 0 17 C-0.33 14.69 -0.66 12.38 -1 10 C-2.98 9.34 -4.96 8.68 -7 8 C-2.25 4 -2.25 4 0 4 C0 2.68 0 1.36 0 0 Z " fill="#EBEBEB" transform="translate(65,5)"/>
<path d="M0 0 C2.12472576 -0.05386629 4.24983652 -0.09273071 6.375 -0.125 C7.55835938 -0.14820313 8.74171875 -0.17140625 9.9609375 -0.1953125 C13 0 13 0 15 2 C15.125 4.625 15.125 4.625 15 7 C11.44190751 7 8.44880782 6.82471491 5 6 C4.34 5.01 3.68 4.02 3 3 C2.34 2.67 1.68 2.34 1 2 C0.67 1.34 0.34 0.68 0 0 Z " fill="#101010" transform="translate(30,51)"/>
<path d="M0 0 C0.33 1.32 0.66 2.64 1 4 C-2.7205836 6.48038907 -4.59796571 6.46337203 -9 6 C-11.4375 4.125 -11.4375 4.125 -13 2 C-13 1.34 -13 0.68 -13 0 C-8.48066858 -1.33906116 -4.51933142 -1.33906116 0 0 Z " fill="#2C2C2C" transform="translate(75,62)"/>
<path d="M0 0 C1.90625 0.453125 1.90625 0.453125 4.40625 2.640625 C5.98087392 5.59304485 6.28159065 7.16889429 5.90625 10.453125 C3.03125 9.828125 3.03125 9.828125 -0.09375 8.453125 C-1.46875 5.328125 -1.46875 5.328125 -2.09375 2.453125 C-5.74691671 3.70289256 -6.87440836 4.12411253 -9.09375 7.453125 C-9.42375 6.463125 -9.75375 5.473125 -10.09375 4.453125 C-7.13378557 0.50650576 -4.73830717 -0.24752351 0 0 Z " fill="#E9E9E9" transform="translate(89.09375,13.546875)"/>
<path d="M0 0 C2.375 2.5 2.375 2.5 4 5 C2.75 6.5 2.75 6.5 1 8 C-0.32 8 -1.64 8 -3 8 C-3 7.34 -3 6.68 -3 6 C-3.66 6 -4.32 6 -5 6 C-5 5.01 -5 4.02 -5 3 C-7.46800047 4.15173355 -9.04783565 5.04783565 -11 7 C-10.75 4.625 -10.75 4.625 -10 2 C-6.91382169 -0.40036091 -3.79450167 -0.55336483 0 0 Z " fill="#2E2E2E" transform="translate(73,50)"/>
<path d="M0 0 C0.75410156 0.00451172 1.50820313 0.00902344 2.28515625 0.01367188 C4.14847127 0.02546501 6.01174555 0.04340058 7.875 0.0625 C7.875 0.3925 7.875 0.7225 7.875 1.0625 C3.255 1.0625 -1.365 1.0625 -6.125 1.0625 C-6.125 6.6725 -6.125 12.2825 -6.125 18.0625 C-8.21719926 15.27290099 -9.70068513 13.13025511 -11.125 10.0625 C-10.465 9.4025 -9.805 8.7425 -9.125 8.0625 C-8.91627281 5.27947081 -8.86859102 3.57531795 -10.125 1.0625 C-6.93675432 -0.53162284 -3.49603338 -0.03924735 0 0 Z " fill="#D1D1D1" transform="translate(53.125,49.9375)"/>
<path d="M0 0 C0.66 0 1.32 0 2 0 C4 4 6 8 8 12 C6.8553125 12.2165625 6.8553125 12.2165625 5.6875 12.4375 C2.91827092 12.9632594 2.91827092 12.9632594 0 14 C0 9.38 0 4.76 0 0 Z " fill="#F4F4F4" transform="translate(0,65)"/>
<path d="M0 0 C1.67542976 0.28604898 3.34385343 0.61781233 5 1 C5.33 3.31 5.66 5.62 6 8 C3.36 8 0.72 8 -2 8 C-1.125 1.125 -1.125 1.125 0 0 Z " fill="#040404" transform="translate(51,92)"/>
<path d="M0 0 C1.32 0.33 2.64 0.66 4 1 C3.67 1.99 3.34 2.98 3 4 C4.98 3.34 6.96 2.68 9 2 C9.33 2.99 9.66 3.98 10 5 C9.34 5 8.68 5 8 5 C8 5.66 8 6.32 8 7 C5.6875 8.125 5.6875 8.125 3 9 C2.01 8.34 1.02 7.68 0 7 C-0.1875 3.375 -0.1875 3.375 0 0 Z " fill="#EAEAEA" transform="translate(94,0)"/>
<path d="M0 0 C0.99 0 1.98 0 3 0 C3 0.66 3 1.32 3 2 C3.66 2 4.32 2 5 2 C5.33 1.34 5.66 0.68 6 0 C6.66 1.65 7.32 3.3 8 5 C4.93882432 7.62386487 4.26826873 8 0 8 C0 5.36 0 2.72 0 0 Z " fill="#161616" transform="translate(100,74)"/>
<path d="M0 0 C1.98 1.32 3.96 2.64 6 4 C5.67 4.66 5.34 5.32 5 6 C3.68 6 2.36 6 1 6 C1.33 7.32 1.66 8.64 2 10 C1.34 10 0.68 10 0 10 C0 9.01 0 8.02 0 7 C-2.97 7 -5.94 7 -9 7 C-9 6.34 -9 5.68 -9 5 C-6.36 5 -3.72 5 -1 5 C-0.67 3.35 -0.34 1.7 0 0 Z " fill="#DCDCDC" transform="translate(61,56)"/>
<path d="M0 0 C1.37478516 0.01740234 1.37478516 0.01740234 2.77734375 0.03515625 C3.69644531 0.04417969 4.61554687 0.05320313 5.5625 0.0625 C6.27277344 0.07410156 6.98304687 0.08570313 7.71484375 0.09765625 C7.71484375 1.41765625 7.71484375 2.73765625 7.71484375 4.09765625 C4.74484375 4.09765625 1.77484375 4.09765625 -1.28515625 4.09765625 C-0.95515625 5.08765625 -0.62515625 6.07765625 -0.28515625 7.09765625 C-0.94515625 7.75765625 -1.60515625 8.41765625 -2.28515625 9.09765625 C-3.1640625 2.9453125 -3.1640625 2.9453125 -3.28515625 1.09765625 C-2.28515625 0.09765625 -2.28515625 0.09765625 0 0 Z " fill="#050505" transform="translate(53.28515625,50.90234375)"/>
<path d="M0 0 C0 8.58 0 17.16 0 26 C-0.33 26 -0.66 26 -1 26 C-1.04898438 25.08476563 -1.09796875 24.16953125 -1.1484375 23.2265625 C-1.22320312 22.03804687 -1.29796875 20.84953125 -1.375 19.625 C-1.44460937 18.44164063 -1.51421875 17.25828125 -1.5859375 16.0390625 C-1.70217346 12.89437681 -1.70217346 12.89437681 -4 11 C-4.57178372 3.79552517 -4.57178372 3.79552517 -2.5625 1 C-1 0 -1 0 0 0 Z " fill="#E6E6E6" transform="translate(86,74)"/>
<path d="M0 0 C0.33 0 0.66 0 1 0 C1 2.64 1 5.28 1 8 C-5.625 7.25 -5.625 7.25 -9 5 C-8.34 3.68 -7.68 2.36 -7 1 C-6.67 1.66 -6.34 2.32 -6 3 C-3.13275314 2.42655063 -2.1385485 2.1385485 0 0 Z " fill="#080808" transform="translate(21,75)"/>
<path d="M0 0 C3.96 0 7.92 0 12 0 C12 1.65 12 3.3 12 5 C10.1875 6.8125 10.1875 6.8125 8 8 C7.01 8 6.02 8 5 8 C4.67 7.01 4.34 6.02 4 5 C4.66 4.34 5.32 3.68 6 3 C6 2.67 6 2.34 6 2 C3.03 1.505 3.03 1.505 0 1 C0 0.67 0 0.34 0 0 Z " fill="#1A1A1A" transform="translate(53,4)"/>
<path d="M0 0 C2.79872437 2.52788007 4.45773019 4.20411134 5 8 C3.02 8 1.04 8 -1 8 C-1.99 6.02 -2.98 4.04 -4 2 C-2.68 1.34 -1.36 0.68 0 0 Z " fill="#141414" transform="translate(41,60)"/>
<path d="M0 0 C0 4.29 0 8.58 0 13 C-0.33 13 -0.66 13 -1 13 C-1 9.04 -1 5.08 -1 1 C-1.99 1.33 -2.98 1.66 -4 2 C-3.773125 2.598125 -3.54625 3.19625 -3.3125 3.8125 C-3.209375 4.534375 -3.10625 5.25625 -3 6 C-4.4375 7.75 -4.4375 7.75 -6 9 C-6.0825 8.236875 -6.165 7.47375 -6.25 6.6875 C-7.14615794 3.47626739 -8.21611025 2.70625501 -11 1 C-7.09145257 0.08034178 -4.17664661 0 0 0 Z " fill="#C9C9C9" transform="translate(83,55)"/>
<path d="M0 0 C3.3 0 6.6 0 10 0 C10 1.32 10 2.64 10 4 C6.7 4 3.4 4 0 4 C0 2.68 0 1.36 0 0 Z " fill="#E6E6E6" transform="translate(38,96)"/>
<path d="M0 0 C-0.66 1.65 -1.32 3.3 -2 5 C-2.721875 4.938125 -3.44375 4.87625 -4.1875 4.8125 C-7.52859947 5.03523996 -9.19685279 6.25750308 -12 8 C-12.66 7.67 -13.32 7.34 -14 7 C-4.22727273 -1.40909091 -4.22727273 -1.40909091 0 0 Z " fill="#E4E4E4" transform="translate(49,15)"/>
<path d="M0 0 C-0.66 1.98 -1.32 3.96 -2 6 C-5.35595828 5.40072174 -7.37801226 4.15377564 -10 2 C-6.5980513 -0.09350689 -3.94727588 -0.17942163 0 0 Z " fill="#E5E5E5" transform="translate(86,0)"/>
<path d="M0 0 C1.65 0 3.3 0 5 0 C5.33 1.65 5.66 3.3 6 5 C4.02 5.33 2.04 5.66 0 6 C0 4.02 0 2.04 0 0 Z " fill="#D2D2D2" transform="translate(68,79)"/>
<path d="M0 0 C3.1875 0.875 3.1875 0.875 6 2 C5.67 2.99 5.34 3.98 5 5 C4.01 5.33 3.02 5.66 2 6 C1.01 5.34 0.02 4.68 -1 4 C-1.99 4 -2.98 4 -4 4 C-3 2 -3 2 0 0 Z " fill="#030303" transform="translate(15,73)"/>
<path d="M0 0 C1.98 0 3.96 0 6 0 C5.34 0.66 4.68 1.32 4 2 C4.33 2.99 4.66 3.98 5 5 C3.68 5.99 2.36 6.98 1 8 C0.26919734 6.02253397 -0.39421747 4.01927511 -1 2 C-0.67 1.34 -0.34 0.68 0 0 Z " fill="#ECECEC" transform="translate(101,29)"/>
<path d="M0 0 C0 0.99 0 1.98 0 3 C-0.99 3.495 -0.99 3.495 -2 4 C-2 4.99 -2 5.98 -2 7 C-3.65 7.33 -5.3 7.66 -7 8 C-7.66 7.01 -8.32 6.02 -9 5 C-3.375 1.125 -3.375 1.125 0 0 Z " fill="#111111" transform="translate(45,6)"/>
<path d="M0 0 C2.97 0 5.94 0 9 0 C9 0.99 9 1.98 9 3 C7.3125 3.6875 7.3125 3.6875 5 4 C2.25 2.625 2.25 2.625 0 1 C0 0.67 0 0.34 0 0 Z " fill="#040404" transform="translate(34,51)"/>
<path d="M0 0 C0.33 0.99 0.66 1.98 1 3 C-0.98 3.66 -2.96 4.32 -5 5 C-5.99 4.01 -6.98 3.02 -8 2 C-4.91190305 0.23537317 -3.76687864 0 0 0 Z " fill="#030303" transform="translate(42,57)"/>
<path d="M0 0 C2 1.3125 2 1.3125 4 3 C4 3.99 4 4.98 4 6 C2.02 6 0.04 6 -2 6 C-1.125 1.125 -1.125 1.125 0 0 Z " fill="#020202" transform="translate(44,90)"/>
<path d="M0 0 C3.34373475 0.55728913 6.03312999 1.35173889 9 3 C9 3.99 9 4.98 9 6 C7.68 6 6.36 6 5 6 C4.34 5.01 3.68 4.02 3 3 C2.34 2.67 1.68 2.34 1 2 C0.67 1.34 0.34 0.68 0 0 Z " fill="#656565" transform="translate(30,51)"/>
<path d="M0 0 C0.66 0 1.32 0 2 0 C2.33 2.31 2.66 4.62 3 7 C1.68 7 0.36 7 -1 7 C-0.67 4.69 -0.34 2.38 0 0 Z " fill="#DCDCDC" transform="translate(42,83)"/>
<path d="M0 0 C2 1.8125 2 1.8125 4 4 C4 4.99 4 5.98 4 7 C3.01 6.67 2.02 6.34 1 6 C1.33 5.67 1.66 5.34 2 5 C0.68 4.01 -0.64 3.02 -2 2 C-1.34 2 -0.68 2 0 2 C0 1.34 0 0.68 0 0 Z M-2 4 C-1.34 4 -0.68 4 0 4 C0 4.99 0 5.98 0 7 C-0.66 7 -1.32 7 -2 7 C-2 6.01 -2 5.02 -2 4 Z " fill="#010101" transform="translate(96,26)"/>
<path d="M0 0 C0.33 0.66 0.66 1.32 1 2 C1.66 2.33 2.32 2.66 3 3 C4.125 5.0625 4.125 5.0625 5 7 C2.69 6.01 0.38 5.02 -2 4 C-1.34 2.68 -0.68 1.36 0 0 Z " fill="#141414" transform="translate(14,76)"/>
<path d="M0 0 C1.32 0 2.64 0 4 0 C4.33 0.99 4.66 1.98 5 3 C4.34 3.66 3.68 4.32 3 5 C2.01 5 1.02 5 0 5 C-0.5625 3.0625 -0.5625 3.0625 -1 1 C-0.67 0.67 -0.34 0.34 0 0 Z " fill="#F1F1F1" transform="translate(51,77)"/>
<path d="M0 0 C0.99 0.33 1.98 0.66 3 1 C3 2.98 3 4.96 3 7 C2.34 7 1.68 7 1 7 C-1 4 -1 4 -0.625 1.8125 C-0.41875 1.214375 -0.2125 0.61625 0 0 Z " fill="#040404" transform="translate(73,5)"/>
<path d="M0 0 C1.32 0.33 2.64 0.66 4 1 C4 2.98 4 4.96 4 7 C3.34 7 2.68 7 2 7 C1.34 4.69 0.68 2.38 0 0 Z " fill="#111111" transform="translate(73,58)"/>
<path d="M0 0 C2.31 0.33 4.62 0.66 7 1 C6.01 1.66 5.02 2.32 4 3 C3.34 2.67 2.68 2.34 2 2 C1.67 4.31 1.34 6.62 1 9 C0.67 9 0.34 9 0 9 C0 6.03 0 3.06 0 0 Z " fill="#BCBCBC" transform="translate(68,91)"/>
<path d="M0 0 C0.66 0 1.32 0 2 0 C2.99 2.64 3.98 5.28 5 8 C4.34 8 3.68 8 3 8 C3 7.34 3 6.68 3 6 C2.01 6 1.02 6 0 6 C0 4.02 0 2.04 0 0 Z " fill="#DCDCDC" transform="translate(0,65)"/>
<path d="M0 0 C0.66 0 1.32 0 2 0 C1.125 5.75 1.125 5.75 0 8 C-0.66 8 -1.32 8 -2 8 C-1.125 1.125 -1.125 1.125 0 0 Z " fill="#EBEBEB" transform="translate(2,41)"/>
<path d="M0 0 C1.32 0.66 2.64 1.32 4 2 C3.01 2.495 3.01 2.495 2 3 C0.9590934 4.64142963 -0.04504326 6.30712215 -1 8 C-2.2077558 4.37673261 -1.54311128 3.35853631 0 0 Z " fill="#1F1F1F" transform="translate(34,83)"/>
<path d="M0 0 C0.66 0 1.32 0 2 0 C2 1.32 2 2.64 2 4 C-0.64 4 -3.28 4 -6 4 C-5.360625 3.87625 -4.72125 3.7525 -4.0625 3.625 C-3.0415625 3.315625 -3.0415625 3.315625 -2 3 C-1.67 2.34 -1.34 1.68 -1 1 C-0.67 0.67 -0.34 0.34 0 0 Z " fill="#0E0E0E" transform="translate(59,51)"/>
<path d="M0 0 C0.99 1.32 1.98 2.64 3 4 C2.34 5.32 1.68 6.64 1 8 C0.67 7.01 0.34 6.02 0 5 C-0.66 4.67 -1.32 4.34 -2 4 C-1.34 2.68 -0.68 1.36 0 0 Z " fill="#E3E3E3" transform="translate(71,6)"/>
</svg>
