<?xml version="1.0" encoding="UTF-8"?>
<svg version="1.1" xmlns="http://www.w3.org/2000/svg" width="1920" height="1080">
<path d="M0 0 C633.6 0 1267.2 0 1920 0 C1920 356.4 1920 712.8 1920 1080 C1286.4 1080 652.8 1080 0 1080 C0 723.6 0 367.2 0 0 Z " fill="#17132A" transform="translate(0,0)"/>
<path d="M0 0 C1.13308594 -0.020625 2.26617187 -0.04125 3.43359375 -0.0625 C10.73998804 -0.09676211 15.68274066 0.26345801 21.125 5.5625 C22.75 9.25 22.75 9.25 22.75 23.25 C387.07 23.25 751.39 23.25 1126.75 23.25 C1126.75 18.3 1126.75 13.35 1126.75 8.25 C1129.42062751 3.59547777 1131.76294658 1.88936166 1136.75 0.25 C1140.88807084 -0.16070399 1145.03103692 -0.0744233 1149.1875 -0.0625 C1150.30705078 -0.07861328 1151.42660156 -0.09472656 1152.58007812 -0.11132812 C1163.42197937 -0.11776249 1163.42197937 -0.11776249 1167.75 3.25 C1172.63395179 9.29602351 1172.32417844 15.210641 1172.1875 22.75 C1172.19458984 23.85214844 1172.20167969 24.95429688 1172.20898438 26.08984375 C1172.1611133 32.22470565 1171.77794402 36.86781101 1168.75 42.25 C1163.92118931 46.92791036 1160.12665698 45.25 1152.75 45.25 C1152.75 130.72 1152.75 216.19 1152.75 304.25 C1156.71 304.25 1160.67 304.25 1164.75 304.25 C1168.99042761 306.53983091 1170.2603439 308.78304366 1171.75 313.25 C1172.18497735 317.34573215 1172.12023814 321.44587147 1172.125 325.5625 C1172.14949219 326.66529297 1172.17398437 327.76808594 1172.19921875 328.90429688 C1172.2220415 335.27564865 1172.00098648 341.16124601 1167.75 346.25 C1162.89461661 349.61014365 1156.55711829 348.62193667 1150.90551758 348.62060547 C1148.8222481 348.62497953 1146.74109824 348.66132556 1144.65820312 348.69921875 C1143.33884766 348.70308594 1142.01949219 348.70695312 1140.66015625 348.7109375 C1139.45496338 348.71915527 1138.24977051 348.72737305 1137.00805664 348.73583984 C1133.09377889 348.15214462 1131.50892108 347.04424068 1128.75 344.25 C1126.75 340.25 1126.75 340.25 1126.75 330.25 C762.43 330.25 398.11 330.25 22.75 330.25 C22.75 333.55 22.75 336.85 22.75 340.25 C21.07185939 343.73058794 19.97786555 345.62449882 16.52148438 347.38525391 C10.95371865 349.12248313 5.03368793 348.61934635 -0.75 348.625 C-2.06871094 348.64949219 -3.38742187 348.67398437 -4.74609375 348.69921875 C-6.65068359 348.70501953 -6.65068359 348.70501953 -8.59375 348.7109375 C-9.75068359 348.71915527 -10.90761719 348.72737305 -12.09960938 348.73583984 C-15.94004615 348.14358402 -17.53051201 346.98451611 -20.25 344.25 C-23.78881151 339.17919498 -22.57737328 332.21719072 -22.5625 326.3125 C-22.57861328 325.03697266 -22.59472656 323.76144531 -22.61132812 322.44726562 C-22.61197266 321.21814453 -22.61261719 319.98902344 -22.61328125 318.72265625 C-22.61775269 317.04055054 -22.61775269 317.04055054 -22.62231445 315.32446289 C-22.19953227 311.8332524 -21.36212758 310.04159081 -19.25 307.25 C-15.25 304.25 -15.25 304.25 -3.25 304.25 C-3.25 218.78 -3.25 133.31 -3.25 45.25 C-7.21 45.25 -11.17 45.25 -15.25 45.25 C-18.97203762 43.16565893 -20.68861359 41.1562142 -22.25 37.25 C-22.68225036 32.61512344 -22.57422015 27.96540076 -22.5625 23.3125 C-22.57861328 22.03697266 -22.59472656 20.76144531 -22.61132812 19.44726562 C-22.61197266 18.21814453 -22.61261719 16.98902344 -22.61328125 15.72265625 C-22.61775269 14.04055054 -22.61775269 14.04055054 -22.62231445 12.32446289 C-22.20450736 8.87433518 -21.30979933 7.02352732 -19.25 4.25 C-12.74397093 -0.1931418 -7.72873701 0.03469691 0 0 Z " fill="#0C093A" transform="translate(386.25,317.75)"/>
<path d="M0 0 C1.13308594 -0.020625 2.26617187 -0.04125 3.43359375 -0.0625 C10.73998804 -0.09676211 15.68274066 0.26345801 21.125 5.5625 C22.75 9.25 22.75 9.25 22.75 23.25 C387.07 23.25 751.39 23.25 1126.75 23.25 C1126.75 18.3 1126.75 13.35 1126.75 8.25 C1129.42062751 3.59547777 1131.76294658 1.88936166 1136.75 0.25 C1140.88807084 -0.16070399 1145.03103692 -0.0744233 1149.1875 -0.0625 C1150.30705078 -0.07861328 1151.42660156 -0.09472656 1152.58007812 -0.11132812 C1163.42197937 -0.11776249 1163.42197937 -0.11776249 1167.75 3.25 C1172.63395179 9.29602351 1172.32417844 15.210641 1172.1875 22.75 C1172.19458984 23.85214844 1172.20167969 24.95429688 1172.20898438 26.08984375 C1172.1611133 32.22470565 1171.77794402 36.86781101 1168.75 42.25 C1163.92118931 46.92791036 1160.12665698 45.25 1152.75 45.25 C1152.75 130.72 1152.75 216.19 1152.75 304.25 C1156.71 304.25 1160.67 304.25 1164.75 304.25 C1168.99042761 306.53983091 1170.2603439 308.78304366 1171.75 313.25 C1172.18497735 317.34573215 1172.12023814 321.44587147 1172.125 325.5625 C1172.14949219 326.66529297 1172.17398437 327.76808594 1172.19921875 328.90429688 C1172.2220415 335.27564865 1172.00098648 341.16124601 1167.75 346.25 C1162.89461661 349.61014365 1156.55711829 348.62193667 1150.90551758 348.62060547 C1148.8222481 348.62497953 1146.74109824 348.66132556 1144.65820312 348.69921875 C1143.33884766 348.70308594 1142.01949219 348.70695312 1140.66015625 348.7109375 C1139.45496338 348.71915527 1138.24977051 348.72737305 1137.00805664 348.73583984 C1133.09377889 348.15214462 1131.50892108 347.04424068 1128.75 344.25 C1126.75 340.25 1126.75 340.25 1126.75 330.25 C762.43 330.25 398.11 330.25 22.75 330.25 C22.75 333.55 22.75 336.85 22.75 340.25 C21.07185939 343.73058794 19.97786555 345.62449882 16.52148438 347.38525391 C10.95371865 349.12248313 5.03368793 348.61934635 -0.75 348.625 C-2.06871094 348.64949219 -3.38742187 348.67398437 -4.74609375 348.69921875 C-6.65068359 348.70501953 -6.65068359 348.70501953 -8.59375 348.7109375 C-9.75068359 348.71915527 -10.90761719 348.72737305 -12.09960938 348.73583984 C-15.94004615 348.14358402 -17.53051201 346.98451611 -20.25 344.25 C-23.78881151 339.17919498 -22.57737328 332.21719072 -22.5625 326.3125 C-22.57861328 325.03697266 -22.59472656 323.76144531 -22.61132812 322.44726562 C-22.61197266 321.21814453 -22.61261719 319.98902344 -22.61328125 318.72265625 C-22.61775269 317.04055054 -22.61775269 317.04055054 -22.62231445 315.32446289 C-22.19953227 311.8332524 -21.36212758 310.04159081 -19.25 307.25 C-15.25 304.25 -15.25 304.25 -3.25 304.25 C-3.25 218.78 -3.25 133.31 -3.25 45.25 C-7.21 45.25 -11.17 45.25 -15.25 45.25 C-18.97203762 43.16565893 -20.68861359 41.1562142 -22.25 37.25 C-22.68225036 32.61512344 -22.57422015 27.96540076 -22.5625 23.3125 C-22.57861328 22.03697266 -22.59472656 20.76144531 -22.61132812 19.44726562 C-22.61197266 18.21814453 -22.61261719 16.98902344 -22.61328125 15.72265625 C-22.61775269 14.04055054 -22.61775269 14.04055054 -22.62231445 12.32446289 C-22.20450736 8.87433518 -21.30979933 7.02352732 -19.25 4.25 C-12.74397093 -0.1931418 -7.72873701 0.03469691 0 0 Z M99.75 38.25 C97.90148437 38.89582031 97.90148437 38.89582031 96.015625 39.5546875 C80.81542407 45.2307119 67.11074616 53.78484352 54.75 64.25 C53.90574463 64.95866211 53.90574463 64.95866211 53.04443359 65.68164062 C28.21082823 86.81132102 11.69944323 116.27839454 5.75 148.25 C5.57557373 149.11270508 5.40114746 149.97541016 5.22143555 150.86425781 C3.64799627 159.23058998 3.30869966 167.51139774 3.3125 176 C3.31176483 176.71932709 3.31102966 177.43865417 3.31027222 178.17977905 C3.41436164 217.22949229 18.87947967 252.35700934 45.75 280.25 C46.38035156 280.94351563 47.01070312 281.63703125 47.66015625 282.3515625 C71.52726515 307.84478212 108.0974714 321.72337408 142.47836775 323.43568853 C146.37186085 323.50405689 150.26272924 323.5156416 154.15654755 323.50168228 C155.65491987 323.50377419 157.15329117 323.50674084 158.65166026 323.51049101 C162.7421465 323.51822417 166.83253735 323.51364837 170.92302189 323.50693511 C175.38344622 323.50183658 179.84385654 323.50839145 184.30427885 323.51342177 C192.11292544 323.52062953 199.92154434 323.52043563 207.73019218 323.51532745 C219.34207146 323.50775202 230.95392746 323.51163541 242.56580658 323.51774407 C263.30648438 323.52826917 284.04714985 323.5273653 304.78782882 323.52158624 C322.93842345 323.51655374 341.08901357 323.51524238 359.23960876 323.51763153 C361.04605888 323.51786069 361.04605888 323.51786069 362.88900295 323.51809447 C367.77773572 323.51871715 372.6664685 323.51935396 377.55520128 323.520014 C423.40868438 323.52613103 469.26215963 323.5205866 515.11564153 323.5098202 C555.84744361 323.50032911 596.57923318 323.50117836 637.31103516 323.51074219 C683.08103327 323.52145307 728.85102446 323.5256972 774.62102365 323.51951766 C779.50081285 323.51887623 784.38060204 323.51825055 789.26039124 323.51763153 C790.46190645 323.51747338 791.66342167 323.51731522 792.90134644 323.51715227 C811.03985929 323.514878 829.17836712 323.51753663 847.31687927 323.52259064 C867.94261334 323.52830904 888.56833316 323.52687971 909.19406545 323.51602915 C920.73539347 323.51015778 932.27669062 323.50977152 943.81801783 323.5173215 C951.52975925 323.52180963 959.24147594 323.51900902 966.9532137 323.51031196 C971.34525736 323.50556017 975.73723975 323.50391575 980.12928146 323.51112393 C984.13192984 323.51762591 988.13446309 323.51478057 992.13710322 323.5047626 C993.56917799 323.50276326 995.00126248 323.50404053 996.43332944 323.50917448 C1036.61995831 323.64291595 1074.56235008 308.92636255 1103.265625 280.73046875 C1111.13277771 272.88401908 1117.80185338 264.61354211 1123.75 255.25 C1124.22493896 254.50371338 1124.69987793 253.75742676 1125.18920898 252.98852539 C1128.81785265 247.12969998 1131.73888641 241.20062815 1134.3125 234.8125 C1134.69672119 233.86383057 1135.08094238 232.91516113 1135.47680664 231.93774414 C1149.88679786 195.41518774 1149.87308483 154.59452731 1134.75 118.25 C1126.52904859 99.8935321 1115.15167995 84.27268837 1100.75 70.25 C1100.31171875 69.76660156 1099.8734375 69.28320312 1099.421875 68.78515625 C1085.62556679 53.97851234 1066.72666934 44.31091261 1047.8125 37.875 C1046.90959229 37.5653833 1046.00668457 37.2557666 1045.07641602 36.93676758 C1041.98831324 35.94359397 1038.88301201 35.09190859 1035.75 34.25 C1034.51061019 33.90940943 1033.27122038 33.56881886 1031.9942733 33.21790737 C1015.74282142 29.18370061 999.21874216 29.68478891 982.59991995 29.74233114 C978.08472332 29.75347835 973.56957617 29.74119176 969.0543834 29.73202366 C961.15722672 29.71916988 953.26018249 29.72104211 945.36302567 29.73280334 C933.61947568 29.75024478 921.8760135 29.74466483 910.13245886 29.73463643 C889.15479877 29.71747244 868.17719105 29.72296742 847.19953206 29.73799362 C828.842623 29.75105752 810.48573209 29.75623902 792.12881851 29.75367546 C790.91004769 29.75351505 789.69127687 29.75335463 788.4355736 29.75318935 C783.48791469 29.75252574 778.5402558 29.75182333 773.59259691 29.75106401 C727.20434987 29.74404398 680.81613479 29.75951814 634.42789588 29.78568747 C593.23203124 29.80880448 552.0362017 29.8141892 510.84033203 29.80395508 C500.28944844 29.80135298 489.73856484 29.79876794 479.1876812 29.79635715 C477.88866333 29.79605971 476.58964546 29.79576226 475.25126341 29.7954558 C440.80659178 29.78783811 406.36192301 29.79425553 371.91725266 29.80505317 C368.21027909 29.80620095 364.50330551 29.80734413 360.79633193 29.80848 C358.33732874 29.80923525 355.87832556 29.81000089 353.41932237 29.81077701 C335.07442514 29.81643112 316.729537 29.81510825 298.38463974 29.81054878 C277.52341401 29.80543752 256.66222226 29.81130937 235.80100499 29.83144308 C224.13140761 29.84241653 212.46187704 29.84523452 200.79227764 29.83615455 C192.99137738 29.83092459 185.19053415 29.8366602 177.38964585 29.85120789 C172.94921112 29.85919061 168.50891114 29.8625705 164.06847726 29.85263533 C141.6867666 29.80666847 121.05281445 30.66046519 99.75 38.25 Z " fill="#D0CDF5" transform="translate(386.25,317.75)"/>
<path d="M0 0 C0 0.66 0 1.32 0 2 C-0.66 2 -1.32 2 -2 2 C-2 2.66 -2 3.32 -2 4 C-1.01 4.66 -0.02 5.32 1 6 C-11.27822581 16.46920821 -11.27822581 16.46920821 -17.1875 21.125 C-22.32736303 25.19857054 -27.15585753 29.5825846 -32 34 C-33.47408978 35.33894403 -34.95285162 36.6727732 -36.4375 38 C-37.05496094 38.556875 -37.67242188 39.11375 -38.30859375 39.6875 C-40 41 -40 41 -43 42 C-43.33 42.99 -43.66 43.98 -44 45 C-45.54663086 46.52758789 -45.54663086 46.52758789 -47.52734375 48.16015625 C-52.09899272 52.04101449 -56.33536983 56.18741709 -60.5625 60.4375 C-61.63661133 61.50581055 -61.63661133 61.50581055 -62.73242188 62.59570312 C-66.80516665 66.67585963 -70.70206596 70.85358471 -74.46557617 75.22045898 C-76.3936382 77.4565201 -78.38293433 79.63343965 -80.375 81.8125 C-85.10576093 87.06180977 -89.56997052 92.49623945 -94 98 C-94.92538408 99.13313697 -95.85118393 100.26593449 -96.77734375 101.3984375 C-120.60962494 130.68013695 -140.35556951 162.68121265 -158 196 C-158.55397461 197.04583252 -158.55397461 197.04583252 -159.11914062 198.11279297 C-163.70245754 206.84344206 -167.75893164 215.79774619 -171.75 224.8125 C-172.44041382 226.36964722 -172.44041382 226.36964722 -173.14477539 227.95825195 C-173.58684326 228.96847412 -174.02891113 229.97869629 -174.484375 231.01953125 C-174.87334961 231.90745361 -175.26232422 232.79537598 -175.66308594 233.71020508 C-176.87374902 236.68932946 -177.9891975 239.68232129 -179.08355713 242.70561218 C-179.44274357 243.69686442 -179.80193001 244.68811666 -180.17200089 245.70940685 C-180.44524059 246.46530259 -180.7184803 247.22119833 -181 248 C-136.57427671 248.29786285 -92.14865955 248.5267809 -47.72213373 248.66384928 C-42.47157385 248.68010755 -37.22101593 248.69693383 -31.97045898 248.71411133 C-30.92521248 248.71752136 -29.87996597 248.7209314 -28.80304532 248.72444477 C-11.90102343 248.78093939 5.00042088 248.88339778 21.90210067 249.00298635 C39.25800717 249.12476028 56.61361218 249.19680688 73.96992832 249.22315043 C84.67130403 249.24094666 95.371047 249.29705124 106.07191981 249.40291407 C113.42015041 249.47188543 120.76754288 249.49234523 128.1160733 249.47551791 C132.35007944 249.46722859 136.58124309 249.47949565 140.81473732 249.54967117 C163.05046229 250.35293972 163.05046229 250.35293972 182.01126045 239.9998129 C183.12749905 238.88370443 184.23128505 237.75496389 185.32054245 236.61250818 C188.15884292 233.88735283 191.45777655 231.90301925 194.8125 229.875 C195.91464844 229.19401245 195.91464844 229.19401245 197.0390625 228.49926758 C197.91691406 227.9833606 197.91691406 227.9833606 198.8125 227.45703125 C199.493125 227.05693848 200.17375 226.6568457 200.875 226.24462891 C201.57625 225.83390137 202.2775 225.42317383 203 225 C203.72960938 224.56478027 204.45921875 224.12956055 205.2109375 223.68115234 C232.67128104 207.40293249 263.41723199 196.63905136 295 192 C296.20462891 191.82267334 297.40925781 191.64534668 298.65039062 191.46264648 C310.30826324 189.86359411 321.87144795 189.64493565 333.625 189.6875 C334.59056824 189.68832581 335.55613647 189.68915161 336.55096436 189.69000244 C350.89300863 189.71822487 364.88596124 190.22814108 379 193 C379.92264648 193.18079102 380.84529297 193.36158203 381.79589844 193.54785156 C384.19879697 194.02473062 386.60002488 194.50865161 389 195 C388.67 196.98 388.34 198.96 388 201 C387.67 200.01 387.34 199.02 387 198 C386.67128906 198.51046875 386.34257813 199.0209375 386.00390625 199.546875 C382.82159425 201.85451645 379.60686231 200.83398339 375.9375 200.25 C375.20466797 200.14945313 374.47183594 200.04890625 373.71679688 199.9453125 C368.3542471 199.17712355 368.3542471 199.17712355 366 198 C298.22798096 192.74219955 237.53243571 208.80063362 182 248 C278.03 248.33 374.06 248.66 473 249 C473 247.02 473 245.04 473 243 C473.33 243 473.66 243 474 243 C474 245.31 474 247.62 474 250 C109.68 250 -254.64 250 -630 250 C-630 249.67 -630 249.34 -630 249 C-539.58 249 -449.16 249 -356 249 C-356.11884125 181.66927576 -356.11884125 181.66927576 -356.27026367 114.33862305 C-356.28381348 101.33947754 -356.28381348 101.33947754 -356.28633118 95.26106262 C-356.28913501 91.00031381 -356.30041253 86.73967625 -356.31672668 82.47895813 C-356.33723447 77.05148752 -356.34348644 71.62417975 -356.33921683 66.19667399 C-356.34011022 64.20020279 -356.3461001 62.20372616 -356.35764539 60.20728815 C-356.37247426 57.51910195 -356.36900485 54.83155591 -356.36076355 52.14335632 C-356.37387054 50.96033542 -356.37387054 50.96033542 -356.38724232 49.75341511 C-356.34350255 44.47841936 -356.34350255 44.47841936 -354.60245228 42.05354023 C-353 41 -353 41 -351 40 C-350.67 27.79 -350.34 15.58 -350 3 C-349.67 3 -349.34 3 -349 3 C-349 84.18 -349 165.36 -349 249 C-296.2 249 -243.4 249 -189 249 C-188.34 246.03 -187.68 243.06 -187 240 C-186.19794853 237.84617817 -185.32767966 235.71619783 -184.3828125 233.62109375 C-183.86404541 232.46399902 -183.34527832 231.3069043 -182.81079102 230.11474609 C-182.24944775 228.88872843 -181.68750382 227.66298563 -181.125 226.4375 C-180.54404702 225.15712842 -179.96323855 223.87669126 -179.38256836 222.59619141 C-172.16955685 206.77002399 -164.40995885 191.22432858 -156 176 C-155.36835937 174.8553125 -154.73671875 173.710625 -154.0859375 172.53125 C-143.24783062 153.32948986 -131.16576752 134.68782005 -118 117 C-117.07409695 115.74097498 -116.14832472 114.48185375 -115.22265625 113.22265625 C-109.59205713 105.6007365 -103.78523081 98.21188943 -97.59765625 91.03515625 C-95.09166517 88.10710351 -92.66491319 85.12831844 -90.25 82.125 C-87.26219581 78.45138311 -84.17787228 75.04429619 -80.76489258 71.76586914 C-79.07895238 70.07899607 -77.54363077 68.33581069 -76.00390625 66.515625 C-71.59010628 61.43824026 -66.84895726 56.6986232 -62.0847168 51.9543457 C-60.56508332 50.4400742 -59.05087483 48.9205257 -57.53710938 47.40039062 C-52.73649107 42.59653661 -47.88642564 37.90084973 -42.72338867 33.48266602 C-40.20289441 31.31423399 -37.79794316 29.02630972 -35.375 26.75 C-29.45171036 21.26307302 -23.19403941 16.28326482 -16.78759766 11.37597656 C-14.9459905 9.95842699 -13.11844204 8.52418918 -11.29296875 7.0859375 C-10.11213586 6.1612582 -8.93115195 5.23677171 -7.75 4.3125 C-7.20093994 3.87800537 -6.65187988 3.44351074 -6.08618164 2.99584961 C-2.22738046 0 -2.22738046 0 0 0 Z " fill="#2B285C" transform="translate(1039,91)"/>
<path d="M0 0 C26.07 0 52.14 0 79 0 C79.99 4.95 79.99 4.95 81 10 C82.73276023 12.80400957 82.73276023 12.80400957 86 14 C89.96 14.33 93.92 14.66 98 15 C98 42.06 98 69.12 98 97 C95.37276768 94.37276768 94.67812566 91.79599513 93.375 88.3125 C78.92621545 51.16296979 50.13648213 22.43207885 14 6 C9.40889637 4.09689376 4.74751762 2.47149812 0 1 C0 0.67 0 0.34 0 0 Z " fill="#121746" transform="translate(1434,348)"/>
<path d="M0 0 C25.74 0 51.48 0 78 0 C75.2035292 1.86431387 72.51833148 3.03955818 69.40283203 4.25756836 C33.47462222 18.32555706 3.71047717 46.44029997 -12.1574707 81.66674805 C-14.34564398 86.70361952 -16.32220553 91.76592346 -18 97 C-18.33 97 -18.66 97 -19 97 C-19 69.94 -19 42.88 -19 15 C-13.555 14.505 -13.555 14.505 -8 14 C-4.62859633 12.62391687 -3.46715466 11.86423611 -1.75 8.6875 C-0.95596728 5.84221609 -0.48563496 2.91380973 0 0 Z " fill="#2B1B3A" transform="translate(409,348)"/>
<path d="M0 0 C0.33 0 0.66 0 1 0 C1 26.07 1 52.14 1 79 C-4.94 79.495 -4.94 79.495 -11 80 C-14.0197038 81.83550623 -15.4436368 82.88727359 -17 86 C-17.33 89.63 -17.66 93.26 -18 97 C-43.08 97 -68.16 97 -94 97 C-90.25042433 94.18781825 -86.70498045 92.46286396 -82.4375 90.6875 C-64.53600376 83.0030438 -49.87507546 72.55774329 -36 59 C-35.42991211 58.45255127 -34.85982422 57.90510254 -34.27246094 57.34106445 C-30.16842692 53.33979976 -26.54714418 49.15801662 -23.125 44.5625 C-22.61179199 43.87365723 -22.09858398 43.18481445 -21.56982422 42.47509766 C-12.12630496 29.53615448 -4.92118299 15.24422265 0 0 Z " fill="#121747" transform="translate(1531,543)"/>
<path d="M0 0 C2.12647444 3.18971166 3.27124278 6.16519039 4.625 9.75 C11.23757758 26.63671598 20.56131614 41.58280335 32.9921875 54.81640625 C35 57 35 57 36.9453125 59.51171875 C40.67471579 64.02812539 45.41353893 67.39340063 50 71 C51.36318359 72.10408203 51.36318359 72.10408203 52.75390625 73.23046875 C65.51398764 83.25751462 79.78636534 90.48000866 95 96 C95 96.33 95 96.66 95 97 C69.92 97 44.84 97 19 97 C18.505 92.05 18.505 92.05 18 87 C15.57208629 82.25264021 15.57208629 82.25264021 11 80 C7.37 79.67 3.74 79.34 0 79 C0 52.93 0 26.86 0 0 Z " fill="#2C1C3B" transform="translate(390,543)"/>
<path d="M0 0 C3.3 0 6.6 0 10 0 C10 24.09 10 48.18 10 73 C6.7 73 3.4 73 0 73 C-0.33 71.02 -0.66 69.04 -1 67 C-1.886875 67.78375 -2.77375 68.5675 -3.6875 69.375 C-8.65216634 73.76237956 -13.69881069 74.50928954 -20.1484375 74.37890625 C-26.18835687 73.57634162 -30.96805072 70.4855862 -34.9375 65.9375 C-38.81651876 60.41283692 -39.33941548 56.78927392 -39.3125 50.125 C-39.32861328 49.33480469 -39.34472656 48.54460937 -39.36132812 47.73046875 C-39.36630965 41.74267189 -38.18728112 37.71596045 -34.3515625 32.953125 C-33.78179688 32.39109375 -33.21203125 31.8290625 -32.625 31.25 C-32.06039063 30.67765625 -31.49578125 30.1053125 -30.9140625 29.515625 C-25.83379482 25.49288243 -20.49034149 25.52754393 -14.2421875 25.60546875 C-8.57165666 26.2954972 -4.94419384 29.05580616 -1 33 C-0.67 22.11 -0.34 11.22 0 0 Z " fill="#FBFBFC" transform="translate(1068,460)"/>
<path d="M0 0 C3.28570747 0.90206242 3.28570747 0.90206242 5.28570747 2.90206242 C5.84820747 5.52706242 5.84820747 5.52706242 5.28570747 8.90206242 C0.23167642 16.0241829 -6.67992572 22.00981666 -12.85027885 28.16744328 C-13.96155905 29.28008101 -15.07262695 30.39293082 -16.18350029 31.50597477 C-19.1787334 34.50573706 -22.17708486 37.50236366 -25.1761744 40.4982698 C-28.31975242 43.63930457 -31.46087696 46.7827914 -34.60239983 49.92588139 C-39.87024196 55.19553788 -45.14017846 60.46309299 -50.41131401 65.72945499 C-56.50892808 71.82161088 -62.60290851 77.91738372 -68.6950472 84.01501459 C-73.93155448 89.25605371 -79.17000016 94.49514939 -84.41008395 99.73261267 C-87.53764353 102.85861205 -90.66452058 105.9852861 -93.78964996 109.11371517 C-96.72177069 112.0487162 -99.65631084 114.98127614 -102.59276772 117.91193867 C-103.67160767 118.98945261 -104.7495906 120.06782539 -105.82666779 121.1471014 C-107.2924758 122.61562668 -108.76130425 124.08106129 -110.23097038 125.54572392 C-111.05333592 126.36771243 -111.87570147 127.18970095 -112.72298717 128.03659821 C-115.21887232 130.37475514 -116.2272103 130.85024516 -119.65179253 131.21456242 C-122.71429253 130.90206242 -122.71429253 130.90206242 -124.65179253 129.27706242 C-126.11082919 126.01568634 -125.63933904 124.33474371 -124.71429253 120.90206242 C-122.72109604 118.27128029 -122.72109604 118.27128029 -120.04751396 115.58017826 C-119.55748866 115.08023631 -119.06746336 114.58029436 -118.56258881 114.06520265 C-116.92158967 112.39728899 -115.2633159 110.74772866 -113.60442924 109.09761906 C-112.42251667 107.90401724 -111.24164914 106.70937985 -110.06175041 105.51378727 C-106.85647506 102.27290666 -103.63533217 99.04825319 -100.40999937 95.82734704 C-97.71912843 93.13766532 -95.03561176 90.44070425 -92.3519088 87.74387354 C-86.02180113 81.38343846 -79.67828312 75.03659741 -73.32659721 68.69771671 C-66.771475 62.15528572 -60.24067759 55.58926584 -53.72114742 49.01138312 C-48.12353223 43.3654993 -42.51060665 37.73516209 -36.88522923 32.11693949 C-33.52518211 28.76077727 -30.17144441 25.39886023 -26.83254433 22.02164745 C-23.69338149 18.8477169 -20.53558835 15.69359762 -17.36232758 12.55376911 C-16.20045114 11.39768261 -15.045377 10.23471367 -13.89769745 9.06453228 C-12.33058301 7.46886422 -10.74087791 5.89980636 -9.14297295 4.33506107 C-8.25842871 3.44963658 -7.37388447 2.56421209 -6.46253586 1.65195656 C-3.71429253 -0.09793758 -3.71429253 -0.09793758 0 0 Z " fill="#F6F6F8" transform="translate(762.7142925262451,417.09793758392334)"/>
<path d="M0 0 C2.31 0 4.62 0 7 0 C7.22139648 0.94617188 7.44279297 1.89234375 7.67089844 2.8671875 C8.51213822 6.46089572 9.35497809 10.05422724 10.19824219 13.64746094 C10.55933914 15.18707607 10.92003222 16.72678598 11.28027344 18.26660156 C18.04912909 47.29158853 18.04912909 47.29158853 27.6328125 75.48828125 C28.64246406 78.08164339 29.61421807 80.67473408 30.5546875 83.29296875 C41.51820878 113.81234491 55.54554967 143.07220845 72 171 C72.78552246 172.34408936 72.78552246 172.34408936 73.58691406 173.71533203 C79.67129667 184.11152633 85.96846157 194.21370859 93 204 C93.73089844 205.04414062 94.46179688 206.08828125 95.21484375 207.1640625 C105.67884394 222.08073464 116.6735984 236.69244217 128.64501953 250.43457031 C130.13027643 252.15051035 131.59547455 253.88233962 133.05859375 255.6171875 C138.04578636 261.51502409 143.01999389 267.26259592 148.671875 272.546875 C150 274 150 274 150 276 C150.99 276.33 151.98 276.66 153 277 C154.84499398 278.87617698 156.3683599 280.92737609 158 283 C157.67 283.66 157.34 284.32 157 285 C153.46171566 285 151.09980522 284.87188249 148.2800293 282.63647461 C147.71711182 282.06421143 147.15419434 281.49194824 146.57421875 280.90234375 C145.94620361 280.26997803 145.31818848 279.6376123 144.67114258 278.98608398 C143.6892395 277.97203491 143.6892395 277.97203491 142.6875 276.9375 C142.01033936 276.24793213 141.33317871 275.55836426 140.63549805 274.84790039 C136.25747196 270.36501775 132.02651748 265.80186439 128 261 C127.10433687 259.96617056 126.20703955 258.93375584 125.30859375 257.90234375 C118.26899031 249.80095827 111.53348765 241.51333239 105 233 C104.43941895 232.27603027 103.87883789 231.55206055 103.30126953 230.80615234 C87.17969586 209.94577326 73.26612994 187.76269097 60 165 C59.50016602 164.14374023 59.00033203 163.28748047 58.48535156 162.40527344 C47.33259202 143.14001661 37.98035909 122.77007366 30 102 C29.21461586 100.12235976 28.42295742 98.24733145 27.625 96.375 C17.64647798 72.36916268 10.37616649 47.85947713 4 22.6875 C3.79819122 21.89801971 3.59638245 21.10853943 3.38845825 20.2951355 C2.81336163 18.03593895 2.24869288 15.77440425 1.6875 13.51171875 C1.51604965 12.84094299 1.3445993 12.17016724 1.16795349 11.47906494 C0.21511661 7.57267879 -0.1674109 4.01669895 0 0 Z " fill="#2F294B" transform="translate(824,648)"/>
<path d="M0 0 C0.495 0.495 0.495 0.495 1 1 C1.33 -0.65 1.66 -2.3 2 -4 C5.63 -4 9.26 -4 13 -4 C13 11.18 13 26.36 13 42 C9.37 42 5.74 42 2 42 C1.67 40.35 1.34 38.7 1 37 C0.44570313 37.34933594 -0.10859375 37.69867187 -0.6796875 38.05859375 C-1.40414062 38.51363281 -2.12859375 38.96867188 -2.875 39.4375 C-3.59429688 39.88996094 -4.31359375 40.34242188 -5.0546875 40.80859375 C-9.88119238 43.76458569 -14.43960389 43.51987443 -20 43 C-26.63566969 41.19757761 -31.17326584 36.5539358 -35 31 C-38.34349158 24.4467565 -38.15513911 15.50988444 -36.34765625 8.453125 C-33.66798045 2.51873566 -28.96650868 -1.54970687 -23.1875 -4.375 C-14.09855497 -6.15714609 -7.91086404 -4.87437077 0 0 Z " fill="#F6F6F8" transform="translate(1004,491)"/>
<path d="M0 0 C2.31 0 4.62 0 7 0 C7.02363208 27.51780862 7.04112483 55.03561565 7.05181217 82.55343246 C7.05691209 95.33787126 7.06385701 108.12230359 7.07543945 120.90673828 C7.17333106 231.05332776 7.17333106 231.05332776 6 279 C4.35 278.34 2.7 277.68 1 277 C1 266.66666667 1 256.33333333 1 246 C0.75622037 244.51237483 0.75622037 244.51237483 0.50751591 242.99469662 C-0.16866785 238.35879565 -0.13523254 233.76180405 -0.12025452 229.08485413 C-0.12110894 228.10290414 -0.12196337 227.12095415 -0.12284368 226.1092481 C-0.12448714 222.82810306 -0.11899569 219.54700945 -0.11352539 216.26586914 C-0.11324325 213.91018678 -0.11340178 211.55450433 -0.1139679 209.19882202 C-0.11425481 202.80893675 -0.10837508 196.41907025 -0.10139394 190.02918935 C-0.09577633 184.0263078 -0.09477056 178.02342623 -0.09374207 172.02054255 C-0.09155555 160.13372731 -0.0849063 148.24691894 -0.07543945 136.36010742 C-0.06625499 124.81583694 -0.05917921 113.27156832 -0.05493164 101.72729492 C-0.05466892 101.01524204 -0.05440619 100.30318916 -0.05413551 99.56955893 C-0.05283043 95.99726035 -0.05156674 92.42496176 -0.05032361 88.85266316 C-0.03996345 59.23510421 -0.02228147 29.61755243 0 0 Z " fill="#2C263F" transform="translate(683,648)"/>
<path d="M0 0 C0.33 0 0.66 0 1 0 C1 81.18 1 162.36 1 246 C15.85 246 30.7 246 46 246 C46 246.33 46 246.66 46 247 C-61.58 247 -169.16 247 -280 247 C-280 246.67 -280 246.34 -280 246 C-189.58 246 -99.16 246 -6 246 C-6.11884125 178.66927576 -6.11884125 178.66927576 -6.27026367 111.33862305 C-6.28381348 98.33947754 -6.28381348 98.33947754 -6.28633118 92.26106262 C-6.28913501 88.00031381 -6.30041253 83.73967625 -6.31672668 79.47895813 C-6.33723447 74.05148752 -6.34348644 68.62417975 -6.33921683 63.19667399 C-6.34011022 61.20020279 -6.3461001 59.20372616 -6.35764539 57.20728815 C-6.37247426 54.51910195 -6.36900485 51.83155591 -6.36076355 49.14335632 C-6.37387054 47.96033542 -6.37387054 47.96033542 -6.38724232 46.75341511 C-6.34350255 41.47841936 -6.34350255 41.47841936 -4.60245228 39.05354023 C-3 38 -3 38 -1 37 C-0.67 24.79 -0.34 12.58 0 0 Z " fill="#372F56" transform="translate(689,94)"/>
<path d="M0 0 C3.63 0 7.26 0 11 0 C11.0093457 1.52810303 11.01869141 3.05620605 11.02832031 4.63061523 C11.06834832 10.32817173 11.13414371 16.02519556 11.20751953 21.72241211 C11.2356548 24.18295421 11.25690614 26.64358544 11.27099609 29.10424805 C11.29252802 32.65199165 11.33923373 36.19867195 11.390625 39.74609375 C11.39185364 40.8370787 11.39308228 41.92806366 11.39434814 43.05210876 C11.51733526 49.54118677 12.10954154 55.58031558 16 61 C19.3471363 63.08671156 22.0097729 63.29764101 25.9375 63.3125 C26.95714844 63.32925781 27.97679687 63.34601562 29.02734375 63.36328125 C32.59682346 62.92706362 34.26033086 62.35027454 37 60 C40.22601862 53.26903231 40.46865208 47.23153418 40.51171875 39.84375 C40.52966995 38.70087524 40.54762115 37.55800049 40.56611633 36.38049316 C40.62001447 32.7536989 40.65405004 29.12703472 40.6875 25.5 C40.72069107 23.03123198 40.75518237 20.56248108 40.79101562 18.09375 C40.87572955 12.06259415 40.94263887 6.03147551 41 0 C44.63 0 48.26 0 52 0 C52.07443124 7.38319725 52.12873571 14.76617364 52.16479492 22.1496582 C52.17983529 24.65881152 52.20027272 27.16793874 52.22631836 29.67700195 C52.26291014 33.29384825 52.27977448 36.91034542 52.29296875 40.52734375 C52.30845261 41.64020248 52.32393646 42.75306122 52.33988953 43.89964294 C52.34185841 53.11371022 50.8241179 60.63420383 45 68 C39.50429368 73.34304781 33.54424657 75.16558725 26.0625 75.375 C18.34752957 75.12236873 12.55457182 74.08212851 7.125 68.3125 C2.13469655 62.0399658 -0.13286146 54.73892072 -0.11352539 46.77246094 C-0.11344986 45.73168396 -0.11337433 44.69090698 -0.11329651 43.61859131 C-0.10813522 42.50179993 -0.10297394 41.38500854 -0.09765625 40.234375 C-0.0962413 39.08584045 -0.09482635 37.93730591 -0.09336853 36.75396729 C-0.08777143 33.08595169 -0.07521944 29.41799715 -0.0625 25.75 C-0.05748463 23.26302171 -0.05292178 20.77604247 -0.04882812 18.2890625 C-0.03780295 12.19268481 -0.02054027 6.09635276 0 0 Z " fill="#FAFAFB" transform="translate(1221,459)"/>
<path d="M0 0 C0.96556824 0.00082581 1.93113647 0.00165161 2.92596436 0.00250244 C17.26800863 0.03072487 31.26096124 0.54064108 45.375 3.3125 C46.29764648 3.49329102 47.22029297 3.67408203 48.17089844 3.86035156 C50.57379697 4.33723062 52.97502488 4.82115161 55.375 5.3125 C55.045 7.2925 54.715 9.2725 54.375 11.3125 C54.045 10.3225 53.715 9.3325 53.375 8.3125 C53.04628906 8.82296875 52.71757813 9.3334375 52.37890625 9.859375 C49.19659425 12.16701645 45.98186231 11.14648339 42.3125 10.5625 C41.57966797 10.46195312 40.84683594 10.36140625 40.09179688 10.2578125 C34.7292471 9.48962355 34.7292471 9.48962355 32.375 8.3125 C-34.38181738 3.1334596 -97.45834135 18.41060461 -151.625 58.3125 C-152.12 58.8075 -152.12 58.8075 -152.625 59.3125 C-154.47787502 59.38476502 -156.33333878 59.3963122 -158.1875 59.375 C-159.19941406 59.36597656 -160.21132812 59.35695313 -161.25390625 59.34765625 C-162.03636719 59.33605469 -162.81882812 59.32445312 -163.625 59.3125 C-159.90734503 55.40473767 -155.98894513 52.1614784 -151.625 49 C-150.96201904 48.51853516 -150.29903809 48.03707031 -149.6159668 47.54101562 C-144.06572754 43.55370994 -138.40269309 39.82293922 -132.48779297 36.39306641 C-131.17028819 35.62881003 -129.85721866 34.85688358 -128.54736328 34.07958984 C-100.99227575 17.80224661 -70.29767524 6.96475743 -38.625 2.3125 C-37.42037109 2.13517334 -36.21574219 1.95784668 -34.97460938 1.77514648 C-23.31673676 0.17609411 -11.75355205 -0.04256435 0 0 Z " fill="#1C1E4F" transform="translate(1372.625,280.6875)"/>
<path d="M0 0 C2.625 2.1875 2.625 2.1875 4 4 C2.35 6.64 0.7 9.28 -1 12 C-5.75 10.125 -5.75 10.125 -8 9 C-9.95449844 8.8518456 -11.9151053 8.77875151 -13.875 8.75 C-14.92429687 8.72421875 -15.97359375 8.6984375 -17.0546875 8.671875 C-20.35261394 9.03928325 -21.70352683 9.63261436 -24 12 C-24.657042 17.06860974 -24.00036144 19.92582499 -21 24 C-18.16432195 26.10896831 -18.16432195 26.10896831 -14.875 27.9375 C-13.70519284 28.6319098 -12.53592419 29.32722755 -11.3671875 30.0234375 C-10.25601563 30.67570312 -9.14484375 31.32796875 -8 32 C-1.03064528 36.16535778 4.32077174 39.96231521 7 48 C7.39905141 53.88600825 7.03184685 58.8255052 4 64 C-0.5772961 69.23964385 -6.06209938 72.63273466 -13.015625 73.28125 C-22.0743156 73.53405067 -29.43227323 72.12652459 -37 67 C-35.8905928 63.51329166 -34.73662334 60.22515763 -33 57 C-30.14942665 58.12295314 -27.38840114 59.29447353 -24.625 60.625 C-19.41572491 62.60093193 -15.85294504 62.769147 -10.6875 60.625 C-7.9667257 59.12620781 -7.9667257 59.12620781 -6 57 C-5.44358579 52.92213662 -5.44358579 52.92213662 -6 49 C-9.65760031 44.52490136 -13.97446434 42.1240343 -19 39.5 C-26.93031483 35.35926366 -33.05322644 30.84032067 -36 22 C-36.74029131 15.45370972 -36.55594642 10.17128463 -32.62890625 4.72265625 C-23.71873088 -4.70033497 -11.41154845 -4.8965172 0 0 Z " fill="#F7F7F9" transform="translate(894,461)"/>
<path d="M0 0 C2.31 0 4.62 0 7 0 C7.34144043 0.61818604 7.68288086 1.23637207 8.03466797 1.87329102 C19.55704852 22.66954736 31.66651335 42.10144699 47.82421875 59.63671875 C49.30558938 61.24574789 50.76590904 62.87435634 52.20703125 64.51953125 C76.39456389 92.09586005 110.48296958 113.92086953 145 126 C146.3997427 126.51993713 147.79817704 127.04340951 149.1953125 127.5703125 C157.0114571 130.51662339 164.92328358 132.87137007 173 135 C172 138 172 138 170 140 C170 140.33 170 140.66 170 141 C163.03947384 140.42550681 156.84754914 138.55194033 150.25 136.3125 C149.18467041 135.95454346 148.11934082 135.59658691 147.02172852 135.2277832 C140.561595 133.01012543 134.45337016 130.62594974 128.46484375 127.32421875 C125.99459023 125.99709364 123.46838074 124.91511015 120.88549805 123.82836914 C86.78027581 108.84468158 54.55694798 82.43725257 32 53 C31.22914062 52.04609375 30.45828125 51.0921875 29.6640625 50.109375 C0 12.86553628 0 12.86553628 0 0 Z " fill="#24224A" transform="translate(1139,648)"/>
<path d="M0 0 C3.3 0 6.6 0 10 0 C10.33 10.89 10.66 21.78 11 33 C13.97 31.02 16.94 29.04 20 27 C25.03070655 25.86857045 29.59515191 26.51468884 34.4375 28.1875 C39.33500376 31.65158802 41.44413477 35.27889254 43 41 C43.16163015 43.64134946 43.23469585 46.16884656 43.1953125 48.8046875 C43.1924826 49.5286673 43.18965271 50.25264709 43.18673706 50.99856567 C43.17562087 53.2908849 43.15053312 55.58280063 43.125 57.875 C43.1149591 59.43749432 43.10583519 60.99999482 43.09765625 62.5625 C43.07570973 66.37515338 43.04124013 70.18750848 43 74 C39.37 74 35.74 74 32 74 C31.97494385 73.05157227 31.9498877 72.10314453 31.92407227 71.12597656 C31.8288116 67.59981968 31.72958559 64.07382041 31.62768555 60.54785156 C31.58443293 59.02315614 31.54275115 57.49841531 31.50268555 55.97363281 C31.44474797 53.77915778 31.38112205 51.58490932 31.31640625 49.390625 C31.29133751 48.37165131 31.29133751 48.37165131 31.26576233 47.33209229 C31.20313138 42.55805343 31.20313138 42.55805343 30 38 C25.0790431 36.35968103 21.43415085 36.28292457 16.75 38.625 C12.92488258 41.9285105 11.25488759 45.13734884 10.56762695 50.15966797 C10.54144287 51.25939941 10.51525879 52.35913086 10.48828125 53.4921875 C10.45283203 54.69101562 10.41738281 55.88984375 10.38085938 57.125 C10.34702148 58.98125 10.34702148 58.98125 10.3125 60.875 C10.27833984 62.13570312 10.24417969 63.39640625 10.20898438 64.6953125 C10.12674833 67.79678616 10.05751532 70.89798569 10 74 C6.37 74 2.74 74 -1 74 C-1.02312484 64.49925675 -1.0409158 54.99852312 -1.05181217 45.49775791 C-1.05704069 41.08662996 -1.06413777 36.6755212 -1.07543945 32.2644043 C-1.08626944 28.01098885 -1.09227707 23.75759191 -1.09487724 19.50416374 C-1.09673129 17.87778367 -1.10035152 16.25140466 -1.10573006 14.62503242 C-1.11294198 12.35489807 -1.11399088 10.08484115 -1.11352539 7.81469727 C-1.115746 6.52008072 -1.11796661 5.22546417 -1.12025452 3.89161682 C-1 1 -1 1 0 0 Z " fill="#F4F4F7" transform="translate(913,459)"/>
<path d="M0 0 C0 0.66 0 1.32 0 2 C-0.66 2 -1.32 2 -2 2 C-2 2.66 -2 3.32 -2 4 C-1.01 4.66 -0.02 5.32 1 6 C-11.27822581 16.46920821 -11.27822581 16.46920821 -17.1875 21.125 C-22.32736303 25.19857054 -27.15585753 29.5825846 -32 34 C-33.47408978 35.33894403 -34.95285162 36.6727732 -36.4375 38 C-37.05496094 38.556875 -37.67242188 39.11375 -38.30859375 39.6875 C-40 41 -40 41 -43 42 C-43.33 42.99 -43.66 43.98 -44 45 C-45.54663086 46.52758789 -45.54663086 46.52758789 -47.52734375 48.16015625 C-52.09899272 52.04101449 -56.33536983 56.18741709 -60.5625 60.4375 C-61.27857422 61.14970703 -61.99464844 61.86191406 -62.73242188 62.59570312 C-66.80516665 66.67585963 -70.70206596 70.85358471 -74.46557617 75.22045898 C-76.3936382 77.4565201 -78.38293433 79.63343965 -80.375 81.8125 C-85.10576093 87.06180977 -89.56997052 92.49623945 -94 98 C-94.92538408 99.13313697 -95.85118393 100.26593449 -96.77734375 101.3984375 C-105.84369812 112.53869593 -114.50539223 124.01057617 -122.3125 136.07421875 C-122.84810547 136.89881592 -123.38371094 137.72341309 -123.93554688 138.57299805 C-124.95450363 140.15374853 -125.96168059 141.74217479 -126.95507812 143.33911133 C-129.53837357 147.35893341 -131.15849118 149.76761594 -136 151 C-138.00751815 151.98482022 -140.00934459 152.98152514 -142 154 C-140.42727605 149.43823164 -138.00913234 145.76465146 -135.3125 141.8125 C-134.86261719 141.14613525 -134.41273438 140.47977051 -133.94921875 139.79321289 C-130.35770034 134.48738579 -126.70669676 129.22596517 -123 124 C-122.27554688 122.95714844 -121.55109375 121.91429687 -120.8046875 120.83984375 C-114.74779489 112.17083089 -108.22615168 103.95633488 -101.48828125 95.80859375 C-100.17765597 94.21589164 -98.88430708 92.60900623 -97.59375 91 C-93.08216838 85.37686929 -88.35296424 80.02096347 -83.42358398 74.76489258 C-80.83337438 72.00238521 -78.31021919 69.20535771 -75.84765625 66.328125 C-71.48433863 61.31712743 -66.79020545 56.64011756 -62.0847168 51.9543457 C-60.56508332 50.4400742 -59.05087483 48.9205257 -57.53710938 47.40039062 C-52.73649107 42.59653661 -47.88642564 37.90084973 -42.72338867 33.48266602 C-40.20289441 31.31423399 -37.79794316 29.02630972 -35.375 26.75 C-29.45171036 21.26307302 -23.19403941 16.28326482 -16.78759766 11.37597656 C-14.9459905 9.95842699 -13.11844204 8.52418918 -11.29296875 7.0859375 C-10.11213586 6.1612582 -8.93115195 5.23677171 -7.75 4.3125 C-7.20093994 3.87800537 -6.65187988 3.44351074 -6.08618164 2.99584961 C-2.22738046 0 -2.22738046 0 0 0 Z " fill="#201F3C" transform="translate(1039,91)"/>
<path d="M0 0 C2 1.625 2 1.625 3 4 C2.84943441 9.96373252 0.13110752 12.58544144 -3.89331055 16.5402832 C-4.50804733 17.16378159 -5.12278412 17.78727997 -5.75614929 18.42967224 C-7.78729121 20.48278185 -9.83613319 22.51710468 -11.88671875 24.55078125 C-13.30654418 25.97397551 -14.72562673 27.39791124 -16.14399719 28.82255554 C-19.11780008 31.80372629 -22.10044943 34.77567529 -25.08959961 37.74145508 C-28.91888275 41.54225183 -32.72528087 45.36505419 -36.52533245 49.19505024 C-39.45112041 52.13891272 -42.38872181 55.07075353 -45.33002663 57.99910545 C-46.73829995 59.40404526 -48.14287371 60.8127036 -49.54364586 62.22512245 C-51.50381832 64.19800477 -53.47932774 66.15412945 -55.4597168 68.10668945 C-56.32267365 68.98482803 -56.32267365 68.98482803 -57.20306396 69.88070679 C-60.63566981 73.22456157 -62.99260363 74.87357891 -68 75 C-70.375 74 -70.375 74 -72 72 C-72.47446646 68.75018118 -72.74387975 66.21680202 -70.97520256 63.3236866 C-69.44383586 61.53188658 -67.8309417 59.88513437 -66.14428711 58.23852539 C-65.52154907 57.60352112 -64.89881104 56.96851685 -64.25720215 56.31427002 C-62.19782465 54.22413172 -60.11394851 52.1605878 -58.02734375 50.09765625 C-56.58577081 48.65136704 -55.14523828 47.20404014 -53.70570374 45.75572205 C-50.68623143 42.72593404 -47.65447215 39.70915705 -44.61352539 36.70092773 C-40.7178689 32.84515365 -36.85448476 28.95880374 -32.99976254 25.06215763 C-30.03123453 22.06832635 -27.04622429 19.09137907 -24.05597115 16.11926079 C-22.62470175 14.69265868 -21.19860779 13.26084456 -19.77784538 11.82377815 C-17.78884532 9.8169844 -15.77875315 7.83402411 -13.76147461 5.85571289 C-12.887528 4.96051186 -12.887528 4.96051186 -11.9959259 4.04722595 C-8.09113613 0.28092645 -5.64039246 -0.82348499 0 0 Z " fill="#F9F8FA" transform="translate(778,486)"/>
<path d="M0 0 C-0.66 1.32 -1.32 2.64 -2 4 C-2.66 4 -3.32 4 -4 4 C-3.67 4.99 -3.34 5.98 -3 7 C-17.71684512 14.37114082 -32.28566363 21.07133596 -48 26 C-48.71526855 26.23267578 -49.43053711 26.46535156 -50.16748047 26.70507812 C-94.48339049 41.1044157 -146.07285548 42.64416642 -191 30 C-190.6875 28.125 -190.6875 28.125 -190 26 C-183.38910723 21.59273815 -170.70763259 26.19874336 -163.14648438 27.5390625 C-150.5300453 29.71067822 -138.02628329 30.23981626 -125.25 30.25 C-124.482323 30.25067474 -123.714646 30.25134949 -122.92370605 30.25204468 C-83.21538313 30.19697143 -43.68602101 20.54179286 -8.64624023 1.70581055 C-3.31152658 -1.10384219 -3.31152658 -1.10384219 0 0 Z " fill="#1C1D3E" transform="translate(1499,760)"/>
<path d="M0 0 C5.64343951 5.20932878 7.25422983 10.17894378 7.59765625 17.80761719 C7.65847683 21.95565785 7.61238417 26.10208385 7.5625 30.25 C7.55245155 31.70702511 7.54332899 33.16405691 7.53515625 34.62109375 C7.51328711 38.16420329 7.47885977 41.70705812 7.4375 45.25 C3.8075 45.25 0.1775 45.25 -3.5625 45.25 C-3.57708252 44.33710205 -3.59166504 43.4242041 -3.60668945 42.48364258 C-3.66790795 39.08201389 -3.74208873 35.68117319 -3.82495117 32.2800293 C-3.85811259 30.81073578 -3.88617178 29.34131756 -3.90893555 27.87182617 C-3.94264519 25.75385632 -3.99496433 23.63702005 -4.05078125 21.51953125 C-4.07696533 20.24698486 -4.10314941 18.97443848 -4.13012695 17.66333008 C-4.62368708 13.76696412 -5.76313334 11.04936666 -8.5625 8.25 C-13.20160515 7.77822659 -16.21495517 7.5035812 -19.9375 10.5 C-24.12243449 14.88421708 -24.81173919 17.72210354 -24.9765625 23.765625 C-25.03457031 25.64121094 -25.03457031 25.64121094 -25.09375 27.5546875 C-25.14015625 29.50761719 -25.14015625 29.50761719 -25.1875 31.5 C-25.22617188 32.81742188 -25.26484375 34.13484375 -25.3046875 35.4921875 C-25.39896182 38.74465161 -25.4845675 41.99710996 -25.5625 45.25 C-29.1925 45.25 -32.8225 45.25 -36.5625 45.25 C-36.5625 30.07 -36.5625 14.89 -36.5625 -0.75 C-32.9325 -0.75 -29.3025 -0.75 -25.5625 -0.75 C-25.2325 0.9 -24.9025 2.55 -24.5625 4.25 C-23.634375 3.445625 -22.70625 2.64125 -21.75 1.8125 C-15.84725144 -3.30321542 -6.81889502 -3.34963264 0 0 Z " fill="#F7F7F9" transform="translate(1175.5625,487.75)"/>
<path d="M0 0 C1.485 0.99 1.485 0.99 3 2 C4.32 1.34 5.64 0.68 7 0 C9.69207267 2.6870781 12.37769155 5.37997158 15.05078125 8.0859375 C20.85917681 13.9527089 26.68977519 19.67011369 33 25 C33.99 25.86753906 34.98 26.73507812 36 27.62890625 C60.67949899 49.20774901 87.99021389 68.63663491 116.43359375 84.9140625 C125.77827711 90.33483133 125.77827711 90.33483133 127 94 C126.34 94 125.68 94 125 94 C124.67 94.66 124.34 95.32 124 96 C114.26629991 94.04988071 105.14965403 86.71825617 96.9375 81.4375 C95.84767822 80.73786133 94.75785645 80.03822266 93.63500977 79.31738281 C84.90037191 73.66672871 76.40363187 67.7552065 68.06445312 61.53808594 C65.98237426 59.98686824 63.89047029 58.4496903 61.796875 56.9140625 C54.29863085 51.38583087 47.05374952 45.65092157 40 39.56640625 C37.27214878 37.23281478 34.49560233 34.98561718 31.6875 32.75 C25.47610413 27.69927372 19.7149829 22.18915102 13.90625 16.6875 C9.00698302 12.04760597 4.01431673 7.51500977 -1 3 C-0.67 2.01 -0.34 1.02 0 0 Z " fill="#211E2F" transform="translate(976,931)"/>
<path d="M0 0 C1.26199219 0.00322266 2.52398437 0.00644531 3.82421875 0.00976562 C5.08621094 -0.00634766 6.34820312 -0.02246094 7.6484375 -0.0390625 C8.85113281 -0.03970703 10.05382812 -0.04035156 11.29296875 -0.04101562 C12.95489258 -0.04548706 12.95489258 -0.04548706 14.65039062 -0.05004883 C15.53275391 0.07281494 16.41511719 0.19567871 17.32421875 0.32226562 C20.36462164 4.88286996 19.65312248 9.39574577 19.63671875 14.75976562 C19.65283203 15.80970703 19.66894531 16.85964844 19.68554688 17.94140625 C19.68651367 19.45831055 19.68651367 19.45831055 19.6875 21.00585938 C19.69048096 21.92939209 19.69346191 22.8529248 19.6965332 23.80444336 C19.24220152 26.87691721 18.60341986 28.20749281 16.32421875 30.32226562 C13.73632812 30.82397461 13.73632812 30.82397461 10.66796875 30.81835938 C9.56324219 30.81900391 8.45851563 30.81964844 7.3203125 30.8203125 C5.58974609 30.7903418 5.58974609 30.7903418 3.82421875 30.75976562 C2.67050781 30.76685547 1.51679688 30.77394531 0.328125 30.78125 C-8.05782438 30.71764595 -8.05782438 30.71764595 -10.5065918 29.15087891 C-12.15008985 26.58044658 -12.0479486 24.66822422 -12.0390625 21.63085938 C-12.0380957 19.96700195 -12.0380957 19.96700195 -12.03710938 18.26953125 C-12.02099609 17.11130859 -12.00488281 15.95308594 -11.98828125 14.75976562 C-11.99150391 13.59767578 -11.99472656 12.43558594 -11.99804688 11.23828125 C-11.93098184 0.75784607 -10.37085759 0.06113582 0 0 Z " fill="#1F1228" transform="translate(382.67578125,325.677734375)"/>
<path d="M0 0 C2.56616211 -0.38818359 2.56616211 -0.38818359 5.77734375 -0.3984375 C6.93041016 -0.40230469 8.08347656 -0.40617188 9.27148438 -0.41015625 C11.08616211 -0.39275391 11.08616211 -0.39275391 12.9375 -0.375 C14.14341797 -0.38660156 15.34933594 -0.39820313 16.59179688 -0.41015625 C17.74615234 -0.40628906 18.90050781 -0.40242187 20.08984375 -0.3984375 C21.15066162 -0.39505371 22.21147949 -0.39166992 23.30444336 -0.38818359 C26 0 26 0 27.84448242 1.20092773 C29.40084987 3.62409945 29.38790581 5.31270571 29.3984375 8.18359375 C29.40423828 9.69856445 29.40423828 9.69856445 29.41015625 11.24414062 C29.39855469 12.29794922 29.38695312 13.35175781 29.375 14.4375 C29.38660156 15.48744141 29.39820313 16.53738281 29.41015625 17.61914062 C29.40628906 18.63041016 29.40242188 19.64167969 29.3984375 20.68359375 C29.39505371 21.60712646 29.39166992 22.53065918 29.38818359 23.48217773 C28.91579786 26.54614882 28.27404362 27.88747723 26 30 C23.41210938 30.50170898 23.41210938 30.50170898 20.34375 30.49609375 C19.23902344 30.49673828 18.13429688 30.49738281 16.99609375 30.49804688 C15.26552734 30.46807617 15.26552734 30.46807617 13.5 30.4375 C12.34628906 30.44458984 11.19257813 30.45167969 10.00390625 30.45898438 C1.60959936 30.39531694 1.60959936 30.39531694 -0.83081055 28.81274414 C-2.44221748 26.31437362 -2.37237541 24.52375404 -2.36328125 21.5625 C-2.36263672 20.50289062 -2.36199219 19.44328125 -2.36132812 18.3515625 C-2.34521484 17.24554687 -2.32910156 16.13953125 -2.3125 15 C-2.31572266 13.89398437 -2.31894531 12.78796875 -2.32226562 11.6484375 C-2.26707949 3.40061924 -2.26707949 3.40061924 0 0 Z " fill="#1F1228" transform="translate(373,629)"/>
<path d="M0 0 C2.31 0 4.62 0 7 0 C7.22139648 0.94617188 7.44279297 1.89234375 7.67089844 2.8671875 C8.51213822 6.46089572 9.35497809 10.05422724 10.19824219 13.64746094 C10.55933914 15.18707607 10.92003222 16.72678598 11.28027344 18.26660156 C18.04912909 47.29158853 18.04912909 47.29158853 27.6328125 75.48828125 C28.64246406 78.08164339 29.61421807 80.67473408 30.5546875 83.29296875 C37.39581639 102.60852512 37.39581639 102.60852512 46.14331055 121.09790039 C47.30788381 123.68359156 46.74216167 125.32821797 46 128 C45.67 127.34 45.34 126.68 45 126 C43.80890625 125.82210937 43.80890625 125.82210937 42.59375 125.640625 C40 125 40 125 38.59375 123.171875 C38.2328125 122.37265625 37.871875 121.5734375 37.5 120.75 C37.0875 119.84507812 36.675 118.94015625 36.25 118.0078125 C34.49620876 113.78775233 32.84178379 109.53712888 31.23828125 105.2578125 C30.11660548 102.30677907 28.9244477 99.40413807 27.6875 96.5 C17.65941635 72.46393699 10.38735892 47.90366285 4 22.6875 C3.79819122 21.89801971 3.59638245 21.10853943 3.38845825 20.2951355 C2.81336163 18.03593895 2.24869288 15.77440425 1.6875 13.51171875 C1.51604965 12.84094299 1.3445993 12.17016724 1.16795349 11.47906494 C0.21511661 7.57267879 -0.1674109 4.01669895 0 0 Z " fill="#373261" transform="translate(824,648)"/>
<path d="M0 0 C1.59908203 0.00616333 1.59908203 0.00616333 3.23046875 0.01245117 C4.38804688 0.01438477 5.545625 0.01631836 6.73828125 0.01831055 C7.95257812 0.03055664 9.166875 0.04280273 10.41796875 0.05541992 C11.63226562 0.05606445 12.8465625 0.05670898 14.09765625 0.05737305 C23.13747451 0.1026728 23.13747451 0.1026728 25.41796875 1.24291992 C25.47579915 5.70119919 25.5115073 10.15938272 25.54296875 14.61791992 C25.55972656 15.88893555 25.57648438 17.15995117 25.59375 18.46948242 C25.60019531 19.68120117 25.60664062 20.89291992 25.61328125 22.14135742 C25.62375488 23.26203613 25.63422852 24.38271484 25.64501953 25.53735352 C25.41796875 28.24291992 25.41796875 28.24291992 23.41796875 30.24291992 C20.8359375 30.50170898 20.8359375 30.50170898 17.60546875 30.50854492 C16.44789062 30.51112305 15.2903125 30.51370117 14.09765625 30.51635742 C12.88335938 30.50862305 11.6690625 30.50088867 10.41796875 30.49291992 C9.20367188 30.5006543 7.989375 30.50838867 6.73828125 30.51635742 C5.00191406 30.51249023 5.00191406 30.51249023 3.23046875 30.50854492 C1.63138672 30.50516113 1.63138672 30.50516113 0 30.50170898 C-2.58203125 30.24291992 -2.58203125 30.24291992 -4.58203125 28.24291992 C-4.84082031 25.66088867 -4.84082031 25.66088867 -4.84765625 22.43041992 C-4.85023437 21.2728418 -4.8528125 20.11526367 -4.85546875 18.92260742 C-4.84773438 17.70831055 -4.84 16.49401367 -4.83203125 15.24291992 C-4.83976562 14.02862305 -4.8475 12.81432617 -4.85546875 11.56323242 C-4.85289063 10.4056543 -4.8503125 9.24807617 -4.84765625 8.05541992 C-4.84540039 6.98936523 -4.84314453 5.92331055 -4.84082031 4.82495117 C-4.48049337 1.22984006 -3.59975007 0.33866786 0 0 Z " fill="#03092F" transform="translate(1524.58203125,628.757080078125)"/>
<path d="M0 0 C1.15757813 -0.00257813 2.31515625 -0.00515625 3.5078125 -0.0078125 C4.72210937 -0.00007813 5.93640625 0.00765625 7.1875 0.015625 C8.40179687 0.00789063 9.61609375 0.00015625 10.8671875 -0.0078125 C12.60355469 -0.00394531 12.60355469 -0.00394531 14.375 0 C15.44105469 0.00225586 16.50710938 0.00451172 17.60546875 0.00683594 C20.1875 0.265625 20.1875 0.265625 22.1875 2.265625 C22.44628906 4.84765625 22.44628906 4.84765625 22.453125 8.078125 C22.45699219 9.81449219 22.45699219 9.81449219 22.4609375 11.5859375 C22.45320313 12.80023438 22.44546875 14.01453125 22.4375 15.265625 C22.44523437 16.47992188 22.45296875 17.69421875 22.4609375 18.9453125 C22.45835938 20.10289062 22.45578125 21.26046875 22.453125 22.453125 C22.45086914 23.51917969 22.44861328 24.58523438 22.44628906 25.68359375 C22.1875 28.265625 22.1875 28.265625 20.1875 30.265625 C15.87192601 30.72468521 11.52465845 30.58963551 7.1875 30.578125 C5.36605469 30.60229492 5.36605469 30.60229492 3.5078125 30.62695312 C2.35023437 30.62759766 1.19265625 30.62824219 0 30.62890625 C-1.06605469 30.63188721 -2.13210938 30.63486816 -3.23046875 30.63793945 C-4.08253906 30.51507568 -4.93460938 30.39221191 -5.8125 30.265625 C-8.08781766 26.85264852 -8.06924679 25.58431595 -8.078125 21.57421875 C-8.08070312 20.46498047 -8.08328125 19.35574219 -8.0859375 18.21289062 C-8.07820313 17.05466797 -8.07046875 15.89644531 -8.0625 14.703125 C-8.07023437 13.54103516 -8.07796875 12.37894531 -8.0859375 11.18164062 C-8.08335938 10.07369141 -8.08078125 8.96574219 -8.078125 7.82421875 C-8.07586914 6.80642334 -8.07361328 5.78862793 -8.07128906 4.73999023 C-7.53243466 -0.41216957 -4.39305426 0.00929606 0 0 Z " fill="#03092E" transform="translate(1527.8125,325.734375)"/>
<path d="M0 0 C2.6875 1.75 2.6875 1.75 3.875 3.5625 C3.58312965 6.96765411 1.69525601 9.07299199 -0.3125 11.75 C-1.1375 11.255 -1.9625 10.76 -2.8125 10.25 C-6.90316474 8.49685797 -9.93478985 7.9738721 -14.3125 8.75 C-18.02099861 10.5355734 -19.80808245 11.76409297 -21.6875 15.4375 C-22.77502236 21.20136852 -23.38727879 26.34933537 -20.5625 31.6875 C-18.36548193 34.67788571 -17.61379005 35.47422674 -14.3125 36.75 C-8.98985559 37.4080724 -4.2898178 36.79197653 0.6875 34.75 C2.0075 37.39 3.3275 40.03 4.6875 42.75 C-2.82290784 46.76719489 -10.05858719 47.8707729 -18.4921875 46.359375 C-25.42874263 44.25411702 -29.38238878 38.98338725 -32.984375 32.94921875 C-35.62243363 26.59460104 -35.36658145 18.8345656 -33.65625 12.20703125 C-31.10443832 6.52045091 -26.54993113 2.36595796 -21.01953125 -0.39453125 C-14.64571992 -2.408766 -6.29167143 -2.39371283 0 0 Z " fill="#F9F8FA" transform="translate(1124.3125,487.25)"/>
<path d="M0 0 C3.63 0 7.26 0 11 0 C11 24.42 11 48.84 11 74 C7.37 74 3.74 74 0 74 C0 49.58 0 25.16 0 0 Z " fill="#F5F4F7" transform="translate(1289,459)"/>
<path d="M0 0 C2.31 0 4.62 0 7 0 C7.03067447 11.79165571 7.05100289 23.58331009 7.0625 35.375 C7.06335602 36.2467474 7.06421204 37.1184948 7.06509399 38.01665878 C7.09083264 67.68992374 6.80852528 97.33615367 6 127 C4.35 126.67 2.7 126.34 1 126 C0.82684913 114.37509014 0.66052171 102.75009107 0.5 91.125 C0.48812275 90.26512985 0.4762455 89.4052597 0.46400833 88.51933289 C0.05866948 59.01094147 -0.13840177 29.51151482 0 0 Z " fill="#3A3159" transform="translate(683,648)"/>
<path d="M0 0 C5.10209922 2.69544864 8.17381037 5.5214311 10 11 C10.53856933 15.63522786 10.45178019 19.07906346 8.375 23.3125 C5.35864311 26.72574595 2.66530406 29.4776004 -1.953125 30.3828125 C-7.03061073 30.67350825 -10.12012968 29.42872261 -14 26 C-17.76527324 20.85412658 -17.82254387 15.14166091 -17 9 C-13.47699919 1.69303535 -8.13020206 -1.45068311 0 0 Z " fill="#0A0A45" transform="translate(1057,495)"/>
<path d="M0 0 C4.36818245 1.18396864 7.45983863 4.22114783 10.3203125 7.62890625 C12.12980977 13.05739805 11.99927047 18.59203235 10.1953125 24.00390625 C7.48193648 27.80263268 4.86265123 30.18240231 0.140625 31.01171875 C-3.87354345 31.21445453 -6.36668746 30.77381368 -10.0546875 29.06640625 C-14.18923074 25.22718753 -15.79876192 21.14345127 -16.0546875 15.56640625 C-15.5113341 9.86119559 -13.89202358 6.95670291 -10.0546875 2.75390625 C-6.35960545 0.42737311 -4.29175565 -0.22549903 0 0 Z " fill="#0A0A45" transform="translate(993.6796875,494.37109375)"/>
<path d="M0 0 C2.31 0 4.62 0 7 0 C7.34144043 0.61818604 7.68288086 1.23637207 8.03466797 1.87329102 C20.14245311 23.7261193 32.98992378 43.63513895 50 62 C51.65027217 63.78757896 53.29616217 65.57921412 54.9375 67.375 C55.66839844 68.16648437 56.39929687 68.95796875 57.15234375 69.7734375 C59.76648705 72.92367361 61 74.87453816 61 79 C59.22338867 79.68847656 59.22338867 79.68847656 57 80 C55.2199707 78.81933594 55.2199707 78.81933594 53.42578125 76.984375 C52.76271973 76.31575439 52.0996582 75.64713379 51.41650391 74.95825195 C50.72218262 74.22952881 50.02786133 73.50080566 49.3125 72.75 C48.59497559 72.01289795 47.87745117 71.2757959 47.13818359 70.51635742 C41.74504617 64.92001624 36.74048035 59.16172493 32 53 C31.22785156 52.04480469 30.45570312 51.08960938 29.66015625 50.10546875 C0 12.85456161 0 12.85456161 0 0 Z " fill="#27275A" transform="translate(1139,648)"/>
<path d="M0 0 C0.33 0 0.66 0 1 0 C1.02354081 14.85767461 1.04108177 29.71534776 1.05181217 44.57303715 C1.05693073 51.47439771 1.06388684 58.37574657 1.07543945 65.27709961 C1.08661349 71.95557755 1.09230899 78.63404091 1.09487724 85.31252861 C1.09670404 87.84178291 1.10027017 90.37103666 1.10573006 92.90028572 C1.13828763 108.62902632 0.84905808 124.29278886 0 140 C-1.32 140.33 -2.64 140.66 -4 141 C-5.95786655 134.45612062 -6.27466796 128.52550544 -6.22705078 121.71875 C-6.22734283 120.61542831 -6.22763489 119.51210663 -6.22793579 118.37535095 C-6.22654909 114.75015231 -6.21101881 111.12516248 -6.1953125 107.5 C-6.19158003 104.97794711 -6.18873416 102.45589276 -6.18673706 99.93383789 C-6.17989654 93.98772996 -6.16415421 88.04168836 -6.14403808 82.09561443 C-6.12162253 75.32168679 -6.11067148 68.54775545 -6.10064721 61.7737999 C-6.07978622 47.84915896 -6.04464571 33.92458355 -6 20 C-5.67 20 -5.34 20 -5 20 C-4.855625 21.11375 -4.71125 22.2275 -4.5625 23.375 C-4.21627965 26.82142047 -4.21627965 26.82142047 -3 29 C-3.66 29 -4.32 29 -5 29 C-5 38.57 -5 48.14 -5 58 C-3.68 58.33 -2.36 58.66 -1 59 C-0.67 39.53 -0.34 20.06 0 0 Z " fill="#252031" transform="translate(689,867)"/>
<path d="M0 0 C3.47259778 1.15753259 3.9973839 1.99773589 6.07421875 4.90234375 C6.65534424 5.70542969 7.23646973 6.50851562 7.83520508 7.3359375 C8.4464624 8.19445312 9.05771973 9.05296875 9.6875 9.9375 C10.95428338 11.68724555 12.22250003 13.43595438 13.4921875 15.18359375 C14.40436035 16.44212158 14.40436035 16.44212158 15.33496094 17.72607422 C18.41605708 21.93389379 21.68714031 25.97424646 25 30 C25.71414063 30.886875 26.42828125 31.77375 27.1640625 32.6875 C31.58222044 38.15326241 36.13396238 43.45343432 40.8671875 48.6484375 C42.85917559 50.84473207 44.81007312 53.07024685 46.75 55.3125 C48.73347477 57.60112473 50.75389494 59.77702651 52.9375 61.875 C55 64 55 64 55 66 C55.99 66.33 56.98 66.66 58 67 C59.84499398 68.87617698 61.3683599 70.92737609 63 73 C62.67 73.66 62.34 74.32 62 75 C58.46171566 75 56.09980522 74.87188249 53.2800293 72.63647461 C52.43565308 71.77807983 52.43565308 71.77807983 51.57421875 70.90234375 C50.94620361 70.26997803 50.31818848 69.6376123 49.67114258 68.98608398 C49.01654053 68.31005127 48.36193848 67.63401855 47.6875 66.9375 C47.01033936 66.24793213 46.33317871 65.55836426 45.63549805 64.84790039 C41.25747196 60.36501775 37.02651748 55.80186439 33 51 C32.10433687 49.96617056 31.20703955 48.93375584 30.30859375 47.90234375 C23.80873903 40.42137888 17.55447762 32.79044712 11.50634766 24.94042969 C9.81568078 22.76256578 8.10148436 20.60424533 6.38671875 18.4453125 C5.17403876 16.90138748 3.96179261 15.3571216 2.75 13.8125 C2.16420166 13.08119873 1.57840332 12.34989746 0.97485352 11.59643555 C0.44174561 10.91105713 -0.0913623 10.22567871 -0.640625 9.51953125 C-1.12047852 8.91214111 -1.60033203 8.30475098 -2.09472656 7.67895508 C-2.3934668 7.1248999 -2.69220703 6.57084473 -3 6 C-2 3 -2 3 0 0 Z " fill="#29253D" transform="translate(919,858)"/>
<path d="M0 0 C0.33 0 0.66 0 1 0 C1 48.84 1 97.68 1 148 C0.67 148 0.34 148 0 148 C-0.33 135.46 -0.66 122.92 -1 110 C-4.28908811 114.38545081 -4.52643191 117.0405978 -4.6875 122.25 C-4.72166016 122.99507813 -4.75582031 123.74015625 -4.79101562 124.5078125 C-4.87314054 126.33802492 -4.93825653 128.16898669 -5 130 C-5.33 130 -5.66 130 -6 130 C-6.06943698 118.44769198 -6.12277921 106.89543341 -6.15543652 95.3429594 C-6.17110849 89.97897165 -6.19237475 84.61512642 -6.22631836 79.2512207 C-6.25885712 74.07707628 -6.27684147 68.90306916 -6.28463173 63.72883034 C-6.2901851 61.75240733 -6.30102917 59.77599204 -6.31719017 57.7996273 C-6.33889156 55.03641759 -6.34196999 52.27377894 -6.34057617 49.51049805 C-6.351362 48.68906815 -6.36214783 47.86763824 -6.3732605 47.02131653 C-6.34252587 41.40960081 -6.34252587 41.40960081 -4.60245228 39.32877827 C-3 38 -3 38 -1 37 C-0.67 24.79 -0.34 12.58 0 0 Z " fill="#28223C" transform="translate(689,94)"/>
<path d="M0 0 C0.66 0.33 1.32 0.66 2 1 C2.89563401 25.12495022 3.09089849 49.23628314 3.0625 73.375 C3.06164398 74.10777161 3.06078796 74.84054321 3.05990601 75.59552002 C3.0484481 84.73036907 3.028275 93.86518669 3 103 C2.67 103 2.34 103 2 103 C1.67 98.38 1.34 93.76 1 89 C-0.485 89.495 -0.485 89.495 -2 90 C-2.33 102.87 -2.66 115.74 -3 129 C-3.33 129 -3.66 129 -4 129 C-4.02327824 115.21215455 -4.04099344 101.42431385 -4.05181217 87.63645267 C-4.05700735 81.23264428 -4.06404315 74.82884943 -4.07543945 68.42504883 C-4.08638884 62.23288784 -4.09230211 56.0407398 -4.09487724 49.84856987 C-4.09670994 47.49856805 -4.10028822 45.14856686 -4.10573006 42.79857063 C-4.15272261 21.64373438 -4.15272261 21.64373438 -3.68139648 11.16967773 C-3.59570656 9.2148069 -3.59570656 9.2148069 -3.50828552 7.22044373 C-2.98349057 3.89539797 -2.27558944 2.42311333 0 0 Z " fill="#2F294C" transform="translate(687,203)"/>
<path d="M0 0 C0.33 0 0.66 0 1 0 C1 31.68 1 63.36 1 96 C-1.31 96 -3.62 96 -6 96 C-6 69.6 -6 43.2 -6 16 C-5.34 17.32 -4.68 18.64 -4 20 C-4.33 20.66 -4.66 21.32 -5 22 C-3.68 22.33 -2.36 22.66 -1 23 C-0.67 15.41 -0.34 7.82 0 0 Z " fill="#1F1A26" transform="translate(689,984)"/>
<path d="M0 0 C0.99 0 1.98 0 3 0 C3.495 0.99 3.495 0.99 4 2 C4.66 2 5.32 2 6 2 C5.41188446 5.50547814 4.19777718 7.1523022 1.75 9.6875 C-4.68925611 16.71110141 -10.29013663 24.38317454 -16 32 C-16.5971582 32.7935791 -17.19431641 33.5871582 -17.80957031 34.40478516 C-24.64836156 43.50913204 -31.25043482 52.59331216 -37.03515625 62.41015625 C-39.23321899 65.30740396 -40.57204368 65.98249551 -44 67 C-46.00751815 67.98482022 -48.00934459 68.98152514 -50 70 C-48.42727605 65.43823164 -46.00913234 61.76465146 -43.3125 57.8125 C-42.86261719 57.14613525 -42.41273438 56.47977051 -41.94921875 55.79321289 C-38.35770034 50.48738579 -34.70669676 45.22596517 -31 40 C-30.27554688 38.95714844 -29.55109375 37.91429687 -28.8046875 36.83984375 C-23.22326119 28.85184178 -17.26686237 21.24735438 -11.0625 13.734375 C-9.1680056 11.43993178 -7.30844846 9.12846667 -5.5 6.765625 C-4.448125 5.39664063 -4.448125 5.39664063 -3.375 4 C-2.78460937 3.21625 -2.19421875 2.4325 -1.5859375 1.625 C-0.80089844 0.820625 -0.80089844 0.820625 0 0 Z " fill="#25234A" transform="translate(947,175)"/>
<path d="M0 0 C1.35169533 -0.01031754 1.35169533 -0.01031754 2.73069763 -0.02084351 C5.6186839 -0.03790359 8.50649729 -0.04429592 11.39453125 -0.046875 C12.3775824 -0.04854675 13.36063354 -0.05021851 14.37347412 -0.05194092 C28.85757059 -0.05341958 42.95146198 0.40347087 57.20703125 3.203125 C58.12967773 3.38391602 59.05232422 3.56470703 60.00292969 3.75097656 C62.40582822 4.22785562 64.80705613 4.71177661 67.20703125 5.203125 C66.87703125 7.183125 66.54703125 9.163125 66.20703125 11.203125 C65.71203125 9.718125 65.71203125 9.718125 65.20703125 8.203125 C64.87832031 8.71359375 64.54960938 9.2240625 64.2109375 9.75 C61.0286255 12.05764145 57.81389356 11.03710839 54.14453125 10.453125 C53.41169922 10.35257812 52.67886719 10.25203125 51.92382812 10.1484375 C46.56127835 9.38024855 46.56127835 9.38024855 44.20703125 8.203125 C41.69740508 8.04592288 39.21152247 7.94447706 36.69921875 7.88671875 C35.56179733 7.8555471 35.56179733 7.8555471 34.40139771 7.82374573 C32.78572304 7.78041761 31.1699855 7.73938372 29.55419922 7.70043945 C27.14013322 7.64203079 24.72634623 7.57658232 22.3125 7.50976562 C12.97446172 7.25962044 12.97446172 7.25962044 3.63378906 7.22900391 C2.90950714 7.23489029 2.18522522 7.24077667 1.43899536 7.24684143 C-0.53019074 7.26812645 -2.49924473 7.30077618 -4.46826172 7.33422852 C-8.84745492 7.16154334 -11.89850615 6.1503563 -15.79296875 4.203125 C-15.79296875 3.543125 -15.79296875 2.883125 -15.79296875 2.203125 C-17.11296875 1.873125 -18.43296875 1.543125 -19.79296875 1.203125 C-13.17968985 0.44389297 -6.65519535 0.03479433 0 0 Z " fill="#1A1B49" transform="translate(1360.79296875,280.796875)"/>
<path d="M0 0 C0.33 0 0.66 0 1 0 C1.01030746 0.93516449 1.02061493 1.87032898 1.03123474 2.83383179 C1.12885946 11.63352895 1.23158304 20.43315367 1.33933926 29.23273277 C1.3945769 33.75701814 1.44799825 38.28130997 1.49731445 42.80566406 C1.54494559 47.16936608 1.59728795 51.53298817 1.65294075 55.896595 C1.67336998 57.56399173 1.69208211 59.23141038 1.70907402 60.89884567 C1.7331055 63.22870585 1.76316166 65.55841435 1.79467773 67.88818359 C1.8004332 68.58229843 1.80618866 69.27641327 1.81211853 69.99156189 C1.82920692 73.61855479 1.82920692 73.61855479 3 77 C3.99 77 4.98 77 6 77 C6.02316953 86.18816331 6.04093864 95.37631657 6.05181217 104.56450272 C6.05703089 108.83093548 6.06411023 113.09734827 6.07543945 117.36376953 C6.0863042 121.48103787 6.09228446 125.59828698 6.09487724 129.71556854 C6.09672501 131.28643852 6.10033321 132.85730745 6.10573006 134.42816925 C6.11298806 136.62824275 6.11398893 138.82823677 6.11352539 141.02832031 C6.115746 142.28074524 6.11796661 143.53317017 6.12025452 144.82354736 C5.93301925 149.76925729 5.93301925 149.76925729 5 152 C4.01 152.33 3.02 152.66 2 153 C0.78530545 146.13887375 0.9390084 139.42336636 1.0390625 132.47460938 C1.08007227 127.34497103 1.02743853 122.24540831 0.77954102 117.12207031 C-0.29783433 94.65975534 -0.11467858 72.19497462 -0.06866455 49.71276855 C-0.0582866 44.09367249 -0.05383646 38.47457171 -0.04882812 32.85546875 C-0.03822289 21.90363371 -0.0212407 10.95181923 0 0 Z " fill="#342C4A" transform="translate(683,698)"/>
<path d="M0 0 C0.66 -0.33 1.32 -0.66 2 -1 C2.66 -0.67 3.32 -0.34 4 0 C3 3 3 3 1.42797852 3.9921875 C0.75178467 4.28351563 0.07559082 4.57484375 -0.62109375 4.875 C-1.38268799 5.2145874 -2.14428223 5.5541748 -2.92895508 5.90405273 C-3.7567749 6.26571533 -4.58459473 6.62737793 -5.4375 7 C-20.15449108 13.70624785 -37.41639991 22.41639991 -49 34 C-50.85287502 34.07226502 -52.70833878 34.0838122 -54.5625 34.0625 C-55.57441406 34.05347656 -56.58632812 34.04445313 -57.62890625 34.03515625 C-58.41136719 34.02355469 -59.19382812 34.01195312 -60 34 C-56.28234503 30.09223767 -52.36394513 26.8489784 -48 23.6875 C-47.33701904 23.20603516 -46.67403809 22.72457031 -45.9909668 22.22851562 C-40.46877756 18.26136114 -34.83598473 14.54533633 -28.95068359 11.13330078 C-27.49583564 10.28806872 -26.04650137 9.43333276 -24.60009766 8.57373047 C-21.95364997 7.00683949 -19.29175132 5.46954098 -16.625 3.9375 C-15.78042236 3.43541016 -14.93584473 2.93332031 -14.06567383 2.41601562 C-8.89233358 -0.49946632 -5.99581588 -1.47958764 0 0 Z " fill="#212257" transform="translate(1269,306)"/>
<path d="M0 0 C0.33 0 0.66 0 1 0 C1.18030762 0.54817383 1.36061523 1.09634766 1.54638672 1.66113281 C9.89515443 26.98731513 9.89515443 26.98731513 21.14331055 51.09790039 C22.30788381 53.68359156 21.74216167 55.32821797 21 58 C20.67 57.34 20.34 56.68 20 56 C19.2059375 55.88140625 18.411875 55.7628125 17.59375 55.640625 C15 55 15 55 13.59375 53.171875 C13.2328125 52.37265625 12.871875 51.5734375 12.5 50.75 C12.0875 49.84507812 11.675 48.94015625 11.25 48.0078125 C9.50048781 43.79804878 7.84958025 39.55794229 6.25 35.2890625 C5.06183296 32.16269797 3.80068357 29.08099422 2.5 26 C0.67392706 21.6383608 -1.12718767 17.26867187 -2.875 12.875 C-3.30554688 11.79992187 -3.73609375 10.72484375 -4.1796875 9.6171875 C-5 7 -5 7 -4 5 C-2.70647667 3.30225062 -1.37482707 1.63260714 0 0 Z " fill="#342D57" transform="translate(849,718)"/>
<path d="M0 0 C2.475 0.495 2.475 0.495 5 1 C3.79313081 4.62060756 2.92494946 4.94239173 -0.26953125 6.85546875 C-1.15229736 7.39115479 -2.03506348 7.92684082 -2.94458008 8.47875977 C-3.89099365 9.04264404 -4.83740723 9.60652832 -5.8125 10.1875 C-7.75080537 11.36586376 -9.68831144 12.54554333 -11.625 13.7265625 C-12.55957031 14.29407227 -13.49414062 14.86158203 -14.45703125 15.44628906 C-20.89452414 19.37948844 -27.14250387 23.50850537 -33.06640625 28.1875 C-33.77949951 28.74429443 -34.49259277 29.30108887 -35.22729492 29.87475586 C-36.62955011 30.97669858 -38.01977954 32.09416852 -39.39575195 33.22875977 C-44.23792274 37.03510693 -44.23792274 37.03510693 -48.4765625 36.83984375 C-49.30929687 36.56269531 -50.14203125 36.28554687 -51 36 C-50.01 35.505 -50.01 35.505 -49 35 C-49 34.34 -49 33.68 -49 33 C-48.34 33 -47.68 33 -47 33 C-47.495 31.515 -47.495 31.515 -48 30 C-38.38751302 22.93441128 -28.69167462 16.00142409 -18.8125 9.3125 C-17.94085205 8.7129248 -17.0692041 8.11334961 -16.17114258 7.49560547 C-11.50079775 4.36278744 -7.5204316 2.15787131 -2 1 C-2 1.66 -2 2.32 -2 3 C-1.34 2.34 -0.68 1.68 0 1 C0 0.67 0 0.34 0 0 Z " fill="#1C1A31" transform="translate(1086,60)"/>
<path d="M0 0 C7.59 0 15.18 0 23 0 C23 0.33 23 0.66 23 1 C19.7 1 16.4 1 13 1 C13 14.2 13 27.4 13 41 C12.01 40.34 11.02 39.68 10 39 C8.515 39.495 8.515 39.495 7 40 C6.31742012 26.98922863 5.84447798 14.02928914 6 1 C4.02 1 2.04 1 0 1 C0 0.67 0 0.34 0 0 Z " fill="#382E48" transform="translate(375,666)"/>
<path d="M0 0 C0.99 1.32 1.98 2.64 3 4 C3.99 4 4.98 4 6 4 C6 9.61 6 15.22 6 21 C5.01 20.34 4.02 19.68 3 19 C2.01 19.33 1.02 19.66 0 20 C0 13.4 0 6.8 0 0 Z " fill="#392C44" transform="translate(382,686)"/>
<path d="M0 0 C1.74023438 0.08701172 1.74023438 0.08701172 3.515625 0.17578125 C5.27132812 0.24345703 5.27132812 0.24345703 7.0625 0.3125 C8.40054688 0.39951172 8.40054688 0.39951172 9.765625 0.48828125 C9.765625 3.48828125 9.765625 3.48828125 8.765625 5.48828125 C9.095625 6.14828125 9.425625 6.80828125 9.765625 7.48828125 C4.485625 7.48828125 -0.794375 7.48828125 -6.234375 7.48828125 C-6.564375 6.82828125 -6.894375 6.16828125 -7.234375 5.48828125 C-5.04580876 2.04833185 -4.13091003 0.62362772 0 0 Z " fill="#2C2130" transform="translate(118.234375,399.51171875)"/>
<path d="M0 0 C7.59 0 15.18 0 23 0 C23 0.33 23 0.66 23 1 C19.7 1 16.4 1 13 1 C12.9175 1.7425 12.835 2.485 12.75 3.25 C12 6 12 6 10 7.8125 C7.06208984 11.02583924 7.28584449 13.7123327 7 18 C6.67 18 6.34 18 6 18 C6 12.39 6 6.78 6 1 C4.02 1 2.04 1 0 1 C0 0.67 0 0.34 0 0 Z " fill="#443954" transform="translate(375,666)"/>
<path d="M0 0 C0.99 0.33 1.98 0.66 3 1 C2.01 1 1.02 1 0 1 C0 0.67 0 0.34 0 0 Z M-1 2 C-0.34 2 0.32 2 1 2 C1.66 3.32 2.32 4.64 3 6 C2.505 6.433125 2.01 6.86625 1.5 7.3125 C-0.33218192 8.99740483 -0.33218192 8.99740483 0 12 C-0.66 12 -1.32 12 -2 12 C-2.33 12.66 -2.66 13.32 -3 14 C-3.99 14.495 -3.99 14.495 -5 15 C-6 12 -6 12 -5.00390625 9.51953125 C-4.52824219 8.62621094 -4.05257813 7.73289062 -3.5625 6.8125 C-3.08941406 5.91144531 -2.61632813 5.01039063 -2.12890625 4.08203125 C-1.75636719 3.39496094 -1.38382813 2.70789063 -1 2 Z " fill="#151941" transform="translate(1601,647)"/>
<path d="M0 0 C1.98 0.66 3.96 1.32 6 2 C6 2.66 6 3.32 6 4 C5.01 4.66 4.02 5.32 3 6 C3.33 6.66 3.66 7.32 4 8 C2.68 7.34 1.36 6.68 0 6 C0 4.02 0 2.04 0 0 Z " fill="#181B47" transform="translate(1436,288)"/>
<path d="M0 0 C0.99 0.33 1.98 0.66 3 1 C1.75 3.5 1.75 3.5 0 6 C-1.32 6 -2.64 6 -4 6 C-3.0022242 3.00667261 -2.2477975 2.05233685 0 0 Z " fill="#281D2C" transform="translate(77,405)"/>
<path d="M0 0 C0 1.65 0 3.3 0 5 C-1.98 5 -3.96 5 -6 5 C-5.1875 3.0625 -5.1875 3.0625 -4 1 C-1 0 -1 0 0 0 Z " fill="#3A3561" transform="translate(689,336)"/>
</svg>
