<?xml version="1.0" encoding="UTF-8"?>
<svg version="1.1" xmlns="http://www.w3.org/2000/svg" width="474" height="166">
<path d="M0 0 C156.42 0 312.84 0 474 0 C474 54.78 474 109.56 474 166 C317.58 166 161.16 166 0 166 C0 111.22 0 56.44 0 0 Z " fill="#FDFDFD" transform="translate(0,0)"/>
<path d="M0 0 C3.22886009 -0.11667875 6.45717445 -0.18740546 9.6875 -0.25 C11.05551758 -0.30027344 11.05551758 -0.30027344 12.45117188 -0.3515625 C16.58493341 -0.41168994 19.34924233 -0.31842105 23.10546875 1.51953125 C25.69023486 4.90370956 25.73693584 7.84437959 25.625 11.9375 C25.65400391 12.99227539 25.65400391 12.99227539 25.68359375 14.06835938 C25.64820295 17.84455785 25.0858538 19.87693752 22.91796875 22.984375 C19.23444573 25.52881661 17.11960973 25.51960793 12.6875 25.3125 C10.80611328 25.24482422 10.80611328 25.24482422 8.88671875 25.17578125 C7.93410156 25.11777344 6.98148437 25.05976562 6 25 C6 29.29 6 33.58 6 38 C3.525 38.495 3.525 38.495 1 39 C0 38 0 38 -0.11352539 34.39819336 C-0.11336625 32.79540144 -0.10767063 31.1926044 -0.09765625 29.58984375 C-0.0962413 28.74780899 -0.09482635 27.90577423 -0.09336853 27.03822327 C-0.08775263 24.33794665 -0.07519748 21.63775172 -0.0625 18.9375 C-0.05748705 17.11132932 -0.05292379 15.28515734 -0.04882812 13.45898438 C-0.03777804 8.97262458 -0.02050279 4.48632616 0 0 Z " fill="#4A4A4A" transform="translate(297,64)"/>
<path d="M0 0 C5.10498863 5.9186372 9.02022703 13.32950642 8.62890625 21.26953125 C7.11504395 27.84213837 3.67493398 35.21671068 -2 39 C-4.94921875 38.9921875 -4.94921875 38.9921875 -8 38 C-10.08203125 35.3828125 -10.08203125 35.3828125 -11.8125 32.125 C-12.39644531 31.05507812 -12.98039062 29.98515625 -13.58203125 28.8828125 C-16.03264063 23.90058186 -16.94902638 19.48916858 -16 14 C-14.971904 11.41184412 -13.92277966 8.98226664 -12.6875 6.5 C-12.22537109 5.56450317 -12.22537109 5.56450317 -11.75390625 4.61010742 C-8.7639023 -1.07074304 -6.0924822 -1.65004726 0 0 Z " fill="#181818" transform="translate(133,65)"/>
<path d="M0 0 C19 0 19 0 24 3 C26.41922981 7.83845963 25.55371217 14.73688017 25 20 C24.05199312 22.35035808 23.4091198 23.11339818 21.265625 24.4140625 C15.96177158 25.78574873 10.4206221 25.33414794 5 25 C5 29.29 5 33.58 5 38 C2.525 38.495 2.525 38.495 0 39 C0 26.13 0 13.26 0 0 Z " fill="#0D0D0D" transform="translate(189,64)"/>
<path d="M0 0 C1.96777344 0.20214844 1.96777344 0.20214844 4 1 C4.91503906 2.61816406 4.91503906 2.61816406 5.515625 4.765625 C5.75345703 5.57966797 5.99128906 6.39371094 6.23632812 7.23242188 C6.48833984 8.14572266 6.74035156 9.05902344 7 10 C7.61973575 12.05730851 8.23953038 14.11459929 8.859375 16.171875 C9.49203658 18.36387676 10.12220677 20.55659898 10.75 22.75 C11.07871094 23.85988281 11.40742188 24.96976563 11.74609375 26.11328125 C12.05160156 27.18449219 12.35710937 28.25570312 12.671875 29.359375 C12.9512793 30.32327148 13.23068359 31.28716797 13.51855469 32.28027344 C14.03380121 35.19094599 13.76891577 37.16776253 13 40 C11.68 39.67 10.36 39.34 9 39 C8.34 36.03 7.68 33.06 7 30 C3.37 30 -0.26 30 -4 30 C-4.66 32.97 -5.32 35.94 -6 39 C-7.65 39 -9.3 39 -11 39 C-10.47240518 31.21797634 -8.40606744 24.39290028 -6 17 C-5.5507006 15.54900571 -5.10419601 14.09714374 -4.66015625 12.64453125 C-4.43618164 11.91435791 -4.21220703 11.18418457 -3.98144531 10.43188477 C-3.54060228 8.99399636 -3.10111606 7.55569117 -2.66308594 6.11694336 C-1.112652 1.112652 -1.112652 1.112652 0 0 Z " fill="#161616" transform="translate(164,64)"/>
<path d="M0 0 C1.83666992 0.0378418 1.83666992 0.0378418 4 1 C5.09848557 3.50980283 5.88712952 5.77471214 6.61328125 8.39453125 C6.83195358 9.13829514 7.05062592 9.88205902 7.27592468 10.64836121 C7.73514081 12.22391751 8.18600195 13.80192927 8.62915039 15.38208008 C9.30849456 17.79825416 10.01616309 20.2047051 10.72851562 22.61132812 C11.17098112 24.14273605 11.61179146 25.67462337 12.05078125 27.20703125 C12.26213211 27.92695755 12.47348297 28.64688385 12.6912384 29.3886261 C14.40488088 35.58184264 14.40488088 35.58184264 13 39 C11.68 39 10.36 39 9 39 C7.50178941 35.62902617 7 33.79557881 7 30 C3.04 30 -0.92 30 -5 30 C-5.33 32.64 -5.66 35.28 -6 38 C-8.475 38.495 -8.475 38.495 -11 39 C-10.44182143 31.01375275 -8.38362413 23.76622281 -6.0625 16.125 C-5.70220703 14.90296875 -5.34191406 13.6809375 -4.97070312 12.421875 C-2.2675047 3.40125705 -2.2675047 3.40125705 0 0 Z " fill="#111111" transform="translate(272,64)"/>
<path d="M0 0 C1.13308594 -0.0299707 1.13308594 -0.0299707 2.2890625 -0.06054688 C6.34800108 -0.05699885 8.18964052 0.14707382 11.6640625 2.46484375 C12.63472656 3.44130859 12.63472656 3.44130859 13.625 4.4375 C13.295 6.0875 12.965 7.7375 12.625 9.4375 C11.305 9.1075 9.985 8.7775 8.625 8.4375 C8.625 7.4475 8.625 6.4575 8.625 5.4375 C3.675 5.4375 -1.275 5.4375 -6.375 5.4375 C-5.6015625 6.46488281 -4.828125 7.49226563 -4.03125 8.55078125 C-1.87457884 11.41675143 0.27347408 14.28897338 2.41796875 17.1640625 C4.32982322 19.72416665 6.26136928 22.26329486 8.23828125 24.7734375 C8.96402344 25.71445313 9.68976563 26.65546875 10.4375 27.625 C11.40623047 28.85283203 11.40623047 28.85283203 12.39453125 30.10546875 C13.625 32.4375 13.625 32.4375 13.51171875 35.05078125 C12.07503784 38.91779462 12.07503784 38.91779462 9.625 40.4375 C6.71523995 40.78984229 4.09518787 40.94726553 1.1875 40.9375 C0.42373047 40.96585938 -0.34003906 40.99421875 -1.12695312 41.0234375 C-5.24190938 41.03776285 -6.80067483 40.96784927 -9.92578125 38.08203125 C-11.375 35.4375 -11.375 35.4375 -11.125 32.625 C-10.8775 31.903125 -10.63 31.18125 -10.375 30.4375 C-8.4375 30.75 -8.4375 30.75 -6.375 31.4375 C-6.045 32.4275 -5.715 33.4175 -5.375 34.4375 C1.555 34.9325 1.555 34.9325 8.625 35.4375 C7.5525 33.9525 6.48 32.4675 5.375 30.9375 C4.65828125 29.94492188 3.9415625 28.95234375 3.203125 27.9296875 C1.32277821 25.35508189 -0.61477923 22.83213743 -2.578125 20.3203125 C-3.12307617 19.61583984 -3.66802734 18.91136719 -4.22949219 18.18554688 C-5.3141979 16.78605119 -6.40843168 15.3938814 -7.51269531 14.00976562 C-11.23331799 9.18133053 -11.23331799 9.18133053 -11.90625 5.6484375 C-11.375 3.4375 -11.375 3.4375 -10.3984375 1.65234375 C-7.13238353 -0.30854966 -3.69680511 -0.03434532 0 0 Z " fill="#1E1E1E" transform="translate(91.375,63.5625)"/>
<path d="M0 0 C0.9583374 0.00523682 1.9166748 0.01047363 2.90405273 0.01586914 C4.45576172 0.02070312 4.45576172 0.02070312 6.03881836 0.02563477 C7.12743164 0.03401367 8.21604492 0.04239258 9.33764648 0.05102539 C10.97636719 0.05779297 10.97636719 0.05779297 12.64819336 0.06469727 C15.35723144 0.07652713 18.06616248 0.09300996 20.77514648 0.11352539 C21.33764648 2.05102539 21.33764648 2.05102539 21.77514648 4.11352539 C21.44514648 4.44352539 21.11514648 4.77352539 20.77514648 5.11352539 C17.80514648 5.11352539 14.83514648 5.11352539 11.77514648 5.11352539 C11.77514648 15.01352539 11.77514648 24.91352539 11.77514648 35.11352539 C14.74514648 35.11352539 17.71514648 35.11352539 20.77514648 35.11352539 C21.10514648 36.43352539 21.43514648 37.75352539 21.77514648 39.11352539 C20.77514648 40.11352539 20.77514648 40.11352539 18.55029297 40.22705078 C17.59195557 40.22181396 16.63361816 40.21657715 15.64624023 40.21118164 C14.09453125 40.20634766 14.09453125 40.20634766 12.51147461 40.20141602 C11.42286133 40.19303711 10.33424805 40.1846582 9.21264648 40.17602539 C7.57392578 40.16925781 7.57392578 40.16925781 5.90209961 40.16235352 C3.19306153 40.15052366 0.48413049 40.13404082 -2.22485352 40.11352539 C-2.78735352 38.17602539 -2.78735352 38.17602539 -3.22485352 36.11352539 C-2.72985352 35.61852539 -2.72985352 35.61852539 -2.22485352 35.11352539 C0.74514648 35.11352539 3.71514648 35.11352539 6.77514648 35.11352539 C6.77514648 25.21352539 6.77514648 15.31352539 6.77514648 5.11352539 C3.80514648 5.11352539 0.83514648 5.11352539 -2.22485352 5.11352539 C-2.55485352 3.79352539 -2.88485352 2.47352539 -3.22485352 1.11352539 C-2.22485352 0.11352539 -2.22485352 0.11352539 0 0 Z " fill="#181818" transform="translate(336.224853515625,63.886474609375)"/>
<path d="M0 0 C3.72905817 1.24301939 3.96411358 2.19892849 5.6875 5.625 C7.747468 10.0715163 8.93696489 13.0596397 8 18 C6.19937195 22.11497996 4.16920124 26.06832275 2 30 C-1 29 -1 29 -2.38671875 26.7421875 C-7.0095498 16.55252387 -7.0095498 16.55252387 -6 11 C-2.37886598 2.37886598 -2.37886598 2.37886598 0 0 Z " fill="#F4F4F4" transform="translate(128,69)"/>
<path d="M0 0 C5.98645512 1.57538293 10.79068643 4.78417178 16 8 C18.32270551 9.35319255 20.65975367 10.67725207 23 12 C23.4453125 14.67578125 23.4453125 14.67578125 23 18 C20.92489153 20.19348714 18.451976 21.64083182 15.875 23.1875 C15.20984375 23.61224609 14.5446875 24.03699219 13.859375 24.47460938 C10.03274086 26.88688952 6.17282924 29.24015462 2 31 C1.01 30.67 0.02 30.34 -1 30 C-0.40107049 26.37592852 -0.11046284 26.08183467 3.08984375 23.7109375 C4.364939 22.92013962 5.64787439 22.1418735 6.9375 21.375 C11.73632226 18.54562147 11.73632226 18.54562147 16 15 C15.52054932 14.71801758 15.04109863 14.43603516 14.54711914 14.14550781 C12.37769138 12.85980399 10.22021279 11.55526042 8.0625 10.25 C7.30775391 9.8065625 6.55300781 9.363125 5.77539062 8.90625 C5.05673828 8.46796875 4.33808594 8.0296875 3.59765625 7.578125 C2.93258057 7.18012695 2.26750488 6.78212891 1.58227539 6.37207031 C-0.36512328 4.6833833 -0.71670992 3.53302314 -1 1 C-0.67 0.67 -0.34 0.34 0 0 Z " fill="#721471" transform="translate(408,69)"/>
<path d="M0 0 C2.0625 0.4375 2.0625 0.4375 4 1 C3.62732433 3.49067718 3.35193984 4.69481532 1.41772461 6.37207031 C0.75264893 6.77006836 0.08757324 7.16806641 -0.59765625 7.578125 C-1.31630859 8.01640625 -2.03496094 8.4546875 -2.77539062 8.90625 C-3.90750977 9.57140625 -3.90750977 9.57140625 -5.0625 10.25 C-5.82111328 10.70890625 -6.57972656 11.1678125 -7.36132812 11.640625 C-9.2345411 12.77162151 -11.11388193 13.89070522 -13 15 C-10.02856642 18.16034591 -6.57517395 20.10048025 -2.8125 22.1875 C-2.15830078 22.55552734 -1.50410156 22.92355469 -0.83007812 23.30273438 C0.77746961 24.2062466 2.38840651 25.1037241 4 26 C4 27.65 4 29.3 4 31 C-0.93236009 30.44879213 -4.43809312 28.18805324 -8.5625 25.625 C-9.5515332 25.02558594 -9.5515332 25.02558594 -10.56054688 24.4140625 C-11.82928998 23.63879033 -13.09096852 22.85180213 -14.34423828 22.05175781 C-15.69537747 21.19349954 -17.07641826 20.38246686 -18.46484375 19.5859375 C-20 18 -20 18 -20.83984375 15.17578125 C-19.83583289 11.37921925 -19.11174419 11.05767497 -15.87890625 9.04296875 C-14.11934597 8.06809521 -12.34640844 7.11707059 -10.5625 6.1875 C-8.7926812 5.2231838 -7.02313513 4.25836685 -5.25390625 3.29296875 C-4.46314697 2.8755542 -3.6723877 2.45813965 -2.85766602 2.02807617 C-1.04399111 1.13608733 -1.04399111 1.13608733 0 0 Z " fill="#791B77" transform="translate(65,69)"/>
<path d="M0 0 C3.43734063 -0.08703823 6.87439837 -0.14040272 10.3125 -0.1875 C11.28896484 -0.21263672 12.26542969 -0.23777344 13.27148438 -0.26367188 C14.20927734 -0.27333984 15.14707031 -0.28300781 16.11328125 -0.29296875 C16.97735596 -0.3086792 17.84143066 -0.32438965 18.73168945 -0.34057617 C21 0 21 0 22.78271484 1.2878418 C24.85372719 4.2008 24.38892577 7.56389735 24.3125 11 C24.31733398 12.08667969 24.31733398 12.08667969 24.32226562 13.1953125 C24.28385299 16.9807029 24.14469404 18.78295894 22 22 C20.68 22 19.36 22 18 22 C18 16.39 18 10.78 18 5 C11.07 4.505 11.07 4.505 4 4 C4.04125 5.876875 4.0825 7.75375 4.125 9.6875 C4.22004943 14.01224888 3.85131483 17.07142246 2 21 C-0.71486934 17.02389214 -0.22440753 12.86098023 -0.125 8.25 C-0.11597656 7.45722656 -0.10695313 6.66445312 -0.09765625 5.84765625 C-0.07417012 3.89830719 -0.03830137 1.94911425 0 0 Z " fill="#161616" transform="translate(298,65)"/>
<path d="M0 0 C10.83984375 -0.09765625 10.83984375 -0.09765625 14 0 C15 1 15 1 15.1328125 3.90625 C15.13023437 5.0921875 15.12765625 6.278125 15.125 7.5 C15.12757813 8.6859375 15.13015625 9.871875 15.1328125 11.09375 C15 14 15 14 14 15 C9.33154772 15.14426614 4.67134047 15.04208415 0 15 C0 10.05 0 5.1 0 0 Z " fill="#F2F2F2" transform="translate(302,69)"/>
<path d="M0 0 C10.83984375 -0.09765625 10.83984375 -0.09765625 14 0 C15 1 15 1 15.1328125 3.90625 C15.13023437 5.0921875 15.12765625 6.278125 15.125 7.5 C15.12757813 8.6859375 15.13015625 9.871875 15.1328125 11.09375 C15 14 15 14 14 15 C9.33154772 15.14426614 4.67134047 15.04208415 0 15 C0 10.05 0 5.1 0 0 Z " fill="#F2F2F2" transform="translate(194,69)"/>
<path d="M0 0 C1.32 0.33 2.64 0.66 4 1 C3.67 2.98 3.34 4.96 3 7 C2.34 7 1.68 7 1 7 C0.64035156 8.25296875 0.64035156 8.25296875 0.2734375 9.53125 C-1.19339197 13.5267855 -3.14520669 16.89298141 -5.375 20.5 C-5.76171875 21.13808594 -6.1484375 21.77617188 -6.546875 22.43359375 C-8.3724608 25.42926977 -10.24722283 28.37039435 -12.1953125 31.2890625 C-14.04842296 33.96866898 -14.04842296 33.96866898 -15.5 36.875 C-15.995 37.57625 -16.49 38.2775 -17 39 C-18.32 39 -19.64 39 -21 39 C-20.42304667 34.29422438 -18.34537689 30.65355855 -16 26.625 C-15.60353271 25.93253174 -15.20706543 25.24006348 -14.79858398 24.52661133 C-5.02770678 7.54156018 -5.02770678 7.54156018 0 0 Z " fill="#7D207C" transform="translate(391,64)"/>
<path d="M0 0 C1.89135742 0.22924805 1.89135742 0.22924805 4 1 C5.02075195 2.88598633 5.02075195 2.88598633 5.73828125 5.33203125 C6.00060547 6.21310547 6.26292969 7.09417969 6.53320312 8.00195312 C6.79037109 8.92943359 7.04753906 9.85691406 7.3125 10.8125 C7.58900391 11.72837891 7.86550781 12.64425781 8.15039062 13.58789062 C10.31100045 21.06022637 10.31100045 21.06022637 9 25 C8.01 24.67 7.02 24.34 6 24 C6 24.66 6 25.32 6 26 C3.03 26 0.06 26 -3 26 C-2.68917128 24.24970238 -2.37626821 22.49977306 -2.0625 20.75 C-1.80146484 19.28820312 -1.80146484 19.28820312 -1.53515625 17.796875 C-0.1916521 10.77534965 -0.1916521 10.77534965 3 8 C1.35 7.01 -0.3 6.02 -2 5 C-1.34 3.35 -0.68 1.7 0 0 Z " fill="#2A2A2A" transform="translate(272,64)"/>
<path d="M0 0 C12.21 0 24.42 0 37 0 C37 1.65 37 3.3 37 5 C24.79 5 12.58 5 0 5 C0 3.35 0 1.7 0 0 Z " fill="#090909" transform="translate(219,106)"/>
<path d="M0 0 C1.01815982 8.52237482 -1.35121167 14.85149824 -6 22 C-9 24 -9 24 -11.875 24.1875 C-16.16355516 22.55784904 -17.09070112 20.09903523 -19.1171875 16.12890625 C-20 14 -20 14 -20 12 C-14.33846154 13.47692308 -14.33846154 13.47692308 -12.625 16.125 C-12.41875 16.74375 -12.2125 17.3625 -12 18 C-11.34 18 -10.68 18 -10 18 C-9.01 15.69 -8.02 13.38 -7 11 C-6.01 11 -5.02 11 -4 11 C-3.67 10.01 -3.34 9.02 -3 8 C-2.67 7.67 -2.34 7.34 -2 7 C-2.33 7 -2.66 7 -3 7 C-3 5.02 -3 3.04 -3 1 C-1 0 -1 0 0 0 Z " fill="#2A2A2A" transform="translate(140,80)"/>
<path d="M0 0 C5.80205656 5.64524422 5.80205656 5.64524422 8 9 C8 9.66 8 10.32 8 11 C3.38 11 -1.24 11 -6 11 C-8 7 -8 7 -8 4 C-8.99 3.67 -9.98 3.34 -11 3 C-5.25 1.875 -5.25 1.875 -3 3 C-2.67 2.34 -2.34 1.68 -2 1 C-1.34 0.67 -0.68 0.34 0 0 Z " fill="#EEEEEE" transform="translate(92,88)"/>
<path d="M0 0 C0.99 0 1.98 0 3 0 C3.33 4.62 3.66 9.24 4 14 C7.96 14.33 11.92 14.66 16 15 C16.33 15.99 16.66 16.98 17 18 C10.565 18.495 10.565 18.495 4 19 C3.67 21.31 3.34 23.62 3 26 C2.01 26.33 1.02 26.66 0 27 C0 18.09 0 9.18 0 0 Z " fill="#0D0D0D" transform="translate(190,70)"/>
<path d="M0 0 C6.27 0 12.54 0 19 0 C19 0.33 19 0.66 19 1 C13.06 1 7.12 1 1 1 C1 1.66 1 2.32 1 3 C2.32 3 3.64 3 5 3 C5 8.61 5 14.22 5 20 C4.67 20 4.34 20 4 20 C4 15.38 4 10.76 4 6 C3.01 6 2.02 6 1 6 C1 14.91 1 23.82 1 33 C1.99 32.505 1.99 32.505 3 32 C3.40729228 29.67843403 3.74438677 27.3431213 4 25 C4.33 25 4.66 25 5 25 C5 29.29 5 33.58 5 38 C2.525 38.495 2.525 38.495 0 39 C0 26.13 0 13.26 0 0 Z " fill="#2C2C2C" transform="translate(189,64)"/>
<path d="M0 0 C1.24233398 0.00483398 1.24233398 0.00483398 2.50976562 0.00976562 C3.33412109 -0.00634766 4.15847656 -0.02246094 5.0078125 -0.0390625 C5.80123047 -0.03970703 6.59464844 -0.04035156 7.41210938 -0.04101562 C8.137771 -0.04399658 8.86343262 -0.04697754 9.61108398 -0.05004883 C12.13719714 0.4295133 13.05398065 1.27551178 14.57226562 3.32226562 C14.25976562 6.00976562 14.25976562 6.00976562 13.57226562 8.32226562 C12.25226563 7.99226563 10.93226562 7.66226563 9.57226562 7.32226562 C9.57226562 6.33226563 9.57226562 5.34226562 9.57226562 4.32226562 C4.62226562 4.32226562 -0.32773438 4.32226562 -5.42773438 4.32226562 C-5.09773438 6.30226563 -4.76773438 8.28226562 -4.42773438 10.32226562 C-4.75773437 9.66226563 -5.08773437 9.00226563 -5.42773438 8.32226562 C-6.08773437 7.99226563 -6.74773437 7.66226563 -7.42773438 7.32226562 C-8.17773438 4.88476562 -8.17773438 4.88476562 -8.42773438 2.32226562 C-5.66436097 -0.44110778 -3.77225995 0.03376311 0 0 Z " fill="#0F0F0F" transform="translate(90.427734375,64.677734375)"/>
<path d="M0 0 C0.66 0 1.32 0 2 0 C2 0.99 2 1.98 2 3 C5.63 3 9.26 3 13 3 C12.67 3.99 12.34 4.98 12 6 C12.33 6.33 12.66 6.66 13 7 C13.08733213 8.74551566 13.10698445 10.49451338 13.09765625 12.2421875 C13.09443359 13.30824219 13.09121094 14.37429687 13.08789062 15.47265625 C13.07951172 16.59542969 13.07113281 17.71820313 13.0625 18.875 C13.05798828 19.99003906 13.05347656 21.10507813 13.04882812 22.25390625 C13.04007701 24.3266708 13.02928438 26.39942836 13.01586914 28.47216797 C13.00430184 30.31474993 13 32.15738173 13 34 C11.68 34.66 10.36 35.32 9 36 C8.01 35.34 7.02 34.68 6 34 C7.32 34 8.64 34 10 34 C10 24.1 10 14.2 10 4 C7.03 4 4.06 4 1 4 C0.67 2.68 0.34 1.36 0 0 Z " fill="#161616" transform="translate(333,65)"/>
<path d="M0 0 C0.66 0.33 1.32 0.66 2 1 C1.67 1.99 1.34 2.98 1 4 C2.36483958 6.20808542 2.36483958 6.20808542 5 8 C8.3580469 8.35791096 11.63536357 8.23115823 15 8 C15.33 8.66 15.66 9.32 16 10 C15.01 10.99 14.02 11.98 13 13 C13.66 13.66 14.32 14.32 15 15 C14.34 16.32 13.68 17.64 13 19 C13 17.68 13 16.36 13 15 C12.30519531 14.74089844 11.61039063 14.48179688 10.89453125 14.21484375 C7.68150106 12.86632501 4.71753959 11.28285215 1.6875 9.5625 C0.61886719 8.96566406 -0.44976562 8.36882812 -1.55078125 7.75390625 C-2.35902344 7.17511719 -3.16726562 6.59632812 -4 6 C-4 5.01 -4 4.02 -4 3 C-2 1.3125 -2 1.3125 0 0 Z " fill="#F5D9F4" transform="translate(56,80)"/>
<path d="M0 0 C7.41176471 0.70588235 7.41176471 0.70588235 10 2 C14.20884794 2.27498892 14.20884794 2.27498892 18.125 0.9375 C20 0 20 0 22.25 0.375 C22.8275 0.58125 23.405 0.7875 24 1 C23.67 2.32 23.34 3.64 23 5 C15.41 5 7.82 5 0 5 C-0.33 3.68 -0.66 2.36 -1 1 C-0.67 0.67 -0.34 0.34 0 0 Z " fill="#363636" transform="translate(334,99)"/>
<path d="M0 0 C5.28 0 10.56 0 16 0 C16 0.33 16 0.66 16 1 C14.95199219 1.09087891 14.95199219 1.09087891 13.8828125 1.18359375 C12.97273438 1.26738281 12.06265625 1.35117188 11.125 1.4375 C10.22007812 1.51871094 9.31515625 1.59992188 8.3828125 1.68359375 C5.98889139 1.86989285 5.98889139 1.86989285 4 3 C4.02320313 3.88042969 4.04640625 4.76085937 4.0703125 5.66796875 C4.08835937 6.82941406 4.10640625 7.99085937 4.125 9.1875 C4.14820313 10.33605469 4.17140625 11.48460938 4.1953125 12.66796875 C4.00484152 15.91740372 3.39360127 18.08660521 2 21 C-0.71486934 17.02389214 -0.22440753 12.86098023 -0.125 8.25 C-0.11597656 7.45722656 -0.10695313 6.66445312 -0.09765625 5.84765625 C-0.07417012 3.89830719 -0.03830137 1.94911425 0 0 Z " fill="#0E0E0E" transform="translate(298,65)"/>
<path d="M0 0 C12.21 0 24.42 0 37 0 C37 1.65 37 3.3 37 5 C24.79 5 12.58 5 0 5 C0 3.35 0 1.7 0 0 Z M1 1 C3.68508334 4.31533278 3.68508334 4.31533278 7.27807617 4.34057617 C8.6164677 4.34010264 9.95491946 4.32323735 11.29296875 4.29296875 C11.99899734 4.28872391 12.70502594 4.28447906 13.43244934 4.28010559 C15.68452303 4.26333034 17.93569742 4.22568243 20.1875 4.1875 C21.71548185 4.17245157 23.24347776 4.15876344 24.77148438 4.14648438 C28.51466872 4.11343089 32.25718196 4.06165832 36 4 C36 3.01 36 2.02 36 1 C24.45 1 12.9 1 1 1 Z " fill="#3F3F3F" transform="translate(219,106)"/>
<path d="M0 0 C0.99 0 1.98 0 3 0 C3.70146314 2.22481229 4.38565954 4.45507368 5.0625 6.6875 C5.44535156 7.92886719 5.82820312 9.17023438 6.22265625 10.44921875 C6.96785758 13.8531786 6.99851065 15.71559076 6 19 C4.68 18.67 3.36 18.34 2 18 C-0.1583195 11.92972642 -0.20852314 6.40629424 0 0 Z " fill="#2A2A2A" transform="translate(171,85)"/>
<path d="M0 0 C2.80367584 2.80367584 2.47048815 5.54884464 2.5 9.3125 C2.45429253 17.73161642 2.45429253 17.73161642 -0.125 20.4375 C-5.22080473 23.52961452 -12.30340952 22.35115969 -18 22 C-18 21.67 -18 21.34 -18 21 C-14.37 20.67 -10.74 20.34 -7 20 C-7 19.67 -7 19.34 -7 19 C-10.63 18.67 -14.26 18.34 -18 18 C-18 17.67 -18 17.34 -18 17 C-17.02417969 16.93941406 -16.04835937 16.87882812 -15.04296875 16.81640625 C-13.77066406 16.73261719 -12.49835938 16.64882812 -11.1875 16.5625 C-9.92292969 16.48128906 -8.65835938 16.40007812 -7.35546875 16.31640625 C-4.00818107 16.12815453 -4.00818107 16.12815453 -1 15 C-0.34 15.33 0.32 15.66 1 16 C0.67 10.72 0.34 5.44 0 0 Z " fill="#424242" transform="translate(212,67)"/>
<path d="M0 0 C0.33 1.32 0.66 2.64 1 4 C1.66 3.34 2.32 2.68 3 2 C3.35191406 2.90492187 3.35191406 2.90492187 3.7109375 3.828125 C5.3153573 6.53132927 6.85058687 7.32315896 9.625 8.75 C10.44226563 9.17796875 11.25953125 9.6059375 12.1015625 10.046875 C12.72804688 10.36140625 13.35453125 10.6759375 14 11 C11 12 11 12 7.8125 10.5625 C6.884375 10.046875 5.95625 9.53125 5 9 C5.33 9.99 5.66 10.98 6 12 C-0.75 11.25 -0.75 11.25 -3 9 C-3.125 6.375 -3.125 6.375 -3 4 C-2.34 3.67 -1.68 3.34 -1 3 C-0.67 2.01 -0.34 1.02 0 0 Z " fill="#F4FBEE" transform="translate(404,68)"/>
<path d="M0 0 C0.66 0.33 1.32 0.66 2 1 C2.05398987 3.27057377 2.09278742 5.54151288 2.125 7.8125 C2.14820313 9.07707031 2.17140625 10.34164062 2.1953125 11.64453125 C2 15 2 15 0 18 C-1.32 18 -2.64 18 -4 18 C-3.76603516 17.21689453 -3.76603516 17.21689453 -3.52734375 16.41796875 C-2.622793 12.27043607 -2.60008988 8.03150649 -2.37890625 3.80078125 C-2.25386719 2.87652344 -2.12882812 1.95226562 -2 1 C-1.34 0.67 -0.68 0.34 0 0 Z " fill="#0F0F0F" transform="translate(320,69)"/>
<path d="M0 0 C-0.37390532 2.57334835 -0.6967231 3.73073547 -2.671875 5.484375 C-9.57875345 9.69081977 -9.57875345 9.69081977 -14 9 C-14.33 8.34 -14.66 7.68 -15 7 C-12.86147591 4.73489661 -10.67088393 2.95220832 -8.0625 1.25 C-7.39347656 0.80140625 -6.72445312 0.3528125 -6.03515625 -0.109375 C-3.57208067 -1.18726604 -2.47819942 -0.90922753 0 0 Z " fill="#6F1672" transform="translate(69,70)"/>
<path d="M0 0 C2.18614424 2.18614424 2.68256535 3.53879949 3.625 6.4375 C3.88539063 7.21996094 4.14578125 8.00242187 4.4140625 8.80859375 C5 11 5 11 5 14 C2.03 14 -0.94 14 -4 14 C-3.52372025 12.04096255 -3.04388577 10.08278903 -2.5625 8.125 C-2.29566406 7.03445312 -2.02882812 5.94390625 -1.75390625 4.8203125 C-1 2 -1 2 0 0 Z " fill="#CECECE" transform="translate(165,76)"/>
<path d="M0 0 C1.9375 0.1875 1.9375 0.1875 4 1 C5.3125 2.8125 5.3125 2.8125 6 5 C5.625 7.25 5.625 7.25 5 9 C4.67 8.01 4.34 7.02 4 6 C3.01 5.67 2.02 5.34 1 5 C1 5.99 1 6.98 1 8 C0.01 8.495 0.01 8.495 -1 9 C-2.88029419 13.41729075 -2.88029419 13.41729075 -2 18 C-3.32 19.32 -4.64 20.64 -6 22 C-7.32556135 19.3488773 -6.71439538 18.46745582 -5.8203125 15.68359375 C-5.41619141 14.41418945 -5.41619141 14.41418945 -5.00390625 13.11914062 C-4.71386719 12.23419922 -4.42382812 11.34925781 -4.125 10.4375 C-3.84269531 9.54869141 -3.56039062 8.65988281 -3.26953125 7.74414062 C-1.14547596 1.14547596 -1.14547596 1.14547596 0 0 Z " fill="#3C3C3C" transform="translate(164,64)"/>
<path d="M0 0 C0.33 0.66 0.66 1.32 1 2 C3.02463255 2.65213292 3.02463255 2.65213292 5 3 C4.32829194 6.8063457 3.27253436 10.35206816 2 14 C0.35 14 -1.3 14 -3 14 C-2.58846263 9.02906176 -2.20399168 4.55491614 0 0 Z " fill="#1F1F1F" transform="translate(156,89)"/>
<path d="M0 0 C1.32 0 2.64 0 4 0 C3.34 3.3 2.68 6.6 2 10 C-1.96 10 -5.92 10 -10 10 C-9.67 9.34 -9.34 8.68 -9 8 C-9.99 7.67 -10.98 7.34 -12 7 C-11.67 6.01 -11.34 5.02 -11 4 C-10.34 4.33 -9.68 4.66 -9 5 C-7.29636178 5.22622081 -5.58671299 5.40888473 -3.875 5.5625 C-2.96492187 5.64628906 -2.05484375 5.73007813 -1.1171875 5.81640625 C-0.41851562 5.87699219 0.28015625 5.93757813 1 6 C0.67 4.02 0.34 2.04 0 0 Z " fill="#080808" transform="translate(169,84)"/>
<path d="M0 0 C1.65 0 3.3 0 5 0 C4.67 0.99 4.34 1.98 4 3 C5.32 2.67 6.64 2.34 8 2 C7.47731534 4.76276177 6.89130413 7.3260876 6 10 C5.34 9.67 4.68 9.34 4 9 C4 8.01 4 7.02 4 6 C0.61108678 6.68886787 -2.18011613 7.98716486 -5.25 9.5625 C-6.14203125 10.01753906 -7.0340625 10.47257812 -7.953125 10.94140625 C-8.62859375 11.29074219 -9.3040625 11.64007813 -10 12 C-9 9 -9 9 -6 7 C-5.67 6.01 -5.34 5.02 -5 4 C-3.68 4.33 -2.36 4.66 -1 5 C-0.67 3.35 -0.34 1.7 0 0 Z " fill="#F6F7F6" transform="translate(64,64)"/>
<path d="M0 0 C3 1 3 1 4.1875 2.8125 C5 5 5 5 5 9 C2.23735711 9.59732819 -0.16032769 10 -3 10 C-3.99 10.495 -3.99 10.495 -5 11 C-4.54917531 9.53932801 -4.08906463 8.08151968 -3.625 6.625 C-3.36976562 5.81289062 -3.11453125 5.00078125 -2.8515625 4.1640625 C-2 2 -2 2 0 0 Z " fill="#EBEBEB" transform="translate(128,69)"/>
<path d="M0 0 C0.66 0.66 1.32 1.32 2 2 C4.97 2.33 7.94 2.66 11 3 C11 12.9 11 22.8 11 33 C6.05 33.495 6.05 33.495 1 34 C0.505 32.515 0.505 32.515 0 31 C3.3 31.33 6.6 31.66 10 32 C10 22.76 10 13.52 10 4 C7.69 4.33 5.38 4.66 3 5 C2.01 5 1.02 5 0 5 C0 3.35 0 1.7 0 0 Z " fill="#D5D5D5" transform="translate(332,66)"/>
<path d="M0 0 C0 4.95 0 9.9 0 15 C-1.32 15 -2.64 15 -4 15 C-4 10.38 -4 5.76 -4 1 C-2 0 -2 0 0 0 Z " fill="#131313" transform="translate(302,88)"/>
<path d="M0 0 C5.69072165 1.48453608 5.69072165 1.48453608 7.125 3.875 C7.41375 4.57625 7.7025 5.2775 8 6 C9.29470975 7.37086915 10.62150897 8.71340837 12 10 C9.69 10.33 7.38 10.66 5 11 C4.16151196 9.54462432 3.32936066 8.08559627 2.5 6.625 C1.80390625 5.40683594 1.80390625 5.40683594 1.09375 4.1640625 C0 2 0 2 0 0 Z " fill="#1A1A1A" transform="translate(120,92)"/>
<path d="M0 0 C1.98 0.495 1.98 0.495 4 1 C4.33 3.31 4.66 5.62 5 8 C9.95 8.33 14.9 8.66 20 9 C20 9.33 20 9.66 20 10 C17.24835568 10.13517903 14.50335479 10.23415251 11.75 10.3125 C10.97269531 10.35439453 10.19539063 10.39628906 9.39453125 10.43945312 C3.61547797 10.56293717 3.61547797 10.56293717 0.4375 7.65625 C-1 5 -1 5 -0.75 2.1875 C-0.5025 1.465625 -0.255 0.74375 0 0 Z " fill="#4F4F4F" transform="translate(81,94)"/>
<path d="M0 0 C0.66 0 1.32 0 2 0 C3.90608098 3.21182149 4.22266247 5.53882603 4.125 9.25 C4.10695312 10.14203125 4.08890625 11.0340625 4.0703125 11.953125 C4.03550781 12.96632813 4.03550781 12.96632813 4 14 C3.67 14 3.34 14 3 14 C2.67 12.02 2.34 10.04 2 8 C2 8.66 2 9.32 2 10 C2 13 2 13 0.625 14.6875 C-1 16 -1 16 -3 16 C-2.83371094 15.44570312 -2.66742188 14.89140625 -2.49609375 14.3203125 C-1.77357485 10.94097212 -2.03264077 7.68000478 -2.16015625 4.2421875 C-2 2 -2 2 0 0 Z " fill="#292929" transform="translate(137,75)"/>
<path d="M0 0 C4.62239874 0.92447975 6.77056681 3.77056681 10 7 C8.25 10.875 8.25 10.875 6 12 C4.68 9.36 3.36 6.72 2 4 C0.68 4.33 -0.64 4.66 -2 5 C-2.66 4.01 -3.32 3.02 -4 2 C-2.68 2 -1.36 2 0 2 C0 1.34 0 0.68 0 0 Z " fill="#141414" transform="translate(128,66)"/>
<path d="M0 0 C0.66 0.33 1.32 0.66 2 1 C2.6328125 3.50390625 2.6328125 3.50390625 3.125 6.5625 C3.29257812 7.57441406 3.46015625 8.58632812 3.6328125 9.62890625 C3.75398438 10.41136719 3.87515625 11.19382812 4 12 C1.69 12 -0.62 12 -3 12 C-2.49202991 7.6822542 -1.80317221 3.96697886 0 0 Z " fill="#E6E6E6" transform="translate(273,77)"/>
<path d="M0 0 C2.00293347 3.00440021 2.49271626 4.70993945 3.125 8.1875 C3.29257812 9.08855469 3.46015625 9.98960938 3.6328125 10.91796875 C3.75398438 11.60503906 3.87515625 12.29210937 4 13 C2.35 13.33 0.7 13.66 -1 14 C-1.66 11.69 -2.32 9.38 -3 7 C-2.34 7 -1.68 7 -1 7 C-0.67 4.69 -0.34 2.38 0 0 Z " fill="#323232" transform="translate(282,89)"/>
<path d="M0 0 C3.63 1.98 7.26 3.96 11 6 C11 6.66 11 7.32 11 8 C9.35 8 7.7 8 6 8 C6 8.99 6 9.98 6 11 C3.83058138 9.91529069 2.67385457 8.74080876 1 7 C0.443125 6.443125 -0.11375 5.88625 -0.6875 5.3125 C-1.120625 4.879375 -1.55375 4.44625 -2 4 C-1.34 3.34 -0.68 2.68 0 2 C0 1.34 0 0.68 0 0 Z " fill="#83217F" transform="translate(420,75)"/>
<path d="M0 0 C6.27 0 12.54 0 19 0 C19 0.33 19 0.66 19 1 C13.06 1 7.12 1 1 1 C1 1.66 1 2.32 1 3 C2.32 3 3.64 3 5 3 C5 8.61 5 14.22 5 20 C4.67 20 4.34 20 4 20 C4 15.38 4 10.76 4 6 C2.68 6.33 1.36 6.66 0 7 C0 4.69 0 2.38 0 0 Z " fill="#4B4B4B" transform="translate(189,64)"/>
<path d="M0 0 C2.13093906 1.06546953 3.36587557 2.29159719 5 4 C3.73760288 4.86658615 2.46472499 5.71792059 1.1875 6.5625 C0.12595703 7.27599609 0.12595703 7.27599609 -0.95703125 8.00390625 C-3 9 -3 9 -6 8 C-6 7.34 -6 6.68 -6 6 C-6.66 5.67 -7.32 5.34 -8 5 C-6.71475739 4.13619741 -5.42157581 3.28419631 -4.125 2.4375 C-3.04605469 1.72400391 -3.04605469 1.72400391 -1.9453125 0.99609375 C-1.30335937 0.66738281 -0.66140625 0.33867188 0 0 Z " fill="#752073" transform="translate(53,76)"/>
<path d="M0 0 C2.625 0.9375 2.625 0.9375 5 2 C3.90931332 5.77545388 3.0916909 8.47043472 0 11 C-3.04979253 6.73029046 -3.04979253 6.73029046 -2.8125 3.25 C-2 1 -2 1 0 0 Z " fill="#F6ECF4" transform="translate(379,73)"/>
<path d="M0 0 C10.72524662 -0.56229448 10.72524662 -0.56229448 15 3 C15 3.33 15 3.66 15 4 C9.72 4 4.44 4 -1 4 C-0.67 2.68 -0.34 1.36 0 0 Z " fill="#0A0A0A" transform="translate(86,99)"/>
<path d="M0 0 C7.59 0 15.18 0 23 0 C23.33 1.32 23.66 2.64 24 4 C23 5 23 5 20.93359375 5.09765625 C20.10988281 5.08605469 19.28617187 5.07445313 18.4375 5.0625 C17.61121094 5.05347656 16.78492188 5.04445313 15.93359375 5.03515625 C15.29550781 5.02355469 14.65742188 5.01195313 14 5 C14.99 4.67 15.98 4.34 17 4 C17 3.34 17 2.68 17 2 C11.39 1.67 5.78 1.34 0 1 C0 0.67 0 0.34 0 0 Z " fill="#454545" transform="translate(334,64)"/>
<path d="M0 0 C2.4294516 3.6441774 2.16179575 5.71241272 2 10 C0.02 10.66 -1.96 11.32 -4 12 C-3.5317879 7.22423661 -2.75668002 3.95523655 0 0 Z " fill="#101010" transform="translate(267,82)"/>
<path d="M0 0 C0.33 0 0.66 0 1 0 C2.33157895 7.26315789 2.33157895 7.26315789 0.875 10.5 C-1.53922634 12.43138108 -2.98489402 12.3259574 -6 12 C-4.43358249 7.69235185 -2.31663844 3.93828536 0 0 Z " fill="#7F2087" transform="translate(380,82)"/>
<path d="M0 0 C5.61 0 11.22 0 17 0 C16.01 0.495 16.01 0.495 15 1 C15 1.66 15 2.32 15 3 C13.25008666 3.02715383 11.50005055 3.04646551 9.75 3.0625 C8.28820312 3.07990234 8.28820312 3.07990234 6.796875 3.09765625 C4.34241322 3.01195577 2.33831086 2.70706066 0 2 C0 1.34 0 0.68 0 0 Z " fill="#090909" transform="translate(190,65)"/>
<path d="M0 0 C3.79049707 1.42749981 7.27122456 3.16236542 10.8125 5.125 C12.27623047 5.93324219 12.27623047 5.93324219 13.76953125 6.7578125 C14.87361328 7.37269531 14.87361328 7.37269531 16 8 C13 10 13 10 10 10 C10 9.34 10 8.68 10 8 C9.01 8 8.02 8 7 8 C5.62298702 6.71182656 4.29355827 5.37195574 3 4 C1.68441297 2.97676564 0.35622245 1.96873032 -1 1 C-0.67 0.67 -0.34 0.34 0 0 Z " fill="#F7E0F7" transform="translate(52,92)"/>
<path d="M0 0 C0.8214856 2.75197675 1.04631835 3.83402593 0.25 6.6875 C-1 9 -1 9 -4 10 C-5.22520264 13.00847418 -5.22520264 13.00847418 -6 16 C-7.98 16.33 -9.96 16.66 -12 17 C-11.401875 16.62875 -10.80375 16.2575 -10.1875 15.875 C-7.45209678 13.53036867 -6.53655381 11.25749408 -5 8 C-3.38493539 5.30011789 -1.69983686 2.64717678 0 0 Z " fill="#EACBE9" transform="translate(383,87)"/>
<path d="M0 0 C1.98 0 3.96 0 6 0 C6.33 0.66 6.66 1.32 7 2 C6.01 2.99 5.02 3.98 4 5 C4.66 5.66 5.32 6.32 6 7 C5.34 8.32 4.68 9.64 4 11 C4 9.68 4 8.36 4 7 C1.525 6.01 1.525 6.01 -1 5 C-0.67 3.35 -0.34 1.7 0 0 Z " fill="#F2E9F2" transform="translate(65,88)"/>
<path d="M0 0 C0.75732422 0.00966797 1.51464844 0.01933594 2.29492188 0.02929688 C3.08060547 0.05443359 3.86628906 0.07957031 4.67578125 0.10546875 C5.87170898 0.12577148 5.87170898 0.12577148 7.09179688 0.14648438 C9.05758092 0.18179786 11.02301707 0.23560428 12.98828125 0.29296875 C12.98828125 0.62296875 12.98828125 0.95296875 12.98828125 1.29296875 C5.06828125 1.78796875 5.06828125 1.78796875 -3.01171875 2.29296875 C-3.01171875 3.28296875 -3.01171875 4.27296875 -3.01171875 5.29296875 C-3.32592946 7.29606204 -3.65682335 9.29668211 -4.01171875 11.29296875 C-6.25369263 9.51807276 -6.95498198 8.67121386 -7.38671875 5.79296875 C-6.71670723 1.32622529 -4.34833748 -0.0980828 0 0 Z " fill="#454445" transform="translate(87.01171875,63.70703125)"/>
<path d="M0 0 C1.66666667 0 3.33333333 0 5 0 C4.67 2.64 4.34 5.28 4 8 C2.35 8.33 0.7 8.66 -1 9 C-0.67 6.03 -0.34 3.06 0 0 Z " fill="#2C2C2C" transform="translate(262,94)"/>
<path d="M0 0 C0.33 0 0.66 0 1 0 C1 1.98 1 3.96 1 6 C0.34 6 -0.32 6 -1 6 C-1.33 6.99 -1.66 7.98 -2 9 C-4.89558441 10.4477922 -6.74188938 11 -10 11 C-10 11.66 -10 12.32 -10 13 C-11.32 12.67 -12.64 12.34 -14 12 C-13.07316406 11.46890625 -12.14632813 10.9378125 -11.19140625 10.390625 C-9.98138218 9.6777426 -8.77176783 8.96416446 -7.5625 8.25 C-6.95083984 7.90195313 -6.33917969 7.55390625 -5.70898438 7.1953125 C-2.16575556 5.13542695 -2.16575556 5.13542695 -0.08984375 1.734375 C-0.06019531 1.16203125 -0.03054688 0.5896875 0 0 Z " fill="#EACDED" transform="translate(431,83)"/>
<path d="M0 0 C3.465 1.98 3.465 1.98 7 4 C7 4.99 7 5.98 7 7 C3.37 6.01 -0.26 5.02 -4 4 C-2.68 2.68 -1.36 1.36 0 0 Z " fill="#78167D" transform="translate(54,87)"/>
<path d="M0 0 C4.875 4.75 4.875 4.75 6 7 C5.01 7.495 5.01 7.495 4 8 C3.34 8.66 2.68 9.32 2 10 C0.35 7.69 -1.3 5.38 -3 3 C-2.01 3 -1.02 3 0 3 C0 2.01 0 1.02 0 0 Z " fill="#232323" transform="translate(94,83)"/>
<path d="M0 0 C0.99 0 1.98 0 3 0 C3.66 3.3 4.32 6.6 5 10 C3.35 10.33 1.7 10.66 0 11 C0 7.37 0 3.74 0 0 Z " fill="#202020" transform="translate(171,85)"/>
<path d="M0 0 C1.875 2.0625 1.875 2.0625 3 4 C2.67 4.66 2.34 5.32 2 6 C1.01 5.67 0.02 5.34 -1 5 C-1.33 4.01 -1.66 3.02 -2 2 C-4.64 2.33 -7.28 2.66 -10 3 C-9.67 2.01 -9.34 1.02 -9 0 C-5.4314543 -1.18951523 -3.60804584 -0.97717908 0 0 Z " fill="#333333" transform="translate(133,65)"/>
<path d="M0 0 C0.08153933 1.58246707 0.13943557 3.16616273 0.1875 4.75 C0.22230469 5.63171875 0.25710937 6.5134375 0.29296875 7.421875 C-0.05076316 10.44671583 -1.00227459 11.75583602 -3 14 C-3.99 13.01 -4.98 12.02 -6 11 C-5.34 11 -4.68 11 -4 11 C-3.67 10.01 -3.34 9.02 -3 8 C-2.67 7.67 -2.34 7.34 -2 7 C-2.33 7 -2.66 7 -3 7 C-3 5.02 -3 3.04 -3 1 C-1 0 -1 0 0 0 Z " fill="#0F0F0F" transform="translate(140,80)"/>
<path d="M0 0 C0.33 0 0.66 0 1 0 C1.13277344 0.61488281 1.26554687 1.22976562 1.40234375 1.86328125 C1.57894531 2.67152344 1.75554687 3.47976562 1.9375 4.3125 C2.19853516 5.51326172 2.19853516 5.51326172 2.46484375 6.73828125 C2.99886159 9.145401 2.99886159 9.145401 4 12 C2.02 12 0.04 12 -2 12 C-2.33 10.35 -2.66 8.7 -3 7 C-2.34 6.67 -1.68 6.34 -1 6 C-0.34227572 2.97065509 -0.34227572 2.97065509 0 0 Z " fill="#303030" transform="translate(121,81)"/>
<path d="M0 0 C1.07174763 3.65188082 0.76411467 6.26432828 0 10 C-0.99 10 -1.98 10 -3 10 C-3.99 12.31 -4.98 14.62 -6 17 C-6.66 16.67 -7.32 16.34 -8 16 C-6.57250019 12.20950293 -4.83763458 8.72877544 -2.875 5.1875 C-2.33617187 4.21167969 -1.79734375 3.23585938 -1.2421875 2.23046875 C-0.83226562 1.49441406 -0.42234375 0.75835937 0 0 Z " fill="#F3D6F3" transform="translate(392,71)"/>
<path d="M0 0 C2.56616632 3.84924948 2.55097676 6.4349304 3 11 C1.68 10.67 0.36 10.34 -1 10 C-1 10.66 -1 11.32 -1 12 C-3.97 12 -6.94 12 -10 12 C-9.67 11.01 -9.34 10.02 -9 9 C-9 9.66 -9 10.32 -9 11 C-6.69 11 -4.38 11 -2 11 C-2 10.34 -2 9.68 -2 9 C-1.34 9 -0.68 9 0 9 C-0.185625 8.360625 -0.37125 7.72125 -0.5625 7.0625 C-0.706875 6.381875 -0.85125 5.70125 -1 5 C-0.67 4.67 -0.34 4.34 0 4 C0 2.68 0 1.36 0 0 Z " fill="#555555" transform="translate(279,78)"/>
<path d="M0 0 C0.99 0.33 1.98 0.66 3 1 C3 2.65 3 4.3 3 6 C2.01 6.33 1.02 6.66 0 7 C0 6.34 0 5.68 0 5 C-1.32 5.33 -2.64 5.66 -4 6 C-4.66 4.68 -5.32 3.36 -6 2 C-4.7934375 1.7834375 -4.7934375 1.7834375 -3.5625 1.5625 C-1.07896294 1.25864751 -1.07896294 1.25864751 0 0 Z " fill="#F3E3EF" transform="translate(413,97)"/>
<path d="M0 0 C0.91058531 3.07322544 1.08886184 5.80097361 1 9 C-0.65 8.67 -2.3 8.34 -4 8 C-4 6.02 -4 4.04 -4 2 C-2.68 1.34 -1.36 0.68 0 0 Z " fill="#F8F8F5" transform="translate(382,95)"/>
<path d="M0 0 C2.875 0.3125 2.875 0.3125 6 1 C6.66 1.99 7.32 2.98 8 4 C6.02 4.99 4.04 5.98 2 7 C2 6.01 2 5.02 2 4 C1.01 4.33 0.02 4.66 -1 5 C-0.67 3.35 -0.34 1.7 0 0 Z M2 2 C3 4 3 4 3 4 Z " fill="#F7E6F7" transform="translate(417,81)"/>
<path d="M0 0 C-0.3125 2.375 -0.3125 2.375 -1 5 C-4 7 -4 7 -6.6875 6.625 C-7.450625 6.41875 -8.21375 6.2125 -9 6 C-9 5.01 -9 4.02 -9 3 C-7.35 3 -5.7 3 -4 3 C-4 2.34 -4 1.68 -4 1 C-2 0 -2 0 0 0 Z " fill="#181818" transform="translate(105,96)"/>
<path d="M0 0 C0.99 0.33 1.98 0.66 3 1 C2.8125 2.875 2.8125 2.875 2 5 C-0.5625 6.25 -0.5625 6.25 -3 7 C-3.33 5.68 -3.66 4.36 -4 3 C-2.1875 1.4375 -2.1875 1.4375 0 0 Z " fill="#6F1E6B" transform="translate(411,93)"/>
<path d="M0 0 C2.97 0.495 2.97 0.495 6 1 C5.67 2.65 5.34 4.3 5 6 C3.68 6.33 2.36 6.66 1 7 C1 6.34 1 5.68 1 5 C0.34 4.67 -0.32 4.34 -1 4 C-0.34 4 0.32 4 1 4 C0.67 2.68 0.34 1.36 0 0 Z " fill="#760B72" transform="translate(425,82)"/>
<path d="M0 0 C1.9375 0.625 1.9375 0.625 4 2 C4.99184231 5.58589143 5.18429132 7.44712603 4 11 C3.01 10.67 2.02 10.34 1 10 C-0.1577506 6.52674819 -0.06866652 3.63932552 0 0 Z " fill="#141414" transform="translate(275,76)"/>
<path d="M0 0 C1.32 0.66 2.64 1.32 4 2 C4 2.99 4 3.98 4 5 C3.34 5 2.68 5 2 5 C1.67 5.66 1.34 6.32 1 7 C0.34 6.34 -0.32 5.68 -1 5 C-1.99 6.32 -2.98 7.64 -4 9 C-3.6875 5.625 -3.6875 5.625 -3 2 C-2.01 1.34 -1.02 0.68 0 0 Z " fill="#303030" transform="translate(275,73)"/>
<path d="M0 0 C0.93423645 3.01031744 1.04449911 3.86650268 0 7 C0.66 7 1.32 7 2 7 C2.33 8.65 2.66 10.3 3 12 C1.35 12 -0.3 12 -2 12 C-1.85831863 10.56208484 -1.71148957 9.1246763 -1.5625 7.6875 C-1.48128906 6.88699219 -1.40007812 6.08648437 -1.31640625 5.26171875 C-1 3 -1 3 0 0 Z " fill="#3F3F3F" transform="translate(155,91)"/>
<path d="M0 0 C0.33 0.99 0.66 1.98 1 3 C-0.98 3.99 -0.98 3.99 -3 5 C-2.01 5.33 -1.02 5.66 0 6 C-0.99 6.99 -1.98 7.98 -3 9 C-3.99 8.67 -4.98 8.34 -6 8 C-6.6875 5.9375 -6.6875 5.9375 -7 4 C-4.69 2.68 -2.38 1.36 0 0 Z " fill="#802D83" transform="translate(419,88)"/>
<path d="M0 0 C0.66 0 1.32 0 2 0 C1.51812367 4.57782516 1.51812367 4.57782516 -0.6875 6.375 C-3.71097581 7.19215562 -5.97747444 6.68693763 -9 6 C-6 4 -6 4 -3.375 3 C-0.84860062 2.23952738 -0.84860062 2.23952738 0 0 Z " fill="#F8F8F3" transform="translate(430,89)"/>
<path d="M0 0 C-2.36292656 2.52588702 -3.66462511 3.88820837 -7 5 C-7.33 4.34 -7.66 3.68 -8 3 C-8.66 3 -9.32 3 -10 3 C-10 2.34 -10 1.68 -10 1 C-3.71428571 -1.42857143 -3.71428571 -1.42857143 0 0 Z " fill="#F3FCF2" transform="translate(411,89)"/>
<path d="M0 0 C1.32 0 2.64 0 4 0 C3.5206753 4.31392226 2.2542015 6.16569547 -1 9 C-1.09765625 2.84765625 -1.09765625 2.84765625 -1 1 C-0.67 0.67 -0.34 0.34 0 0 Z " fill="#6D136F" transform="translate(382,80)"/>
<path d="M0 0 C2.29633824 3.44450737 2.54016485 5.93812283 3 10 C1.35 10 -0.3 10 -2 10 C-2.33 8.68 -2.66 7.36 -3 6 C-2.34 5.67 -1.68 5.34 -1 5 C-0.34 5.33 0.32 5.66 1 6 C0.67 4.02 0.34 2.04 0 0 Z " fill="#313131" transform="translate(170,74)"/>
<path d="M0 0 C0.66 1.32 1.32 2.64 2 4 C2.33 3.01 2.66 2.02 3 1 C3.66 1 4.32 1 5 1 C3.92598892 3.91517292 3.22189824 5.77810176 1 8 C0.34 8 -0.32 8 -1 8 C-1 7.34 -1 6.68 -1 6 C-1.66 5.67 -2.32 5.34 -3 5 C-2.01 3.35 -1.02 1.7 0 0 Z " fill="#852E87" transform="translate(385,74)"/>
<path d="M0 0 C0.680625 0.7425 1.36125 1.485 2.0625 2.25 C5.03073132 5.24381953 8.28714872 7.03437285 12 9 C8.35839192 10.21386936 7.66834531 9.6674695 4.3125 8.0625 C3.50425781 7.68222656 2.69601562 7.30195312 1.86328125 6.91015625 C0.94095703 6.45962891 0.94095703 6.45962891 0 6 C0 4.02 0 2.04 0 0 Z " fill="#F5D5F5" transform="translate(406,70)"/>
<path d="M0 0 C0.99 0.66 1.98 1.32 3 2 C2.67 2.66 2.34 3.32 2 4 C1.01 4 0.02 4 -1 4 C-1 8.29 -1 12.58 -1 17 C-1.33 17 -1.66 17 -2 17 C-2.04898437 16.08476563 -2.09796875 15.16953125 -2.1484375 14.2265625 C-2.22320312 13.03804687 -2.29796875 11.84953125 -2.375 10.625 C-2.44460938 9.44164063 -2.51421875 8.25828125 -2.5859375 7.0390625 C-2.70217346 3.89437681 -2.70217346 3.89437681 -5 2 C-3.35 2 -1.7 2 0 2 C0 1.34 0 0.68 0 0 Z " fill="#414141" transform="translate(319,66)"/>
<path d="M0 0 C0.33 0 0.66 0 1 0 C1.04125 0.7425 1.0825 1.485 1.125 2.25 C2.34857383 6.09551776 4.59346582 7.04305483 8 9 C5 10 5 10 2.4375 9.25 C0 8 0 8 -2 5 C-1.125 2.3125 -1.125 2.3125 0 0 Z " fill="#E9CEEA" transform="translate(44,82)"/>
<path d="M0 0 C3.875 0.875 3.875 0.875 5 2 C5.04063832 3.66617115 5.042721 5.33388095 5 7 C3.68 6.67 2.36 6.34 1 6 C0.4465236 3.92446352 0 2.15634036 0 0 Z " fill="#151515" transform="translate(89,79)"/>
<path d="M0 0 C0.99 0.33 1.98 0.66 3 1 C3 2.32 3 3.64 3 5 C-2.28 4.67 -7.56 4.34 -13 4 C-13 3.67 -13 3.34 -13 3 C-9.37 3 -5.74 3 -2 3 C-2 2.34 -2 1.68 -2 1 C-1.34 0.67 -0.68 0.34 0 0 Z " fill="#1E1E1E" transform="translate(207,65)"/>
<path d="M0 0 C0.99 0 1.98 0 3 0 C3 0.99 3 1.98 3 3 C4.65 3.33 6.3 3.66 8 4 C8.33 5.32 8.66 6.64 9 8 C5.37 6.02 1.74 4.04 -2 2 C-1.34 1.34 -0.68 0.68 0 0 Z " fill="#F3D7F3" transform="translate(419,72)"/>
<path d="M0 0 C1.98 0 3.96 0 6 0 C6 0.66 6 1.32 6 2 C6.66 2 7.32 2 8 2 C8.33 3.32 8.66 4.64 9 6 C5.06326356 4.68775452 2.77280706 3.08089673 0 0 Z " fill="#801C7C" transform="translate(407,72)"/>
<path d="M0 0 C1.2065625 0.0309375 1.2065625 0.0309375 2.4375 0.0625 C2.4375 1.7125 2.4375 3.3625 2.4375 5.0625 C0.7875 4.7325 -0.8625 4.4025 -2.5625 4.0625 C-2.8925 3.0725 -3.2225 2.0825 -3.5625 1.0625 C-2.5625 0.0625 -2.5625 0.0625 0 0 Z " fill="#73276D" transform="translate(66.5625,94.9375)"/>
<path d="M0 0 C2.475 0.495 2.475 0.495 5 1 C4.95875 1.928125 4.9175 2.85625 4.875 3.8125 C4.72863661 7.15809719 4.72863661 7.15809719 7 10 C3.78634109 8.89184175 3.0085776 8.01470446 1.25 5 C0 2 0 2 0 0 Z " fill="#121212" transform="translate(120,92)"/>
<path d="M0 0 C3.625 -0.1875 3.625 -0.1875 7 0 C7 0.99 7 1.98 7 3 C4.03 3 1.06 3 -2 3 C-1.34 2.01 -0.68 1.02 0 0 Z " fill="#0F0F0F" transform="translate(164,91)"/>
<path d="M0 0 C0 1.32 0 2.64 0 4 C-3.3 4.66 -6.6 5.32 -10 6 C-2.6 0 -2.6 0 0 0 Z " fill="#ECCEEB" transform="translate(68,74)"/>
<path d="M0 0 C0.99 0.66 1.98 1.32 3 2 C1.25 5.875 1.25 5.875 -1 7 C-1.66 5.02 -2.32 3.04 -3 1 C-2.01 0.67 -1.02 0.34 0 0 Z " fill="#1B1B1B" transform="translate(135,71)"/>
<path d="M0 0 C0.33 0 0.66 0 1 0 C1 2.97 1 5.94 1 9 C-0.32 9 -1.64 9 -3 9 C-2.44271087 5.65626525 -1.64826111 2.96687001 0 0 Z " fill="#0C0C0C" transform="translate(163,72)"/>
<path d="M0 0 C1.32 0.33 2.64 0.66 4 1 C4.33 2.32 4.66 3.64 5 5 C3.02 5.99 3.02 5.99 1 7 C0.67 4.69 0.34 2.38 0 0 Z " fill="#F7ECF5" transform="translate(48,72)"/>
<path d="M0 0 C0.5534764 2.07553648 1 3.84365964 1 6 C1.66 6 2.32 6 3 6 C3 6.99 3 7.98 3 9 C1.35 9.33 -0.3 9.66 -2 10 C-1.54177532 6.53058454 -1.10868317 3.32604951 0 0 Z " fill="#383838" transform="translate(265,84)"/>
<path d="M0 0 C-3.19990508 2.74277578 -6.00499382 4.6302836 -10 6 C-8.26240984 0.78722952 -5.3189028 -0.4432419 0 0 Z " fill="#F5CFF6" transform="translate(64,70)"/>
<path d="M0 0 C0.66 0.33 1.32 0.66 2 1 C1.2884375 2.0828125 1.2884375 2.0828125 0.5625 3.1875 C-0.94152903 5.89475226 -1.56599182 7.96194275 -2 11 C-2.66 10.67 -3.32 10.34 -4 10 C-4.25 7.25 -4.25 7.25 -4 4 C-2 1.625 -2 1.625 0 0 Z " fill="#F6E1F6" transform="translate(372,93)"/>
<path d="M0 0 C0 0.99 0 1.98 0 3 C-2.64 2.67 -5.28 2.34 -8 2 C-6.14210462 -1.71579076 -3.44525918 -1.06921837 0 0 Z " fill="#272727" transform="translate(358,100)"/>
<path d="M0 0 C3.77545388 1.09068668 6.47043472 1.9083091 9 5 C7.68 5 6.36 5 5 5 C5 4.34 5 3.68 5 3 C3.02 3 1.04 3 -1 3 C-0.67 2.01 -0.34 1.02 0 0 Z " fill="#70236C" transform="translate(408,69)"/>
<path d="M0 0 C0.93065133 2.60582371 1.14917407 3.64198224 0.0625 6.25 C-0.4634375 7.11625 -0.4634375 7.11625 -1 8 C-1.66 7.67 -2.32 7.34 -3 7 C-3 6.01 -3 5.02 -3 4 C-4.32 4 -5.64 4 -7 4 C-7 3.34 -7 2.68 -7 2 C-4.69 1.34 -2.38 0.68 0 0 Z " fill="#EFD9F0" transform="translate(71,66)"/>
<path d="M0 0 C1.98 0.495 1.98 0.495 4 1 C2.68 3.64 1.36 6.28 0 9 C-1.15941038 5.52176885 -0.70820884 3.54104422 0 0 Z " fill="#F2DEF4" transform="translate(386,65)"/>
<path d="M0 0 C1.98 0.495 1.98 0.495 4 1 C3.67 2.32 3.34 3.64 3 5 C1.68 5 0.36 5 -1 5 C-0.67 3.35 -0.34 1.7 0 0 Z " fill="#323232" transform="translate(81,94)"/>
<path d="M0 0 C2.14210449 1.76956458 2.96060573 2.87575652 3.8125 5.5625 C3.874375 6.366875 3.93625 7.17125 4 8 C3.34 8.66 2.68 9.32 2 10 C0.4375 8.375 0.4375 8.375 -1 6 C-0.6875 2.75 -0.6875 2.75 0 0 Z " fill="#2B2B2B" transform="translate(267,77)"/>
<path d="M0 0 C0.66 0 1.32 0 2 0 C2 0.66 2 1.32 2 2 C2.66 2 3.32 2 4 2 C3.67 2.99 3.34 3.98 3 5 C1.68 5 0.36 5 -1 5 C-0.67 3.35 -0.34 1.7 0 0 Z " fill="#6B326F" transform="translate(371,98)"/>
<path d="M0 0 C2.97 0.495 2.97 0.495 6 1 C5.67 2.65 5.34 4.3 5 6 C3.31237149 4.3545622 1.6459651 2.68711423 0 1 C0 0.67 0 0.34 0 0 Z " fill="#E8E8E8" transform="translate(89,75)"/>
<path d="M0 0 C1.9375 0.6875 1.9375 0.6875 4 2 C4.75 4.625 4.75 4.625 5 7 C4.01 7 3.02 7 2 7 C1.34 4.69 0.68 2.38 0 0 Z " fill="#292929" transform="translate(100,65)"/>
<path d="M0 0 C2.99324263 1.0975223 3.84610901 1.67682892 5.25 4.625 C5.4975 5.40875 5.745 6.1925 6 7 C4.68 6.67 3.36 6.34 2 6 C2 5.01 2 4.02 2 3 C1.34 3 0.68 3 0 3 C0 2.01 0 1.02 0 0 Z " fill="#161616" transform="translate(98,66)"/>
<path d="M0 0 C2.51083114 1.25541557 2.87125446 2.50063488 4 5 C3.01 5.495 3.01 5.495 2 6 C1.01 5.67 0.02 5.34 -1 5 C-1 4.34 -1 3.68 -1 3 C-1.66 2.67 -2.32 2.34 -3 2 C-2.01 1.34 -1.02 0.68 0 0 Z " fill="#8E2F8F" transform="translate(48,79)"/>
<path d="M0 0 C0.433125 0.9590625 0.433125 0.9590625 0.875 1.9375 C1.82823451 4.15206079 1.82823451 4.15206079 4 5 C3.34 5.66 2.68 6.32 2 7 C2 6.34 2 5.68 2 5 C0.68 5.33 -0.64 5.66 -2 6 C-1.34 4.02 -0.68 2.04 0 0 Z " fill="#2C2C2C" transform="translate(121,71)"/>
<path d="M0 0 C0.99 0.33 1.98 0.66 3 1 C2.8125 2.875 2.8125 2.875 2 5 C-0.5625 6.25 -0.5625 6.25 -3 7 C-3 6.34 -3 5.68 -3 5 C-2.34 4.67 -1.68 4.34 -1 4 C-0.34786708 1.97536745 -0.34786708 1.97536745 0 0 Z " fill="#621D60" transform="translate(66,69)"/>
<path d="M0 0 C1.65 0 3.3 0 5 0 C5.33 0.66 5.66 1.32 6 2 C5.67 2.66 5.34 3.32 5 4 C3.35 3.67 1.7 3.34 0 3 C0 2.01 0 1.02 0 0 Z " fill="#EBFCEB" transform="translate(422,72)"/>
<path d="M0 0 C0.33 1.32 0.66 2.64 1 4 C0.01 4.33 -0.98 4.66 -2 5 C-2.33 5.99 -2.66 6.98 -3 8 C-3 6 -3 4 -3 2 C-2.01 1.34 -1.02 0.68 0 0 Z " fill="#791F7B" transform="translate(65,69)"/>
<path d="M0 0 C0.66 0.66 1.32 1.32 2 2 C4.65537372 2.56520003 7.29144713 2.73788198 10 3 C10 3.33 10 3.66 10 4 C3.375 5 3.375 5 0 5 C0 3.35 0 1.7 0 0 Z " fill="#E6E6E6" transform="translate(332,66)"/>
<path d="M0 0 C0.99 0 1.98 0 3 0 C3 1.32 3 2.64 3 4 C1.35 4.66 -0.3 5.32 -2 6 C-1.34 4.02 -0.68 2.04 0 0 Z " fill="#751C6E" transform="translate(390,65)"/>
<path d="M0 0 C0.639375 0.2475 1.27875 0.495 1.9375 0.75 C2.2675 1.74 2.5975 2.73 2.9375 3.75 C1.9475 4.08 0.9575 4.41 -0.0625 4.75 C-1.3825 3.43 -2.7025 2.11 -4.0625 0.75 C-2.0625 -0.25 -2.0625 -0.25 0 0 Z " fill="#85208C" transform="translate(424.0625,86.25)"/>
<path d="M0 0 C0.99 0.99 1.98 1.98 3 3 C3 6 3 6 1.625 7.6875 C0 9 0 9 -2 9 C-1.34 6.03 -0.68 3.06 0 0 Z " fill="#363636" transform="translate(136,82)"/>
<path d="M0 0 C0.33 0 0.66 0 1 0 C1.33 2.31 1.66 4.62 2 7 C1.01 7 0.02 7 -1 7 C-2 4 -2 4 -1.0625 1.8125 C-0.5365625 0.9153125 -0.5365625 0.9153125 0 0 Z " fill="#F1F4F2" transform="translate(374,84)"/>
</svg>
