<!DOCTYPE svg PUBLIC "-//W3C//DTD SVG 1.1//EN" "http://www.w3.org/Graphics/SVG/1.1/DTD/svg11.dtd">
<!-- Uploaded to: SVG Repo, www.svgrepo.com, Transformed by: SVG Repo Mixer Tools -->
<svg width="64px" height="64px" viewBox="0 0 1024 1024" class="icon" version="1.1" xmlns="http://www.w3.org/2000/svg" fill="#000000">
<g id="SVGRepo_bgCarrier" stroke-width="0"/>
<g id="SVGRepo_tracerCarrier" stroke-linecap="round" stroke-linejoin="round"/>
<g id="SVGRepo_iconCarrier">
<path d="M511.891456 928.549888c229.548032 0 415.634432-186.0864 415.634432-415.634432C927.525888 283.3664 741.439488 97.28 511.890432 97.28 282.343424 97.28 96.258048 283.3664 96.258048 512.915456c0 229.548032 186.084352 415.634432 415.634432 415.634432" fill="#FFF200"/>
<path d="M436.571136 707.376128l330.3936-330.3936c5.506048-5.507072 8.571904-12.803072 8.633344-20.544512 0.060416-7.85408-2.961408-15.235072-8.511488-20.784128 0.001024-0.012288-0.001024-0.002048-0.001024-0.002048l-0.001024-0.001024c-5.410816-5.409792-12.978176-8.489984-20.687872-8.460288-7.810048 0.032768-15.13984 3.081216-20.640768 8.58112l-309.11488 309.116928-94.99648-94.998528c-5.501952-5.501952-12.833792-8.5504-20.642816-8.58112h-0.115712c-7.69536 0-15.186944 3.08224-20.569088 8.465408-11.360256 11.36128-11.307008 29.899776 0.118784 41.325568l109.924352 109.924352a29.017088 29.017088 0 0 0 4.883456 6.474752c5.658624 5.6576 13.095936 8.482816 20.550656 8.481792a29.31712 29.31712 0 0 0 20.77696-8.604672M511.891456 97.28C282.3424 97.28 96.256 283.3664 96.256 512.915456s186.0864 415.634432 415.635456 415.634432c229.548032 0 415.634432-186.085376 415.634432-415.634432C927.525888 283.365376 741.439488 97.28 511.891456 97.28m0 40.96c50.597888 0 99.661824 9.901056 145.82784 29.427712 44.61056 18.868224 84.683776 45.889536 119.10656 80.31232 34.422784 34.422784 61.444096 74.496 80.313344 119.107584 19.525632 46.164992 29.426688 95.228928 29.426688 145.82784s-9.901056 99.662848-29.426688 145.82784c-18.869248 44.61056-45.89056 84.6848-80.313344 119.107584s-74.496 61.443072-119.10656 80.31232c-46.166016 19.526656-95.229952 29.426688-145.82784 29.426688-50.598912 0-99.662848-9.900032-145.828864-29.426688-44.61056-18.869248-84.683776-45.889536-119.10656-80.31232-34.422784-34.422784-61.444096-74.497024-80.313344-119.107584C147.117056 612.57728 137.216 563.514368 137.216 512.915456s9.901056-99.662848 29.426688-145.82784c18.869248-44.611584 45.89056-84.6848 80.313344-119.107584s74.496-61.444096 119.10656-80.31232C412.228608 148.140032 461.292544 138.24 511.891456 138.24" fill="#000000"/>
</g>
</svg>